0
SECTION
2
HEADER
9
$INSUNITS
70
4
9
$ACADVER
1
AC1014
9
$HANDSEED
5
FFFF
0
ENDSEC
0
SECTION
2
TABLES
0
TABLE
2
VPORT
5
8
100
AcDbSymbolTable
0
ENDTAB
0
TABLE
2
LTYPE
5
5
100
AcDbSymbolTable
0
LTYPE
5
14
100
AcDbSymbolTableRecord
100
AcDbLinetypeTableRecord
2
BYBLOCK
70
0
0
LTYPE
5
15
100
AcDbSymbolTableRecord
100
AcDbLinetypeTableRecord
2
BYLAYER
70
0
0
ENDTAB
0
TABLE
2
LAYER
5
2
100
AcDbSymbolTable
70
2
0
LAYER
5
50
100
AcDbSymbolTableRecord
100
AcDbLayerTableRecord
2
0
70
0
6
CONTINUOUS
0
ENDTAB
0
TABLE
2
STYLE
5
3
100
AcDbSymbolTable
70
1
0
STYLE
5
11
100
AcDbSymbolTableRecord
100
AcDbTextStyleTableRecord
2
STANDARD
70
0
0
ENDTAB
0
TABLE
2
VIEW
5
6
100
AcDbSymbolTable
70
0
0
ENDTAB
0
TABLE
2
UCS
5
7
100
AcDbSymbolTable
70
0
0
ENDTAB
0
TABLE
2
APPID
5
9
100
AcDbSymbolTable
70
2
0
APPID
5
12
100
AcDbSymbolTableRecord
100
AcDbRegAppTableRecord
2
ACAD
70
0
0
ENDTAB
0
TABLE
2
DIMSTYLE
5
A
100
AcDbSymbolTable
70
1
0
ENDTAB
0
TABLE
2
BLOCK_RECORD
5
1
100
AcDbSymbolTable
70
1
0
BLOCK_RECORD
5
1F
100
AcDbSymbolTableRecord
100
AcDbBlockTableRecord
2
*MODEL_SPACE
0
BLOCK_RECORD
5
1B
100
AcDbSymbolTableRecord
100
AcDbBlockTableRecord
2
*PAPER_SPACE
0
ENDTAB
0
ENDSEC
0
SECTION
2
BLOCKS
0
BLOCK
5
20
100
AcDbEntity
100
AcDbBlockBegin
2
*MODEL_SPACE
0
ENDBLK
5
21
100
AcDbEntity
100
AcDbBlockEnd
0
BLOCK
5
1C
100
AcDbEntity
100
AcDbBlockBegin
2
*PAPER_SPACE
0
ENDBLK
5
1D
100
AcDbEntity
100
AcDbBlockEnd
0
ENDSEC
0
SECTION
2
ENTITIES
0
LWPOLYLINE
5
100
100
AcDbEntity
8
0
100
AcDbPolyline
90
120
70
1
43
0.0
10
-9.3250000000080036
20
20.974999618538277
10
-9.3250000000060851
20
22.224999999998545
42
-0.41421356237309503
10
-8.3250000000066393
20
23.224999999997991
10
-6.6318542500107478
20
23.224999999999675
42
-0.19891227312193607
10
-4.5105335235642405
20
22.346320343019819
10
-1.8036796564442172
20
19.639466475904616
42
-0.19891236738007592
10
-0.92500000000093563
20
17.518146132342736
10
-0.92500000000448668
20
12.481853867664086
42
-0.19891236737993651
10
-1.8036796564455901
20
10.360533524105858
10
-4.5105339100074948
20
7.6536796600009325
42
-0.19891232348220189
10
-6.6318542480485121
20
6.7749999046356173
10
-8.3250000000066393
20
6.7750000000047805
42
-0.41421353443998199
10
-9.3250000000078579
20
7.7749999046363882
10
-9.3250000000041169
20
9.0249999999991815
42
-0.41421371665021306
10
-9.0250007629424545
20
9.3249996185348536
10
-8.2250000000021828
20
9.3249999999989086
42
0.41421337616789078
10
-7.9250000000024459
20
9.6249998092730493
10
-7.9250000000070031
20
11.024999999999636
42
0.4142136202285987
10
-8.72499923706755
20
11.824999618534155
10
-9.8250000000075488
20
11.824999999998909
42
0.41421367409822724
10
-10.825000000001381
20
10.824999618537277
10
-10.825000000006639
20
2.9999999999995453
42
0.41421356237154106
10
-7.8250000000070941
20
2.7006175074006933e-12
10
-3.3087224502121107e-23
20
0
42
0.41421383211191237
10
0.99999961852475605
20
0.99999999999909095
10
0.99999999999909106
20
2.1000000000003638
42
0.41421342270836775
10
0.20000038146690696
20
2.90000000000324
10
-1.1999999999989093
20
2.900000000006457
42
0.41421191837031601
10
-1.5000003814741869
20
2.6000007629431821
10
-1.4999999999972857
20
1.8000000000006371
42
-0.41421318994495254
10
-1.7999996185335481
20
1.4999999999998026
10
-3.0500000000074579
20
1.5000000000044271
42
-0.41421383211058038
10
-4.0499996185334926
20
2.4999999999999996
10
-4.0500000000024787
20
4.1931457500004399
42
-0.19891227312265625
10
-3.1713203430166512
20
6.3144664764439584
10
-0.46446647590371648
20
9.0213203435617082
42
-0.19891236738086374
10
1.6568538676597198
20
9.9000000000018673
10
6.693146132331548
20
9.9000000000018691
42
-0.19891236738066673
10
8.8144664758927114
20
9.02132034356171
10
11.521320339994821
20
6.3144660900060856
42
-0.19891232348340765
10
12.400000095364071
20
4.1931457519513069
10
12.399999999999949
20
2.5
42
-0.4142135344406479
10
11.400000095366067
20
1.4999999999987823
10
10.150000000001
20
1.5000000000017417
42
-0.414213716643554
10
9.8500003814645467
20
1.799999237066459
10
9.8499999999967258
20
2.6000000000067298
42
0.41421337615013176
10
9.5500001907339538
20
2.9000000000077462
10
8.149999999998272
20
2.900000000006457
42
0.41421362022443647
10
7.3500003814652439
20
2.1000007629436368
10
7.3499999999921783
20
0.99999999999909106
42
0.41421367410022525
10
8.3500003814674528
20
1.2106982083537332e-12
10
16.174999999991542
20
0
42
0.41421356237242901
10
19.174999999995208
20
2.9999999999995448
10
19.174999999993361
20
10.824999999999818
42
0.41421383211657387
10
18.174999999991996
20
11.824999618530898
10
17.074999999992997
20
11.824999999998909
42
0.41421342271003253
10
16.274999999994954
20
11.025000381478094
10
16.274999999998272
20
9.6249999999986358
42
0.41421191837253724
10
16.574999237059274
20
9.3249996185350099
10
17.374999999999545
20
9.3250000000017526
42
-0.41421318994273221
10
17.674999999999599
20
9.0250003814776392
10
17.674999999998526
20
7.7750000000060027
42
-0.41421383211657387
10
16.674999999993361
20
6.7750003814726503
10
14.981854249995196
20
6.7750000000025974
42
-0.19891227312150844
10
12.860533523555508
20
7.6536796569870003
10
10.153679656437998
20
10.360533524106994
42
-0.19891236737979731
10
9.2749999999980304
20
12.481853867664086
10
9.2749999999944794
20
17.518146132342736
42
-0.19891236737993662
10
10.153679656436623
20
19.639466475903475
10
12.860533909996491
20
22.346320340001341
42
-0.19891232348256199
10
14.981854248039781
20
23.225000095371207
10
16.674999999993361
20
23.224999999999767
42
-0.41421353444197984
10
17.675000000003674
20
22.225000095370433
10
17.674999999997159
20
20.974999999998545
42
-0.41421371664355339
10
17.37500076293145
20
20.675000381470191
10
16.574999999991178
20
20.675000000001091
42
0.41421337614569209
10
16.274999999999256
20
20.375000190736046
10
16.274999999998272
20
18.975000000007185
42
0.41421362022526892
10
17.074999237058819
20
18.175000381473161
10
18.174999999991996
20
18.175000000001091
42
0.41421367410155707
10
19.174999999996697
20
19.175000381471818
10
19.174999999993361
20
26.999999999998181
42
0.41421356237309503
10
16.174999999991542
20
30.000000000001847
10
8.3499999999980901
20
30
42
0.4142138321159079
10
7.3500003814687869
20
28.999999999998636
10
7.3499999999921783
20
27.899999999999636
42
0.41421342270836764
10
8.1499996185311829
20
27.100000000003082
10
9.5500000000015461
20
27.100000000000364
42
0.41421191836587762
10
9.850000381466451
20
27.399999237063639
10
9.8499999999943828
20
28.199999999999363
42
-0.41421318995605144
10
10.149999618531638
20
28.500000000003464
10
11.399999999998727
20
28.500000000000121
42
-0.41421383211191215
10
12.399999618524761
20
27.5
10
12.399999999995313
20
25.806854250001834
42
-0.19891227312100893
10
11.521320343016592
20
23.68553352356556
10
8.8144664758967188
20
20.978679656443383
42
-0.19891236738038834
10
6.6931461323315489
20
20.100000000002893
10
1.65685386765972
20
20.100000000002893
42
-0.19891236738058524
10
-0.46446647590772216
20
20.978679656443383
10
-3.1713203400068442
20
23.685533910006541
42
-0.19891232348245649
10
-4.0500000953710229
20
25.806854248050968
10
-4.0500000000069036
20
27.5
42
-0.41421353444397774
10
-3.0500000953702511
20
28.500000000006263
10
-1.7999999999983629
20
28.500000000002025
42
-0.41421371663467393
10
-1.5000003814740586
20
28.20000076294491
10
-1.499999999998636
20
27.399999999997817
42
0.41421337614791243
10
-1.2000001907426849
20
27.099999999996804
10
0.19999999999299689
20
27.100000000000364
42
0.41421362022360397
10
0.99999961852829911
20
27.899999237063184
10
0.99999999999909106
20
28.999999999998636
42
0.41421367410022519
10
-3.8146936292722569e-07
20
30.000000000003336
10
-7.8250000000070941
20
30
42
0.41421356237220708
10
-10.825000000001666
20
26.999999999998181
10
-10.825000000006639
20
19.175000000000182
42
0.41421383210924828
10
-9.8250000000075488
20
18.175000381474643
10
-8.725000000001728
20
18.175000000001091
42
0.41421342271419481
10
-7.9250000000014094
20
18.974999618537822
10
-7.9250000000070031
20
20.374999999999091
42
0.41421191838363658
10
-8.2249992370680047
20
20.67500038147131
10
-9.0250000000082764
20
20.674999999998576
42
-0.41421318994939182
0
LWPOLYLINE
5
101
100
AcDbEntity
8
0
100
AcDbPolyline
90
8
70
1
43
0.0
10
-9.3250000000048061
20
24.949999999998909
42
0.4142135623597758
10
-9.0250000000082764
20
24.650000000006926
10
-5.7750007629419997
20
24.649999618528419
42
0.41421340809888352
10
-5.4749999999990004
20
24.949999999998909
10
-5.4749996185333236
20
28.20000076294491
42
0.41421191837253724
10
-5.7750000000032742
20
28.499999999999091
10
-7.8250000000070941
20
28.500000000001791
42
0.41421356237131918
10
-9.3250000000080036
20
26.999999999998181
0
LWPOLYLINE
5
102
100
AcDbEntity
8
0
100
AcDbPolyline
90
8
70
1
43
0.0
10
-9.0250000000082764
20
5.3500000000072134
42
0.41421356237975465
10
-9.3250000000075772
20
5.0500000000010914
10
-9.3250000000016087
20
2.9999999999995448
42
0.41421356236998697
10
-7.8250000000070941
20
1.499999999998636
10
-5.7750007629419997
20
1.5000000000037983
42
0.41421430722745572
10
-5.4749999999990004
20
1.8000000000006371
10
-5.4749996185317897
20
5.0499992370623659
42
0.41421340810554313
10
-5.7750000000032742
20
5.3499999999985448
0
LWPOLYLINE
5
103
100
AcDbEntity
8
0
100
AcDbPolyline
90
8
70
1
43
0.0
10
13.825000000000784
20
1.8000000000006371
42
0.4142135623642158
10
14.125000000001364
20
1.5000000000046052
10
16.174999999991542
20
1.500000000002758
42
0.41421356237176293
10
17.674999999992451
20
2.9999999999995448
10
17.674999999999653
20
5.0499992370623659
42
0.41421430723855479
10
17.374999999999545
20
5.3499999999985448
10
14.124999809257588
20
5.350000381471415
42
0.41421247701973318
10
13.825000000001637
20
5.0500000000010914
0
LWPOLYLINE
5
104
100
AcDbEntity
8
0
100
AcDbPolyline
90
8
70
1
43
0.0
10
14.125000000001364
20
28.499999999999943
42
0.4142135623708752
10
13.824999999998511
20
28.199999999999363
10
13.825000095366285
20
24.950000762944455
42
0.4142145320258368
10
14.125000000001364
20
24.649999999999181
10
17.375000047682079
20
24.649999618532764
42
0.41421261668267662
10
17.674999999992451
20
24.949999999998909
10
17.674999999995151
20
26.999999999998181
42
0.41421356237309503
10
16.174999999991542
20
28.499999999999091
0
CIRCLE
5
105
100
AcDbEntity
8
0
100
AcDbCircle
10
4.1749999999933607
20
15
30
0
40
2.4499999999996191
210
0
220
0
230
1
0
LWPOLYLINE
5
106
100
AcDbEntity
8
0
100
AcDbPolyline
90
120
70
1
43
0.0
10
-9.3250000000080036
20
20.974999618538277
10
-9.3250000000060851
20
22.224999999998545
42
-0.41421356237309503
10
-8.3250000000066393
20
23.224999999997991
10
-6.6318542500107478
20
23.224999999999675
42
-0.19891227312193607
10
-4.5105335235642405
20
22.346320343019819
10
-1.8036796564442172
20
19.639466475904616
42
-0.19891236738007592
10
-0.92500000000093563
20
17.518146132342736
10
-0.92500000000448723
20
12.481853867664086
42
-0.19891236737993651
10
-1.8036796564455906
20
10.360533524105858
10
-4.5105339100074948
20
7.6536796600009325
42
-0.19891232348220189
10
-6.6318542480485121
20
6.7749999046356173
10
-8.3250000000066393
20
6.7750000000047805
42
-0.41421353443998199
10
-9.3250000000078579
20
7.7749999046363882
10
-9.3250000000041151
20
9.0249999999991815
42
-0.41421371665021306
10
-9.0250007629424545
20
9.3249996185348536
10
-8.2250000000021828
20
9.3249999999989086
42
0.41421337616789727
10
-7.9250000000024468
20
9.6249998092730493
10
-7.9250000000070031
20
11.024999999999636
42
0.41421362022859992
10
-8.72499923706755
20
11.824999618534155
10
-9.8250000000075488
20
11.824999999998909
42
0.41421367409822596
10
-10.825000000001381
20
10.824999618537277
10
-10.825000000006639
20
2.9999999999995453
42
0.41421356237154144
10
-7.8250000000070941
20
2.7011726189130059e-12
10
-3.3087224502121107e-23
20
-1.3877787807814457e-16
42
0.41421383211191254
10
0.99999961852475594
20
0.99999999999909095
10
0.99999999999909106
20
2.1000000000003638
42
0.41421342270836792
10
0.20000038146690685
20
2.90000000000324
10
-1.1999999999989093
20
2.900000000006457
42
0.41421191837031729
10
-1.5000003814741869
20
2.6000007629431821
10
-1.4999999999972857
20
1.8000000000006371
42
-0.41421318994495254
10
-1.7999996185335481
20
1.4999999999998026
10
-3.0500000000074574
20
1.5000000000044267
42
-0.41421383211058049
10
-4.0499996185334926
20
2.5
10
-4.0500000000024787
20
4.1931457500004381
42
-0.1989122731226565
10
-3.1713203430166508
20
6.3144664764439584
10
-0.46446647590371676
20
9.0213203435617082
42
-0.19891236738086385
10
1.6568538676597202
20
9.9000000000018673
10
6.693146132331548
20
9.9000000000018691
42
-0.19891236738066673
10
8.8144664758927114
20
9.02132034356171
10
11.521320339994821
20
6.3144660900060856
42
-0.19891232348340765
10
12.400000095364071
20
4.193145751951306
10
12.399999999999949
20
2.5
42
-0.4142135344406479
10
11.400000095366067
20
1.4999999999987823
10
10.150000000001
20
1.5000000000017417
42
-0.414213716643554
10
9.8500003814645467
20
1.799999237066459
10
9.8499999999967258
20
2.6000000000067298
42
0.4142133761501291
10
9.5500001907339556
20
2.900000000007747
10
8.149999999998272
20
2.900000000006457
42
0.41421362022443747
10
7.3500003814652439
20
2.1000007629436364
10
7.3499999999921783
20
0.99999999999909106
42
0.4142136741002253
10
8.3500003814674528
20
1.2106982083537332e-12
10
16.174999999991542
20
0
42
0.41421356237242896
10
19.174999999995208
20
2.9999999999995453
10
19.174999999993361
20
10.824999999999818
42
0.41421383211657059
10
18.174999999991996
20
11.824999618530899
10
17.074999999992997
20
11.824999999998909
42
0.41421342271003253
10
16.274999999994954
20
11.025000381478094
10
16.274999999998272
20
9.6249999999986358
42
0.41421191837253185
10
16.574999237059274
20
9.3249996185350099
10
17.374999999999545
20
9.3250000000017526
42
-0.41421318994273221
10
17.674999999999599
20
9.0250003814776392
10
17.674999999998526
20
7.7750000000060027
42
-0.41421383211657387
10
16.674999999993361
20
6.7750003814726503
10
14.981854249995196
20
6.7750000000025974
42
-0.19891227312150844
10
12.860533523555508
20
7.6536796569870003
10
10.153679656437998
20
10.360533524106994
42
-0.19891236737979731
10
9.2749999999980304
20
12.481853867664086
10
9.2749999999944794
20
17.518146132342736
42
-0.19891236737993662
10
10.153679656436623
20
19.639466475903475
10
12.860533909996491
20
22.346320340001341
42
-0.19891232348256199
10
14.981854248039781
20
23.225000095371207
10
16.674999999993361
20
23.224999999999767
42
-0.41421353444197984
10
17.675000000003674
20
22.225000095370433
10
17.674999999997159
20
20.974999999998545
42
-0.41421371664355339
10
17.37500076293145
20
20.675000381470191
10
16.574999999991178
20
20.675000000001091
42
0.41421337614568554
10
16.274999999999253
20
20.375000190736046
10
16.274999999998272
20
18.975000000007185
42
0.41421362022527053
10
17.074999237058819
20
18.175000381473161
10
18.174999999991996
20
18.175000000001091
42
0.41421367410155641
10
19.174999999996697
20
19.175000381471818
10
19.174999999993361
20
26.999999999998181
42
0.41421356237309503
10
16.174999999991542
20
30.000000000001847
10
8.3499999999980901
20
30
42
0.41421383211590823
10
7.3500003814687851
20
28.999999999998636
10
7.3499999999921783
20
27.899999999999636
42
0.41421342270837014
10
8.1499996185311829
20
27.100000000003082
10
9.5500000000015461
20
27.100000000000364
42
0.41421191836589066
10
9.850000381466451
20
27.399999237063639
10
9.8499999999943828
20
28.199999999999363
42
-0.41421318995605144
10
10.149999618531638
20
28.500000000003464
10
11.399999999998727
20
28.500000000000121
42
-0.41421383211191215
10
12.399999618524761
20
27.5
10
12.399999999995313
20
25.806854250001834
42
-0.19891227312100893
10
11.521320343016592
20
23.68553352356556
10
8.8144664758967188
20
20.978679656443383
42
-0.19891236738038834
10
6.6931461323315489
20
20.100000000002893
10
1.6568538676597198
20
20.100000000002893
42
-0.19891236738058524
10
-0.46446647590772244
20
20.978679656443383
10
-3.1713203400068442
20
23.685533910006541
42
-0.19891232348245649
10
-4.0500000953710229
20
25.806854248050968
10
-4.0500000000069036
20
27.5
42
-0.41421353444397774
10
-3.0500000953702511
20
28.500000000006263
10
-1.7999999999983629
20
28.500000000002025
42
-0.41421371663467393
10
-1.5000003814740586
20
28.20000076294491
10
-1.499999999998636
20
27.399999999997817
42
0.41421337614790732
10
-1.2000001907426849
20
27.099999999996804
10
0.19999999999299689
20
27.100000000000364
42
0.41421362022360347
10
0.99999961852829833
20
27.899999237063184
10
0.99999999999909106
20
28.999999999998636
42
0.41421367410022852
10
-3.8146936321867448e-07
20
30.000000000003336
10
-7.8250000000070941
20
30
42
0.4142135623722073
10
-10.825000000001667
20
26.999999999998181
10
-10.825000000006639
20
19.175000000000182
42
0.41421383210924956
10
-9.8250000000075488
20
18.175000381474643
10
-8.725000000001728
20
18.175000000001091
42
0.41421342271419603
10
-7.9250000000014085
20
18.974999618537826
10
-7.9250000000070031
20
20.374999999999091
42
0.41421191838363552
10
-8.2249992370680047
20
20.675000381471314
10
-9.0250000000082764
20
20.674999999998576
42
-0.41421318994939182
0
CIRCLE
5
107
100
AcDbEntity
8
0
100
AcDbCircle
10
4.1749999999933607
20
15
30
0
40
2.4499999999996187
210
0
220
0
230
1
0
LWPOLYLINE
5
108
100
AcDbEntity
8
0
100
AcDbPolyline
90
8
70
1
43
0.0
10
-9.3250000000048061
20
24.949999999998909
42
0.41421356235977691
10
-9.0250000000082764
20
24.650000000006926
10
-5.7750007629419997
20
24.649999618528419
42
0.41421340809889218
10
-5.4749999999990004
20
24.949999999998909
10
-5.4749996185333236
20
28.20000076294491
42
0.41421191837253724
10
-5.7750000000032742
20
28.499999999999091
10
-7.8250000000070941
20
28.500000000001791
42
0.41421356237131873
10
-9.3250000000080036
20
26.999999999998181
0
LWPOLYLINE
5
109
100
AcDbEntity
8
0
100
AcDbPolyline
90
8
70
1
43
0.0
10
-9.0250000000082764
20
5.3500000000072134
42
0.41421356237975465
10
-9.3250000000075772
20
5.0500000000010914
10
-9.3250000000016087
20
2.9999999999995453
42
0.41421356236998658
10
-7.8250000000070941
20
1.499999999998636
10
-5.7750007629419997
20
1.5000000000037983
42
0.41421430722745511
10
-5.4749999999990004
20
1.8000000000006371
10
-5.4749996185317897
20
5.0499992370623659
42
0.41421340810554313
10
-5.7750000000032742
20
5.3499999999985448
0
LWPOLYLINE
5
110
100
AcDbEntity
8
0
100
AcDbPolyline
90
8
70
1
43
0.0
10
13.825000000000784
20
1.8000000000006371
42
0.41421356236421503
10
14.125000000001364
20
1.5000000000046054
10
16.174999999991542
20
1.5000000000027582
42
0.41421356237176277
10
17.674999999992451
20
2.9999999999995448
10
17.674999999999653
20
5.0499992370623659
42
0.41421430723854941
10
17.374999999999545
20
5.3499999999985448
10
14.124999809257588
20
5.350000381471415
42
0.41421247701973646
10
13.825000000001637
20
5.0500000000010914
0
LWPOLYLINE
5
111
100
AcDbEntity
8
0
100
AcDbPolyline
90
8
70
1
43
0.0
10
14.125000000001364
20
28.499999999999943
42
0.41421356237087953
10
13.824999999998514
20
28.199999999999363
10
13.825000095366285
20
24.950000762944455
42
0.41421453202583242
10
14.125000000001364
20
24.649999999999181
10
17.375000047682079
20
24.649999618532764
42
0.41421261668267223
10
17.674999999992451
20
24.949999999998909
10
17.674999999995151
20
26.999999999998181
42
0.4142135623730942
10
16.174999999991542
20
28.499999999999091
0
ENDSEC
0
SECTION
2
OBJECTS
0
DICTIONARY
5
C
100
AcDbDictionary
3
ACAD_GROUP
350
D
3
ACAD_MLINESTYLE
350
17
0
DICTIONARY
5
D
100
AcDbDictionary
0
DICTIONARY
5
1A
330
C
100
AcDbDictionary
0
DICTIONARY
5
17
100
AcDbDictionary
0
ENDSEC
0
EOF
