0
SECTION
2
HEADER
9
$INSUNITS
70
4
9
$ACADVER
1
AC1014
9
$HANDSEED
5
FFFF
0
ENDSEC
0
SECTION
2
TABLES
0
TABLE
2
VPORT
5
8
100
AcDbSymbolTable
0
ENDTAB
0
TABLE
2
LTYPE
5
5
100
AcDbSymbolTable
0
LTYPE
5
14
100
AcDbSymbolTableRecord
100
AcDbLinetypeTableRecord
2
BYBLOCK
70
0
0
LTYPE
5
15
100
AcDbSymbolTableRecord
100
AcDbLinetypeTableRecord
2
BYLAYER
70
0
0
ENDTAB
0
TABLE
2
LAYER
5
2
100
AcDbSymbolTable
70
2
0
LAYER
5
50
100
AcDbSymbolTableRecord
100
AcDbLayerTableRecord
2
0
70
0
6
CONTINUOUS
0
ENDTAB
0
TABLE
2
STYLE
5
3
100
AcDbSymbolTable
70
1
0
STYLE
5
11
100
AcDbSymbolTableRecord
100
AcDbTextStyleTableRecord
2
STANDARD
70
0
0
ENDTAB
0
TABLE
2
VIEW
5
6
100
AcDbSymbolTable
70
0
0
ENDTAB
0
TABLE
2
UCS
5
7
100
AcDbSymbolTable
70
0
0
ENDTAB
0
TABLE
2
APPID
5
9
100
AcDbSymbolTable
70
2
0
APPID
5
12
100
AcDbSymbolTableRecord
100
AcDbRegAppTableRecord
2
ACAD
70
0
0
ENDTAB
0
TABLE
2
DIMSTYLE
5
A
100
AcDbSymbolTable
70
1
0
ENDTAB
0
TABLE
2
BLOCK_RECORD
5
1
100
AcDbSymbolTable
70
1
0
BLOCK_RECORD
5
1F
100
AcDbSymbolTableRecord
100
AcDbBlockTableRecord
2
*MODEL_SPACE
0
BLOCK_RECORD
5
1B
100
AcDbSymbolTableRecord
100
AcDbBlockTableRecord
2
*PAPER_SPACE
0
ENDTAB
0
ENDSEC
0
SECTION
2
BLOCKS
0
BLOCK
5
20
100
AcDbEntity
100
AcDbBlockBegin
2
*MODEL_SPACE
0
ENDBLK
5
21
100
AcDbEntity
100
AcDbBlockEnd
0
BLOCK
5
1C
100
AcDbEntity
100
AcDbBlockBegin
2
*PAPER_SPACE
0
ENDBLK
5
1D
100
AcDbEntity
100
AcDbBlockEnd
0
ENDSEC
0
SECTION
2
ENTITIES
0
LWPOLYLINE
5
100
100
AcDbEntity
8
0
100
AcDbPolyline
90
100
70
1
43
0.0
10
13
20
39.999999999601599
10
13
20
35.499999999601599
10
8.2999999998009208
20
35.499999999601599
10
8.2999999998009208
20
33.819999999601599
10
13.5518722406861
20
28.568127758716404
10
17.999999999800899
20
25.999999999601599
10
21.9999999998007
20
25.999999999601599
10
26.448127758915604
20
28.568127758716404
10
31.699999999800799
20
33.819999999601599
10
31.699999999800799
20
35.499999999601599
10
26.999999999601599
20
35.499999999601599
10
26.999999999601599
20
39.999999999601599
10
39.999999999601599
20
39.999999999601599
10
39.999999999601698
20
26.999999999601599
10
35.499999999601698
20
26.999999999601599
10
35.499999999601599
20
31.699999999800799
10
33.819999999601599
20
31.699999999800799
10
28.568127758716301
20
26.448127758915501
10
25.999999999601599
20
21.999999999800799
10
25.999999999601599
20
17.999999999800799
10
28.568127758716301
20
13.551872240686
10
33.819999999601706
20
8.2999999998008605
10
35.499999999601698
20
8.2999999998008605
10
35.499999999601698
20
13
10
39.999999999601698
20
13
10
39.999999999601698
20
-13
10
35.499999999601698
20
-13
10
35.499999999601698
20
-8.2999999998008001
10
33.819999999601706
20
-8.2999999998008001
10
28.568127758716404
20
-13.551872240686
10
25.999999999601599
20
-17.999999999800899
10
25.999999999601599
20
-21.999999999800899
10
28.568127758716404
20
-26.448127758915501
10
33.819999999601706
20
-31.699999999800799
10
35.499999999601698
20
-31.699999999800799
10
35.499999999601698
20
-26.999999999601599
10
39.999999999601698
20
-26.999999999601599
10
39.999999999601698
20
-39.999999999601599
10
26.999999999601702
20
-39.999999999601599
10
26.999999999601702
20
-35.499999999601599
10
31.699999999800905
20
-35.499999999601599
10
31.699999999800905
20
-33.819999999601599
10
26.448127758915604
20
-28.568127758716404
10
21.999999999800799
20
-25.999999999601599
10
17.999999999800899
20
-25.999999999601599
10
13.551872240686201
20
-28.568127758716404
10
8.2999999998009208
20
-33.819999999601706
10
8.2999999998009208
20
-35.499999999601599
10
13.000000000000099
20
-35.499999999601599
10
13.000000000000103
20
-39.999999999601599
10
-13
20
-39.999999999601599
10
-13
20
-35.499999999601599
10
-8.299999999800832
20
-35.499999999601599
10
-8.299999999800832
20
-33.819999999601706
10
-13.5518722406861
20
-28.568127758716404
10
-17.999999999800899
20
-25.999999999601599
10
-21.9999999998007
20
-25.999999999601599
10
-26.448127758915501
20
-28.568127758716404
10
-31.699999999800799
20
-33.819999999601599
10
-31.699999999800799
20
-35.499999999601599
10
-26.999999999601599
20
-35.499999999601599
10
-26.999999999601599
20
-39.999999999601599
10
-39.999999999601499
20
-39.999999999601599
10
-39.999999999601599
20
-26.999999999601599
10
-35.499999999601599
20
-26.999999999601599
10
-35.499999999601499
20
-31.699999999800799
10
-33.819999999601599
20
-31.699999999800799
10
-28.568127758716301
20
-26.448127758915501
10
-25.999999999601503
20
-21.999999999800899
10
-25.999999999601503
20
-17.999999999800899
10
-28.568127758716301
20
-13.551872240686
10
-33.819999999601599
20
-8.2999999998008001
10
-35.499999999601499
20
-8.2999999998008001
10
-35.499999999601599
20
-13
10
-39.999999999601599
20
-13
10
-39.999999999601599
20
13
10
-35.499999999601599
20
13
10
-35.499999999601599
20
8.2999999998008605
10
-33.819999999601599
20
8.2999999998008605
10
-28.568127758716301
20
13.551872240686
10
-25.999999999601503
20
17.999999999800799
10
-25.999999999601503
20
21.999999999800799
10
-28.568127758716301
20
26.448127758915501
10
-33.819999999601599
20
31.699999999800799
10
-35.499999999601499
20
31.699999999800799
10
-35.499999999601599
20
26.999999999601599
10
-39.999999999601599
20
26.999999999601599
10
-39.999999999601499
20
39.999999999601599
10
-26.999999999601599
20
39.999999999601599
10
-26.999999999601599
20
35.499999999601599
10
-31.699999999800703
20
35.499999999601599
10
-31.699999999800703
20
33.819999999601599
10
-26.448127758915501
20
28.568127758716404
10
-21.9999999998007
20
25.999999999601599
10
-17.999999999800899
20
25.999999999601599
10
-13.551872240686
20
28.568127758716404
10
-8.299999999800832
20
33.819999999601599
10
-8.299999999800832
20
35.499999999601599
10
-13
20
35.499999999601599
10
-13
20
39.999999999601599
0
LWPOLYLINE
5
101
100
AcDbEntity
8
0
100
AcDbPolyline
90
10
70
1
43
0.0
10
-32.100000000000001
20
37.100000000000001
10
-32.100000000000001
20
38.5
10
-37.5
20
38.5
42
0.41421356237309503
10
-38.5
20
37.5
10
-38.5
20
32.100000000000001
10
-37.100000000000001
20
32.100000000000001
10
-35.450000000000003
20
33.75
10
-34.5
20
33.75
42
0.41421356237309503
10
-33.75
20
34.5
10
-33.75
20
35.450000000000003
0
LWPOLYLINE
5
102
100
AcDbEntity
8
0
100
AcDbPolyline
90
10
70
1
43
0.0
10
37.5
20
38.5
10
32.100000000000001
20
38.5
10
32.100000000000001
20
37.100000000000001
10
33.75
20
35.450000000000003
10
33.75
20
34.5
42
0.41421356237309503
10
34.5
20
33.75
10
35.450000000000003
20
33.75
10
37.100000000000001
20
32.100000000000001
10
38.5
20
32.100000000000001
10
38.5
20
37.5
42
0.41421356237309503
0
LWPOLYLINE
5
103
100
AcDbEntity
8
0
100
AcDbPolyline
90
32
70
1
43
0.0
10
5.5499999999999803
20
32.049999999601603
10
5.5499999999999803
20
37.249999999601599
10
-5.5500000000000096
20
37.249999999601599
10
-5.5500000000000096
20
32.049999999601603
10
-14.249999999800902
20
23.349999999800804
10
-14.249999999800902
20
17.75
10
-17.749999999800799
20
14.25
10
-23.349999999601604
20
14.25
10
-32.049999999601603
20
5.55000000000007
10
-37.249999999601599
20
5.5500000000000718
10
-37.249999999601599
20
-5.5500000000000203
10
-32.049999999601603
20
-5.5500000000000203
10
-23.349999999601604
20
-14.25
10
-17.749999999800799
20
-14.25
10
-14.249999999800902
20
-17.75
10
-14.249999999800902
20
-23.3499999998009
10
-5.5500000000000096
20
-32.049999999601603
10
-5.5500000000000078
20
-37.249999999601599
10
5.55000000000007
20
-37.249999999601599
10
5.55000000000007
20
-32.049999999601603
10
14.249999999800902
20
-23.3499999998009
10
14.249999999800902
20
-17.75
10
17.749999999800899
20
-14.25
10
23.3499999996017
20
-14.25
10
32.04999999960171
20
-5.5500000000000203
10
37.249999999601698
20
-5.550000000000022
10
37.249999999601698
20
5.55000000000007
10
32.04999999960171
20
5.55000000000007
10
23.349999999601604
20
14.25
10
17.749999999800899
20
14.25
10
14.249999999800799
20
17.75
10
14.249999999800799
20
23.349999999800804
0
LWPOLYLINE
5
104
100
AcDbEntity
8
0
100
AcDbPolyline
90
10
70
1
43
0.0
10
-35.450000000000003
20
-33.75
10
-37.100000000000001
20
-32.100000000000001
10
-38.5
20
-32.100000000000001
10
-38.5
20
-37.5
42
0.41421356237309503
10
-37.5
20
-38.5
10
-32.100000000000001
20
-38.5
10
-32.100000000000001
20
-37.100000000000001
10
-33.75
20
-35.450000000000003
10
-33.75
20
-34.5
42
0.41421356237309503
10
-34.5
20
-33.75
0
LWPOLYLINE
5
105
100
AcDbEntity
8
0
100
AcDbPolyline
90
10
70
1
43
0.0
10
38.5
20
-32.100000000000001
10
37.100000000000001
20
-32.100000000000001
10
35.450000000000003
20
-33.75
10
34.5
20
-33.75
42
0.41421356237309503
10
33.75
20
-34.5
10
33.75
20
-35.450000000000003
10
32.100000000000001
20
-37.100000000000001
10
32.100000000000001
20
-38.5
10
37.5
20
-38.5
42
0.41421356237309503
10
38.5
20
-37.5
0
CIRCLE
5
106
100
AcDbEntity
8
0
100
AcDbCircle
10
-19.999999999601702
20
19.999999999601599
30
0
40
3.5000000000000004
210
0
220
0
230
-1
0
CIRCLE
5
107
100
AcDbEntity
8
0
100
AcDbCircle
10
19.999999999601599
20
19.999999999601599
30
0
40
3.5000000000000004
210
0
220
0
230
-1
0
CIRCLE
5
108
100
AcDbEntity
8
0
100
AcDbCircle
10
-19.999999999601702
20
-19.999999999601599
30
0
40
3.5000000000000004
210
0
220
0
230
-1
0
CIRCLE
5
109
100
AcDbEntity
8
0
100
AcDbCircle
10
19.999999999601599
20
-19.999999999601599
30
0
40
3.5000000000000004
210
0
220
0
230
-1
0
ENDSEC
0
SECTION
2
OBJECTS
0
DICTIONARY
5
C
100
AcDbDictionary
3
ACAD_GROUP
350
D
3
ACAD_MLINESTYLE
350
17
0
DICTIONARY
5
D
100
AcDbDictionary
0
DICTIONARY
5
1A
330
C
100
AcDbDictionary
0
DICTIONARY
5
17
100
AcDbDictionary
0
ENDSEC
0
EOF
