0
SECTION
2
HEADER
9
$INSUNITS
70
4
9
$ACADVER
1
AC1014
9
$HANDSEED
5
FFFF
0
ENDSEC
0
SECTION
2
TABLES
0
TABLE
2
VPORT
5
8
100
AcDbSymbolTable
0
ENDTAB
0
TABLE
2
LTYPE
5
5
100
AcDbSymbolTable
0
LTYPE
5
14
100
AcDbSymbolTableRecord
100
AcDbLinetypeTableRecord
2
BYBLOCK
70
0
0
LTYPE
5
15
100
AcDbSymbolTableRecord
100
AcDbLinetypeTableRecord
2
BYLAYER
70
0
0
ENDTAB
0
TABLE
2
LAYER
5
2
100
AcDbSymbolTable
70
2
0
LAYER
5
50
100
AcDbSymbolTableRecord
100
AcDbLayerTableRecord
2
0
70
0
6
CONTINUOUS
0
ENDTAB
0
TABLE
2
STYLE
5
3
100
AcDbSymbolTable
70
1
0
STYLE
5
11
100
AcDbSymbolTableRecord
100
AcDbTextStyleTableRecord
2
STANDARD
70
0
0
ENDTAB
0
TABLE
2
VIEW
5
6
100
AcDbSymbolTable
70
0
0
ENDTAB
0
TABLE
2
UCS
5
7
100
AcDbSymbolTable
70
0
0
ENDTAB
0
TABLE
2
APPID
5
9
100
AcDbSymbolTable
70
2
0
APPID
5
12
100
AcDbSymbolTableRecord
100
AcDbRegAppTableRecord
2
ACAD
70
0
0
ENDTAB
0
TABLE
2
DIMSTYLE
5
A
100
AcDbSymbolTable
70
1
0
ENDTAB
0
TABLE
2
BLOCK_RECORD
5
1
100
AcDbSymbolTable
70
1
0
BLOCK_RECORD
5
1F
100
AcDbSymbolTableRecord
100
AcDbBlockTableRecord
2
*MODEL_SPACE
0
BLOCK_RECORD
5
1B
100
AcDbSymbolTableRecord
100
AcDbBlockTableRecord
2
*PAPER_SPACE
0
ENDTAB
0
ENDSEC
0
SECTION
2
BLOCKS
0
BLOCK
5
20
100
AcDbEntity
100
AcDbBlockBegin
2
*MODEL_SPACE
0
ENDBLK
5
21
100
AcDbEntity
100
AcDbBlockEnd
0
BLOCK
5
1C
100
AcDbEntity
100
AcDbBlockBegin
2
*PAPER_SPACE
0
ENDBLK
5
1D
100
AcDbEntity
100
AcDbBlockEnd
0
ENDSEC
0
SECTION
2
ENTITIES
0
LWPOLYLINE
5
100
100
AcDbEntity
8
0
100
AcDbPolyline
90
76
70
1
43
0.0
10
39.9999999996013
20
39.999999999601599
10
39.9999999996014
20
26.999999999601599
10
35.4999999996014
20
26.999999999601599
10
35.4999999996014
20
31.699999999800799
10
33.8199999996014
20
31.699999999800799
10
28.568127758716102
20
26.448127758915604
10
25.9999999996014
20
21.999999999800799
10
25.9999999996014
20
17.999999999800799
10
28.568127758716102
20
13.551872240686
10
33.8199999996014
20
8.2999999998007805
10
35.4999999996014
20
8.2999999998007805
10
35.4999999996014
20
13
10
39.9999999996014
20
13
10
39.999999999601798
20
-12.999999999999002
10
35.499999999601798
20
-12.999999999999101
10
35.499999999601599
20
-8.2999999997997893
10
33.819999999601599
20
-8.2999999997999208
10
28.5681277587165
20
-13.5518722406853
10
25.999999999601901
20
-17.999999999800099
10
25.999999999602004
20
-21.999999999800099
10
28.568127758716901
20
-26.448127758914804
10
33.819999999602203
20
-31.6999999997999
10
35.499999999602203
20
-31.6999999997999
10
35.499999999602203
20
-26.9999999996006
10
39.999999999602103
20
-26.999999999600504
10
39.999999999602402
20
-39.999999999600597
10
26.999999999602501
20
-39.999999999600902
10
26.999999999602405
20
-35.499999999600902
10
31.699999999801602
20
-35.499999999600803
10
31.699999999801499
20
-33.819999999600803
10
26.448127758916105
20
-28.568127758715704
10
21.999999999801304
20
-25.999999999601101
10
17.999999999801403
20
-25.999999999601101
10
13.551872240686702
20
-28.568127758716102
10
8.2999999998015994
20
-33.819999999601499
10
8.2999999998015994
20
-35.4999999996014
10
13.000000000000799
20
-35.4999999996013
10
13.000000000000902
20
-39.999999999601201
10
9.9475983006414006e-13
20
-39.999999999601599
10
5.9674487573602164e-13
20
-26.999999999601599
10
4.5000000000004796
20
-26.999999999601503
10
4.5000000000007105
20
-31.699999999800703
10
6.1800000000006907
20
-31.699999999800703
10
11.4318722408858
20
-26.448127758915305
10
14.000000000000501
20
-21.999999999800504
10
14.000000000000401
20
-17.999999999800401
10
11.431872240885401
20
-13.5518722406858
10
6.1800000000000113
20
-8.2999999998007201
10
4.5000000000001101
20
-8.2999999998007201
10
4.5000000000001998
20
-12.999999999999901
10
1.9900000000000001e-13
20
-13
10
-1.9872992140790302e-13
20
13
10
4.4999999999998002
20
13
10
4.4999999999999112
20
8.2999999998007805
10
6.1799999999998896
20
8.2999999998007805
10
11.431872240885102
20
13.551872240686
10
13.999999999999901
20
17.999999999800799
10
13.999999999999901
20
21.999999999800799
10
11.431872240885102
20
26.448127758915604
10
6.1799999999998896
20
31.699999999800799
10
4.4999999999999112
20
31.699999999800799
10
4.4999999999998002
20
26.999999999601599
10
-1.9900000000000001e-13
20
26.999999999601599
10
-8.4376949871511897e-14
20
39.999999999601599
10
12.999999999999801
20
39.999999999601599
10
12.999999999999801
20
35.499999999601599
10
8.2999999998006011
20
35.499999999601599
10
8.2999999998006011
20
33.819999999601599
10
13.551872240685901
20
28.568127758716404
10
17.9999999998007
20
25.999999999601599
10
21.9999999998006
20
25.999999999601599
10
26.448127758915305
20
28.568127758716404
10
31.699999999800603
20
33.819999999601599
10
31.699999999800603
20
35.499999999601599
10
26.9999999996014
20
35.499999999601599
10
26.9999999996014
20
39.999999999601599
0
LWPOLYLINE
5
101
100
AcDbEntity
8
0
100
AcDbPolyline
90
12
70
1
43
0.0
10
37.5
20
38.5
42
-0.41421356237309503
10
38.5
20
37.5
10
38.500000000000007
20
32.850000000000001
42
-0.41421356237309503
10
37.75
20
32.100000000000001
10
37.100000000000001
20
32.100000000000001
10
35.450000000000003
20
33.75
10
34.5
20
33.75
42
-0.41421356237309503
10
33.75
20
34.5
10
33.75
20
35.450000000000003
10
32.100000000000001
20
37.100000000000001
10
32.100000000000001
20
37.75
42
-0.41421356237309503
10
32.850000000000001
20
38.500000000000007
0
LWPOLYLINE
5
102
100
AcDbEntity
8
0
100
AcDbPolyline
90
12
70
1
43
0.0
10
7.1500000000000004
20
38.5
10
2.5
20
38.5
42
0.41421356237309198
10
1.5000000000000002
20
37.5
10
1.5000000000000102
20
32.850000000000001
42
0.41421356237309104
10
2.25
20
32.100000000000001
10
2.8999999999999999
20
32.100000000000001
10
4.5499999999999998
20
33.75
10
5.5
20
33.75
42
0.41421356237309115
10
6.2500000000000098
20
34.5
10
6.25
20
35.450000000000003
10
7.9000000000000004
20
37.100000000000001
10
7.8999999999999897
20
37.75
42
0.41421356237309076
0
LWPOLYLINE
5
103
100
AcDbEntity
8
0
100
AcDbPolyline
90
12
70
1
43
0.0
10
32.049999999601397
20
5.5499999999999803
10
23.349999999601401
20
14.25
10
16.6499999999998
20
14.25
10
7.9499999999997906
20
5.5499999999999803
10
2.7499999999998002
20
5.5499999999999803
10
2.75
20
-5.5499999999999297
10
7.9499999999999904
20
-5.5499999999998098
10
16.650000000000201
20
-14.2499999999996
10
23.349999999601799
20
-14.249999999999401
10
32.049999999601603
20
-5.5499999999992102
10
37.249999999601599
20
-5.5499999999990193
10
37.249999999601499
20
5.5499999999999803
0
LWPOLYLINE
5
104
100
AcDbEntity
8
0
100
AcDbPolyline
90
12
70
1
43
0.0
10
37.75
20
-32.100000000000001
42
-0.41421356237309503
10
38.500000000000007
20
-32.850000000000001
10
38.5
20
-37.5
42
-0.41421356237309503
10
37.5
20
-38.5
10
32.850000000000001
20
-38.500000000000007
42
-0.41421356237309503
10
32.100000000000001
20
-37.75
10
32.100000000000001
20
-37.100000000000001
10
33.75
20
-35.450000000000003
10
33.75
20
-34.5
42
-0.41421356237309503
10
34.5
20
-33.75
10
35.450000000000003
20
-33.75
10
37.100000000000001
20
-32.100000000000001
0
LWPOLYLINE
5
105
100
AcDbEntity
8
0
100
AcDbPolyline
90
12
70
1
43
0.0
10
4.5499999999999998
20
-33.75
10
2.8999999999999999
20
-32.100000000000001
10
2.25
20
-32.100000000000001
42
0.41421356237309093
10
1.49999999999999
20
-32.850000000000001
10
1.5
20
-37.5
42
0.41421356237309503
10
2.5
20
-38.5
10
7.1500000000000004
20
-38.500000000000007
42
0.41421356237309076
10
7.9000000000000004
20
-37.75
10
7.9000000000000004
20
-37.100000000000001
10
6.25
20
-35.450000000000003
10
6.2499999999999911
20
-34.5
42
0.41421356237309115
10
5.5
20
-33.75
0
CIRCLE
5
106
100
AcDbEntity
8
0
100
AcDbCircle
10
-19.9999999998006
20
19.999999999800799
30
0
40
3.5000000000000004
210
0
220
0
230
-1
0
CIRCLE
5
107
100
AcDbEntity
8
0
100
AcDbCircle
10
-19.9999999998006
20
-19.999999999800501
30
0
40
3.5000000000000004
210
0
220
0
230
-1
0
ENDSEC
0
SECTION
2
OBJECTS
0
DICTIONARY
5
C
100
AcDbDictionary
3
ACAD_GROUP
350
D
3
ACAD_MLINESTYLE
350
17
0
DICTIONARY
5
D
100
AcDbDictionary
0
DICTIONARY
5
1A
330
C
100
AcDbDictionary
0
DICTIONARY
5
17
100
AcDbDictionary
0
ENDSEC
0
EOF
