0
SECTION
2
HEADER
9
$INSUNITS
70
4
9
$ACADVER
1
AC1014
9
$HANDSEED
5
FFFF
0
ENDSEC
0
SECTION
2
TABLES
0
TABLE
2
VPORT
5
8
100
AcDbSymbolTable
0
ENDTAB
0
TABLE
2
LTYPE
5
5
100
AcDbSymbolTable
0
LTYPE
5
14
100
AcDbSymbolTableRecord
100
AcDbLinetypeTableRecord
2
BYBLOCK
70
0
0
LTYPE
5
15
100
AcDbSymbolTableRecord
100
AcDbLinetypeTableRecord
2
BYLAYER
70
0
0
ENDTAB
0
TABLE
2
LAYER
5
2
100
AcDbSymbolTable
70
2
0
LAYER
5
50
100
AcDbSymbolTableRecord
100
AcDbLayerTableRecord
2
0
70
0
6
CONTINUOUS
0
ENDTAB
0
TABLE
2
STYLE
5
3
100
AcDbSymbolTable
70
1
0
STYLE
5
11
100
AcDbSymbolTableRecord
100
AcDbTextStyleTableRecord
2
STANDARD
70
0
0
ENDTAB
0
TABLE
2
VIEW
5
6
100
AcDbSymbolTable
70
0
0
ENDTAB
0
TABLE
2
UCS
5
7
100
AcDbSymbolTable
70
0
0
ENDTAB
0
TABLE
2
APPID
5
9
100
AcDbSymbolTable
70
2
0
APPID
5
12
100
AcDbSymbolTableRecord
100
AcDbRegAppTableRecord
2
ACAD
70
0
0
ENDTAB
0
TABLE
2
DIMSTYLE
5
A
100
AcDbSymbolTable
70
1
0
ENDTAB
0
TABLE
2
BLOCK_RECORD
5
1
100
AcDbSymbolTable
70
1
0
BLOCK_RECORD
5
1F
100
AcDbSymbolTableRecord
100
AcDbBlockTableRecord
2
*MODEL_SPACE
0
BLOCK_RECORD
5
1B
100
AcDbSymbolTableRecord
100
AcDbBlockTableRecord
2
*PAPER_SPACE
0
ENDTAB
0
ENDSEC
0
SECTION
2
BLOCKS
0
BLOCK
5
20
100
AcDbEntity
100
AcDbBlockBegin
2
*MODEL_SPACE
0
ENDBLK
5
21
100
AcDbEntity
100
AcDbBlockEnd
0
BLOCK
5
1C
100
AcDbEntity
100
AcDbBlockBegin
2
*PAPER_SPACE
0
ENDBLK
5
1D
100
AcDbEntity
100
AcDbBlockEnd
0
ENDSEC
0
SECTION
2
ENTITIES
0
LWPOLYLINE
5
100
100
AcDbEntity
8
0
100
AcDbPolyline
90
52
70
1
43
0.0
10
19.999999999800696
20
19.999999999800782
10
19.999999999800796
20
6.9999999998007434
10
15.499999999800796
20
6.9999999998007434
10
15.499999999800796
20
11.699999999999982
10
13.819999999800798
20
11.699999999999982
10
8.5681277589155176
20
6.4481277591147119
10
5.9999999998007087
20
1.9999999999999822
10
5.9999999998008189
20
-1.999999999999988
10
8.568127758915578
20
-6.4481277591147474
10
13.819999999800798
20
-11.700000000000017
10
15.499999999800796
20
-11.700000000000017
10
15.499999999800796
20
-6.9999999998008375
10
19.999999999800796
20
-6.9999999998008366
10
19.999999999800796
20
-19.999999999800721
10
6.9999999998008189
20
-19.999999999800817
10
6.9999999998008189
20
-15.499999999800817
10
11.699999999999998
20
-15.499999999800817
10
11.699999999999998
20
-13.819999999800817
10
6.4481277591147288
20
-8.5681277589155673
10
1.9999999999999996
20
-5.9999999998008384
10
-1.9999999999998896
20
-5.9999999998009477
10
-6.4481277591147004
20
-8.5681277589156579
10
-11.6999999999998
20
-13.81999999980092
10
-11.6999999999998
20
-15.49999999980092
10
-6.9999999998007887
20
-15.499999999800817
10
-6.9999999998007878
20
-19.999999999800817
10
-19.999999999800696
20
-19.999999999800913
10
-19.999999999800796
20
-6.9999999998008375
10
-15.499999999800796
20
-6.9999999998008375
10
-15.499999999800696
20
-11.70000000000012
10
-13.819999999800798
20
-11.70000000000012
10
-8.5681277589154377
20
-6.4481277591148576
10
-5.9999999998006492
20
-2.0000000000001581
10
-5.9999999998007887
20
1.9999999999998419
10
-8.5681277589155478
20
6.4481277591147119
10
-13.819999999800798
20
11.699999999999882
10
-15.499999999800897
20
11.699999999999882
10
-15.499999999800796
20
6.9999999998006635
10
-19.999999999800796
20
6.9999999998006635
10
-19.999999999800796
20
19.999999999800686
10
-6.9999999998007887
20
19.999999999800686
10
-6.9999999998007887
20
15.499999999800682
10
-11.699999999999998
20
15.499999999800682
10
-11.699999999999998
20
13.819999999800682
10
-6.4481277591147004
20
8.5681277589154234
10
-1.9999999999999996
20
5.9999999998006626
10
1.9999999999999696
20
5.9999999998007425
10
6.4481277591147288
20
8.5681277589155922
10
11.699999999999998
20
13.819999999800782
10
11.699999999999998
20
15.499999999800782
10
6.9999999998008189
20
15.499999999800782
10
6.9999999998008189
20
19.999999999800782
0
LWPOLYLINE
5
101
100
AcDbEntity
8
0
100
AcDbPolyline
90
12
70
1
43
0.0
10
17.499999999999996
20
18.499999999999982
42
-0.41421356237309503
10
18.499999999999996
20
17.499999999999982
10
18.499999999999996
20
12.849999999999984
42
-0.41421356237309503
10
17.749999999999996
20
12.099999999999984
10
17.099999999999998
20
12.099999999999982
10
15.449999999999996
20
13.749999999999982
10
14.5
20
13.749999999999984
42
-0.41421356237309503
10
13.75
20
14.499999999999984
10
13.749999999999998
20
15.449999999999982
10
12.099999999999998
20
17.099999999999984
10
12.1
20
17.749999999999982
42
-0.41421356237309503
10
12.85
20
18.499999999999982
0
LWPOLYLINE
5
102
100
AcDbEntity
8
0
100
AcDbPolyline
90
12
70
1
43
0.0
10
-12.85
20
18.499999999999982
10
-17.499999999999996
20
18.499999999999982
42
0.41421356237309503
10
-18.499999999999996
20
17.499999999999982
10
-18.499999999999996
20
12.849999999999984
42
0.41421356237309503
10
-17.749999999999996
20
12.099999999999982
10
-17.099999999999998
20
12.099999999999982
10
-15.449999999999996
20
13.749999999999982
10
-14.5
20
13.749999999999984
42
0.41421356237309503
10
-13.749999999999998
20
14.499999999999984
10
-13.749999999999998
20
15.449999999999982
10
-12.099999999999998
20
17.099999999999984
10
-12.1
20
17.749999999999982
42
0.41421356237309503
0
LWPOLYLINE
5
103
100
AcDbEntity
8
0
100
AcDbPolyline
90
12
70
1
43
0.0
10
-15.449999999999996
20
-13.750000000000018
10
-17.099999999999998
20
-12.100000000000017
10
-17.749999999999996
20
-12.100000000000019
42
0.41421356237309503
10
-18.499999999999996
20
-12.850000000000019
10
-18.499999999999996
20
-17.500000000000018
42
0.41421356237309503
10
-17.499999999999996
20
-18.500000000000018
10
-12.85
20
-18.500000000000018
42
0.41421356237309503
10
-12.099999999999998
20
-17.750000000000018
10
-12.099999999999998
20
-17.100000000000019
10
-13.749999999999998
20
-15.450000000000017
10
-13.75
20
-14.50000000000002
42
0.41421356237309503
10
-14.5
20
-13.750000000000018
0
LWPOLYLINE
5
104
100
AcDbEntity
8
0
100
AcDbPolyline
90
12
70
1
43
0.0
10
17.749999999999996
20
-12.100000000000019
42
-0.41421356237309503
10
18.499999999999996
20
-12.850000000000019
10
18.499999999999996
20
-17.500000000000018
42
-0.41421356237309503
10
17.499999999999996
20
-18.500000000000018
10
12.85
20
-18.500000000000018
42
-0.41421356237309503
10
12.1
20
-17.750000000000018
10
12.099999999999998
20
-17.100000000000019
10
13.749999999999998
20
-15.450000000000017
10
13.75
20
-14.50000000000002
42
-0.41421356237309503
10
14.5
20
-13.75000000000002
10
15.449999999999996
20
-13.750000000000018
10
17.099999999999998
20
-12.100000000000017
0
CIRCLE
5
105
100
AcDbEntity
8
0
100
AcDbCircle
10
0
20
0
30
0
40
3.5000000000000004
210
-1.3230771963702852e-30
220
3.502156178395248e-53
230
-1
0
LINE
5
106
100
AcDbEntity
8
0
100
AcDbLine
10
-6.9999999998007887
20
19.999999999800686
30
0
11
6.999999999800818
21
19.999999999800782
31
0
0
LINE
5
107
100
AcDbEntity
8
0
100
AcDbLine
10
1.4432899320127035e-14
20
19.999999999800732
30
0
11
-1.4988010832439613e-14
21
5.9999999998007025
31
0
0
ENDSEC
0
SECTION
2
OBJECTS
0
DICTIONARY
5
C
100
AcDbDictionary
3
ACAD_GROUP
350
D
3
ACAD_MLINESTYLE
350
17
0
DICTIONARY
5
D
100
AcDbDictionary
0
DICTIONARY
5
1A
330
C
100
AcDbDictionary
0
DICTIONARY
5
17
100
AcDbDictionary
0
ENDSEC
0
EOF
