0
SECTION
2
HEADER
9
$INSUNITS
70
4
9
$ACADVER
1
AC1014
9
$HANDSEED
5
FFFF
0
ENDSEC
0
SECTION
2
TABLES
0
TABLE
2
VPORT
5
8
100
AcDbSymbolTable
0
ENDTAB
0
TABLE
2
LTYPE
5
5
100
AcDbSymbolTable
0
LTYPE
5
14
100
AcDbSymbolTableRecord
100
AcDbLinetypeTableRecord
2
BYBLOCK
70
0
0
LTYPE
5
15
100
AcDbSymbolTableRecord
100
AcDbLinetypeTableRecord
2
BYLAYER
70
0
0
ENDTAB
0
TABLE
2
LAYER
5
2
100
AcDbSymbolTable
70
2
0
LAYER
5
50
100
AcDbSymbolTableRecord
100
AcDbLayerTableRecord
2
0
70
0
6
CONTINUOUS
0
ENDTAB
0
TABLE
2
STYLE
5
3
100
AcDbSymbolTable
70
1
0
STYLE
5
11
100
AcDbSymbolTableRecord
100
AcDbTextStyleTableRecord
2
STANDARD
70
0
0
ENDTAB
0
TABLE
2
VIEW
5
6
100
AcDbSymbolTable
70
0
0
ENDTAB
0
TABLE
2
UCS
5
7
100
AcDbSymbolTable
70
0
0
ENDTAB
0
TABLE
2
APPID
5
9
100
AcDbSymbolTable
70
2
0
APPID
5
12
100
AcDbSymbolTableRecord
100
AcDbRegAppTableRecord
2
ACAD
70
0
0
ENDTAB
0
TABLE
2
DIMSTYLE
5
A
100
AcDbSymbolTable
70
1
0
ENDTAB
0
TABLE
2
BLOCK_RECORD
5
1
100
AcDbSymbolTable
70
1
0
BLOCK_RECORD
5
1F
100
AcDbSymbolTableRecord
100
AcDbBlockTableRecord
2
*MODEL_SPACE
0
BLOCK_RECORD
5
1B
100
AcDbSymbolTableRecord
100
AcDbBlockTableRecord
2
*PAPER_SPACE
0
ENDTAB
0
ENDSEC
0
SECTION
2
BLOCKS
0
BLOCK
5
20
100
AcDbEntity
100
AcDbBlockBegin
2
*MODEL_SPACE
0
ENDBLK
5
21
100
AcDbEntity
100
AcDbBlockEnd
0
BLOCK
5
1C
100
AcDbEntity
100
AcDbBlockBegin
2
*PAPER_SPACE
0
ENDBLK
5
1D
100
AcDbEntity
100
AcDbBlockEnd
0
ENDSEC
0
SECTION
2
ENTITIES
0
LWPOLYLINE
5
100
100
AcDbEntity
8
0
100
AcDbPolyline
90
232
70
1
43
0.0
10
-39.324999999998909
20
-37.774999999999181
10
-39.324999999998909
20
-39.025000381463997
42
0.41421318995161166
10
-39.024999999996908
20
-39.324999999998909
10
-38.22499923705891
20
-39.324999618525936
42
-0.41421191838141669
10
-37.924999999997908
20
-39.624999999998636
10
-37.924999999997993
20
-41.025000381462178
42
-0.41421342271336237
10
-38.724999999997181
20
-41.824999999998909
10
-39.825000000000728
20
-41.824999618531642
42
-0.41421383210924828
10
-40.824999999999818
20
-40.824999999997544
10
-40.824999999988449
20
-19.174999999997908
42
-0.41421356236710138
10
-39.825000000000728
20
-18.174999999998818
10
-38.724999999997181
20
-18.174999999994178
42
-0.41421342271086503
10
-37.924999999997908
20
-18.97499961852418
10
-37.925000000001482
20
-20.374999999999091
42
-0.41421281750802758
10
-38.22499923705891
20
-20.67499999999427
10
-39.024999999996908
20
-20.675000000003081
42
0.41421318995161166
10
-39.324999999998909
20
-20.974999618522361
10
-39.324999999987398
20
-22.224999999998545
42
0.41421356236710138
10
-38.324999999999818
20
-23.224999999997635
10
-36.631854249997104
20
-23.225000000001046
42
0.19891239086624851
10
-34.510533714724261
20
-22.346320151846157
10
-31.803679656431957
20
-19.639466475891862
42
0.19891236737725629
10
-30.924999999997453
20
-17.518146132333641
10
-30.924999999999017
20
-12.481853867654991
42
0.19891236737652626
10
-31.803679656431996
20
-10.360533524101356
10
-34.510533909992731
20
-7.6536796599929877
42
0.19891236720995686
10
-36.631854248046238
20
-6.7750000050295967
10
-38.324999999999818
20
-6.7750000000002331
42
0.41421353443865006
10
-39.324999999998909
20
-7.7749999046318408
10
-39.324999999997203
20
-9.0249999999991815
42
0.41421281752134681
10
-39.025000762928812
20
-9.3249999999920874
10
-38.224999999997635
20
-9.3249999999988482
42
-0.41421337615679138
10
-37.924999999997908
20
-9.6249998092639544
10
-37.924999999990725
20
-11.024999999999636
42
-0.4142132830461514
10
-38.724999237058455
20
-11.824999999998909
10
-39.825000000000728
20
-11.824999999996708
42
-0.41421367410155707
10
-40.824999999999818
20
-10.824999618523634
10
-40.824999999992997
20
-2.9999999999995448
42
-0.41421356237376095
10
-37.825000000000273
20
0
10
-30
20
2.273181642920008e-12
42
-0.41421356237309503
10
-28.999999999998636
20
-0.99999999999909106
10
-28.999999999996273
20
-2.0999999999980901
42
-0.41421342270920031
10
-29.799999618526272
20
-2.899999999992815
10
-31.199999999998909
20
-2.8999999999937849
42
-0.41421281750580774
10
-31.499999999998636
20
-2.6000007629340871
10
-31.499999999992951
20
-1.7999999999983629
42
0.41421318992719303
10
-31.799999618526726
20
-1.499999999998636
10
-33.049999999998363
20
-1.500000000002331
42
0.41421356237309503
10
-34.049999999997453
20
-2.5
10
-34.04999999999518
20
-4.193145749998167
42
0.19891239086779036
10
-33.171320151845975
20
-6.3144662852687361
10
-30.46446647589995
20
-9.0213203435624862
42
0.19891236738097928
10
-28.343146132338006
20
-9.9000000000000909
10
-23.30685386766163
20
-9.9000000000006594
42
0.19891236738021512
10
-21.185533524096627
20
-9.0213203435564537
10
-18.478679659996878
20
-6.3144660900007432
42
0.19891236720905386
10
-17.600000005029415
20
-4.1931457519535797
10
-17.599999999999056
20
-2.5
42
0.41421353444197984
10
-18.599999904627111
20
-1.499999999998636
10
-19.849999999996726
20
-1.4999999999945142
42
0.41421281750580802
10
-20.149999999996453
20
-1.7999992370528162
10
-20.150000000000944
20
-2.5999999999930878
42
-0.41421337616123066
10
-20.449999809261499
20
-2.899999999992815
10
-21.849999999997181
20
-2.8999999999977266
42
-0.41421328304781646
10
-22.649999999996453
20
-2.1000007629390889
10
-22.649999999996528
20
-0.99999999999909139
42
-0.41421367410355503
10
-21.649999618525726
20
0
10
-6.1232339957451193e-17
20
2.2730428650419299e-12
42
-0.41421356237309503
10
1.000000000001364
20
-0.99999999999909106
10
0.99999961853203867
20
-2.1000007629390889
42
-0.41421362021611219
10
0.20000000000209198
20
-2.899999999992815
10
-1.200000190731316
20
-2.8999999999973007
42
-0.41421337616345116
10
-1.499999999998636
20
-2.5999999999930878
10
-1.5000003814710039
20
-1.7999992370528162
42
0.41421371662801371
10
-1.7999999999983629
20
-1.499999999998636
10
-3.0500000953634299
20
-1.4999999999952305
42
0.41421353443998199
10
-4.0499999999974534
20
-2.5
10
-4.050000095367329
20
-4.1931457519535806
42
0.19891232348525209
10
-3.1713203399954182
20
-6.3144660899956762
10
-0.46446647589994755
20
-9.021320343562488
42
0.19891236738137305
10
1.6568538676665412
20
-9.9000000000000909
10
6.6931461323383701
20
-9.9000000000006594
42
0.19891236738021512
10
8.8144664759033731
20
-9.0213203435564537
10
11.521320343021866
20
-6.3144664764374392
42
0.19891227312280549
10
12.400000000002365
20
-4.1931457499981661
10
12.399999618529094
20
-2.5
42
0.41421383210725038
10
11.400000000003274
20
-1.499999999998636
10
10.149999618531638
20
-1.4999999999983096
42
0.41421318994273243
10
9.850000000003547
20
-1.7999999999983629
10
9.8500003814765194
20
-2.600000762938635
42
-0.41421191837475657
10
9.5499999999992724
20
-2.899999999992815
10
8.1499996185311847
20
-2.9000000000018193
42
-0.41421342271169764
10
7.350000000003547
20
-2.0999999999980901
10
7.3500003814753594
20
-0.9999999999990915
42
-0.4142138321125784
10
8.3500000000026375
20
0
10
16.175000000000637
20
4.5474735088646412e-12
42
-0.41421356237398305
10
19.175000000000182
20
-2.9999999999995453
10
19.175000000006929
20
-10.824999618523634
42
-0.41421367410288901
10
18.175000000001091
20
-11.824999999998909
10
17.074999237063366
20
-11.824999618518214
42
-0.41421362022443647
10
16.275000000002819
20
-11.024999999999636
10
16.274999999998332
20
-9.6249998092639544
42
-0.41421337616123116
10
16.575000000002547
20
-9.3249999999989086
10
17.375000762940545
20
-9.324999618528814
42
0.41421371663467393
10
17.674999999999272
20
-9.0249999999991815
10
17.675000000004953
20
-7.7749999046318408
42
0.41421353443998199
10
16.675000000000182
20
-6.7750000000000909
10
14.981854248046602
20
-6.7749999046300724
42
0.19891232348315296
10
12.860533909999958
20
-7.6536796599998524
10
10.153679656440096
20
-10.360533524097724
42
0.1989123673784523
10
9.2750000000023647
20
-12.481853867654991
10
9.2750000000025068
20
-17.518146132333641
42
0.19891236737884621
10
10.153679656443728
20
-19.639466475891822
10
12.86053352356012
20
-22.346320343015211
42
0.19891227312114798
10
14.981854250008837
20
-23.224999999997635
10
16.675000000000182
20
-23.224999618527633
42
0.41421383211124618
10
17.674999999999272
20
-22.224999999998545
10
17.675000000002868
20
-20.974999618522361
42
0.41421318994939177
10
17.375000000001819
20
-20.674999999998818
10
16.574999237070642
20
-20.675000381464969
42
-0.41421191837253724
10
16.275000000002819
20
-20.374999999999091
10
16.275000000002912
20
-18.97499961852418
42
-0.41421342271252992
10
17.075000000002092
20
-18.174999999998818
10
18.175000000001091
20
-18.175000381468355
42
-0.41421383211191215
10
19.175000000000182
20
-19.174999999997908
10
19.175000000011551
20
-40.824999999997544
42
-0.41421356237043117
10
18.175000000001091
20
-41.824999999998909
10
17.075000000002092
20
-41.82499999999672
42
-0.4142134227158597
10
16.275000000002819
20
-41.025000381462178
10
16.275000000004123
20
-39.624999999998636
42
-0.41421281752578659
10
16.574999237070642
20
-39.324999999998909
10
17.375000000001819
20
-39.324999999993651
42
0.41421318995605139
10
17.674999999999272
20
-39.025000381463997
10
17.675000000004957
20
-37.774999999999181
42
0.41421356237242907
10
16.675000000000182
20
-36.775000000000091
10
14.981854250008837
20
-36.774999999992559
42
0.19891239086552812
10
12.860533714731446
20
-37.653679848147021
10
10.153679656440096
20
-40.360533524097725
42
0.1989123673784523
10
9.2750000000023647
20
-42.481853867654991
10
9.2750000000025068
20
-47.518146132333641
42
0.19891236737884621
10
10.153679656443728
20
-49.639466475891822
10
12.860533910004467
20
-52.346320339997916
42
0.19891236720897187
10
14.981854248046602
20
-53.224999994963582
10
16.675000000000182
20
-53.225000000000051
42
0.41421353443865006
10
17.674999999999272
20
-52.225000095365885
10
17.67500000000112
20
-50.974999999991724
42
0.41421281750802758
10
17.375000762940545
20
-50.67499999999427
10
16.575000000002547
20
-50.674999999994334
42
-0.41421337615457154
10
16.275000000002819
20
-50.375000190726951
10
16.275000000002457
20
-48.97499999999809
42
-0.41421328304864879
10
17.074999237063366
20
-48.174999999998818
10
18.175000000001091
20
-48.174999999998747
42
-0.41421367410155707
10
19.175000000000182
20
-49.175000381462723
10
19.174999999995634
20
-57.000000000000455
42
-0.41421356237331708
10
16.175000000000637
20
-59.999999999993179
10
8.3500000000026375
20
-59.999999999990905
42
-0.41421356237109713
10
7.350000000003547
20
-58.999999999998636
10
7.3500000000080039
20
-57.899999999999636
42
-0.41421342271252992
10
8.1499996185311829
20
-57.09999999999809
10
9.5499999999992724
20
-57.09999999999485
42
-0.41421281750580774
10
9.850000000003547
20
-57.399999237059092
10
9.8500000000075261
20
-58.199999999999363
42
0.41421318994051226
10
10.149999618531638
20
-58.499999999999091
10
11.400000000003274
20
-58.499999999999233
42
0.41421356236909923
10
12.400000000002365
20
-57.5
10
12.399999999999523
20
-55.806854249992739
42
0.19891239086860224
10
11.521320151846339
20
-53.68553371472899
10
8.8144664759070039
20
-50.978679656435368
42
0.1989123673795187
10
6.6931461323383701
20
-50.099999999997635
10
1.656853867666541
20
-50.099999999996925
42
0.19891236738206944
10
-0.46446647589846179
20
-50.978679656438999
10
-3.1713203399949279
20
-53.685533910000267
42
0.19891236721045663
10
-4.0499999949634002
20
-55.806854248039599
10
-4.0499999999985894
20
-57.5
42
0.41421353443798409
10
-3.0500000953634299
20
-58.499999999999091
10
-1.7999999999983629
20
-58.499999999998664
42
0.41421281750802758
10
-1.499999999998636
20
-58.200000762938089
10
-1.4999999999941496
20
-57.400000000000091
42
-0.41421337616567155
10
-1.200000190731316
20
-57.09999999999809
10
0.20000000000209198
20
-57.100000000000001
42
-0.41421328304448629
10
1.000000000001364
20
-57.899999237058637
10
0.99999999999461608
20
-58.999999999998636
42
-0.41421367410222304
10
-3.8146708902786486e-07
20
-59.999999999993179
10
-21.649999618525726
20
-59.999999999997655
42
-0.41421367410355492
10
-22.649999999996453
20
-58.999999999998636
10
-22.649999618524852
20
-57.899999237058637
42
-0.41421362022776625
10
-21.849999999997181
20
-57.09999999999809
10
-20.449999809261499
20
-57.099999999993607
42
-0.414213376163451
10
-20.149999999996453
20
-57.400000000000091
10
-20.149999618530622
20
-58.200000762931268
42
0.41421371665687268
10
-19.849999999996726
20
-58.499999999999091
10
-18.599999904627111
20
-58.500000000001215
42
0.41421353443998199
10
-17.599999999997635
20
-57.5
10
-17.599999904629609
20
-55.806854248039599
42
0.19891232348188956
10
-18.478679659997397
20
-53.685533909999776
10
-21.185533524092996
20
-50.978679656435368
42
0.19891236737951876
10
-23.30685386766163
20
-50.099999999997635
10
-28.343146132338006
20
-50.099999999993372
42
0.19891236738167556
10
-30.464466475898462
20
-50.978679656438999
10
-33.171320343014202
20
-53.685533523551669
42
0.19891227312388607
10
-34.049999999997453
20
-55.806854249992739
10
-34.049999618535267
20
-57.5
42
0.41421383211257806
10
-33.049999999998363
20
-58.499999999999091
10
-31.799999618526726
20
-58.49999999999288
42
0.41421318992941297
10
-31.499999999998636
20
-58.199999999999363
10
-31.500000381462513
20
-57.399999237059092
42
-0.41421191836809756
10
-31.199999999998909
20
-57.09999999999809
10
-29.799999618526272
20
-57.100000000000449
42
-0.41421342271003253
10
-28.999999999998636
20
-57.899999999999636
10
-29.000000381463629
20
-58.999999999998636
42
-0.41421383211391
10
-30
20
-59.999999999993179
10
-37.825000000000273
20
-60
42
-0.41421356237309503
10
-40.824999999999818
20
-57.000000000000455
10
-40.824999999999747
20
-49.175000381462723
42
-0.41421367410155707
10
-39.825000000000728
20
-48.174999999998818
10
-38.724999237058455
20
-48.175000381470419
42
-0.41421362022443647
10
-37.924999999997908
20
-48.97499999999809
10
-37.925000000000246
20
-50.375000190726951
42
-0.41421337615235171
10
-38.224999999997635
20
-50.67499999999427
10
-39.025000762928812
20
-50.675000381463363
42
0.41421371664799317
10
-39.324999999998909
20
-50.974999999991724
10
-39.324999999987391
20
-52.225000095365885
42
0.41421353443465425
10
-38.324999999999818
20
-53.224999999997635
10
-36.631854248046238
20
-53.225000095360826
42
0.198912323483523
10
-34.510533909992773
20
-52.3463203399956
10
-31.803679656431957
20
-49.639466475891858
42
0.19891236737725618
10
-30.924999999997453
20
-47.518146132333641
10
-30.924999999999017
20
-42.481853867654991
42
0.19891236737652626
10
-31.803679656431996
20
-40.360533524101356
10
-34.510533523561129
20
-37.653679656977069
42
0.19891227312005785
10
-36.631854249997104
20
-36.775000000000091
10
-38.324999999999818
20
-36.774999999993128
42
0.41421356236843332
0
LWPOLYLINE
5
101
100
AcDbEntity
8
0
100
AcDbPolyline
90
64
70
1
43
0.0
10
-36.82499977469206
20
-34.875000043508322
42
-0.41421362836394471
10
-37.824999999996578
20
-33.875000043510681
10
-37.824999999993018
20
-26.124999956475676
42
-0.41421362836394471
10
-36.82499977469206
20
-25.124999956481588
10
-36.681855360707232
20
-25.124999988727268
42
0.19891244462986291
10
-33.146320073919377
20
-23.660533640318683
10
-30.464466475897435
20
-20.978679656435478
42
-0.19891236738097914
10
-28.343146132338006
20
-20.100000000000193
10
-22.63210678118412
20
-20.099999999997635
42
0.19891236737444026
10
-22.278553390588204
20
-19.953553390589459
10
-20.871446609401119
20
-18.546446609400391
42
0.19891236739043808
10
-20.724999999994655
20
-18.192893218806603
10
-20.724999999994225
20
-12.481853867654991
42
-0.19891236737831283
10
-19.846320343554218
20
-10.360533524098862
10
-17.1644660015113
20
-7.6786791820541112
42
0.19891238201820316
10
-15.699999907446633
20
-4.1431449944889218
10
-15.699999977464216
20
-4.0000000563213689
42
-0.41421357886897564
10
-14.699999977465268
20
-2.9999999999974136
10
-6.9500000225252743
20
-2.9999999999974136
42
-0.41421357886964161
10
-5.9500000225240521
20
-4.0000000563213689
10
-5.9500000925504537
20
-4.1431449944889209
42
0.19891238201753467
10
-4.4855339984852929
20
-7.6786791820578904
10
-1.8036796564353685
20
-10.360533524104731
42
-0.19891236737652609
10
-0.92500000000256988
20
-12.481853867654991
10
-0.92499999999745297
20
-18.192893218806603
42
0.19891236739628723
10
-0.77855339059048556
20
-18.546446609403727
10
0.62855339059751691
20
-19.953553390589605
42
0.19891236736268209
10
0.98210678118675787
20
-20.099999999996072
10
6.6931461323383701
20
-20.099999999991951
42
-0.1989123673792402
10
8.8144664759047338
20
-20.978679656433094
10
11.496320073922561
20
-23.660533640315862
42
0.19891244463053742
10
15.031855360712143
20
-25.12499998872714
10
15.174999774699245
20
-25.124999956474483
42
-0.41421362836194681
10
16.175000000000495
20
-26.124999956475676
10
16.175000000009305
20
-33.875000043510681
42
-0.41421362836927239
10
15.174999774699245
20
-34.875000043513865
10
15.031855360712143
20
-34.87500001125909
42
0.19891244463037036
10
11.496320073924108
20
-36.339466359672045
10
8.8144664759026412
20
-39.021320343555722
42
-0.19891236738021512
10
6.6931461323383701
20
-39.900000000000659
10
0.98210678118675787
20
-39.900000000000091
42
0.19891236736017356
10
0.62855339060102
20
-40.046446609402523
10
-0.77855339058714901
20
-41.45355339058824
42
0.19891236739844864
10
-0.92499999999859006
20
-41.807106781182028
10
-0.92500000000157068
20
-47.518146132333641
42
-0.19891236737725668
10
-1.8036796564344693
20
-49.63946647588935
10
-4.4855339984815146
20
-52.321320817936794
42
0.19891238201726369
10
-5.9500000925493097
20
-55.856855005497437
10
-5.9500000225204994
20
-55.999999943669536
42
-0.41421357886964172
10
-6.9500000225252734
20
-56.999999999997044
10
-14.699999977465268
20
-56.999999999997044
42
-0.41421357886897575
10
-15.699999977467767
20
-55.999999943669536
10
-15.699999907446909
20
-55.856855005497437
42
0.19891238201796654
10
-17.164466001513496
20
-52.321320817938997
10
-19.846320343555117
20
-49.639466475895219
42
-0.19891236737912479
10
-20.724999999997493
20
-47.518146132333641
10
-20.724999999997635
20
-41.807106781182028
42
0.19891236738940279
10
-20.871446609406643
20
-41.453553390593754
10
-22.278553390588058
20
-40.046446609399027
42
0.19891236737193399
10
-22.63210678118412
20
-39.899999999996687
10
-28.343146132338006
20
-39.900000000002365
42
-0.19891236738097914
10
-30.464466475902459
20
-39.021320343564994
10
-33.146320073922197
20
-36.339466359670496
42
0.19891244462969576
10
-36.681855360707232
20
-34.875000011258649
0
LWPOLYLINE
5
102
100
AcDbEntity
8
0
100
AcDbPolyline
90
8
70
1
43
0.0
10
-39.025000047683989
20
-5.3499999999991097
42
-0.41421351582012678
10
-39.324999999992656
20
-5.0499999999988177
10
-39.324999999996777
20
-2.9999999999995453
42
-0.41421356237442691
10
-37.825000000000273
20
-1.499999999996219
10
-35.774999999996453
20
-1.4999999999945144
42
-0.41421356237753504
10
-35.474999999997152
20
-1.7999999999983629
10
-35.474999999998118
20
-5.0499992370532709
42
-0.41421430724521441
10
-35.774999999996453
20
-5.3499999999981185
0
LWPOLYLINE
5
103
100
AcDbEntity
8
0
100
AcDbPolyline
90
8
70
1
43
0.0
10
17.375000047684352
20
-54.649999999994066
42
-0.41421351582900623
10
17.674999999997567
20
-54.949999999998909
10
17.674999999999415
20
-57.000000000000455
42
-0.41421356237353901
10
16.175000000000637
20
-58.499999999996959
10
14.125000000001364
20
-58.499999999998664
42
-0.41421356237309503
10
13.825000000002063
20
-58.199999999999363
10
13.825000000003033
20
-54.950000762930813
42
-0.41421430723189517
10
14.125000000001364
20
-54.649999999999608
0
LWPOLYLINE
5
104
100
AcDbEntity
8
0
100
AcDbPolyline
90
8
70
1
43
0.0
10
-39.324999999996216
20
-54.949999999998909
42
-0.41421351582456656
10
-39.025000047683989
20
-54.649999999990513
10
-35.774999999996453
20
-54.649999999997341
42
-0.41421453201251751
10
-35.475000095365921
20
-54.950000762930813
10
-35.475000000000705
20
-58.199999999999363
42
-0.41421356237531493
10
-35.774999999996453
20
-58.499999999997385
10
-37.825000000000273
20
-58.499999999996959
42
-0.41421356237309503
10
-39.324999999996777
20
-57.000000000000455
0
LWPOLYLINE
5
105
100
AcDbEntity
8
0
100
AcDbPolyline
90
8
70
1
43
0.0
10
17.67500000000112
20
-5.0499999999988177
42
-0.41421351582456656
10
17.375000047684352
20
-5.3500000000026624
10
14.125000000001364
20
-5.349999999993563
42
-0.4142145320147374
10
13.82500009537538
20
-5.0499992370532709
10
13.824999999998511
20
-1.7999999999983629
42
-0.41421356236865559
10
14.125000000001364
20
-1.5000000000000571
10
16.175000000000637
20
-1.4999999999962199
42
-0.41421356237487073
10
17.674999999999415
20
-2.9999999999995444
0
CIRCLE
5
106
100
AcDbEntity
8
0
100
AcDbCircle
10
-25.824999999995271
20
-45
30
0
40
2.4499999999996191
210
0
220
0
230
1
0
CIRCLE
5
107
100
AcDbEntity
8
0
100
AcDbCircle
10
-25.824999999995271
20
-14.999999999993179
30
0
40
2.4499999999996191
210
0
220
0
230
1
0
CIRCLE
5
108
100
AcDbEntity
8
0
100
AcDbCircle
10
4.1750000000001819
20
-45
30
0
40
2.4499999999996191
210
0
220
0
230
1
0
CIRCLE
5
109
100
AcDbEntity
8
0
100
AcDbCircle
10
4.1750000000001819
20
-14.999999999993179
30
0
40
2.4499999999996191
210
0
220
0
230
1
0
LWPOLYLINE
5
110
100
AcDbEntity
8
0
100
AcDbPolyline
90
232
70
1
43
0.0
10
-39.324999999998909
20
-37.774999999999181
10
-39.324999999998909
20
-39.025000381463997
42
0.41421318995161166
10
-39.024999999996908
20
-39.324999999998909
10
-38.22499923705891
20
-39.324999618525936
42
-0.41421191838143406
10
-37.924999999997908
20
-39.624999999998636
10
-37.924999999997993
20
-41.025000381462171
42
-0.41421342271336398
10
-38.724999999997181
20
-41.824999999998909
10
-39.825000000000728
20
-41.824999618531635
42
-0.41421383210925611
10
-40.824999999999818
20
-40.824999999997544
10
-40.824999999988449
20
-19.174999999997908
42
-0.414213562367102
10
-39.825000000000728
20
-18.174999999998818
10
-38.724999999997181
20
-18.174999999994181
42
-0.41421342271086098
10
-37.924999999997908
20
-18.97499961852418
10
-37.925000000001482
20
-20.374999999999091
42
-0.41421281750801892
10
-38.22499923705891
20
-20.67499999999427
10
-39.024999999996908
20
-20.675000000003081
42
0.41421318995161166
10
-39.324999999998909
20
-20.974999618522361
10
-39.324999999987398
20
-22.224999999998545
42
0.41421356236710138
10
-38.324999999999818
20
-23.224999999997635
10
-36.631854249997104
20
-23.225000000001046
42
0.19891239086624851
10
-34.510533714724261
20
-22.346320151846157
10
-31.803679656431957
20
-19.639466475891862
42
0.19891236737725629
10
-30.924999999997453
20
-17.518146132333641
10
-30.924999999999017
20
-12.481853867654991
42
0.19891236737652626
10
-31.803679656431996
20
-10.360533524101356
10
-34.510533909992731
20
-7.6536796599929877
42
0.19891236720995686
10
-36.631854248046238
20
-6.7750000050295967
10
-38.324999999999818
20
-6.7750000000002331
42
0.41421353443865006
10
-39.324999999998909
20
-7.7749999046318408
10
-39.324999999997203
20
-9.0249999999991815
42
0.41421281752134681
10
-39.025000762928812
20
-9.3249999999920874
10
-38.224999999997635
20
-9.3249999999988482
42
-0.41421337615680115
10
-37.924999999997908
20
-9.6249998092639544
10
-37.924999999990725
20
-11.024999999999636
42
-0.41421328304615468
10
-38.724999237058455
20
-11.824999999998909
10
-39.82500000000072
20
-11.824999999996709
42
-0.41421367410155513
10
-40.824999999999818
20
-10.824999618523634
10
-40.824999999992997
20
-2.9999999999995448
42
-0.41421356237376156
10
-37.825000000000273
20
0
10
-30
20
2.2759572004815709e-12
42
-0.41421356237309326
10
-28.999999999998636
20
-0.99999999999909106
10
-28.99999999999627
20
-2.0999999999980896
42
-0.41421342270920308
10
-29.799999618526272
20
-2.899999999992815
10
-31.199999999998909
20
-2.8999999999937804
42
-0.41421281750580341
10
-31.499999999998636
20
-2.6000007629340871
10
-31.499999999992951
20
-1.7999999999983629
42
0.41421318992719303
10
-31.799999618526726
20
-1.499999999998636
10
-33.049999999998363
20
-1.500000000002331
42
0.41421356237309503
10
-34.049999999997453
20
-2.5
10
-34.04999999999518
20
-4.1931457499981661
42
0.19891239086779045
10
-33.171320151845975
20
-6.3144662852687361
10
-30.46446647589995
20
-9.0213203435624862
42
0.19891236738097928
10
-28.343146132338006
20
-9.9000000000000909
10
-23.30685386766163
20
-9.9000000000006594
42
0.19891236738021512
10
-21.185533524096627
20
-9.0213203435564537
10
-18.478679659996878
20
-6.3144660900007432
42
0.19891236720905386
10
-17.600000005029415
20
-4.1931457519535797
10
-17.599999999999056
20
-2.5
42
0.41421353444197984
10
-18.599999904627111
20
-1.499999999998636
10
-19.849999999996726
20
-1.4999999999945142
42
0.41421281750580802
10
-20.149999999996453
20
-1.7999992370528162
10
-20.150000000000944
20
-2.5999999999930878
42
-0.41421337616123166
10
-20.449999809261499
20
-2.899999999992815
10
-21.849999999997181
20
-2.8999999999977244
42
-0.41421328304781901
10
-22.649999999996453
20
-2.1000007629390889
10
-22.649999999996524
20
-0.99999999999909162
42
-0.41421367410355314
10
-21.649999618525726
20
0
10
-2.8327694488278537e-16
20
2.2730428650419299e-12
42
-0.41421356237309509
10
1.000000000001364
20
-0.99999999999909106
10
0.99999961853203911
20
-2.1000007629390889
42
-0.41421362021611285
10
0.20000000000209198
20
-2.899999999992815
10
-1.200000190731316
20
-2.8999999999973012
42
-0.41421337616344994
10
-1.499999999998636
20
-2.5999999999930878
10
-1.5000003814710037
20
-1.7999992370528162
42
0.41421371662801371
10
-1.7999999999983629
20
-1.499999999998636
10
-3.0500000953634299
20
-1.4999999999952305
42
0.41421353443998199
10
-4.0499999999974534
20
-2.5
10
-4.050000095367329
20
-4.1931457519535806
42
0.19891232348525217
10
-3.1713203399954182
20
-6.3144660899956762
10
-0.46446647589994755
20
-9.021320343562488
42
0.19891236738137305
10
1.6568538676665412
20
-9.9000000000000909
10
6.6931461323383701
20
-9.9000000000006594
42
0.19891236738021512
10
8.8144664759033731
20
-9.0213203435564537
10
11.521320343021866
20
-6.3144664764374392
42
0.19891227312280549
10
12.400000000002365
20
-4.1931457499981661
10
12.399999618529094
20
-2.5
42
0.41421383210725038
10
11.400000000003274
20
-1.499999999998636
10
10.149999618531638
20
-1.4999999999983096
42
0.41421318994273243
10
9.850000000003547
20
-1.7999999999983629
10
9.8500003814765194
20
-2.600000762938635
42
-0.41421191837475768
10
9.5499999999992724
20
-2.899999999992815
10
8.1499996185311847
20
-2.9000000000018193
42
-0.41421342271169764
10
7.350000000003547
20
-2.0999999999980901
10
7.3500003814753594
20
-0.9999999999990915
42
-0.4142138321125784
10
8.3500000000026375
20
0
10
16.175000000000637
20
4.546363285840016e-12
42
-0.41421356237398332
10
19.175000000000182
20
-2.9999999999995453
10
19.175000000006929
20
-10.824999618523634
42
-0.41421367410288901
10
18.175000000001091
20
-11.824999999998909
10
17.074999237063366
20
-11.824999618518216
42
-0.41421362022443892
10
16.275000000002819
20
-11.024999999999636
10
16.274999999998332
20
-9.6249998092639544
42
-0.41421337616123444
10
16.575000000002547
20
-9.3249999999989086
10
17.375000762940545
20
-9.324999618528814
42
0.41421371663467393
10
17.674999999999272
20
-9.0249999999991815
10
17.675000000004953
20
-7.7749999046318408
42
0.41421353443998199
10
16.675000000000182
20
-6.7750000000000909
10
14.981854248046602
20
-6.7749999046300724
42
0.19891232348315296
10
12.860533909999958
20
-7.6536796599998524
10
10.153679656440096
20
-10.360533524097724
42
0.1989123673784523
10
9.2750000000023647
20
-12.481853867654991
10
9.2750000000025068
20
-17.518146132333641
42
0.19891236737884621
10
10.153679656443728
20
-19.639466475891822
10
12.86053352356012
20
-22.346320343015211
42
0.19891227312114798
10
14.981854250008837
20
-23.224999999997635
10
16.675000000000182
20
-23.224999618527633
42
0.41421383211124618
10
17.674999999999272
20
-22.224999999998545
10
17.675000000002868
20
-20.974999618522361
42
0.41421318994939177
10
17.375000000001819
20
-20.674999999998818
10
16.574999237070642
20
-20.675000381464962
42
-0.41421191837253513
10
16.275000000002819
20
-20.374999999999091
10
16.275000000002912
20
-18.97499961852418
42
-0.41421342271253314
10
17.075000000002092
20
-18.174999999998818
10
18.175000000001091
20
-18.175000381468355
42
-0.41421383211191409
10
19.175000000000182
20
-19.174999999997908
10
19.175000000011554
20
-40.824999999997544
42
-0.41421356237042661
10
18.175000000001091
20
-41.824999999998909
10
17.075000000002092
20
-41.82499999999672
42
-0.4142134227158662
10
16.275000000002819
20
-41.025000381462178
10
16.275000000004127
20
-39.624999999998636
42
-0.41421281752578437
10
16.574999237070642
20
-39.324999999998909
10
17.375000000001819
20
-39.324999999993651
42
0.41421318995605139
10
17.674999999999272
20
-39.025000381463997
10
17.675000000004957
20
-37.774999999999181
42
0.41421356237242907
10
16.675000000000182
20
-36.775000000000091
10
14.981854250008837
20
-36.774999999992559
42
0.19891239086552812
10
12.860533714731446
20
-37.653679848147021
10
10.153679656440096
20
-40.360533524097725
42
0.1989123673784523
10
9.2750000000023647
20
-42.481853867654991
10
9.2750000000025068
20
-47.518146132333641
42
0.19891236737884621
10
10.153679656443728
20
-49.639466475891822
10
12.860533910004467
20
-52.346320339997916
42
0.19891236720897187
10
14.981854248046602
20
-53.224999994963582
10
16.675000000000182
20
-53.225000000000051
42
0.41421353443865006
10
17.674999999999272
20
-52.225000095365885
10
17.67500000000112
20
-50.974999999991724
42
0.41421281750802758
10
17.375000762940545
20
-50.67499999999427
10
16.575000000002547
20
-50.674999999994327
42
-0.41421337615456066
10
16.275000000002819
20
-50.375000190726951
10
16.275000000002454
20
-48.97499999999809
42
-0.41421328304864963
10
17.074999237063366
20
-48.174999999998818
10
18.175000000001091
20
-48.174999999998747
42
-0.41421367410155707
10
19.175000000000182
20
-49.175000381462723
10
19.174999999995631
20
-57.000000000000455
42
-0.4142135623733168
10
16.175000000000637
20
-59.999999999993179
10
8.3500000000026375
20
-59.999999999990898
42
-0.41421356237109452
10
7.350000000003547
20
-58.999999999998636
10
7.3500000000080092
20
-57.899999999999636
42
-0.41421342271252787
10
8.1499996185311829
20
-57.09999999999809
10
9.5499999999992724
20
-57.09999999999485
42
-0.41421281750580341
10
9.850000000003547
20
-57.399999237059092
10
9.8500000000075261
20
-58.199999999999363
42
0.41421318994051226
10
10.149999618531638
20
-58.499999999999091
10
11.400000000003274
20
-58.499999999999233
42
0.41421356236909923
10
12.400000000002365
20
-57.5
10
12.399999999999523
20
-55.806854249992739
42
0.19891239086860224
10
11.521320151846339
20
-53.68553371472899
10
8.8144664759070039
20
-50.978679656435368
42
0.1989123673795187
10
6.6931461323383701
20
-50.099999999997635
10
1.6568538676665414
20
-50.099999999996925
42
0.19891236738206952
10
-0.46446647589846179
20
-50.978679656438999
10
-3.1713203399949275
20
-53.685533910000267
42
0.19891236721045663
10
-4.0499999949634002
20
-55.806854248039599
10
-4.0499999999985894
20
-57.5
42
0.41421353443798409
10
-3.0500000953634299
20
-58.499999999999091
10
-1.7999999999983629
20
-58.499999999998664
42
0.41421281750802758
10
-1.499999999998636
20
-58.200000762938089
10
-1.4999999999941567
20
-57.400000000000091
42
-0.41421337616567849
10
-1.200000190731316
20
-57.09999999999809
10
0.20000000000209187
20
-57.100000000000009
42
-0.41421328304448241
10
1.000000000001364
20
-57.899999237058637
10
0.9999999999946152
20
-58.999999999998636
42
-0.41421367410221754
10
-3.8146708902786486e-07
20
-59.999999999993179
10
-21.649999618525726
20
-59.999999999997655
42
-0.41421367410355364
10
-22.649999999996453
20
-58.999999999998636
10
-22.649999618524852
20
-57.899999237058637
42
-0.41421362022777275
10
-21.849999999997181
20
-57.09999999999809
10
-20.449999809261499
20
-57.099999999993607
42
-0.41421337616343801
10
-20.149999999996453
20
-57.400000000000091
10
-20.149999618530622
20
-58.200000762931268
42
0.41421371665687268
10
-19.849999999996726
20
-58.499999999999091
10
-18.599999904627111
20
-58.500000000001215
42
0.41421353443998199
10
-17.599999999997635
20
-57.5
10
-17.599999904629609
20
-55.806854248039599
42
0.19891232348188956
10
-18.478679659997397
20
-53.685533909999776
10
-21.185533524092996
20
-50.978679656435368
42
0.19891236737951876
10
-23.30685386766163
20
-50.099999999997635
10
-28.343146132338006
20
-50.099999999993372
42
0.19891236738167556
10
-30.464466475898462
20
-50.978679656438999
10
-33.171320343014202
20
-53.685533523551669
42
0.19891227312388607
10
-34.049999999997453
20
-55.806854249992739
10
-34.049999618535267
20
-57.5
42
0.41421383211257806
10
-33.049999999998363
20
-58.499999999999091
10
-31.799999618526726
20
-58.49999999999288
42
0.41421318992941297
10
-31.499999999998636
20
-58.199999999999363
10
-31.50000038146251
20
-57.399999237059085
42
-0.4142119183680672
10
-31.199999999998909
20
-57.09999999999809
10
-29.799999618526272
20
-57.100000000000449
42
-0.41421342271003253
10
-28.999999999998636
20
-57.899999999999636
10
-29.000000381463629
20
-58.999999999998629
42
-0.41421383211390872
10
-30
20
-59.999999999993179
10
-37.825000000000273
20
-60.000000000000007
42
-0.41421356237309592
10
-40.824999999999818
20
-57.000000000000455
10
-40.824999999999754
20
-49.175000381462731
42
-0.41421367410155574
10
-39.825000000000728
20
-48.174999999998818
10
-38.724999237058455
20
-48.175000381470419
42
-0.41421362022443647
10
-37.924999999997908
20
-48.97499999999809
10
-37.925000000000246
20
-50.375000190726958
42
-0.41421337615232129
10
-38.224999999997635
20
-50.67499999999427
10
-39.025000762928812
20
-50.675000381463363
42
0.41421371664799317
10
-39.324999999998909
20
-50.974999999991724
10
-39.324999999987391
20
-52.225000095365885
42
0.41421353443465425
10
-38.324999999999818
20
-53.224999999997635
10
-36.631854248046238
20
-53.225000095360826
42
0.198912323483523
10
-34.510533909992773
20
-52.3463203399956
10
-31.803679656431957
20
-49.639466475891858
42
0.19891236737725618
10
-30.924999999997453
20
-47.518146132333641
10
-30.924999999999017
20
-42.481853867654991
42
0.19891236737652626
10
-31.803679656431996
20
-40.360533524101356
10
-34.510533523561129
20
-37.653679656977069
42
0.19891227312005785
10
-36.631854249997104
20
-36.775000000000091
10
-38.324999999999818
20
-36.774999999993128
42
0.41421356236843332
0
LWPOLYLINE
5
111
100
AcDbEntity
8
0
100
AcDbPolyline
90
64
70
1
43
0.0
10
-36.82499977469206
20
-34.875000043508322
42
-0.41421362836394471
10
-37.824999999996578
20
-33.875000043510681
10
-37.824999999993018
20
-26.124999956475676
42
-0.41421362836394993
10
-36.82499977469206
20
-25.124999956481588
10
-36.681855360707232
20
-25.124999988727268
42
0.19891244462986307
10
-33.146320073919377
20
-23.660533640318675
10
-30.464466475897435
20
-20.978679656435478
42
-0.19891236738097789
10
-28.343146132338006
20
-20.100000000000193
10
-22.63210678118412
20
-20.099999999997635
42
0.19891236737444026
10
-22.278553390588204
20
-19.953553390589459
10
-20.871446609401119
20
-18.546446609400391
42
0.19891236739043808
10
-20.724999999994655
20
-18.192893218806603
10
-20.724999999994225
20
-12.481853867654992
42
-0.1989123673783125
10
-19.846320343554218
20
-10.360533524098862
10
-17.1644660015113
20
-7.6786791820541112
42
0.1989123820182031
10
-15.699999907446633
20
-4.1431449944889218
10
-15.699999977464214
20
-4.0000000563213689
42
-0.41421357886897575
10
-14.699999977465268
20
-2.9999999999974136
10
-6.9500000225252743
20
-2.9999999999974145
42
-0.41421357886964127
10
-5.9500000225240521
20
-4.0000000563213689
10
-5.9500000925504537
20
-4.1431449944889209
42
0.19891238201753467
10
-4.4855339984852929
20
-7.6786791820578904
10
-1.8036796564353705
20
-10.360533524104731
42
-0.19891236737652632
10
-0.92500000000257099
20
-12.481853867654991
10
-0.92499999999745297
20
-18.192893218806603
42
0.1989123673962872
10
-0.77855339059048567
20
-18.546446609403727
10
0.62855339059751691
20
-19.953553390589605
42
0.19891236736268214
10
0.98210678118675787
20
-20.099999999996072
10
6.6931461323383701
20
-20.099999999991951
42
-0.19891236737923984
10
8.814466475904732
20
-20.978679656433094
10
11.496320073922561
20
-23.660533640315862
42
0.19891244463053717
10
15.031855360712139
20
-25.124999988727144
10
15.174999774699245
20
-25.124999956474483
42
-0.41421362836194942
10
16.175000000000495
20
-26.124999956475676
10
16.175000000009309
20
-33.875000043510674
42
-0.41421362836927567
10
15.174999774699245
20
-34.875000043513865
10
15.031855360712143
20
-34.87500001125909
42
0.19891244463037014
10
11.49632007392411
20
-36.339466359672045
10
8.8144664759026412
20
-39.021320343555722
42
-0.19891236738021431
10
6.6931461323383719
20
-39.900000000000659
10
0.98210678118675787
20
-39.900000000000091
42
0.19891236736017345
10
0.62855339060102011
20
-40.046446609402523
10
-0.77855339058714901
20
-41.45355339058824
42
0.19891236739844864
10
-0.92499999999859017
20
-41.807106781182028
10
-0.92500000000157012
20
-47.518146132333641
42
-0.1989123673772539
10
-1.8036796564344704
20
-49.63946647588935
10
-4.4855339984815146
20
-52.321320817936794
42
0.19891238201726369
10
-5.9500000925493097
20
-55.856855005497437
10
-5.9500000225204941
20
-55.999999943669536
42
-0.41421357886963817
10
-6.9500000225252734
20
-56.999999999997044
10
-14.699999977465268
20
-56.999999999997044
42
-0.41421357886897964
10
-15.699999977467767
20
-55.999999943669536
10
-15.699999907446909
20
-55.856855005497437
42
0.19891238201796654
10
-17.164466001513496
20
-52.321320817938997
10
-19.846320343555121
20
-49.639466475895219
42
-0.19891236737912432
10
-20.724999999997493
20
-47.518146132333641
10
-20.724999999997635
20
-41.807106781182028
42
0.19891236738940121
10
-20.87144660940664
20
-41.453553390593754
10
-22.278553390588058
20
-40.046446609399027
42
0.19891236737193399
10
-22.63210678118412
20
-39.899999999996673
10
-28.343146132338006
20
-39.900000000002365
42
-0.19891236738097845
10
-30.464466475902459
20
-39.021320343564994
10
-33.146320073922197
20
-36.339466359670496
42
0.19891244462969576
10
-36.681855360707232
20
-34.875000011258649
0
CIRCLE
5
112
100
AcDbEntity
8
0
100
AcDbCircle
10
-25.824999999995271
20
-45
30
0
40
2.4499999999996187
210
0
220
0
230
1
0
CIRCLE
5
113
100
AcDbEntity
8
0
100
AcDbCircle
10
-25.824999999995271
20
-14.999999999993179
30
0
40
2.4499999999996187
210
0
220
0
230
1
0
CIRCLE
5
114
100
AcDbEntity
8
0
100
AcDbCircle
10
4.1750000000001819
20
-45
30
0
40
2.4499999999996187
210
0
220
0
230
1
0
CIRCLE
5
115
100
AcDbEntity
8
0
100
AcDbCircle
10
4.1750000000001819
20
-14.999999999993179
30
0
40
2.4499999999996187
210
0
220
0
230
1
0
LWPOLYLINE
5
116
100
AcDbEntity
8
0
100
AcDbPolyline
90
8
70
1
43
0.0
10
-39.025000047683989
20
-5.3499999999991061
42
-0.41421351582013216
10
-39.324999999992656
20
-5.0499999999988177
10
-39.324999999996784
20
-2.9999999999995448
42
-0.41421356237442791
10
-37.825000000000273
20
-1.499999999996219
10
-35.774999999996453
20
-1.4999999999945146
42
-0.41421356237753482
10
-35.474999999997152
20
-1.7999999999983629
10
-35.474999999998118
20
-5.0499992370532709
42
-0.41421430724520575
10
-35.774999999996453
20
-5.3499999999981185
0
LWPOLYLINE
5
117
100
AcDbEntity
8
0
100
AcDbPolyline
90
8
70
1
43
0.0
10
17.375000047684352
20
-54.649999999994066
42
-0.41421351582900623
10
17.674999999997567
20
-54.949999999998909
10
17.674999999999418
20
-57.000000000000455
42
-0.4142135623735364
10
16.175000000000637
20
-58.499999999996959
10
14.125000000001364
20
-58.499999999998664
42
-0.41421356237309503
10
13.825000000002063
20
-58.199999999999363
10
13.825000000003037
20
-54.950000762930813
42
-0.41421430723189301
10
14.125000000001364
20
-54.649999999999608
0
LWPOLYLINE
5
118
100
AcDbEntity
8
0
100
AcDbPolyline
90
8
70
1
43
0.0
10
-39.324999999996216
20
-54.949999999998909
42
-0.41421351582454918
10
-39.025000047683989
20
-54.649999999990513
10
-35.774999999996453
20
-54.649999999997341
42
-0.41421453201251751
10
-35.475000095365921
20
-54.950000762930813
10
-35.475000000000712
20
-58.199999999999363
42
-0.41421356237532797
10
-35.774999999996453
20
-58.499999999997385
10
-37.825000000000273
20
-58.499999999996959
42
-0.41421356237309592
10
-39.324999999996777
20
-57.000000000000455
0
LWPOLYLINE
5
119
100
AcDbEntity
8
0
100
AcDbPolyline
90
8
70
1
43
0.0
10
17.675000000001116
20
-5.0499999999988177
42
-0.41421351582456434
10
17.375000047684352
20
-5.3500000000026624
10
14.125000000001364
20
-5.3499999999935612
42
-0.41421453201473085
10
13.82500009537538
20
-5.0499992370532709
10
13.824999999998511
20
-1.7999999999983629
42
-0.41421356236865475
10
14.125000000001364
20
-1.5000000000000571
10
16.175000000000633
20
-1.4999999999962177
42
-0.41421356237487111
10
17.674999999999415
20
-2.9999999999995444
0
ENDSEC
0
SECTION
2
OBJECTS
0
DICTIONARY
5
C
100
AcDbDictionary
3
ACAD_GROUP
350
D
3
ACAD_MLINESTYLE
350
17
0
DICTIONARY
5
D
100
AcDbDictionary
0
DICTIONARY
5
1A
330
C
100
AcDbDictionary
0
DICTIONARY
5
17
100
AcDbDictionary
0
ENDSEC
0
EOF
