0
SECTION
2
HEADER
9
$INSUNITS
70
4
9
$ACADVER
1
AC1014
9
$HANDSEED
5
FFFF
0
ENDSEC
0
SECTION
2
TABLES
0
TABLE
2
VPORT
5
8
100
AcDbSymbolTable
0
ENDTAB
0
TABLE
2
LTYPE
5
5
100
AcDbSymbolTable
0
LTYPE
5
14
100
AcDbSymbolTableRecord
100
AcDbLinetypeTableRecord
2
BYBLOCK
70
0
0
LTYPE
5
15
100
AcDbSymbolTableRecord
100
AcDbLinetypeTableRecord
2
BYLAYER
70
0
0
ENDTAB
0
TABLE
2
LAYER
5
2
100
AcDbSymbolTable
70
2
0
LAYER
5
50
100
AcDbSymbolTableRecord
100
AcDbLayerTableRecord
2
0
70
0
6
CONTINUOUS
0
ENDTAB
0
TABLE
2
STYLE
5
3
100
AcDbSymbolTable
70
1
0
STYLE
5
11
100
AcDbSymbolTableRecord
100
AcDbTextStyleTableRecord
2
STANDARD
70
0
0
ENDTAB
0
TABLE
2
VIEW
5
6
100
AcDbSymbolTable
70
0
0
ENDTAB
0
TABLE
2
UCS
5
7
100
AcDbSymbolTable
70
0
0
ENDTAB
0
TABLE
2
APPID
5
9
100
AcDbSymbolTable
70
2
0
APPID
5
12
100
AcDbSymbolTableRecord
100
AcDbRegAppTableRecord
2
ACAD
70
0
0
ENDTAB
0
TABLE
2
DIMSTYLE
5
A
100
AcDbSymbolTable
70
1
0
ENDTAB
0
TABLE
2
BLOCK_RECORD
5
1
100
AcDbSymbolTable
70
1
0
BLOCK_RECORD
5
1F
100
AcDbSymbolTableRecord
100
AcDbBlockTableRecord
2
*MODEL_SPACE
0
BLOCK_RECORD
5
1B
100
AcDbSymbolTableRecord
100
AcDbBlockTableRecord
2
*PAPER_SPACE
0
ENDTAB
0
ENDSEC
0
SECTION
2
BLOCKS
0
BLOCK
5
20
100
AcDbEntity
100
AcDbBlockBegin
2
*MODEL_SPACE
0
ENDBLK
5
21
100
AcDbEntity
100
AcDbBlockEnd
0
BLOCK
5
1C
100
AcDbEntity
100
AcDbBlockBegin
2
*PAPER_SPACE
0
ENDBLK
5
1D
100
AcDbEntity
100
AcDbBlockEnd
0
ENDSEC
0
SECTION
2
ENTITIES
0
LWPOLYLINE
5
100
100
AcDbEntity
8
0
100
AcDbPolyline
90
216
70
1
43
0.0
10
-54.399999976155904
20
54.399999990872416
10
-54.399999976157041
20
25.600000010875657
42
0.41421356237309503
10
-52.899999976156984
20
24.100000010875601
10
-50.749999976157802
20
24.100000010875515
42
0.41421355944352783
10
-49.74999997615658
20
25.100000000874569
10
-49.749999976156509
20
26.600000010875373
42
0.41421356432502987
10
-50.249999979488145
20
27.100000010877121
10
-51.899999972821185
20
27.099999999876843
42
-0.41421356254824304
10
-52.399999976158504
20
27.599999996839742
42
-0.41421356639151019
10
-49.899999957040784
20
30.100000012023898
10
-48.692388095258359
20
30.100000002791347
42
-0.19891236539265239
10
-45.15685422755957
20
28.635533908721396
10
-43.464466070225988
20
26.943145751383121
42
-0.19891236737957491
10
-41.99999997615911
20
23.407611845449704
10
-41.999999976159387
20
16.592388156298455
42
-0.19891236737965823
10
-43.464466070227388
20
13.056854250363907
10
-45.156854227561112
20
11.364466093031464
42
-0.19891236539243379
10
-48.692388095260952
20
9.8999999989599914
10
-49.899999957043377
20
9.8999999897263908
42
-0.41421356639190976
10
-52.399999976161098
20
12.400000004913958
42
-0.41421356254824304
10
-51.899999972823778
20
12.900000001876856
10
-50.249999976159714
20
12.89999999087418
42
0.41421356823222938
10
-49.749999976159103
20
13.400000000876959
10
-49.749999976160176
20
14.899999990876838
42
0.41421356237342799
10
-50.749999976159621
20
15.89999999087742
10
-52.899999976158803
20
15.899999990877504
42
0.41421356041315527
10
-54.399999976151499
20
14.400000000907562
10
-54.399999963790734
20
4.0000000009079244
42
0.41421355394409642
10
-50.399999987633436
20
-2.2935316423833285e-08
10
-39.999999997632557
20
-1.145676692404507e-08
42
0.41421356237353907
10
-38.499999997634276
20
1.4999999885437871
10
-38.499999997634191
20
3.649999988542969
42
0.4142135594441938
10
-39.499999987633743
20
4.6499999885424153
10
-40.999999997634546
20
4.6499999885424739
42
0.41421356432636181
10
-41.499999997635157
20
4.1499999852074279
10
-41.499999986633746
20
2.4999999918755251
42
-0.4142135625462452
10
-41.999999983596645
20
1.9999999885416169
42
-0.41421356639217616
10
-44.499999998783075
20
4.5000000076627478
10
-44.499999989550531
20
5.7076118694417595
42
-0.19891236539225915
10
-43.035533895484079
20
9.2431457371373824
10
-41.343145738144671
20
10.93553389447438
42
-0.19891236737941448
10
-37.807611832210334
20
12.399999988542248
10
-30.992388143062492
20
12.399999988541978
42
-0.19891236737935539
10
-27.456854237131804
20
10.935533894475151
10
-25.764466079794811
20
9.2431457371368815
42
-0.19891236539220711
10
-24.299999985726654
20
5.7076118694429692
10
-24.299999976491922
20
4.5000000076616784
42
-0.41421356639164342
10
-26.799999991673804
20
1.9999999885405473
42
-0.41421356254757696
10
-27.299999988638977
20
2.4999999918744562
10
-27.299999977639708
20
4.1499999885407943
42
0.41421356823023153
10
-27.7999999876373
20
4.649999988539629
10
-29.299999977638315
20
4.6499999885396885
42
0.41421356237309503
10
-30.299999977637761
20
3.6499999885402423
10
-30.299999977637846
20
1.49999998854106
42
0.41421356042138219
10
-28.799999987631359
20
-1.146077316382943e-08
10
0
20
0
42
0.41421356283627869
10
1.5000000023658442
20
1.4999999885420547
10
1.500000002365929
20
3.6499999885412366
42
0.41421356237309503
10
0.50000000236826014
20
4.6499999885389052
10
-0.99999998763161801
20
4.6499999885401024
42
0.41421356823422756
10
-1.4999999976378082
20
4.1499999885394914
10
-1.4999999866307139
20
2.4999999918731519
42
-0.41421356254957487
10
-1.9999999835981594
20
1.9999999885381081
42
-0.41421356639177659
10
-4.4999999987811794
20
4.5000000076592386
10
-4.4999999895440776
20
5.7076118694405276
42
-0.19891236539218288
10
-3.0355338954775779
20
9.2431457371331867
10
-1.3431457381415821
20
10.93553389447132
42
-0.19891236737932064
10
2.1923881677879664
20
12.399999988539282
10
9.007611856939219
20
12.399999988537878
42
-0.19891236737954998
10
12.543145762871372
20
10.935533894472659
10
14.235533920208372
20
9.243145737134391
42
-0.19891236539250973
10
15.700000014277711
20
5.7076118694366196
10
15.700000023515859
20
4.5000000076576043
42
-0.41421356639257573
10
13.200000008327795
20
1.9999999885382493
42
-0.414213562546911
10
12.700000011365535
20
2.4999999918703821
10
12.700000022367073
20
4.1499999852022844
42
0.41421356432636181
10
12.200000022366462
20
4.6499999885373304
10
10.700000012369069
20
4.6499999885373899
42
0.41421355944585891
10
9.7000000223678828
20
3.6499999885374468
10
9.7000000223677993
20
1.4999999885382662
42
0.41421356237353907
10
11.200000022364305
20
-1.1460512816530155e-08
10
21.600000012365182
20
-2.3824366368607741e-08
42
0.41421355394278098
10
25.599999988523617
20
3.9999999999997731
10
25.600000000000591
20
14.399999999999409
42
0.4142135604211602
10
24.100000000000819
20
15.899999989997795
10
21.950000000002774
20
15.899999989999287
42
0.41421356237409396
10
20.949999999999918
20
14.89999998999906
10
20.950000000002547
20
13.399999999999181
42
0.41421356823089744
10
21.450000000002092
20
12.899999989998676
10
23.099999996663882
20
12.900000001000649
42
-0.41421356254691111
10
23.600000000001415
20
12.400000004035974
42
-0.41421356639217616
10
21.099999980881421
20
9.8999999888484069
10
19.892388119098996
20
9.8999999980855335
42
-0.19891236539165405
10
16.356854251403558
20
11.364466092152735
10
14.664466094067091
20
13.056854249489259
42
-0.19891236737957443
10
13.200000000000216
20
16.592388155422668
10
13.200000000001353
20
23.407611844573921
42
-0.19891236737949089
10
14.664466094067091
20
26.943145750506194
10
16.356854251405888
20
28.635533907846067
42
-0.1989123653923672
10
19.892388119100129
20
30.100000001913756
10
21.099999980882558
20
30.100000011145269
42
-0.41421356639204299
10
23.600000000001842
20
27.599999995960616
42
-0.41421356254691111
10
23.099999996665019
20
27.099999998995941
10
21.450000003331979
20
27.100000009999121
42
0.41421356432369794
10
20.950000000004394
20
26.600000009999576
10
20.950000000003683
20
25.099999999998772
42
0.41421355944352783
10
21.950000000003911
20
24.100000009997942
10
24.100000000001955
20
24.100000009999576
42
0.414213562373761
10
25.600000000005423
20
25.600000009999349
10
25.600000000002865
20
54.399999989996104
42
0.414213562373761
10
24.100000000003092
20
55.899999989994384
10
21.950000000005048
20
55.899999989999287
42
0.41421355944352783
10
20.950000000002049
20
54.899999999998954
10
20.95000000000482
20
53.399999989999287
42
0.41421356432502987
10
21.450000003333116
20
52.899999989995266
10
23.099999996666156
20
52.900000001000649
42
-0.41421356254691111
10
23.600000000003689
20
52.400000004035974
42
-0.41421356639217616
10
21.099999980883695
20
49.899999988848407
10
19.89238811910127
20
49.899999998087594
42
-0.19891236539183144
10
16.356854251408702
20
51.364466092152199
10
14.664466094067091
20
53.056854249491536
42
-0.19891236737940732
10
13.20000000000249
20
56.592388155422668
10
13.20000000000249
20
63.407611844573921
42
-0.19891236737949064
10
14.664466094068224
20
66.94314575050619
10
16.356854251406283
20
68.635533907846821
42
-0.19891236539152846
10
19.892388119101266
20
70.100000001912832
10
21.099999980883695
20
70.100000011145269
42
-0.41421356639204299
10
23.600000000002979
20
67.599999995960616
42
-0.41421356254691111
10
23.099999996666156
20
67.099999998995941
10
21.450000000004366
20
67.100000009999121
42
0.41421356823156341
10
20.950000000003755
20
66.599999999998545
10
20.95000000000482
20
65.100000009999803
42
0.41421356237409396
10
21.950000000005048
20
64.100000010000358
10
24.100000000003092
20
64.100000009999576
42
0.41421356042027224
10
25.600000000003149
20
65.599999999998317
10
25.599999987641695
20
75.999999999999091
42
0.41421355394417969
10
21.600000011482532
20
80.000000023842333
10
11.200000021481653
20
80.000000012362648
42
0.41421356237309503
10
9.7000000214833726
20
78.500000012364367
10
9.7000000214832873
20
76.350000012364049
42
0.4142135594461917
10
10.700000011484473
20
75.350000012362969
10
12.200000021481866
20
75.350000012362912
42
0.41421356432569584
10
12.700000021482477
20
75.850000015696821
10
12.70000001048107
20
77.500000009028724
42
-0.41421356254757707
10
13.200000007445105
20
78.000000012363756
42
-0.41421356639244256
10
15.700000022634946
20
75.499999993243762
10
15.700000013396703
20
74.292388131464747
42
-0.1989123653925686
10
14.23553391932737
20
70.756854263765845
10
12.543145761990239
20
69.06446610642999
42
-0.19891236737904583
10
9.0076118560578156
20
67.600000012363964
10
2.1923881669065621
20
67.600000012364248
42
-0.19891236737978299
10
-1.3431457390259189
20
69.064466106432405
10
-3.0355338963617831
20
70.756854263768389
42
-0.19891236539236026
10
-4.4999999904282841
20
74.292388131464463
10
-4.49999999966529
20
75.499999993243478
42
-0.41421356639137707
10
-1.9999999844822702
20
78.000000012361198
42
-0.41421356254957498
10
-1.4999999875166001
20
77.500000009027929
10
-1.4999999985181409
20
75.850000012362727
42
0.41421356823489291
10
-0.99999998851550409
20
75.350000012364532
10
0.50000000148437485
20
75.350000012364461
42
0.41421356237309509
10
1.5000000014838211
20
76.350000012363907
10
1.5000000014839052
20
78.500000012364225
42
0.4142135604209381
10
1.1483246156187472e-08
20
80.000000012362506
10
-28.799999988513303
20
80.000000012362506
42
0.4142135604211602
10
-30.299999978518013
20
78.500000012363586
10
-30.299999978518098
20
76.350000012363267
42
0.41421356237309503
10
-29.299999978518652
20
75.350000012363822
10
-27.799999988517637
20
75.350000012363751
42
0.41421356823023153
10
-27.299999978520045
20
75.850000012362585
10
-27.299999989519179
20
77.500000009027787
42
-0.41421356254824304
10
-26.799999992554007
20
78.000000012362833
42
-0.41421356639124385
10
-24.299999977372124
20
75.499999993245112
10
-24.299999986606949
20
74.292388131466097
42
-0.19891236539232551
10
-25.764466080676147
20
70.756854263767394
10
-27.456854238013278
20
69.064466106431553
42
-0.19891236737967544
10
-30.992388143945885
20
67.600000012365143
10
-37.807611833093731
20
67.600000012365413
42
-0.19891236737969956
10
-41.343145739026326
20
69.064466106432945
10
-43.035533896367866
20
70.756854263768943
42
-0.19891236539219995
10
-44.499999990434844
20
74.292388131464676
10
-44.499999999667295
20
75.499999993243691
42
-0.41421356639151019
10
-41.999999984483139
20
78.000000012361411
42
-0.41421356254691111
10
-41.499999987520241
20
77.500000009026365
10
-41.49999999852178
20
75.850000015694462
42
0.41421356432569584
10
-40.999999998521169
20
75.350000012360553
10
-39.499999988520365
20
75.350000012361647
42
0.4142135594441938
10
-38.499999998520813
20
76.350000012361093
10
-38.499999998520728
20
78.500000012361411
42
0.41421356237309503
10
-39.999999998519009
20
80.000000012359692
10
-50.399999988519895
20
80.000000024723548
42
0.41421355394409642
10
-54.399999964677193
20
76.000000000880306
10
-54.399999976156572
20
65.600000000879533
42
0.41421356041960627
10
-52.899999976157012
20
64.100000010879867
10
-50.749999976157831
20
64.100000010879782
42
0.41421356237276202
10
-49.749999976156609
20
65.100000010879867
10
-49.749999976156545
20
66.600000000878609
42
0.41421356823222938
10
-50.249999976157156
20
67.100000010881388
10
-51.89999997282122
20
67.099999999881121
42
-0.41421356254824304
10
-52.39999997615854
20
67.599999996844019
42
-0.41421356639151019
10
-49.899999957040819
20
70.100000012028175
10
-48.692388095258394
20
70.100000002795625
42
-0.19891236539265239
10
-45.156854227559606
20
68.635533908725662
10
-43.464466070226003
20
66.943145751387391
42
-0.1989123673795741
10
-41.999999976159131
20
63.407611845453992
10
-41.999999976159408
20
56.592388156302739
42
-0.19891236737949158
10
-43.464466070226194
20
53.056854250367948
10
-45.156854227559904
20
51.364466093035489
42
-0.19891236539243357
10
-48.69238809525848
20
49.899999998964546
10
-49.899999957040905
20
49.899999989729807
42
-0.41421356639190976
10
-52.399999976158625
20
52.400000004917374
42
-0.41421356254824304
10
-51.899999972821306
20
52.900000001880272
10
-50.249999979488265
20
52.899999990876474
42
0.41421356432369794
10
-49.74999997615663
20
53.399999990875948
10
-49.749999976157717
20
54.900000000875615
42
0.41421355944319488
10
-50.749999976156666
20
55.899999990875806
10
-52.899999976155847
20
55.899999990872473
42
0.41421356237309503
0
LWPOLYLINE
5
101
100
AcDbEntity
8
0
100
AcDbPolyline
90
64
70
1
43
0.0
10
18.549751036379121
20
32.999999999999901
42
0.19891214629483134
10
15.014220138063809
20
31.535536913553649
10
12.693142361953305
20
29.214463086445875
42
-0.19891214629417403
10
9.1576114636461625
20
27.749999999999769
10
1.8571067811853936
20
27.750000000000909
42
0.19891236737419549
10
1.5035533905945031
20
27.603553390592257
10
-2.0035533905911511
20
24.096446609406712
42
0.19891236737948464
10
-2.14999999999911
20
23.742893218814061
10
-2.149999999998538
20
16.442388536356706
42
-0.19891214629452558
10
-3.614463086449144
20
12.90685763804319
10
-5.9355369135516867
20
10.585779861937681
42
0.19891214629429946
10
-7.3999999999989559
20
7.0502489636282917
10
-7.3999999999999488
20
6.5000000000009104
42
-0.41421356237296181
10
-9.9000000000000909
20
3.9999999999996314
10
-18.899999999999864
20
3.9999999999996314
42
-0.41421356237269547
10
-21.399999999997732
20
6.5000000000009104
10
-21.399999999996453
20
7.0502489636237442
42
0.19891214629455325
10
-22.864463086446989
20
10.585779861938963
10
-25.185536913551708
20
12.906857638044563
42
-0.19891214629456011
10
-26.650000000000134
20
16.442388536356699
10
-26.650000000000773
20
23.742893218815198
42
0.19891236737906706
10
-26.796446609406615
20
24.096446609407764
10
-30.303553390592697
20
27.603553390595152
42
0.19891236737798659
10
-30.657106781186485
20
27.750000000000981
10
-37.95761146364498
20
27.75000000000226
42
-0.19891214629398959
10
-41.493142361955563
20
29.21446308644926
10
-43.814220138062865
20
31.535536913552278
42
0.19891214629417406
10
-47.349751036375665
20
33.000000000001606
10
-47.900000000000773
20
33.000000000000043
42
-0.4142135623734946
10
-50.400000000000276
20
35.500000000002956
10
-50.399999999998499
20
44.500000000002728
42
-0.41421356237309503
10
-47.899999999999636
20
46.999999999999318
10
-47.349751036374528
20
46.999999999999318
42
0.19891214629444506
10
-43.8142201380617
20
48.464463086444283
10
-41.493142361954305
20
50.785536913552896
42
-0.19891214629404846
10
-37.95761146364385
20
52.249999999999375
10
-30.657106781185348
20
52.250000000001364
42
0.19891236737798498
10
-30.303553390591404
20
52.396446609408102
10
-26.796446609405393
20
55.903553390594425
42
0.19891236737924015
10
-26.64999999999857
20
56.257106781187076
10
-26.649999999999991
20
63.557611463644434
42
-0.19891214629474488
10
-25.185536913550898
20
67.093142361956907
10
-22.864463086447131
20
69.414220138062319
42
0.19891214629494644
10
-21.399999999997515
20
72.949751036371708
10
-21.399999999998727
20
73.500000000000227
42
-0.4142135623734946
10
-18.89999999999759
20
75.999999999997954
10
-9.8999999999978172
20
75.99999999999973
42
-0.41421356237309503
10
-7.3999999999983146
20
73.500000000000227
10
-7.3999999999989541
20
72.949751036376256
42
0.19891214629404894
10
-5.9355369135531122
20
69.414220138062021
10
-3.6144630864450495
20
67.093142361956367
42
-0.19891214629418835
10
-2.1499999999944919
20
63.557611463647845
10
-2.1499999999969082
20
56.257106781185939
42
0.19891236737478538
10
-2.0035533905881362
20
55.903553390595171
10
1.5035533905938792
20
52.396446609407121
42
0.19891236737545012
10
1.8571067811865309
20
52.249999999999375
10
9.1576114636472976
20
52.249999999998735
42
-0.19891214629421583
10
12.693142361958776
20
50.785536913550501
10
15.014220138064047
20
48.464463086446585
42
0.19891214629442477
10
18.549751036376847
20
46.999999999997542
10
19.100000000003092
20
46.999999999998323
42
-0.41421356237242907
10
21.600000000000961
20
44.499999999999318
10
21.600000000000961
20
35.499999999999545
42
-0.41421356237282864
10
19.100000000001955
20
32.999999999998266
0
LWPOLYLINE
5
102
100
AcDbEntity
8
0
100
AcDbPolyline
90
8
70
1
43
0.0
10
23.300000000001546
20
71.799999999996658
42
0.4142135623717631
10
23.80000000000166
20
72.299999999999045
10
23.800000000005568
20
75.999999999999091
42
0.41421354857593878
10
21.600000000004229
20
78.200000047683034
10
17.900000000003047
20
78.199999999998155
42
0.41421353443931602
10
17.400000000003502
20
77.700000047683488
10
17.400000000001459
20
72.299999999999045
42
0.41421338519045042
10
17.899999237063184
20
71.800000190734181
0
LWPOLYLINE
5
103
100
AcDbEntity
8
0
100
AcDbPolyline
90
8
70
1
43
0.0
10
-52.099999999999227
20
8.2000000000027029
42
0.41421356237309503
10
-52.599999999999838
20
7.7000000000020918
10
-52.600000000002112
20
4.0000000000031823
42
0.41421354528053717
10
-50.40000000000191
20
1.79999995231924
10
-46.699999999999591
20
1.8000000000007086
42
0.41421353443998166
10
-46.200000000001182
20
2.2999999523176484
10
-46.199999999998639
20
7.700000000000955
42
0.41421338519178236
10
-46.699999237059728
20
8.1999998092669557
0
LWPOLYLINE
5
104
100
AcDbEntity
8
0
100
AcDbPolyline
90
8
70
1
43
0.0
10
-52.599999999995788
20
72.300000000002456
42
0.41421356237309503
10
-52.099999999996953
20
71.800000000003621
10
-46.699999237057455
20
71.800000190740406
42
0.41421338519111639
10
-46.199999999998909
20
72.300000000001319
10
-46.199999999996706
20
77.700000047685762
42
0.41421353443931602
10
-46.69999999999618
20
78.200000000001637
10
-50.399999999998499
20
78.200000047688647
42
0.41421354563632418
10
-52.599999999996498
20
76.000000000002501
0
LWPOLYLINE
5
105
100
AcDbEntity
8
0
100
AcDbPolyline
90
8
70
1
43
0.0
10
23.79999999999761
20
7.6999999999986812
42
0.41421356236909923
10
23.299999999999272
20
8.1999999999947448
10
17.899999237060911
20
8.1999998092625024
42
0.41421338519111639
10
17.400000000000091
20
7.6999999999986812
10
17.399999999999029
20
2.2999999523153751
42
0.41421353444064812
10
17.899999999999636
20
1.7999999999995
10
21.600000000000819
20
1.7999999523154055
42
0.41421354869135973
10
23.799999999998818
20
3.9999999999997731
0
CIRCLE
5
106
100
AcDbEntity
8
0
100
AcDbCircle
10
5.600000000001728
20
20
30
0
40
3.349999999999298
210
0
220
0
230
1
0
CIRCLE
5
107
100
AcDbEntity
8
0
100
AcDbCircle
10
5.6000000000028649
20
60
30
0
40
3.349999999999298
210
0
220
0
230
1
0
CIRCLE
5
108
100
AcDbEntity
8
0
100
AcDbCircle
10
-34.400000000000546
20
20.000000000001137
30
0
40
3.349999999999298
210
0
220
0
230
1
0
CIRCLE
5
109
100
AcDbEntity
8
0
100
AcDbCircle
10
-34.399999999999409
20
60.000000000001137
30
0
40
3.349999999999298
210
0
220
0
230
1
0
LWPOLYLINE
5
110
100
AcDbEntity
8
0
100
AcDbPolyline
90
216
70
1
43
0.0
10
-54.399999976155904
20
54.399999990872416
10
-54.399999976157041
20
25.600000010875657
42
0.41421356237309853
10
-52.899999976156984
20
24.100000010875601
10
-50.749999976157802
20
24.100000010875515
42
0.41421355944352395
10
-49.74999997615658
20
25.100000000874569
10
-49.749999976156509
20
26.600000010875373
42
0.41421356432502465
10
-50.249999979488145
20
27.10000001087711
10
-51.899999972821185
20
27.099999999876843
42
-0.41421356254824304
10
-52.399999976158504
20
27.599999996839742
42
-0.41421356639151019
10
-49.899999957040784
20
30.100000012023898
10
-48.692388095258359
20
30.100000002791347
42
-0.19891236539265239
10
-45.15685422755957
20
28.635533908721396
10
-43.464466070225988
20
26.943145751383121
42
-0.19891236737957491
10
-41.99999997615911
20
23.407611845449704
10
-41.999999976159387
20
16.592388156298455
42
-0.19891236737965823
10
-43.464466070227388
20
13.056854250363907
10
-45.156854227561112
20
11.364466093031464
42
-0.19891236539243379
10
-48.692388095260952
20
9.8999999989599914
10
-49.899999957043377
20
9.8999999897263908
42
-0.41421356639190976
10
-52.399999976161098
20
12.400000004913958
42
-0.41421356254824304
10
-51.899999972823778
20
12.900000001876856
10
-50.249999976159714
20
12.89999999087418
42
0.41421356823223721
10
-49.749999976159103
20
13.400000000876959
10
-49.749999976160176
20
14.899999990876838
42
0.4142135623734241
10
-50.749999976159614
20
15.899999990877415
10
-52.899999976158803
20
15.899999990877504
42
0.41421356041315216
10
-54.399999976151499
20
14.400000000907562
10
-54.399999963790734
20
4.0000000009079244
42
0.41421355394409537
10
-50.399999987633436
20
-2.2935320864725384e-08
10
-39.999999997632557
20
-1.145676692404507e-08
42
0.41421356237354046
10
-38.499999997634276
20
1.4999999885437874
10
-38.499999997634191
20
3.649999988542969
42
0.41421355944419352
10
-39.499999987633743
20
4.6499999885424135
10
-40.999999997634546
20
4.6499999885424739
42
0.41421356432636081
10
-41.499999997635157
20
4.1499999852074279
10
-41.499999986633746
20
2.4999999918755251
42
-0.4142135625462452
10
-41.999999983596645
20
1.9999999885416169
42
-0.41421356639217621
10
-44.499999998783075
20
4.5000000076627487
10
-44.499999989550531
20
5.7076118694417612
42
-0.19891236539225915
10
-43.035533895484079
20
9.2431457371373824
10
-41.343145738144671
20
10.93553389447438
42
-0.19891236737941448
10
-37.807611832210334
20
12.399999988542248
10
-30.992388143062492
20
12.399999988541978
42
-0.19891236737935539
10
-27.456854237131804
20
10.935533894475151
10
-25.764466079794808
20
9.2431457371368815
42
-0.19891236539220722
10
-24.299999985726654
20
5.7076118694429674
10
-24.299999976491922
20
4.5000000076616784
42
-0.41421356639164342
10
-26.799999991673804
20
1.9999999885405473
42
-0.41421356254757696
10
-27.299999988638977
20
2.4999999918744562
10
-27.299999977639708
20
4.1499999885407943
42
0.41421356823023087
10
-27.7999999876373
20
4.6499999885396281
10
-29.299999977638315
20
4.6499999885396885
42
0.41421356237309492
10
-30.299999977637761
20
3.6499999885402423
10
-30.299999977637846
20
1.49999998854106
42
0.41421356042138069
10
-28.799999987631359
20
-1.146077455160821e-08
10
1.2365184431928355e-08
20
-1.1460772886273674e-08
42
0.41421356042182639
10
1.5000000023658442
20
1.4999999885420552
10
1.500000002365929
20
3.6499999885412366
42
0.41421356237309537
10
0.50000000236825992
20
4.6499999885389052
10
-0.99999998763161801
20
4.6499999885401024
42
0.41421356823422817
10
-1.4999999976378076
20
4.1499999885394914
10
-1.4999999866307139
20
2.4999999918731519
42
-0.41421356254957487
10
-1.9999999835981594
20
1.9999999885381081
42
-0.41421356639177664
10
-4.4999999987811794
20
4.5000000076592395
10
-4.4999999895440794
20
5.7076118694405249
42
-0.19891236539218299
10
-3.0355338954775775
20
9.2431457371331884
10
-1.3431457381415814
20
10.93553389447132
42
-0.19891236737932064
10
2.1923881677879673
20
12.399999988539282
10
9.0076118569392172
20
12.399999988537878
42
-0.1989123673795502
10
12.543145762871376
20
10.935533894472657
10
14.23553392020837
20
9.243145737134391
42
-0.19891236539250984
10
15.700000014277711
20
5.7076118694366187
10
15.700000023515859
20
4.5000000076576043
42
-0.41421356639257573
10
13.200000008327795
20
1.9999999885382493
42
-0.414213562546911
10
12.700000011365535
20
2.4999999918703821
10
12.700000022367073
20
4.1499999852022844
42
0.4142135643263628
10
12.200000022366462
20
4.6499999885373322
10
10.700000012369069
20
4.6499999885373899
42
0.41421355944585891
10
9.7000000223678846
20
3.6499999885374468
10
9.7000000223677993
20
1.4999999885382662
42
0.41421356237353901
10
11.200000022364305
20
-1.1460512538974399e-08
10
21.600000012365182
20
-2.3824367478830766e-08
42
0.41421355394278075
10
25.599999988523621
20
3.9999999999997744
10
25.600000000000591
20
14.399999999999409
42
0.41421356042115887
10
24.100000000000819
20
15.899999989997797
10
21.950000000002774
20
15.899999989999287
42
0.41421356237409529
10
20.949999999999921
20
14.89999998999906
10
20.950000000002547
20
13.399999999999181
42
0.41421356823089228
10
21.450000000002092
20
12.899999989998676
10
23.099999996663882
20
12.900000001000649
42
-0.41421356254691111
10
23.600000000001415
20
12.400000004035974
42
-0.41421356639217616
10
21.099999980881421
20
9.8999999888484069
10
19.892388119098996
20
9.8999999980855335
42
-0.19891236539165405
10
16.356854251403558
20
11.364466092152735
10
14.664466094067091
20
13.056854249489259
42
-0.19891236737957443
10
13.200000000000216
20
16.592388155422668
10
13.200000000001353
20
23.407611844573921
42
-0.19891236737949089
10
14.664466094067091
20
26.943145750506194
10
16.356854251405888
20
28.635533907846067
42
-0.1989123653923672
10
19.892388119100129
20
30.100000001913756
10
21.099999980882558
20
30.100000011145269
42
-0.41421356639204299
10
23.600000000001842
20
27.599999995960616
42
-0.41421356254691111
10
23.099999996665019
20
27.099999998995941
10
21.450000003331979
20
27.100000009999121
42
0.41421356432369533
10
20.950000000004398
20
26.600000009999576
10
20.950000000003683
20
25.099999999998772
42
0.41421355944353044
10
21.950000000003911
20
24.100000009997942
10
24.100000000001955
20
24.100000009999576
42
0.41421356237376017
10
25.600000000005426
20
25.600000009999349
10
25.600000000002865
20
54.399999989996104
42
0.41421356237375928
10
24.100000000003092
20
55.899999989994377
10
21.950000000005048
20
55.899999989999287
42
0.41421355944353178
10
20.950000000002053
20
54.899999999998954
10
20.95000000000482
20
53.399999989999287
42
0.41421356432502987
10
21.450000003333116
20
52.899999989995266
10
23.099999996666156
20
52.900000001000649
42
-0.41421356254691111
10
23.600000000003689
20
52.400000004035974
42
-0.41421356639217616
10
21.099999980883695
20
49.899999988848407
10
19.89238811910127
20
49.899999998087594
42
-0.19891236539183144
10
16.356854251408702
20
51.364466092152199
10
14.664466094067091
20
53.056854249491536
42
-0.19891236737940732
10
13.20000000000249
20
56.592388155422668
10
13.20000000000249
20
63.407611844573921
42
-0.19891236737949064
10
14.664466094068224
20
66.94314575050619
10
16.356854251406283
20
68.635533907846821
42
-0.19891236539152846
10
19.892388119101266
20
70.100000001912832
10
21.099999980883695
20
70.100000011145269
42
-0.41421356639204299
10
23.600000000002979
20
67.599999995960616
42
-0.41421356254691111
10
23.099999996666156
20
67.099999998995941
10
21.450000000004366
20
67.100000009999121
42
0.41421356823156602
10
20.950000000003751
20
66.599999999998545
10
20.95000000000482
20
65.100000009999803
42
0.4142135623740979
10
21.950000000005048
20
64.100000010000358
10
24.100000000003092
20
64.100000009999576
42
0.41421356042027568
10
25.600000000003149
20
65.599999999998317
10
25.599999987641695
20
75.999999999999091
42
0.41421355394417997
10
21.600000011482532
20
80.000000023842333
10
11.200000021481653
20
80.000000012362648
42
0.41421356237310025
10
9.7000000214833726
20
78.500000012364367
10
9.7000000214832873
20
76.350000012364049
42
0.41421355944619104
10
10.700000011484473
20
75.350000012362969
10
12.200000021481866
20
75.350000012362912
42
0.41421356432570622
10
12.700000021482477
20
75.850000015696821
10
12.70000001048107
20
77.500000009028724
42
-0.41421356254757707
10
13.200000007445105
20
78.000000012363756
42
-0.41421356639244256
10
15.700000022634946
20
75.499999993243762
10
15.700000013396703
20
74.292388131464747
42
-0.1989123653925686
10
14.23553391932737
20
70.756854263765845
10
12.543145761990237
20
69.06446610642999
42
-0.19891236737904583
10
9.0076118560578138
20
67.600000012363964
10
2.1923881669065617
20
67.600000012364248
42
-0.19891236737978299
10
-1.3431457390259194
20
69.064466106432405
10
-3.0355338963617831
20
70.756854263768389
42
-0.19891236539236026
10
-4.4999999904282841
20
74.292388131464463
10
-4.49999999966529
20
75.499999993243478
42
-0.41421356639137713
10
-1.9999999844822698
20
78.000000012361198
42
-0.41421356254957464
10
-1.4999999875166001
20
77.500000009027929
10
-1.4999999985181409
20
75.850000012362727
42
0.41421356823488392
10
-0.99999998851550398
20
75.350000012364532
10
0.50000000148437485
20
75.350000012364461
42
0.41421356237309481
10
1.50000000148382
20
76.350000012363907
10
1.5000000014839052
20
78.500000012364225
42
0.41421356042094332
10
1.1483246043186127e-08
20
80.000000012362506
10
-28.799999988513303
20
80.000000012362506
42
0.41421356042115498
10
-30.299999978518013
20
78.500000012363586
10
-30.299999978518098
20
76.350000012363267
42
0.41421356237309503
10
-29.299999978518652
20
75.350000012363822
10
-27.799999988517637
20
75.350000012363751
42
0.4142135682302393
10
-27.299999978520049
20
75.850000012362585
10
-27.299999989519179
20
77.500000009027787
42
-0.41421356254824304
10
-26.799999992554007
20
78.000000012362833
42
-0.41421356639124385
10
-24.299999977372124
20
75.499999993245112
10
-24.299999986606949
20
74.292388131466097
42
-0.19891236539232551
10
-25.764466080676147
20
70.756854263767394
10
-27.456854238013278
20
69.064466106431553
42
-0.19891236737967544
10
-30.992388143945885
20
67.600000012365143
10
-37.807611833093731
20
67.600000012365413
42
-0.19891236737969956
10
-41.343145739026326
20
69.064466106432945
10
-43.035533896367866
20
70.756854263768943
42
-0.19891236539219995
10
-44.499999990434844
20
74.292388131464676
10
-44.499999999667295
20
75.499999993243691
42
-0.41421356639151019
10
-41.999999984483139
20
78.000000012361411
42
-0.41421356254691111
10
-41.499999987520241
20
77.500000009026365
10
-41.49999999852178
20
75.850000015694462
42
0.41421356432570622
10
-40.999999998521169
20
75.350000012360553
10
-39.499999988520365
20
75.350000012361647
42
0.41421355944419902
10
-38.499999998520813
20
76.350000012361093
10
-38.499999998520728
20
78.500000012361411
42
0.41421356237309243
10
-39.999999998519009
20
80.000000012359692
10
-50.399999988519895
20
80.000000024723548
42
0.41421355394409509
10
-54.399999964677193
20
76.000000000880306
10
-54.399999976156572
20
65.600000000879533
42
0.41421356041960972
10
-52.899999976157012
20
64.100000010879867
10
-50.749999976157831
20
64.100000010879782
42
0.41421356237276202
10
-49.749999976156609
20
65.100000010879867
10
-49.749999976156545
20
66.600000000878609
42
0.4142135682322346
10
-50.249999976157156
20
67.100000010881388
10
-51.89999997282122
20
67.099999999881121
42
-0.41421356254824304
10
-52.39999997615854
20
67.599999996844019
42
-0.41421356639151019
10
-49.899999957040819
20
70.100000012028175
10
-48.692388095258394
20
70.100000002795625
42
-0.19891236539265239
10
-45.156854227559606
20
68.635533908725662
10
-43.464466070226003
20
66.943145751387391
42
-0.1989123673795741
10
-41.999999976159131
20
63.407611845453992
10
-41.999999976159408
20
56.592388156302739
42
-0.19891236737949158
10
-43.464466070226194
20
53.056854250367948
10
-45.156854227559904
20
51.364466093035489
42
-0.19891236539243357
10
-48.69238809525848
20
49.899999998964546
10
-49.899999957040905
20
49.899999989729807
42
-0.41421356639190976
10
-52.399999976158625
20
52.400000004917374
42
-0.41421356254824304
10
-51.899999972821306
20
52.900000001880272
10
-50.249999979488265
20
52.899999990876474
42
0.41421356432370315
10
-49.749999976156644
20
53.399999990875948
10
-49.749999976157717
20
54.900000000875615
42
0.41421355944319488
10
-50.749999976156666
20
55.899999990875806
10
-52.899999976155847
20
55.899999990872473
42
0.41421356237309853
0
LWPOLYLINE
5
111
100
AcDbEntity
8
0
100
AcDbPolyline
90
64
70
1
43
0.0
10
18.549751036379121
20
32.999999999999901
42
0.19891214629483125
10
15.014220138063813
20
31.535536913553649
10
12.693142361953305
20
29.214463086445875
42
-0.198912146294173
10
9.1576114636461607
20
27.749999999999773
10
1.8571067811853936
20
27.750000000000909
42
0.19891236737419549
10
1.5035533905945031
20
27.603553390592257
10
-2.0035533905911511
20
24.096446609406712
42
0.19891236737948464
10
-2.14999999999911
20
23.742893218814061
10
-2.1499999999985366
20
16.442388536356706
42
-0.19891214629452558
10
-3.6144630864491436
20
12.90685763804319
10
-5.9355369135516867
20
10.585779861937681
42
0.19891214629429935
10
-7.3999999999989559
20
7.0502489636282935
10
-7.3999999999999488
20
6.5000000000009104
42
-0.41421356237296181
10
-9.9000000000000909
20
3.9999999999996314
10
-18.899999999999864
20
3.9999999999996305
42
-0.41421356237269558
10
-21.399999999997732
20
6.5000000000009104
10
-21.399999999996453
20
7.0502489636237442
42
0.1989121462945532
10
-22.864463086446989
20
10.585779861938962
10
-25.185536913551701
20
12.906857638044563
42
-0.19891214629456022
10
-26.650000000000134
20
16.442388536356706
10
-26.650000000000773
20
23.742893218815198
42
0.19891236737906706
10
-26.796446609406615
20
24.096446609407764
10
-30.303553390592697
20
27.603553390595152
42
0.19891236737798659
10
-30.657106781186485
20
27.750000000000981
10
-37.957611463644973
20
27.75000000000226
42
-0.19891214629398893
10
-41.493142361955563
20
29.21446308644926
10
-43.814220138062865
20
31.535536913552278
42
0.19891214629417406
10
-47.349751036375665
20
33.000000000001606
10
-47.900000000000773
20
33.000000000000043
42
-0.41421356237349671
10
-50.400000000000276
20
35.500000000002956
10
-50.399999999998506
20
44.500000000002728
42
-0.41421356237309609
10
-47.899999999999636
20
46.999999999999318
10
-47.349751036374528
20
46.999999999999318
42
0.19891214629444506
10
-43.8142201380617
20
48.464463086444283
10
-41.493142361954298
20
50.785536913552889
42
-0.19891214629404905
10
-37.95761146364385
20
52.249999999999375
10
-30.657106781185348
20
52.250000000001364
42
0.19891236737798498
10
-30.303553390591404
20
52.396446609408102
10
-26.796446609405393
20
55.903553390594425
42
0.19891236737924015
10
-26.64999999999857
20
56.257106781187076
10
-26.649999999999999
20
63.557611463644434
42
-0.19891214629474627
10
-25.185536913550898
20
67.093142361956907
10
-22.864463086447131
20
69.414220138062319
42
0.1989121462949465
10
-21.399999999997519
20
72.949751036371708
10
-21.39999999999873
20
73.500000000000227
42
-0.41421356237349305
10
-18.89999999999759
20
75.999999999997954
10
-9.8999999999978172
20
75.99999999999973
42
-0.41421356237309659
10
-7.3999999999983146
20
73.500000000000227
10
-7.3999999999989541
20
72.949751036376256
42
0.19891214629404894
10
-5.9355369135531122
20
69.414220138062021
10
-3.6144630864450455
20
67.093142361956367
42
-0.19891214629418813
10
-2.1499999999944919
20
63.557611463647852
10
-2.1499999999969082
20
56.257106781185939
42
0.19891236737478538
10
-2.0035533905881362
20
55.903553390595171
10
1.5035533905938792
20
52.396446609407121
42
0.19891236737545023
10
1.8571067811865314
20
52.249999999999375
10
9.1576114636472958
20
52.249999999998735
42
-0.19891214629421328
10
12.693142361958776
20
50.785536913550501
10
15.014220138064047
20
48.464463086446585
42
0.19891214629442489
10
18.549751036376851
20
46.999999999997542
10
19.100000000003092
20
46.999999999998323
42
-0.41421356237242907
10
21.600000000000961
20
44.499999999999318
10
21.600000000000961
20
35.499999999999545
42
-0.41421356237282736
10
19.100000000001955
20
32.999999999998266
0
LWPOLYLINE
5
112
100
AcDbEntity
8
0
100
AcDbPolyline
90
8
70
1
43
0.0
10
23.300000000001546
20
71.799999999996658
42
0.4142135623717631
10
23.80000000000166
20
72.299999999999045
10
23.800000000005568
20
75.999999999999091
42
0.41421354704779417
10
21.600000000004229
20
78.200000047683034
10
17.900000000003047
20
78.199999999998155
42
0.41421353443931991
10
17.400000000003502
20
77.700000047683488
10
17.400000000001459
20
72.299999999999045
42
0.41421338519045564
10
17.899999237063184
20
71.800000190734181
0
LWPOLYLINE
5
113
100
AcDbEntity
8
0
100
AcDbPolyline
90
8
70
1
43
0.0
10
-52.099999999999227
20
8.2000000000027029
42
0.41421356237310281
10
-52.599999999999838
20
7.7000000000020918
10
-52.600000000002112
20
4.0000000000031823
42
0.41421354704764218
10
-50.40000000000191
20
1.79999995231924
10
-46.699999999999591
20
1.8000000000007086
42
0.41421353443997155
10
-46.200000000001182
20
2.2999999523176484
10
-46.199999999998639
20
7.700000000000955
42
0.41421338519178363
10
-46.699999237059728
20
8.1999998092669557
0
LWPOLYLINE
5
114
100
AcDbEntity
8
0
100
AcDbPolyline
90
8
70
1
43
0.0
10
-52.599999999995788
20
72.300000000002456
42
0.41421356237307422
10
-52.099999999996953
20
71.800000000003621
10
-46.699999237057455
20
71.800000190740406
42
0.41421338519110079
10
-46.199999999998909
20
72.300000000001319
10
-46.199999999996706
20
77.700000047685762
42
0.4142135344393108
10
-46.69999999999618
20
78.200000000001637
10
-50.399999999998499
20
78.200000047688647
42
0.41421354704764107
10
-52.599999999996498
20
76.000000000002501
0
LWPOLYLINE
5
115
100
AcDbEntity
8
0
100
AcDbPolyline
90
8
70
1
43
0.0
10
23.79999999999761
20
7.6999999999986812
42
0.41421356236909468
10
23.299999999999272
20
8.1999999999947466
10
17.899999237060911
20
8.1999998092625024
42
0.41421338519111706
10
17.400000000000091
20
7.6999999999986812
10
17.399999999999029
20
2.2999999523153751
42
0.41421353444064846
10
17.899999999999636
20
1.7999999999995
10
21.600000000000819
20
1.7999999523154053
42
0.41421354704779501
10
23.799999999998818
20
3.9999999999997731
0
CIRCLE
5
116
100
AcDbEntity
8
0
100
AcDbCircle
10
5.600000000001728
20
20
30
0
40
3.349999999999298
210
0
220
0
230
1
0
CIRCLE
5
117
100
AcDbEntity
8
0
100
AcDbCircle
10
5.6000000000028649
20
60
30
0
40
3.349999999999298
210
0
220
0
230
1
0
CIRCLE
5
118
100
AcDbEntity
8
0
100
AcDbCircle
10
-34.400000000000546
20
20.000000000001137
30
0
40
3.349999999999298
210
0
220
0
230
1
0
CIRCLE
5
119
100
AcDbEntity
8
0
100
AcDbCircle
10
-34.399999999999409
20
60.000000000001137
30
0
40
3.349999999999298
210
0
220
0
230
1
0
ENDSEC
0
SECTION
2
OBJECTS
0
DICTIONARY
5
C
100
AcDbDictionary
3
ACAD_GROUP
350
D
3
ACAD_MLINESTYLE
350
17
0
DICTIONARY
5
D
100
AcDbDictionary
0
DICTIONARY
5
1A
330
C
100
AcDbDictionary
0
DICTIONARY
5
17
100
AcDbDictionary
0
ENDSEC
0
EOF
