0
SECTION
2
HEADER
9
$INSUNITS
70
4
9
$ACADVER
1
AC1014
9
$HANDSEED
5
FFFF
0
ENDSEC
0
SECTION
2
TABLES
0
TABLE
2
VPORT
5
8
100
AcDbSymbolTable
0
ENDTAB
0
TABLE
2
LTYPE
5
5
100
AcDbSymbolTable
0
LTYPE
5
14
100
AcDbSymbolTableRecord
100
AcDbLinetypeTableRecord
2
BYBLOCK
70
0
0
LTYPE
5
15
100
AcDbSymbolTableRecord
100
AcDbLinetypeTableRecord
2
BYLAYER
70
0
0
ENDTAB
0
TABLE
2
LAYER
5
2
100
AcDbSymbolTable
70
2
0
LAYER
5
50
100
AcDbSymbolTableRecord
100
AcDbLayerTableRecord
2
0
70
0
6
CONTINUOUS
0
ENDTAB
0
TABLE
2
STYLE
5
3
100
AcDbSymbolTable
70
1
0
STYLE
5
11
100
AcDbSymbolTableRecord
100
AcDbTextStyleTableRecord
2
STANDARD
70
0
0
ENDTAB
0
TABLE
2
VIEW
5
6
100
AcDbSymbolTable
70
0
0
ENDTAB
0
TABLE
2
UCS
5
7
100
AcDbSymbolTable
70
0
0
ENDTAB
0
TABLE
2
APPID
5
9
100
AcDbSymbolTable
70
2
0
APPID
5
12
100
AcDbSymbolTableRecord
100
AcDbRegAppTableRecord
2
ACAD
70
0
0
ENDTAB
0
TABLE
2
DIMSTYLE
5
A
100
AcDbSymbolTable
70
1
0
ENDTAB
0
TABLE
2
BLOCK_RECORD
5
1
100
AcDbSymbolTable
70
1
0
BLOCK_RECORD
5
1F
100
AcDbSymbolTableRecord
100
AcDbBlockTableRecord
2
*MODEL_SPACE
0
BLOCK_RECORD
5
1B
100
AcDbSymbolTableRecord
100
AcDbBlockTableRecord
2
*PAPER_SPACE
0
ENDTAB
0
ENDSEC
0
SECTION
2
BLOCKS
0
BLOCK
5
20
100
AcDbEntity
100
AcDbBlockBegin
2
*MODEL_SPACE
0
ENDBLK
5
21
100
AcDbEntity
100
AcDbBlockEnd
0
BLOCK
5
1C
100
AcDbEntity
100
AcDbBlockBegin
2
*PAPER_SPACE
0
ENDBLK
5
1D
100
AcDbEntity
100
AcDbBlockEnd
0
ENDSEC
0
SECTION
2
ENTITIES
0
LWPOLYLINE
5
100
100
AcDbEntity
8
0
100
AcDbPolyline
90
164
70
1
43
0.0
10
-1.9999999959622983
20
-37.999999999998835
42
0.4142135625489089
10
-1.4999999989989021
20
-37.499999996664428
10
-1.5000000099985302
20
-35.850000003331388
42
-0.4142135643243639
10
-1.0000000099978481
20
-35.349999999999682
10
0.5000000000006819
20
-35.349999999996271
42
-0.41421355944552585
10
1.4999999900021519
20
-36.349999999999909
10
1.4999999900021517
20
-38.500000000000227
42
-0.41421356237309498
10
-9.9976205092389137e-09
20
-40
10
-28.799999989997787
20
-40
42
-0.41421356237309503
10
-30.299999989997559
20
-38.500000000000227
10
-30.299999989995285
20
-36.349999999999909
42
-0.41421355944519278
10
-29.299999999998363
20
-35.349999999999682
10
-27.799999989997559
20
-35.350000000000819
42
-0.4142135643243639
10
-27.299999989998014
20
-35.850000003331388
10
-27.300000000996505
20
-37.499999996664428
42
0.41421356254824304
10
-26.800000004034246
20
-37.999999999999048
42
0.41421356639177659
10
-24.299999988852505
20
-35.499999980879693
10
-24.29999999808576
20
-34.292388119097268
42
0.1989123653922002
10
-25.764466092152816
20
-30.756854251402501
10
-27.456854249490164
20
-29.064466094065718
42
0.19891236737977602
10
-30.992388155423214
20
-27.599999999999909
10
-37.807611844571056
20
-27.599999999999127
42
0.19891236737965795
10
-41.343145750504391
20
-29.064466094066574
10
-43.035533907840993
20
-30.756854251402963
42
0.19891236539232554
10
-44.50000000190812
20
-34.292388119097268
10
-44.500000011144429
20
-35.499999980879693
42
0.41421356639204299
10
-41.999999995960025
20
-37.999999999998835
42
0.41421356254757707
10
-41.499999998998192
20
-37.499999996664428
10
-41.50000000999853
20
-35.850000000000364
42
-0.41421356823023153
10
-40.999999999999091
20
-35.349999999999682
10
-39.500000009998075
20
-35.349999999999682
42
-0.41421356237309503
10
-38.500000009997848
20
-36.349999999999909
10
-38.500000009997848
20
-38.500000000000227
42
-0.41421356042093821
10
-40
20
-40
10
-50.399999999999636
20
-39.999999988525261
42
-0.41421355394297782
10
-54.400000023830763
20
-36.000000012369341
10
-54.400000011469594
20
-25.600000022367325
42
-0.41421356720032637
10
-52.899999987636335
20
-24.100000021478674
10
-50.749999987639427
20
-24.100000021479811
42
-0.41421355944452681
10
-49.749999987637459
20
-25.100000011476201
10
-49.749999987637459
20
-26.600000021478142
42
-0.41421356432369794
10
-50.249999990965932
20
-27.100000021479001
10
-51.899999984301246
20
-27.100000010478663
42
0.41421356254824304
10
-52.399999987636541
20
-27.60000000744181
42
0.41421356639164342
10
-49.89999996851882
20
-30.100000022627103
10
-48.692388106738669
20
-30.100000013391174
42
0.19891236539199092
10
-45.156854239043895
20
-28.635533919326267
10
-43.464466081705694
20
-26.94314576198807
42
0.19891236737943196
10
-41.999999987639704
20
-23.407611856056306
10
-41.999999987639697
20
-16.592388166905053
42
0.19891236737944906
10
-43.4644660817046
20
-13.056854260973976
10
-45.156854239042801
20
-11.364466103635776
42
0.19891236539191484
10
-48.692388106739642
20
-9.9000000095687355
10
-49.899999968519793
20
-9.9000000003328186
42
0.41421356639190976
10
-52.399999987638914
20
-12.400000015517223
42
0.41421356254890901
10
-51.899999984304507
20
-12.90000001248062
10
-50.249999987640443
20
-12.900000001479135
42
-0.41421356823222938
10
-49.749999987640706
20
-13.400000011481035
10
-49.749999987640706
20
-14.90000000147864
42
-0.41421356237309503
10
-50.749999987640152
20
-15.900000001478086
10
-52.899999987637059
20
-15.900000001478094
42
-0.41421356041982826
10
-54.399999987636882
20
-14.400000011479309
10
-54.399999976159165
20
-4.0000000114796705
42
-0.41421355394401976
10
-50.399999999999636
20
1.2366854000000002e-08
10
-40.000000009997621
20
2.2737367544323206e-12
42
-0.41421356237353918
10
-38.500000009997848
20
-1.4999999999997731
10
-38.500000010000122
20
-3.6499999999989541
42
-0.41421355944452681
10
-39.499999999999318
20
-4.6499999999969077
10
-41.000000009997848
20
-4.6499999999991815
42
-0.41421356432636181
10
-41.500000009997393
20
-4.1499999966652013
10
-41.499999998998014
20
-2.5000000033310239
42
0.41421356254824293
10
-41.999999995962298
20
-1.9999999999980389
42
0.41421356639151036
10
-44.500000011144039
20
-4.5000000191168974
10
-44.500000001910003
20
-5.7076118808993224
42
0.1989123653924508
10
-43.035533907841454
20
-9.2431457485940882
10
-41.343145750503837
20
-10.935533905930599
42
0.19891236737957455
10
-37.807611844571056
20
-12.399999999998954
10
-30.992388155423214
20
-12.399999999998208
42
0.19891236737969981
10
-27.456854249491016
20
-10.935533905931152
10
-25.764466092150915
20
-9.2431457485959889
42
0.19891236539204016
10
-24.299999998085013
20
-5.7076118808993224
10
-24.299999988851226
20
-4.5000000191168974
42
0.4142135663915103
10
-26.800000004034246
20
-1.9999999999977542
42
0.41421356254757696
10
-27.300000000997215
20
-2.5000000033310239
10
-27.299999989998014
20
-4.1499999999996362
42
-0.41421356823023153
10
-27.799999999996317
20
-4.6499999999991823
10
-29.299999989998469
20
-4.6499999999980446
42
-0.41421356237309503
10
-30.299999989997559
20
-3.6499999999989541
10
-30.299999989997559
20
-1.4999999999997735
42
-0.41421356042071628
10
-28.799999999996544
20
0
10
-2.749959671685856e-17
20
-2.7755575615628914e-16
42
-0.4142135604209381
10
1.4999999900021519
20
-1.4999999999997731
10
1.4999999900021534
20
-3.6499999999989541
42
-0.41421356237309503
10
0.49999999000192502
20
-4.6499999999991823
10
-0.99999999999909095
20
-4.6499999999991806
42
-0.41421356823023137
10
-1.5000000099973931
20
-4.1499999999996362
10
-1.499999998998014
20
-2.5000000033310239
42
0.41421356254824304
10
-1.9999999959622987
20
-1.9999999999980389
42
0.41421356639137713
10
-4.5000000111440386
20
-4.5000000191168974
10
-4.5000000019092932
20
-5.7076118808993233
42
0.19891236539204007
10
-3.0355339078403181
20
-9.2431457485940882
10
-1.3431457505042876
20
-10.935533905931049
42
0.19891236737969972
10
2.1923881554289437
20
-12.399999999998954
10
9.0076118445767879
20
-12.399999999998208
42
0.19891236737969978
10
12.543145750508984
20
-10.935533905931152
10
14.235533907847174
20
-9.2431457485940776
42
0.1989123653924508
10
15.700000001914987
20
-5.7076118808993224
10
15.700000011152433
20
-4.5000000191168974
42
0.41421356639204304
10
13.199999995965754
20
-1.9999999999968661
42
0.41421356254757696
10
12.699999999002785
20
-2.5000000033310239
10
12.700000010001986
20
-4.1499999966652013
42
-0.41421356432636181
10
12.200000010002441
20
-4.6499999999991823
10
10.700000000001637
20
-4.6499999999980446
42
-0.4142135594441938
10
9.7000000100024408
20
-3.6499999999989541
10
9.7000000100047146
20
-1.4999999999997735
42
-0.41421356237353918
10
11.200000010002213
20
0
10
21.600000000000819
20
2.2737367544323206e-12
42
-0.41421356237367774
10
25.600000000004002
20
-3.9999999999997726
10
25.600000000000591
20
-14.399999999999409
42
-0.41421356042005031
10
24.100000000000819
20
-15.899999989997013
10
21.950000000001637
20
-15.899999989997013
42
-0.41421356237309503
10
20.95000000000141
20
-14.899999989996786
10
20.950000000000273
20
-13.399999999999181
42
-0.41421356823222938
10
21.450000000000955
20
-12.899999989996331
10
23.09999999666843
20
-12.900000000996208
42
0.41421356254890901
10
23.600000000000776
20
-12.4000000040337
42
0.41421356639177659
10
21.099999980883695
20
-9.8999999888496859
10
19.892388119101266
20
-9.8999999980872371
42
0.19891236539224186
10
16.356854251406503
20
-11.364466092154544
10
14.664466094068462
20
-13.056854249491771
42
0.1989123673795743
10
13.200000000001637
20
-16.592388155422668
10
13.200000000003378
20
-23.407611844573921
42
0.19891236737955714
10
14.664466094069439
20
-26.943145750507256
10
16.356854251407235
20
-28.635533907844724
42
0.1989123653920748
10
19.89238811910127
20
-30.100000001910985
10
21.099999980883695
20
-30.10000001114566
42
0.41421356639137702
10
23.600000000001202
20
-27.599999995960616
42
0.4142135625462452
10
23.09999999666843
20
-27.099999998996509
10
21.450000003336527
20
-27.100000009997984
42
-0.41421356432702777
10
20.95000000000141
20
-26.600000009998439
10
20.95000000000141
20
-25.099999999996498
42
-0.41421355944352783
10
21.950000000001637
20
-24.100000009998439
10
24.100000000000819
20
-24.100000009997302
42
-0.41421356237353901
10
25.600000000004002
20
-25.600000009998212
10
25.600000000002865
20
-36.000000000000227
42
-0.41421356237326151
10
21.600000000000819
20
-40
10
11.200000000001182
20
-39.999999999996589
42
-0.41421356041960627
10
9.7000000100024408
20
-38.500000000000227
10
9.700000010001304
20
-36.349999999999909
42
-0.41421356237309503
10
10.700000010001531
20
-35.349999999999682
10
12.200000000003683
20
-35.350000000000819
42
-0.41421356823023153
10
12.700000010001986
20
-35.850000000000364
10
12.699999999003495
20
-37.499999996664428
42
0.41421356254824304
10
13.199999995965754
20
-37.999999999999936
42
0.41421356639230938
10
15.700000011152042
20
-35.499999980879693
10
15.700000001913352
20
-34.292388119097268
42
0.19891236539220017
10
14.235533907847184
20
-30.756854251402501
10
12.543145750509838
20
-29.064466094065718
42
0.19891236737977608
10
9.0076118445767861
20
-27.599999999999909
10
2.1923881554289437
20
-27.599999999999127
42
0.19891236737965801
10
-1.3431457505043909
20
-29.064466094066574
10
-3.0355339078426073
20
-30.756854251401347
42
0.19891236539207488
10
-4.5000000019081199
20
-34.292388119097268
10
-4.5000000111441816
20
-35.499999980879693
42
0.41421356639137707
0
LWPOLYLINE
5
101
100
AcDbEntity
8
0
100
AcDbPolyline
90
24
70
1
43
0.0
10
-6.199999237058444
20
-8.2502527218832711
42
0.19891225683680921
10
-4.7355346468023445
20
-11.785785124004898
10
-3.6144645902582777
20
-12.906856134230649
42
-0.19891225683694172
10
-2.1499999999992894
20
-16.442388536352155
10
-2.1499999999992907
20
-23.557611463644434
42
-0.19891214629402112
10
-3.6144630864478327
20
-27.093142361951301
10
-4.7355361506106419
20
-28.214217333476199
42
0.19891214629400689
10
-6.1999992370563115
20
-31.749748231788999
10
-6.199999237056133
20
-35.499999999999545
42
-0.41421356237322821
10
-8.6999992370567725
20
-37.999999999999048
10
-20.100000762936361
20
-37.999999999999048
42
-0.41421356237336143
10
-22.600000762938137
20
-35.499999999999545
10
-22.600000762936361
20
-31.749748231788999
42
0.19891214629434117
10
-24.064463849383991
20
-28.214217333477698
10
-25.185536913550145
20
-27.09314236195274
42
-0.19891214629389567
10
-26.649999999998286
20
-23.557611463644438
10
-26.649999999997398
20
-16.442388536352155
42
-0.19891225683673305
10
-25.185535409740211
20
-12.906856134230974
10
-24.06446535319219
20
-11.78578512400577
42
0.19891225683680921
10
-22.600000762936965
20
-8.2502527218832729
10
-22.600000762938137
20
-4.4999999999993179
42
-0.41421356237362777
10
-20.100000762936361
20
-1.9999999999975411
10
-8.6999992370567725
20
-1.9999999999975415
42
-0.4142135623734946
10
-6.199999237056133
20
-4.4999999999993179
0
LWPOLYLINE
5
102
100
AcDbEntity
8
0
100
AcDbPolyline
90
8
70
1
43
0.0
10
23.300000000000409
20
-8.199999999999541
42
0.41421356237509294
10
23.800000000003543
20
-7.6999999999998181
10
23.800000000002903
20
-3.9999999999997726
42
0.41421356237415452
10
21.600000000000819
20
-1.7999999999995
10
17.900000000000773
20
-1.7999999999961602
42
0.41421353444131409
10
17.400000000001228
20
-2.2999999523142378
10
17.400000000001938
20
-7.6999999999998181
42
0.4142131154553394
10
17.899999237064321
20
-8.1999999999959527
0
LWPOLYLINE
5
103
100
AcDbEntity
8
0
100
AcDbPolyline
90
8
70
1
43
0.0
10
17.400000000000162
20
-37.699999999999818
42
0.41421356237309503
10
17.900000000000773
20
-38.200000000000429
10
21.600000000000819
20
-38.199999999999541
42
0.41421356237339779
10
23.800000000001091
20
-36.000000000000227
10
23.80000000000102
20
-32.300000000000182
42
0.4142135344406479
10
23.30000004768408
20
-31.7999999999995
10
17.900000000000773
20
-31.799999999998825
42
0.41421311545400752
10
17.400000000001228
20
-32.299999237058046
0
LWPOLYLINE
5
104
100
AcDbEntity
8
0
100
AcDbPolyline
90
8
70
1
43
0.0
10
-52.59999999999895
20
-7.6999999999998181
42
0.41421356237309503
10
-52.099999999999227
20
-8.199999999999541
10
-46.699999237057455
20
-8.1999998092632467
42
0.41421338519378026
10
-46.199999999998909
20
-7.6999999999998181
10
-46.199999999997345
20
-2.2999999523142378
42
0.41421353444331194
10
-46.699999999999591
20
-1.7999999999995
10
-50.399999999999636
20
-1.7999999523136281
42
0.41421354551914774
10
-52.599999999998772
20
-3.9999999999997731
0
LWPOLYLINE
5
105
100
AcDbEntity
8
0
100
AcDbPolyline
90
8
70
1
43
0.0
10
-46.699999999999591
20
-38.199999999998653
42
0.41421356237509294
10
-46.199999999997345
20
-37.699999999999818
10
-46.200000190732105
20
-32.299999237058046
42
0.41421338519378026
10
-46.699999999999591
20
-31.7999999999995
10
-52.100000047682897
20
-31.799999999997048
42
0.4142135344426458
10
-52.599999999998772
20
-32.300000000000182
10
-52.600000047680986
20
-36.000000000000227
42
0.41421354869235028
10
-50.399999999999636
20
-38.199999999999363
0
CIRCLE
5
106
100
AcDbEntity
8
0
100
AcDbCircle
10
-34.399999999999409
20
-20
30
0
40
3.3500000000001871
210
0
220
0
230
1
0
CIRCLE
5
107
100
AcDbEntity
8
0
100
AcDbCircle
10
5.6000000000005912
20
-20
30
0
40
3.3500000000001871
210
0
220
0
230
1
0
LWPOLYLINE
5
108
100
AcDbEntity
8
0
100
AcDbPolyline
90
164
70
1
43
0.0
10
-1.9999999959622983
20
-37.999999999998835
42
0.4142135625489089
10
-1.4999999989989021
20
-37.499999996664428
10
-1.5000000099985291
20
-35.850000003331388
42
-0.41421356432436329
10
-1.0000000099978483
20
-35.349999999999682
10
0.50000000000068168
20
-35.349999999996271
42
-0.41421355944552357
10
1.4999999900021519
20
-36.349999999999909
10
1.4999999900021512
20
-38.500000000000227
42
-0.41421356237309492
10
-9.9976205092389137e-09
20
-40
10
-28.799999989997787
20
-40
42
-0.41421356237309853
10
-30.299999989997559
20
-38.500000000000227
10
-30.299999989995289
20
-36.349999999999909
42
-0.41421355944519667
10
-29.299999999998363
20
-35.349999999999682
10
-27.799999989997559
20
-35.350000000000811
42
-0.41421356432436129
10
-27.299999989998014
20
-35.850000003331388
10
-27.300000000996505
20
-37.499999996664428
42
0.41421356254824304
10
-26.800000004034246
20
-37.999999999999048
42
0.41421356639177659
10
-24.299999988852505
20
-35.499999980879693
10
-24.29999999808576
20
-34.292388119097268
42
0.1989123653922002
10
-25.764466092152816
20
-30.756854251402501
10
-27.456854249490164
20
-29.064466094065718
42
0.19891236737977602
10
-30.992388155423214
20
-27.599999999999909
10
-37.807611844571056
20
-27.599999999999127
42
0.19891236737965795
10
-41.343145750504391
20
-29.064466094066574
10
-43.035533907840993
20
-30.756854251402963
42
0.19891236539232554
10
-44.50000000190812
20
-34.292388119097268
10
-44.500000011144429
20
-35.499999980879693
42
0.41421356639204299
10
-41.999999995960025
20
-37.999999999998835
42
0.41421356254757707
10
-41.499999998998192
20
-37.499999996664428
10
-41.50000000999853
20
-35.850000000000364
42
-0.4142135682302211
10
-40.999999999999091
20
-35.349999999999682
10
-39.500000009998075
20
-35.349999999999682
42
-0.41421356237308982
10
-38.500000009997848
20
-36.349999999999909
10
-38.500000009997848
20
-38.500000000000227
42
-0.41421356042094165
10
-40
20
-40
10
-50.399999999999643
20
-39.999999988525246
42
-0.41421355394297682
10
-54.400000023830763
20
-36.000000012369341
10
-54.400000011469587
20
-25.600000022367325
42
-0.41421356720032809
10
-52.899999987636335
20
-24.100000021478674
10
-50.749999987639427
20
-24.100000021479801
42
-0.41421355944451899
10
-49.749999987637459
20
-25.100000011476201
10
-49.749999987637459
20
-26.600000021478142
42
-0.41421356432369794
10
-50.249999990965932
20
-27.100000021479001
10
-51.899999984301246
20
-27.100000010478663
42
0.41421356254824304
10
-52.399999987636541
20
-27.60000000744181
42
0.41421356639164342
10
-49.89999996851882
20
-30.100000022627103
10
-48.692388106738669
20
-30.100000013391174
42
0.19891236539199092
10
-45.156854239043895
20
-28.635533919326267
10
-43.464466081705694
20
-26.94314576198807
42
0.19891236737943196
10
-41.999999987639704
20
-23.407611856056306
10
-41.999999987639697
20
-16.592388166905053
42
0.19891236737944906
10
-43.4644660817046
20
-13.056854260973976
10
-45.156854239042801
20
-11.364466103635776
42
0.19891236539191484
10
-48.692388106739642
20
-9.9000000095687355
10
-49.899999968519793
20
-9.9000000003328186
42
0.41421356639190976
10
-52.399999987638914
20
-12.400000015517223
42
0.41421356254890901
10
-51.899999984304507
20
-12.90000001248062
10
-50.249999987640443
20
-12.900000001479135
42
-0.41421356823222938
10
-49.749999987640706
20
-13.400000011481035
10
-49.749999987640706
20
-14.90000000147864
42
-0.41421356237309437
10
-50.749999987640152
20
-15.900000001478086
10
-52.899999987637059
20
-15.900000001478091
42
-0.41421356041983132
10
-54.399999987636882
20
-14.400000011479307
10
-54.399999976159165
20
-4.0000000114796714
42
-0.41421355394401971
10
-50.399999999999636
20
1.2366854000000002e-08
10
-40.000000009997621
20
2.2679080835530385e-12
42
-0.41421356237354146
10
-38.500000009997848
20
-1.4999999999997731
10
-38.500000010000122
20
-3.6499999999989541
42
-0.41421355944452681
10
-39.499999999999318
20
-4.6499999999969077
10
-41.000000009997848
20
-4.6499999999991841
42
-0.41421356432635303
10
-41.500000009997393
20
-4.1499999966652013
10
-41.499999998998014
20
-2.5000000033310239
42
0.41421356254824293
10
-41.999999995962298
20
-1.9999999999980389
42
0.41421356639151036
10
-44.500000011144039
20
-4.5000000191168974
10
-44.500000001910003
20
-5.7076118808993215
42
0.19891236539245086
10
-43.035533907841454
20
-9.2431457485940882
10
-41.343145750503837
20
-10.935533905930599
42
0.19891236737957455
10
-37.807611844571056
20
-12.399999999998954
10
-30.992388155423214
20
-12.399999999998208
42
0.19891236737969981
10
-27.456854249491016
20
-10.935533905931152
10
-25.764466092150915
20
-9.2431457485959907
42
0.19891236539204027
10
-24.299999998085013
20
-5.7076118808993224
10
-24.299999988851226
20
-4.5000000191168974
42
0.41421356639151036
10
-26.800000004034246
20
-1.9999999999977542
42
0.41421356254757696
10
-27.300000000997215
20
-2.5000000033310239
10
-27.299999989998014
20
-4.1499999999996362
42
-0.41421356823023608
10
-27.799999999996317
20
-4.6499999999991823
10
-29.299999989998469
20
-4.6499999999980455
42
-0.41421356237309276
10
-30.299999989997559
20
-3.6499999999989541
10
-30.299999989997559
20
-1.4999999999997737
42
-0.41421356042071628
10
-28.799999999996544
20
0
10
-2.3062789955869853e-16
20
0
42
-0.4142135604209381
10
1.4999999900021519
20
-1.4999999999997731
10
1.4999999900021534
20
-3.6499999999989541
42
-0.41421356237309503
10
0.49999999000192485
20
-4.6499999999991823
10
-0.99999999999909073
20
-4.6499999999991815
42
-0.41421356823023198
10
-1.5000000099973931
20
-4.1499999999996362
10
-1.4999999989980142
20
-2.5000000033310239
42
0.41421356254824271
10
-1.9999999959622983
20
-1.9999999999980389
42
0.41421356639137719
10
-4.5000000111440386
20
-4.5000000191168974
10
-4.5000000019092932
20
-5.7076118808993224
42
0.19891236539204016
10
-3.0355339078403181
20
-9.2431457485940882
10
-1.3431457505042887
20
-10.935533905931047
42
0.19891236737969986
10
2.1923881554289437
20
-12.399999999998954
10
9.0076118445767861
20
-12.399999999998208
42
0.19891236737969981
10
12.543145750508984
20
-10.935533905931152
10
14.235533907847174
20
-9.2431457485940776
42
0.1989123653924508
10
15.700000001914987
20
-5.7076118808993224
10
15.700000011152433
20
-4.5000000191168974
42
0.4142135663920431
10
13.199999995965754
20
-1.9999999999968663
42
0.41421356254757696
10
12.699999999002785
20
-2.5000000033310239
10
12.700000010001988
20
-4.1499999966652013
42
-0.41421356432636375
10
12.200000010002441
20
-4.6499999999991823
10
10.700000000001637
20
-4.6499999999980437
42
-0.41421355944419352
10
9.7000000100024408
20
-3.6499999999989541
10
9.7000000100047146
20
-1.4999999999997737
42
-0.41421356237353918
10
11.200000010002213
20
0
10
21.600000000000819
20
2.2748469774569458e-12
42
-0.4142135623736779
10
25.600000000004002
20
-3.9999999999997726
10
25.600000000000591
20
-14.399999999999409
42
-0.41421356042004981
10
24.100000000000819
20
-15.899999989997013
10
21.950000000001637
20
-15.899999989997013
42
-0.41421356237309503
10
20.95000000000141
20
-14.899999989996786
10
20.950000000000269
20
-13.399999999999181
42
-0.41421356823223199
10
21.450000000000955
20
-12.899999989996331
10
23.09999999666843
20
-12.900000000996208
42
0.41421356254890901
10
23.600000000000776
20
-12.4000000040337
42
0.41421356639177659
10
21.099999980883695
20
-9.8999999888496859
10
19.892388119101266
20
-9.8999999980872371
42
0.19891236539224186
10
16.356854251406503
20
-11.364466092154544
10
14.664466094068462
20
-13.056854249491771
42
0.1989123673795743
10
13.200000000001637
20
-16.592388155422668
10
13.200000000003378
20
-23.407611844573921
42
0.19891236737955714
10
14.664466094069439
20
-26.943145750507256
10
16.356854251407235
20
-28.635533907844724
42
0.1989123653920748
10
19.89238811910127
20
-30.100000001910985
10
21.099999980883695
20
-30.10000001114566
42
0.41421356639137702
10
23.600000000001202
20
-27.599999995960616
42
0.4142135625462452
10
23.09999999666843
20
-27.099999998996509
10
21.450000003336527
20
-27.100000009997988
42
-0.41421356432702516
10
20.95000000000141
20
-26.600000009998439
10
20.95000000000141
20
-25.099999999996498
42
-0.41421355944352783
10
21.950000000001637
20
-24.100000009998439
10
24.100000000000819
20
-24.100000009997306
42
-0.41421356237353818
10
25.600000000004002
20
-25.600000009998212
10
25.600000000002861
20
-36.000000000000227
42
-0.41421356237326251
10
21.600000000000819
20
-40
10
11.200000000001182
20
-39.999999999996589
42
-0.41421356041960583
10
9.7000000100024408
20
-38.500000000000227
10
9.7000000100013022
20
-36.349999999999909
42
-0.41421356237309176
10
10.700000010001531
20
-35.349999999999682
10
12.200000000003683
20
-35.350000000000819
42
-0.41421356823023153
10
12.700000010001986
20
-35.850000000000364
10
12.699999999003495
20
-37.499999996664428
42
0.41421356254824304
10
13.199999995965754
20
-37.999999999999936
42
0.41421356639230938
10
15.700000011152042
20
-35.499999980879693
10
15.700000001913352
20
-34.292388119097268
42
0.19891236539220017
10
14.235533907847184
20
-30.756854251402501
10
12.54314575050984
20
-29.064466094065718
42
0.19891236737977616
10
9.0076118445767861
20
-27.599999999999909
10
2.1923881554289446
20
-27.599999999999127
42
0.19891236737965803
10
-1.3431457505043909
20
-29.064466094066574
10
-3.0355339078426073
20
-30.756854251401347
42
0.19891236539207494
10
-4.5000000019081199
20
-34.292388119097268
10
-4.5000000111441816
20
-35.499999980879693
42
0.41421356639137707
0
LWPOLYLINE
5
109
100
AcDbEntity
8
0
100
AcDbPolyline
90
24
70
1
43
0.0
10
-6.199999237058444
20
-8.2502527218832693
42
0.19891225683680921
10
-4.7355346468023454
20
-11.785785124004898
10
-3.6144645902582795
20
-12.906856134230649
42
-0.19891225683694183
10
-2.1499999999992889
20
-16.442388536352151
10
-2.1499999999992867
20
-23.557611463644434
42
-0.19891214629402171
10
-3.6144630864478327
20
-27.093142361951301
10
-4.7355361506106419
20
-28.214217333476199
42
0.19891214629400689
10
-6.1999992370563115
20
-31.749748231788999
10
-6.1999992370561339
20
-35.499999999999545
42
-0.41421356237322809
10
-8.6999992370567725
20
-37.999999999999048
10
-20.100000762936361
20
-37.999999999999055
42
-0.41421356237336299
10
-22.600000762938137
20
-35.499999999999545
10
-22.600000762936361
20
-31.749748231788999
42
0.19891214629434104
10
-24.064463849383991
20
-28.214217333477706
10
-25.185536913550145
20
-27.09314236195274
42
-0.19891214629389692
10
-26.649999999998286
20
-23.557611463644438
10
-26.649999999997398
20
-16.442388536352155
42
-0.19891225683673247
10
-25.185535409740215
20
-12.906856134230978
10
-24.06446535319219
20
-11.78578512400577
42
0.1989122568368093
10
-22.600000762936965
20
-8.2502527218832693
10
-22.600000762938137
20
-4.4999999999993179
42
-0.41421356237362805
10
-20.100000762936361
20
-1.9999999999975411
10
-8.6999992370567725
20
-1.9999999999975397
42
-0.41421356237349455
10
-6.199999237056133
20
-4.4999999999993179
0
LWPOLYLINE
5
110
100
AcDbEntity
8
0
100
AcDbPolyline
90
8
70
1
43
0.0
10
23.300000000000409
20
-8.199999999999541
42
0.41421356237509488
10
23.800000000003539
20
-7.6999999999998181
10
23.800000000002903
20
-3.9999999999997726
42
0.41421356237415535
10
21.600000000000819
20
-1.7999999999995
10
17.900000000000773
20
-1.7999999999961602
42
0.41421353444131614
10
17.400000000001228
20
-2.2999999523142378
10
17.400000000001938
20
-7.6999999999998181
42
0.4142131154553394
10
17.899999237064321
20
-8.1999999999959527
0
LWPOLYLINE
5
111
100
AcDbEntity
8
0
100
AcDbPolyline
90
8
70
1
43
0.0
10
17.400000000000162
20
-37.699999999999818
42
0.41421356237309115
10
17.900000000000773
20
-38.200000000000429
10
21.600000000000819
20
-38.199999999999541
42
0.41421356237339718
10
23.800000000001091
20
-36.000000000000227
10
23.80000000000102
20
-32.300000000000182
42
0.41421353444065573
10
23.30000004768408
20
-31.7999999999995
10
17.900000000000773
20
-31.799999999998825
42
0.41421311545400752
10
17.400000000001228
20
-32.299999237058046
0
LWPOLYLINE
5
112
100
AcDbEntity
8
0
100
AcDbPolyline
90
8
70
1
43
0.0
10
-52.59999999999895
20
-7.6999999999998181
42
0.41421356237309503
10
-52.099999999999227
20
-8.199999999999541
10
-46.699999237057455
20
-8.1999998092632467
42
0.4142133851937731
10
-46.199999999998909
20
-7.6999999999998181
10
-46.199999999997345
20
-2.2999999523142378
42
0.41421353444330816
10
-46.699999999999591
20
-1.7999999999995
10
-50.399999999999636
20
-1.7999999523136279
42
0.41421354704749153
10
-52.599999999998772
20
-3.9999999999997731
0
LWPOLYLINE
5
113
100
AcDbEntity
8
0
100
AcDbPolyline
90
8
70
1
43
0.0
10
-46.699999999999591
20
-38.199999999998653
42
0.41421356237510071
10
-46.199999999997345
20
-37.699999999999818
10
-46.200000190732105
20
-32.299999237058046
42
0.41421338519376982
10
-46.699999999999591
20
-31.7999999999995
10
-52.100000047682897
20
-31.799999999997048
42
0.41421353444263542
10
-52.599999999998772
20
-32.300000000000182
10
-52.600000047680986
20
-36.000000000000227
42
0.4142135470465857
10
-50.399999999999636
20
-38.199999999999363
0
CIRCLE
5
114
100
AcDbEntity
8
0
100
AcDbCircle
10
-34.399999999999409
20
-20
30
0
40
3.3500000000001871
210
0
220
0
230
1
0
CIRCLE
5
115
100
AcDbEntity
8
0
100
AcDbCircle
10
5.6000000000005912
20
-20
30
0
40
3.3500000000001871
210
0
220
0
230
1
0
ENDSEC
0
SECTION
2
OBJECTS
0
DICTIONARY
5
C
100
AcDbDictionary
3
ACAD_GROUP
350
D
3
ACAD_MLINESTYLE
350
17
0
DICTIONARY
5
D
100
AcDbDictionary
0
DICTIONARY
5
1A
330
C
100
AcDbDictionary
0
DICTIONARY
5
17
100
AcDbDictionary
0
ENDSEC
0
EOF
