0
SECTION
2
HEADER
9
$INSUNITS
70
4
9
$ACADVER
1
AC1014
9
$HANDSEED
5
FFFF
0
ENDSEC
0
SECTION
2
TABLES
0
TABLE
2
VPORT
5
8
100
AcDbSymbolTable
0
ENDTAB
0
TABLE
2
LTYPE
5
5
100
AcDbSymbolTable
0
LTYPE
5
14
100
AcDbSymbolTableRecord
100
AcDbLinetypeTableRecord
2
BYBLOCK
70
0
0
LTYPE
5
15
100
AcDbSymbolTableRecord
100
AcDbLinetypeTableRecord
2
BYLAYER
70
0
0
ENDTAB
0
TABLE
2
LAYER
5
2
100
AcDbSymbolTable
70
2
0
LAYER
5
50
100
AcDbSymbolTableRecord
100
AcDbLayerTableRecord
2
0
70
0
6
CONTINUOUS
0
ENDTAB
0
TABLE
2
STYLE
5
3
100
AcDbSymbolTable
70
1
0
STYLE
5
11
100
AcDbSymbolTableRecord
100
AcDbTextStyleTableRecord
2
STANDARD
70
0
0
ENDTAB
0
TABLE
2
VIEW
5
6
100
AcDbSymbolTable
70
0
0
ENDTAB
0
TABLE
2
UCS
5
7
100
AcDbSymbolTable
70
0
0
ENDTAB
0
TABLE
2
APPID
5
9
100
AcDbSymbolTable
70
2
0
APPID
5
12
100
AcDbSymbolTableRecord
100
AcDbRegAppTableRecord
2
ACAD
70
0
0
ENDTAB
0
TABLE
2
DIMSTYLE
5
A
100
AcDbSymbolTable
70
1
0
ENDTAB
0
TABLE
2
BLOCK_RECORD
5
1
100
AcDbSymbolTable
70
1
0
BLOCK_RECORD
5
1F
100
AcDbSymbolTableRecord
100
AcDbBlockTableRecord
2
*MODEL_SPACE
0
BLOCK_RECORD
5
1B
100
AcDbSymbolTableRecord
100
AcDbBlockTableRecord
2
*PAPER_SPACE
0
ENDTAB
0
ENDSEC
0
SECTION
2
BLOCKS
0
BLOCK
5
20
100
AcDbEntity
100
AcDbBlockBegin
2
*MODEL_SPACE
0
ENDBLK
5
21
100
AcDbEntity
100
AcDbBlockEnd
0
BLOCK
5
1C
100
AcDbEntity
100
AcDbBlockBegin
2
*PAPER_SPACE
0
ENDBLK
5
1D
100
AcDbEntity
100
AcDbBlockEnd
0
ENDSEC
0
SECTION
2
ENTITIES
0
LWPOLYLINE
5
100
100
AcDbEntity
8
0
100
AcDbPolyline
90
112
70
1
43
0.0
10
18.50000000000005
20
-4.0000000000000169
42
-0.41421356237308554
10
20
20
-5.500000000000016
10
19.999999999999993
20
-15.999999999999977
42
-0.41421356237309503
10
15.999999999999996
20
-19.999999999999972
10
5.500000000000016
20
-20.00000000000005
42
-0.41421356237309531
10
4.0000000000000142
20
-18.50000000000005
10
4.0000000000000124
20
-16.500000000000149
42
-0.41421356237309503
10
5.0000000000000133
20
-15.500000000000149
10
6.5000000000000346
20
-15.50000000000016
42
-0.41421356237309503
10
7.0000000000000302
20
-16.000000000000156
10
7.0000000000000302
20
-17.50000000000016
42
0.41421356237308721
10
7.5000000000000178
20
-18.000000000000156
42
0.41421356237309609
10
10.000000000000018
20
-15.500000000000149
10
10.000000000000018
20
-14.192388155425224
42
0.19891236737965745
10
8.5355339059327662
20
-10.656854249492493
10
7.0931457505076612
20
-9.2144660940673599
42
0.19891236737965823
10
3.5576118445749212
20
-7.7500000000000924
10
-3.5576118445748643
20
-7.7500000000000906
42
0.19891236737965731
10
-7.093145750507599
20
-9.2144660940673475
10
-8.5355339059326933
20
-10.656854249492405
42
0.19891236737965831
10
-9.9999999999999609
20
-14.192388155425153
10
-9.9999999999999609
20
-15.500000000000114
42
0.41421356237309453
10
-7.49999999999996
20
-18.000000000000117
42
0.41421356237309503
10
-6.9999999999999751
20
-17.500000000000114
10
-6.9999999999999671
20
-16.000000000000117
42
-0.41421356237310153
10
-6.4999999999999734
20
-15.500000000000114
10
-4.9999999999999654
20
-15.500000000000167
42
-0.41421356237309503
10
-4.0000000000000169
20
-16.500000000000114
10
-4.0000000000000124
20
-18.50000000000005
42
-0.41421356237309503
10
-5.500000000000016
20
-20.000000000000053
10
-15.999999999999961
20
-19.999999999999961
42
-0.41421356237309537
10
-19.999999999999961
20
-15.999999999999964
10
-20.00000000000005
20
-5.500000000000016
42
-0.41421356237309503
10
-18.50000000000005
20
-4.0000000000000169
10
-16.500000000000149
20
-4.0000000000000169
42
-0.41421356237309503
10
-15.500000000000149
20
-5.0000000000000178
10
-15.500000000000163
20
-6.5000000000000391
42
-0.41421356237309503
10
-16.000000000000156
20
-7.0000000000000329
10
-17.50000000000016
20
-7.0000000000000364
42
0.41421356237308399
10
-18.000000000000156
20
-7.5000000000000178
42
0.41421356237309609
10
-15.500000000000149
20
-10.000000000000018
10
-14.192388155425224
20
-10.000000000000018
42
0.19891236737965753
10
-10.656854249492493
20
-8.5355339059327662
10
-9.2144660940673599
20
-7.0931457505076594
42
0.19891236737965814
10
-7.7500000000000924
20
-3.5576118445749225
10
-7.7500000000000906
20
3.5576118445748603
42
0.19891236737965742
10
-9.2144660940673475
20
7.0931457505075981
10
-10.656854249492401
20
8.5355339059326845
42
0.19891236737965878
10
-14.192388155425153
20
9.9999999999999538
10
-15.500000000000114
20
9.9999999999999574
42
0.41421356237309492
10
-18.000000000000117
20
7.4999999999999556
42
0.41421356237309503
10
-17.500000000000114
20
6.9999999999999662
10
-16.000000000000117
20
6.9999999999999645
42
-0.41421356237310281
10
-15.500000000000114
20
6.499999999999968
10
-15.500000000000163
20
4.9999999999999654
42
-0.41421356237309503
10
-16.500000000000114
20
4.0000000000000142
10
-18.50000000000005
20
4.0000000000000115
42
-0.41421356237309481
10
-20.000000000000053
20
5.5000000000000142
10
-19.999999999999954
20
15.999999999999989
42
-0.41421356237309631
10
-15.999999999999961
20
20
10
-5.500000000000016
20
20.00000000000005
42
-0.41421356237309503
10
-4.0000000000000169
20
18.50000000000005
10
-4.0000000000000195
20
16.500000000000149
42
-0.41421356237309503
10
-5.0000000000000178
20
15.500000000000151
10
-6.5000000000000391
20
15.50000000000016
42
-0.41421356237309503
10
-7.0000000000000329
20
16.000000000000153
10
-7.0000000000000364
20
17.500000000000153
42
0.41421356237308399
10
-7.5000000000000178
20
18.000000000000156
42
0.41421356237309503
10
-10.000000000000018
20
15.500000000000153
10
-10.000000000000018
20
14.192388155425217
42
0.19891236737965734
10
-8.5355339059327662
20
10.656854249492492
10
-7.0931457505076612
20
9.2144660940673528
42
0.19891236737965828
10
-3.5576118445749212
20
7.7500000000000879
10
3.5576118445748643
20
7.7500000000000906
42
0.19891236737965723
10
7.0931457505075954
20
9.2144660940673475
10
8.535533905932688
20
10.656854249492401
42
0.19891236737965864
10
9.9999999999999538
20
14.192388155425153
10
9.9999999999999574
20
15.500000000000115
42
0.41421356237309492
10
7.4999999999999556
20
18.00000000000011
42
0.41421356237309503
10
6.9999999999999662
20
17.50000000000011
10
6.9999999999999707
20
16.000000000000114
42
-0.41421356237309631
10
6.499999999999968
20
15.500000000000112
10
4.9999999999999654
20
15.500000000000167
42
-0.41421356237309503
10
4.0000000000000142
20
16.500000000000121
10
4.000000000000016
20
18.50000000000005
42
-0.41421356237308526
10
5.5000000000000142
20
20
10
16.000000000000007
20
19.999999999999993
42
-0.41421356237309492
10
20
20
15.999999999999996
10
20.000000000000053
20
5.5000000000000151
42
-0.41421356237309503
10
18.500000000000053
20
4.0000000000000142
10
16.500000000000156
20
4.0000000000000124
42
-0.41421356237309503
10
15.500000000000153
20
5.0000000000000133
10
15.500000000000158
20
6.5000000000000346
42
-0.41421356237309503
10
16.000000000000153
20
7.0000000000000302
10
17.500000000000156
20
7.0000000000000302
42
0.41421356237308721
10
18.000000000000163
20
7.5000000000000178
42
0.41421356237309553
10
15.500000000000153
20
10.000000000000018
10
14.192388155425224
20
10.000000000000018
42
0.19891236737965742
10
10.656854249492493
20
8.535533905932768
10
9.2144660940673493
20
7.0931457505076629
42
0.19891236737965831
10
7.7500000000000879
20
3.5576118445749212
10
7.750000000000087
20
-3.5576118445748643
42
0.19891236737965734
10
9.2144660940673457
20
-7.093145750507599
10
10.656854249492397
20
-8.535533905932688
42
0.19891236737965873
10
14.192388155425151
20
-9.9999999999999556
10
15.500000000000115
20
-9.9999999999999609
42
0.41421356237309453
10
18.00000000000011
20
-7.49999999999996
42
0.41421356237309503
10
17.50000000000011
20
-6.9999999999999707
10
16.000000000000107
20
-6.9999999999999645
42
-0.41421356237309503
10
15.500000000000112
20
-6.499999999999968
10
15.500000000000163
20
-4.9999999999999654
42
-0.41421356237309503
10
16.500000000000114
20
-4.0000000000000124
0
LWPOLYLINE
5
101
100
AcDbEntity
8
0
100
AcDbPolyline
90
8
70
1
43
0.0
10
-11.799999999990209
20
12.300000000000013
10
-11.799999999990209
20
17.69999999999996
42
0.41421356237309503
10
-12.299999999990208
20
18.19999999999996
10
-15.999999999996589
20
18.19999999999996
42
0.41421356237354851
10
-18.199999999996578
20
15.999999999999972
10
-18.199999999996578
20
12.300000000002598
42
0.41421356237789725
10
-17.699999999990979
20
11.800000000000013
10
-12.299999999990208
20
11.800000000000011
42
0.41421356237309503
0
LWPOLYLINE
5
102
100
AcDbEntity
8
0
100
AcDbPolyline
90
8
70
1
43
0.0
10
12.300000000000013
20
11.799999999990209
10
17.69999999999996
20
11.799999999990208
42
0.41421356237309503
10
18.19999999999996
20
12.299999999990208
10
18.19999999999996
20
15.999999999996589
42
0.41421356237355295
10
15.999999999999972
20
18.199999999996578
10
12.300000000002598
20
18.199999999996582
42
0.41421356237309631
10
11.800000000002607
20
17.699999999996582
10
11.800000000002605
20
12.299999999995812
42
0.41421356237485751
0
LWPOLYLINE
5
103
100
AcDbEntity
8
0
100
AcDbPolyline
90
8
70
1
43
0.0
10
11.799999999990202
20
-12.299999999999249
10
11.799999999990202
20
-17.699999999999196
42
0.41421356236830065
10
12.299999999984601
20
-18.19999999999661
10
15.999999999990983
20
-18.19999999999661
42
0.41421356237474161
10
18.199999999990972
20
-15.999999999996621
10
18.199999999990972
20
-12.299999999999244
42
0.41421356237309503
10
17.699999999990975
20
-11.799999999999251
10
12.299999999990202
20
-11.799999999999249
42
0.41421356237309503
0
LWPOLYLINE
5
104
100
AcDbEntity
8
0
100
AcDbPolyline
90
8
70
1
43
0.0
10
-12.300000000000013
20
-11.799999999990209
10
-17.69999999999996
20
-11.799999999990209
42
0.41421356236829804
10
-18.199999999997374
20
-12.299999999984603
10
-18.199999999997374
20
-15.999999999990989
42
0.41421356237463369
10
-15.999999999997385
20
-18.199999999990975
10
-12.300000000000008
20
-18.199999999990975
42
0.41421356237309503
10
-11.800000000000015
20
-17.699999999990979
10
-11.800000000000013
20
-12.299999999990208
42
0.41421356237309503
0
CIRCLE
5
105
100
AcDbEntity
8
0
100
AcDbCircle
10
0
20
0
30
0
40
3.399999999999999
210
0
220
0
230
1
0
LWPOLYLINE
5
106
100
AcDbEntity
8
0
100
AcDbPolyline
90
112
70
1
43
0.0
10
18.50000000000005
20
-4.0000000000000169
42
-0.41421356237308637
10
20
20
-5.500000000000016
10
19.999999999999993
20
-15.999999999999977
42
-0.4142135623730952
10
15.999999999999996
20
-19.999999999999972
10
5.500000000000016
20
-20.00000000000005
42
-0.41421356237309465
10
4.0000000000000142
20
-18.50000000000005
10
4.0000000000000124
20
-16.500000000000149
42
-0.4142135623730937
10
5.0000000000000133
20
-15.500000000000149
10
6.5000000000000346
20
-15.50000000000016
42
-0.41421356237309243
10
7.0000000000000302
20
-16.000000000000156
10
7.0000000000000302
20
-17.50000000000016
42
0.41421356237308721
10
7.5000000000000178
20
-18.000000000000156
42
0.41421356237309609
10
10.000000000000018
20
-15.500000000000149
10
10.000000000000018
20
-14.192388155425224
42
0.19891236737965745
10
8.5355339059327662
20
-10.656854249492493
10
7.0931457505076621
20
-9.2144660940673599
42
0.19891236737965828
10
3.5576118445749221
20
-7.7500000000000924
10
-3.5576118445748635
20
-7.7500000000000906
42
0.19891236737965737
10
-7.093145750507599
20
-9.2144660940673475
10
-8.5355339059326933
20
-10.656854249492405
42
0.19891236737965831
10
-9.9999999999999609
20
-14.192388155425153
10
-9.9999999999999609
20
-15.500000000000114
42
0.41421356237309453
10
-7.49999999999996
20
-18.000000000000117
42
0.41421356237309503
10
-6.9999999999999751
20
-17.500000000000114
10
-6.9999999999999671
20
-16.000000000000117
42
-0.41421356237310153
10
-6.4999999999999734
20
-15.500000000000114
10
-4.9999999999999654
20
-15.500000000000167
42
-0.4142135623730937
10
-4.0000000000000169
20
-16.500000000000114
10
-4.0000000000000107
20
-18.50000000000005
42
-0.41421356237309465
10
-5.500000000000016
20
-20.000000000000053
10
-15.999999999999961
20
-19.999999999999961
42
-0.41421356237309553
10
-19.999999999999961
20
-15.999999999999964
10
-20.000000000000043
20
-5.500000000000016
42
-0.41421356237309465
10
-18.50000000000005
20
-4.0000000000000169
10
-16.500000000000149
20
-4.0000000000000169
42
-0.4142135623730937
10
-15.500000000000149
20
-5.0000000000000178
10
-15.500000000000163
20
-6.5000000000000391
42
-0.41421356237309243
10
-16.000000000000156
20
-7.0000000000000329
10
-17.50000000000016
20
-7.0000000000000364
42
0.41421356237308399
10
-18.000000000000156
20
-7.5000000000000178
42
0.41421356237309609
10
-15.500000000000149
20
-10.000000000000018
10
-14.192388155425224
20
-10.000000000000018
42
0.19891236737965753
10
-10.656854249492493
20
-8.5355339059327662
10
-9.2144660940673582
20
-7.0931457505076603
42
0.19891236737965814
10
-7.7500000000000924
20
-3.5576118445749216
10
-7.7500000000000906
20
3.5576118445748595
42
0.19891236737965751
10
-9.2144660940673475
20
7.0931457505075981
10
-10.656854249492401
20
8.5355339059326827
42
0.19891236737965881
10
-14.192388155425153
20
9.9999999999999538
10
-15.500000000000114
20
9.9999999999999574
42
0.41421356237309492
10
-18.000000000000117
20
7.4999999999999556
42
0.41421356237309503
10
-17.500000000000114
20
6.9999999999999662
10
-16.000000000000117
20
6.9999999999999645
42
-0.41421356237310025
10
-15.500000000000114
20
6.499999999999968
10
-15.500000000000163
20
4.9999999999999654
42
-0.4142135623730937
10
-16.500000000000114
20
4.0000000000000142
10
-18.50000000000005
20
4.0000000000000089
42
-0.41421356237309437
10
-20.000000000000053
20
5.5000000000000142
10
-19.99999999999995
20
15.999999999999989
42
-0.41421356237309653
10
-15.999999999999961
20
20
10
-5.500000000000016
20
20.000000000000043
42
-0.41421356237309465
10
-4.0000000000000169
20
18.50000000000005
10
-4.0000000000000195
20
16.500000000000149
42
-0.4142135623730937
10
-5.0000000000000178
20
15.500000000000151
10
-6.5000000000000391
20
15.500000000000158
42
-0.41421356237309176
10
-7.0000000000000329
20
16.000000000000153
10
-7.0000000000000364
20
17.500000000000153
42
0.41421356237308399
10
-7.5000000000000178
20
18.000000000000156
42
0.41421356237309503
10
-10.000000000000018
20
15.500000000000153
10
-10.000000000000018
20
14.192388155425217
42
0.19891236737965734
10
-8.5355339059327662
20
10.656854249492492
10
-7.0931457505076612
20
9.2144660940673528
42
0.19891236737965828
10
-3.5576118445749221
20
7.7500000000000879
10
3.5576118445748635
20
7.7500000000000906
42
0.19891236737965731
10
7.0931457505075954
20
9.2144660940673475
10
8.535533905932688
20
10.656854249492401
42
0.19891236737965864
10
9.9999999999999538
20
14.192388155425153
10
9.9999999999999574
20
15.500000000000115
42
0.41421356237309492
10
7.4999999999999556
20
18.00000000000011
42
0.41421356237309503
10
6.9999999999999662
20
17.50000000000011
10
6.9999999999999734
20
16.000000000000114
42
-0.41421356237309764
10
6.499999999999968
20
15.500000000000112
10
4.9999999999999654
20
15.500000000000167
42
-0.4142135623730937
10
4.0000000000000142
20
16.500000000000121
10
4.0000000000000169
20
18.50000000000005
42
-0.41421356237308593
10
5.5000000000000142
20
20
10
16.000000000000007
20
19.999999999999993
42
-0.4142135623730952
10
20
20
15.999999999999996
10
20.000000000000053
20
5.5000000000000151
42
-0.41421356237309465
10
18.500000000000053
20
4.0000000000000142
10
16.500000000000156
20
4.0000000000000124
42
-0.4142135623730937
10
15.500000000000153
20
5.0000000000000133
10
15.500000000000158
20
6.5000000000000346
42
-0.41421356237309176
10
16.000000000000153
20
7.0000000000000302
10
17.500000000000156
20
7.0000000000000302
42
0.41421356237308721
10
18.000000000000163
20
7.5000000000000178
42
0.41421356237309553
10
15.500000000000153
20
10.000000000000018
10
14.192388155425224
20
10.000000000000018
42
0.19891236737965742
10
10.656854249492493
20
8.535533905932768
10
9.2144660940673493
20
7.0931457505076629
42
0.19891236737965831
10
7.7500000000000879
20
3.5576118445749221
10
7.750000000000087
20
-3.5576118445748635
42
0.19891236737965742
10
9.2144660940673457
20
-7.093145750507599
10
10.656854249492397
20
-8.5355339059326862
42
0.19891236737965873
10
14.192388155425151
20
-9.9999999999999556
10
15.500000000000115
20
-9.9999999999999609
42
0.41421356237309453
10
18.00000000000011
20
-7.49999999999996
42
0.41421356237309503
10
17.50000000000011
20
-6.9999999999999707
10
16.000000000000107
20
-6.9999999999999645
42
-0.41421356237309243
10
15.500000000000112
20
-6.499999999999968
10
15.500000000000163
20
-4.9999999999999654
42
-0.4142135623730937
10
16.500000000000114
20
-4.0000000000000124
0
LWPOLYLINE
5
107
100
AcDbEntity
8
0
100
AcDbPolyline
90
8
70
1
43
0.0
10
-11.799999999990209
20
12.300000000000013
10
-11.799999999990209
20
17.69999999999996
42
0.41421356237309243
10
-12.299999999990208
20
18.19999999999996
10
-15.999999999996589
20
18.19999999999996
42
0.41421356237309503
10
-18.199999999996578
20
15.999999999999972
10
-18.199999999996578
20
12.300000000002598
42
0.41421356237789986
10
-17.699999999990979
20
11.800000000000013
10
-12.299999999990208
20
11.800000000000011
42
0.41421356237308982
0
LWPOLYLINE
5
108
100
AcDbEntity
8
0
100
AcDbPolyline
90
8
70
1
43
0.0
10
12.300000000000013
20
11.799999999990209
10
17.69999999999996
20
11.799999999990208
42
0.41421356237309764
10
18.19999999999996
20
12.299999999990208
10
18.19999999999996
20
15.999999999996589
42
0.41421356237309503
10
15.999999999999972
20
18.199999999996578
10
12.300000000002598
20
18.199999999996582
42
0.41421356237309243
10
11.800000000002607
20
17.699999999996582
10
11.800000000002605
20
12.299999999995812
42
0.41421356237485751
0
LWPOLYLINE
5
109
100
AcDbEntity
8
0
100
AcDbPolyline
90
8
70
1
43
0.0
10
11.799999999990202
20
-12.299999999999249
10
11.799999999990202
20
-17.699999999999196
42
0.4142135623683032
10
12.299999999984601
20
-18.19999999999661
10
15.999999999990983
20
-18.19999999999661
42
0.41421356237309503
10
18.199999999990972
20
-15.999999999996621
10
18.199999999990972
20
-12.299999999999244
42
0.41421356237309764
10
17.699999999990975
20
-11.799999999999251
10
12.299999999990202
20
-11.799999999999249
42
0.41421356237309243
0
LWPOLYLINE
5
110
100
AcDbEntity
8
0
100
AcDbPolyline
90
8
70
1
43
0.0
10
-12.300000000000013
20
-11.799999999990209
10
-17.69999999999996
20
-11.799999999990209
42
0.41421356236829804
10
-18.199999999997374
20
-12.299999999984603
10
-18.199999999997374
20
-15.999999999990989
42
0.41421356237309503
10
-15.999999999997385
20
-18.199999999990975
10
-12.300000000000008
20
-18.199999999990975
42
0.41421356237309243
10
-11.800000000000015
20
-17.699999999990979
10
-11.800000000000013
20
-12.299999999990208
42
0.41421356237309243
0
CIRCLE
5
111
100
AcDbEntity
8
0
100
AcDbCircle
10
0
20
0
30
0
40
3.399999999999999
210
0
220
0
230
1
0
ENDSEC
0
SECTION
2
OBJECTS
0
DICTIONARY
5
C
100
AcDbDictionary
3
ACAD_GROUP
350
D
3
ACAD_MLINESTYLE
350
17
0
DICTIONARY
5
D
100
AcDbDictionary
0
DICTIONARY
5
1A
330
C
100
AcDbDictionary
0
DICTIONARY
5
17
100
AcDbDictionary
0
ENDSEC
0
EOF
