0
SECTION
2
HEADER
9
$INSUNITS
70
4
9
$ACADVER
1
AC1014
9
$HANDSEED
5
FFFF
0
ENDSEC
0
SECTION
2
TABLES
0
TABLE
2
VPORT
5
8
100
AcDbSymbolTable
0
ENDTAB
0
TABLE
2
LTYPE
5
5
100
AcDbSymbolTable
0
LTYPE
5
14
100
AcDbSymbolTableRecord
100
AcDbLinetypeTableRecord
2
BYBLOCK
70
0
0
LTYPE
5
15
100
AcDbSymbolTableRecord
100
AcDbLinetypeTableRecord
2
BYLAYER
70
0
0
ENDTAB
0
TABLE
2
LAYER
5
2
100
AcDbSymbolTable
70
2
0
LAYER
5
50
100
AcDbSymbolTableRecord
100
AcDbLayerTableRecord
2
0
70
0
6
CONTINUOUS
0
ENDTAB
0
TABLE
2
STYLE
5
3
100
AcDbSymbolTable
70
1
0
STYLE
5
11
100
AcDbSymbolTableRecord
100
AcDbTextStyleTableRecord
2
STANDARD
70
0
0
ENDTAB
0
TABLE
2
VIEW
5
6
100
AcDbSymbolTable
70
0
0
ENDTAB
0
TABLE
2
UCS
5
7
100
AcDbSymbolTable
70
0
0
ENDTAB
0
TABLE
2
APPID
5
9
100
AcDbSymbolTable
70
2
0
APPID
5
12
100
AcDbSymbolTableRecord
100
AcDbRegAppTableRecord
2
ACAD
70
0
0
ENDTAB
0
TABLE
2
DIMSTYLE
5
A
100
AcDbSymbolTable
70
1
0
ENDTAB
0
TABLE
2
BLOCK_RECORD
5
1
100
AcDbSymbolTable
70
1
0
BLOCK_RECORD
5
1F
100
AcDbSymbolTableRecord
100
AcDbBlockTableRecord
2
*MODEL_SPACE
0
BLOCK_RECORD
5
1B
100
AcDbSymbolTableRecord
100
AcDbBlockTableRecord
2
*PAPER_SPACE
0
ENDTAB
0
ENDSEC
0
SECTION
2
BLOCKS
0
BLOCK
5
20
100
AcDbEntity
100
AcDbBlockBegin
2
*MODEL_SPACE
0
ENDBLK
5
21
100
AcDbEntity
100
AcDbBlockEnd
0
BLOCK
5
1C
100
AcDbEntity
100
AcDbBlockBegin
2
*PAPER_SPACE
0
ENDBLK
5
1D
100
AcDbEntity
100
AcDbBlockEnd
0
ENDSEC
0
SECTION
2
ENTITIES
0
LWPOLYLINE
5
100
100
AcDbEntity
8
0
100
AcDbPolyline
90
344
70
1
43
0.0
10
19.174999999998597
20
-10.824999999999996
10
19.174999999998597
20
-2.9999999999999982
42
0.41421356237309509
10
16.174999999999706
20
-6.1672889017927446e-13
10
8.3499999999992003
20
0
42
0.41421356237309503
10
7.3499999999988708
20
-0.999999999999996
10
7.3499999999997003
20
-2.1000000000011991
42
0.41421356237265605
10
8.1499999999996948
20
-2.8999999999993156
10
9.5499999999989988
20
-2.8999999999999919
42
0.41421356237319046
10
9.8499999999992855
20
-2.5999999999999979
10
9.8499999999992163
20
-1.7999999999992871
42
-0.41421356237240187
10
10.149999999998601
20
-1.5000000000006142
10
11.399999999999
20
-1.4999999999993596
42
-0.41421356324424757
10
12.39999999999984
20
-2.500000002974101
10
12.399999994964467
20
-4.1931457589221015
42
-0.19891234791044796
10
11.521320492606096
20
-6.3144659373927903
10
8.8144666285045723
20
-9.0213201909527676
42
-0.19891238607609718
10
6.6931461323376018
20
-9.8999999999999755
10
1.6568538676606994
20
-9.9000000000000696
42
-0.19891238573430148
10
-0.46446662571627301
20
-9.0213201937427723
10
-3.1713204933747945
20
-6.3144659437439579
42
-0.19891234902501603
10
-4.0499999999992937
20
-4.1931457499990907
10
-4.0500000000012015
20
-2.5
42
-0.41421356237309503
10
-3.0500000000008716
20
-1.49999999999967
10
-1.8000000000000502
20
-1.4999999999995102
42
-0.4142135623729184
10
-1.499999999999744
20
-1.7999999999999972
10
-1.5000000000000391
20
-2.5999999999989938
42
0.41421356237319096
10
-1.1999999999998521
20
-2.8999999999999124
10
0.19999999999979992
20
-2.8999999999999919
42
0.41421356237298557
10
0.99999999999941303
20
-2.1000000000000001
10
0.99999999999950107
20
-0.999999999999996
42
0.41421356237309503
10
0
20
0
10
-21.650000000001004
20
0
42
0.41421356237309503
10
-22.650000000001334
20
-0.999999999999996
10
-22.650000000001398
20
-2.1000000000000001
42
0.41421356237298612
10
-21.850000000000001
20
-2.9000000000004955
10
-20.450000000001172
20
-2.8999999999999919
42
0.41421356237144802
10
-20.150000000000901
20
-2.5999999999999979
10
-20.150000000000983
20
-1.7999999999999972
42
-0.41421356237298018
10
-19.850000000000911
20
-1.4999999999998082
10
-18.600000000001042
20
-1.500000000000199
42
-0.41421356237309503
10
-17.600000000001241
20
-2.5
10
-17.600000000000708
20
-4.1931457499982017
42
-0.19891234902511057
10
-18.478679506625394
20
-6.3144659437441994
10
-21.185533374284674
20
-9.021320193742925
42
-0.19891238573427689
10
-23.306853867661701
20
-9.9000000000001265
10
-28.343146132339506
20
-9.9000000000000679
42
-0.19891238607607906
10
-30.46446662850618
20
-9.0213201909530696
10
-33.171320492606583
20
-6.3144659373928613
42
-0.19891234868324226
10
-34.049999994965354
20
-4.1931457500011868
10
-34.05000000000063
20
-2.5000000029735858
42
-0.41421356324421116
10
-33.049999999999706
20
-1.49999999999967
10
-31.800000000000502
20
-1.50000000000031
42
-0.41421356237397522
10
-31.499999999999915
20
-1.7999999999999972
10
-31.500000000001407
20
-2.5999999999999979
42
0.41421356237319046
10
-31.200000000000905
20
-2.8999999999998516
10
-29.800000000000711
20
-2.8999999999999919
42
0.41421356237317175
10
-29.0000000000013
20
-2.1000000000015979
10
-29.000000000000803
20
-0.999999999999996
42
0.41421356237309503
10
-29.999999999999403
20
-6.0895732900689836e-13
10
-37.825000000001403
20
0
42
0.41421356237309503
10
-40.825000000000635
20
-2.9999999999999978
10
-40.825000000000806
20
-10.824999999999996
42
0.41421356237309503
10
-39.825000000001403
20
-11.824999999999797
10
-38.725000000000406
20
-11.825000000000001
42
0.41421356237309503
10
-37.925000000000409
20
-11.024999999999991
10
-37.925000000000402
20
-9.6249999999999947
42
0.4142135623728046
10
-38.224999999999405
20
-9.325000000000049
10
-39.025000000000503
20
-9.3250000000000774
42
-0.41421356237231899
10
-39.325000000000486
20
-9.0249999999992969
10
-39.325000000001729
20
-7.7749999999999986
42
-0.41421356237309503
10
-38.325000000001396
20
-6.7749999999996691
10
-36.631854249998497
20
-6.7750000000000874
42
-0.19891234902496491
10
-34.510534056256709
20
-7.6536795066239041
10
-31.80367980625844
20
-10.360533374283925
42
-0.19891238573426501
10
-30.925000000000615
20
-12.481853867662593
10
-30.925000000000736
20
-17.518146132337201
42
-0.19891238607606049
10
-31.803679809048372
20
-19.639466628505634
10
-34.510534062605757
20
-22.346320492605845
42
-0.19891234791055529
10
-36.631854241080802
20
-23.224999994965863
10
-38.324999997028002
20
-23.225000000000222
42
-0.41421356324398223
10
-39.325000000001616
20
-22.225000000000001
10
-39.325000000000699
20
-20.975000000000001
42
-0.41421356237358498
10
-39.025000000001398
20
-20.6750000000002
10
-38.225000000000605
20
-20.674999999999994
42
0.41421356237309503
10
-37.925000000000352
20
-20.374999999999996
10
-37.925000000000402
20
-18.975000000000001
42
0.41421356237273166
10
-38.725000000001906
20
-18.174999999999869
10
-39.825000000001403
20
-18.174999999999997
42
0.41421356237309503
10
-40.825000000001737
20
-19.174999999999997
10
-40.825000000000806
20
-40.824999999999996
42
0.41421356237309503
10
-39.825000000001403
20
-41.824999999999733
10
-38.725000000000101
20
-41.824999999999399
42
0.41421356237298285
10
-37.925000000000495
20
-41.024999999999601
10
-37.925000000000402
20
-39.625
42
0.41421356237309503
10
-38.224999999999703
20
-39.325000000000053
10
-39.025000000000901
20
-39.325000000000053
42
-0.41421356237270479
10
-39.325000000001459
20
-39.024999999999096
10
-39.325000000001737
20
-37.7749999999997
42
-0.41421356324380532
10
-38.324999997028002
20
-36.774999999999963
10
-36.63185424108061
20
-36.775000005034094
42
-0.19891234791055609
10
-34.510534062605643
20
-37.653679507394251
10
-31.803679809048173
20
-40.36053337149427
42
-0.19891238607604803
10
-30.925000000000598
20
-42.4818538676627
10
-30.925000000000729
20
-47.5181461323373
42
-0.19891238573427528
10
-31.803679806258675
20
-49.63946662571594
10
-34.510534056257022
20
-52.346320493375977
42
-0.19891234902503602
10
-36.631854249999506
20
-53.224999999999582
10
-38.325000000001396
20
-53.224999999999909
42
-0.41421356237309503
10
-39.325000000001189
20
-52.225000000000115
10
-39.325000000000934
20
-50.975000000000605
42
-0.41421356237301699
10
-39.025000000000503
20
-50.675000000000253
10
-38.224999999999405
20
-50.674999999999429
42
0.4142135623728046
10
-37.924999999999514
20
-50.37500000000022
10
-37.925000000000402
20
-48.974999999999795
42
0.41421356237287393
10
-38.725000000000406
20
-48.174999999999947
10
-39.825000000001403
20
-48.174999999999805
42
0.41421356237309503
10
-40.825000000001737
20
-49.174999999999798
10
-40.825000000000806
20
-70.824999999999989
42
0.41421356237318607
10
-39.825000000001403
20
-71.825000000000102
10
-38.725000000000406
20
-71.825000000000017
42
0.41421356237328039
10
-37.925000000000409
20
-71.024999999999096
10
-37.925000000001404
20
-69.625
42
0.41421356237302998
10
-38.224999999999405
20
-69.324999999999989
10
-39.025000000000503
20
-69.325000000000102
42
-0.41421356237231899
10
-39.325000000000479
20
-69.024999999999324
10
-39.325000000001737
20
-67.775000000000091
42
-0.41421356237315748
10
-38.325000000001396
20
-66.774999999999551
10
-36.631854249998497
20
-66.775000000000091
42
-0.19891234902496582
10
-34.510534056256731
20
-67.653679506623902
10
-31.803679806258486
20
-70.360533374283989
42
-0.19891238573427042
10
-30.925000000000615
20
-72.481853867662693
10
-30.92500000000074
20
-77.518146132337208
42
-0.19891238607606002
10
-31.803679809048369
20
-79.63946662850563
10
-34.510534062605906
20
-82.346320492606026
42
-0.19891234791055565
10
-36.631854241080902
20
-83.224999994965941
10
-38.324999997028108
20
-83.224999999999909
42
-0.41421356324395098
10
-39.325000000001616
20
-82.224999999999696
10
-39.325000000000784
20
-80.974999999999994
42
-0.41421356237211521
10
-39.024999999999807
20
-80.674999999999827
10
-38.225000000000605
20
-80.67500000000031
42
0.41421356237309503
10
-37.925000000000352
20
-80.375
10
-37.924999999999599
20
-78.974999999999994
42
0.41421356237283652
10
-38.725000000000101
20
-78.174999999999898
10
-39.825000000001403
20
-78.174999999999997
42
0.41421356237333046
10
-40.825000000002532
20
-79.175000000000011
10
-40.825000000000806
20
-100.82499999999999
42
0.41421366394559428
10
-39.824999653211208
20
-101.8249999999997
10
-38.724999722570139
20
-101.82499980900363
42
0.4142134608006473
10
-37.925000000001376
20
-101.02499980900262
10
-37.925000000000367
20
-99.624999809003398
42
0.41421342271097777
10
-38.224999856949459
20
-99.324999809003444
10
-39.025000143052949
20
-99.324999618007212
42
-0.41421342271089101
10
-39.325000000001481
20
-99.024999618007712
10
-39.325000000001282
20
-97.774999618007087
42
-0.41421356324398223
10
-38.324999997027554
20
-96.77499961800676
10
-36.631854241080063
20
-96.774999623040969
42
-0.19891234791054629
10
-34.51053406260516
20
-97.65367912540114
10
-31.80367980904764
20
-100.36053298950115
42
-0.19891238607604203
10
-30.925000000000125
20
-102.48185348566949
10
-30.925000000000132
20
-107.51814575034396
42
-0.19891236737963203
10
-31.803679656441414
20
-109.63946609390597
10
-34.51053381072407
20
-112.34632005728186
42
-0.19891242593381461
10
-36.631854830189653
20
-113.22499971372196
10
-38.325000129586996
20
-113.2249995227252
42
-0.4142134963836428
10
-39.324999904284688
20
-112.22499952272544
10
-39.324999904284297
20
-110.97499952272608
42
-0.4142137020350527
10
-39.024999761233055
20
-110.67499952272576
10
-38.225000047333978
20
-110.67499971372203
42
0.41421370203515673
10
-37.924999904282963
20
-110.37499971372188
10
-37.924999904283766
20
-108.97499971372187
42
0.41421366394568343
10
-38.725000181716659
20
-108.17499971372143
10
-39.825000251075629
20
-108.17499990471775
42
0.41421351674289086
10
-40.825000000002724
20
-109.17500000000003
10
-40.825000000000806
20
-117.00000000000001
42
0.41421356237309503
10
-37.825000000002504
20
-119.9999999999994
10
-30.000000000000302
20
-120
42
0.41421366394594678
10
-29.000000000000028
20
-118.9999996532086
10
-29.00000019099739
20
-117.89999972256594
42
0.4142134606411611
10
-29.800000190996553
20
-117.10000000043465
10
-31.20000019099766
20
-117.10000000043465
42
0.41421356237318607
10
-31.500000190997941
20
-117.40000000043483
10
-31.500000381993271
20
-118.20000014348581
42
-0.41421342271083034
10
-31.800000381992625
20
-118.50000000043416
10
-33.050000381993023
20
-118.50000000043414
42
-0.41421356324380532
10
-34.05000038199298
20
-117.49999999746201
10
-34.050000376959467
20
-115.80685424151449
42
-0.19891234791070048
10
-33.171320874599985
20
-113.68553406304061
10
-30.464467010497394
20
-110.97867980948122
42
-0.19891238607599954
10
-28.343146514331309
20
-110.10000000043485
10
-23.306854249653504
20
-110.10000000043487
42
-0.19891236737970069
10
-21.185533906092708
20
-110.97867965687591
10
-18.478679942717577
20
-113.68553381115895
42
-0.1989123673796161
10
-17.600000286276753
20
-115.8068541547202
10
-17.600000286276739
20
-117.4999999047192
42
-0.41421356237309503
10
-18.600000286277073
20
-118.49999990471954
10
-19.850000286276128
20
-118.49999990471954
42
-0.41421370203543861
10
-20.150000286276367
20
-118.19999976166778
10
-20.150000095280379
20
-117.40000004777082
42
0.41421370203516544
10
-20.45000009528103
20
-117.0999999047193
10
-21.850000095280663
20
-117.09999990471928
42
0.41421356237302026
10
-22.650000095280372
20
-117.89999990471919
10
-22.649999904283796
20
-119.00000025151029
42
0.4142134608003234
10
-21.64999990428408
20
-119.99999990471892
10
9.5716923276256693e-08
20
-119.99999990471892
42
0.41421356237309531
10
1.0000000957172541
20
-118.99999990471858
10
1.0000000957164552
20
-117.89999990471857
42
0.41421356237298518
10
0.20000009571628008
20
-117.09999990471809
10
-1.1999999042842611
20
-117.09999990471809
42
0.41421356237222817
10
-1.4999999042845322
20
-117.39999990471928
10
-1.499999904283561
20
-118.19999990471835
42
-0.41421356237296819
10
-1.7999999042836201
20
-118.49999990471855
10
-3.0499999042843888
20
-118.49999990471856
42
-0.41421356237309503
10
-4.0499999042841681
20
-117.49999990471878
10
-4.0499999042838279
20
-115.80685415471876
42
-0.19891234902493662
10
-3.1713203976593713
20
-113.68553396097468
10
-0.46446652999998922
20
-110.97867971097607
42
-0.19891238573431222
10
1.6568539633770678
20
-110.09999990471869
10
6.6931462280539726
20
-110.0999999047187
42
-0.19891238607608863
10
8.8144667242208072
20
-110.97867971376581
10
11.521320588323125
20
-113.68553396732672
42
-0.19891234791061554
10
12.400000090681814
20
-115.80685414579983
10
12.400000095715317
20
-117.49999990174703
42
-0.41421356324386516
10
11.400000095714384
20
-118.49999990471977
10
10.150000095715285
20
-118.49999990471906
42
-0.41421356237397522
10
9.8500000957146394
20
-118.19999990471931
10
9.8500000957146394
20
-117.39999990471931
42
0.41421356237299423
10
9.5500000957149371
20
-117.09999990471951
10
8.1500000957154324
20
-117.09999990471951
42
0.41421356237280038
10
7.3500000957168501
20
-117.89999990471891
10
7.3500000957145497
20
-118.99999990471784
42
0.41421356237364426
10
8.3500000957140283
20
-119.99999990471899
10
16.17500009571333
20
-119.99999990471899
42
0.41421356237309503
10
19.175000095712559
20
-116.99999990471979
10
19.175000095713163
20
-109.1749999047198
42
0.41421356237309503
10
18.175000095713383
20
-108.17499990472001
10
17.075000095714081
20
-108.17499990472001
42
0.41421356237309503
10
16.275000095714081
20
-108.97499990471999
10
16.275000095715086
20
-110.37499990472
42
0.41421356237270918
10
16.575000095714458
20
-110.67499990471978
10
17.375000095714753
20
-110.6749999047198
42
-0.41421356237337253
10
17.675000095715554
20
-110.97499990472087
10
17.675000095713852
20
-112.22499990471988
42
-0.41421356237309503
10
16.675000095713518
20
-113.22499990472022
10
14.981854345714325
20
-113.22499990472019
42
-0.19891234902501478
10
12.860534151971823
20
-112.34632039809668
10
10.153679901972236
20
-109.63946653043618
42
-0.19891238573430944
10
9.2750000957140486
20
-107.51814603705714
10
9.2750000957143452
20
-102.48185377238265
42
-0.19891238607601663
10
10.153679904761624
20
-100.36053327621458
10
12.860534158319243
20
-97.653679412114371
42
-0.19891234791057769
10
14.981854336794161
20
-96.774999909754044
10
16.675000092739761
20
-96.774999904719721
42
-0.41421356324383718
10
17.675000095713379
20
-97.774999904719451
10
17.675000095714481
20
-99.024999904719948
42
-0.41421356237328583
10
17.375000095715482
20
-99.324999904719746
10
16.57500009571438
20
-99.324999904719746
42
0.41421356237309503
10
16.27500009571413
20
-99.624999904719985
10
16.275000095714233
20
-101.02499990471998
42
0.4142135623726983
10
17.075000095714845
20
-101.8249999047201
10
18.175000095714449
20
-101.82499990472012
42
0.41421356237309503
10
19.175000095714857
20
-100.82499990471973
10
19.175000095714857
20
-79.174999904719712
42
0.41421366394559689
10
18.174999748924904
20
-78.174999904720025
10
17.074999818284745
20
-78.175000095716442
42
0.4142134608006473
10
16.275000095715978
20
-78.975000095717178
10
16.275000095715978
20
-80.375000095716288
42
0.41421342271107309
10
16.574999952665173
20
-80.675000095716243
10
17.375000238766852
20
-80.675000286712532
42
-0.41421342271090189
10
17.675000095716818
20
-80.975000286713424
10
17.675000095715806
20
-82.225000286712827
42
-0.41421356324380598
10
16.675000092742074
20
-83.225000286712557
10
14.981854336796376
20
-83.225000281678462
42
-0.19891234791054374
10
12.860534158321526
20
-82.346320779318233
10
10.15367990476352
20
-79.639466915217952
42
-0.19891238607604225
10
9.2750000957159884
20
-77.518146419049557
10
9.275000095716285
20
-72.481854154375057
42
-0.19891236737962786
10
10.153679752157473
20
-70.360533810813067
10
12.860533906440716
20
-67.653679847436905
42
-0.19891242593383654
10
14.981854925906593
20
-66.77500019099665
10
16.675000225301133
20
-66.775000381992896
42
-0.41421349638364541
10
17.674999999998846
20
-67.775000381992655
10
17.675000000000246
20
-69.025000381991731
42
-0.41421370203548191
10
17.374999856949014
20
-69.325000381992481
10
16.575000143050829
20
-69.325000190996377
42
0.41421370203515245
10
16.274999999999821
20
-69.625000190996531
10
16.274999999999821
20
-71.025000190996352
42
0.41421366394568426
10
17.075000277432672
20
-71.825000190996761
10
18.175000346789034
20
-71.825000000000585
42
0.41421346080053284
10
19.174999999998931
20
-70.825000000000301
10
19.174999999998597
20
-49.175000000000004
42
0.41421356237315488
10
18.174999999998601
20
-48.175000000000011
10
17.074999999999299
20
-48.175000000000395
42
0.41421356237309503
10
16.274999999999299
20
-48.975000000000399
10
16.275000000000301
20
-50.375000000000007
42
0.41421356237292378
10
16.574999999999203
20
-50.675000000000018
10
17.374999999999503
20
-50.674999999999898
42
-0.41421356237338119
10
17.675000000000274
20
-50.975000000000968
10
17.674999999998931
20
-52.224999999999909
42
-0.41421356237315488
10
16.674999999998597
20
-53.225000000000449
10
14.981854249999405
20
-53.224999999999909
42
-0.19891234902500946
10
12.860534056257025
20
-52.346320493376474
10
10.153679806256923
20
-49.639466625716395
42
-0.19891238573431452
10
9.2749999999986859
20
-47.5181461323373
10
9.2749999999997232
20
-42.481853867662807
42
-0.198912386076012
10
10.153679809046965
20
-40.360533371494761
10
12.860534062604533
20
-37.653679507394635
42
-0.19891234791057769
10
14.981854241079599
20
-36.775000005034244
10
16.674999997025203
20
-36.775000000000084
42
-0.41421356324374742
10
17.674999999998818
20
-37.774999999999501
10
17.674999999999677
20
-39.024999999999999
42
-0.41421356237221491
10
17.3749999999986
20
-39.325000000000173
10
16.574999999999601
20
-39.324999999999697
42
0.41421356237309503
10
16.274999999999352
20
-39.625
10
16.274999999998602
20
-41.024999999999999
42
0.41421356237283813
10
17.074999999998997
20
-41.825000000000081
10
18.174999999998601
20
-41.825000000000003
42
0.41421356237332918
10
19.174999999999812
20
-40.824999999999996
10
19.174999999998597
20
-19.174999999999997
42
0.41421356237309437
10
18.174999999998601
20
-18.17500000000026
10
17.075000000000301
20
-18.174999999999997
42
0.41421356237313001
10
16.274999999999405
20
-18.975000000000797
10
16.274999999999402
20
-20.374999999999996
42
0.41421356237309503
10
16.574999999999601
20
-20.674999999999951
10
17.374999999999801
20
-20.674999999999951
42
-0.41421356237280021
10
17.674999999999052
20
-20.9749999999995
10
17.674999999998938
20
-22.225000000000001
42
-0.4142135632439829
10
16.674999997025203
20
-23.225000000000339
10
14.981854241079599
20
-23.224999994965813
42
-0.19891234791055309
10
12.860534062604696
20
-22.346320492605606
10
10.153679809046213
20
-19.63946662850568
42
-0.19891238607604203
10
9.2749999999986859
20
-17.518146132337293
10
9.274999999999725
20
-12.481853867662709
42
-0.19891238573426973
10
10.153679806257616
20
-10.360533374284113
10
12.860534056256034
20
-7.6536795066240177
42
-0.19891234902503865
10
14.981854249998499
20
-6.7750000000004063
10
16.674999999998597
20
-6.7750000000001975
42
-0.41421356237309503
10
17.674999999998398
20
-7.7749999999999986
10
17.674999999999933
20
-9.0249999999989949
42
-0.41421356237338991
10
17.374999999999503
20
-9.3249999999997275
10
16.575000000000205
20
-9.3250000000005961
42
0.41421356237280671
10
16.275000000000311
20
-9.6249999999999947
10
16.274999999999402
20
-11.024999999999103
42
0.41421356237342022
10
17.075000000000205
20
-11.825000000000465
10
18.174999999998601
20
-11.825000000000001
42
0.41421356237309503
0
LWPOLYLINE
5
101
100
AcDbEntity
8
0
100
AcDbPolyline
90
58
70
1
43
0.0
10
-0.92500000000049099
20
-12.481853867661394
10
-0.92500000000011195
20
-18.192893218812589
42
0.19891236737962323
10
-0.77855339059284323
20
-18.546446609407237
10
0.62855339059180193
20
-19.953553390592702
42
0.19891236737968887
10
0.98210678118619821
20
-20.099999999999962
10
6.6931461323376018
20
-20.099999999999891
42
-0.19891236737963919
10
8.8144664758979463
20
-20.978679656440452
10
11.496320817938301
20
-23.660533998481998
42
0.19891249450797263
10
15.031857169668701
20
-25.125000092550536
10
15.174999510841305
20
-25.125000022530585
42
-0.41421370564442705
10
16.175000000000139
20
-26.125000022530397
10
16.175000000000534
20
-33.874999977469599
42
-0.41421370564419485
10
15.174999510842097
20
-34.874999977469813
10
15.031857169664901
20
-34.874999907449705
42
0.19891249450773879
10
11.496320817938967
20
-36.339466001517671
10
8.8144664758980422
20
-39.021320343559339
42
-0.19891236737965765
10
6.6931461323376018
20
-39.900000000000027
10
0.98210678118619832
20
-39.900000000000006
42
0.19891236737906648
10
0.62855339059243887
20
-40.046446609406431
10
-0.7785533905933002
20
-41.453553390592901
42
0.19891236737929088
10
-0.92500000000050209
20
-41.807106781186498
10
-0.92500000000049076
20
-47.518146132337108
42
-0.19891238607607734
10
-1.8036798090482651
20
-49.63946662850568
10
-10.117893269683249
20
-57.953678892903717
42
-0.41421352023231583
10
-11.532106730319498
20
-57.953678892903767
10
-19.846320190953087
20
-49.639466628505687
42
-0.19891238607593398
10
-20.725000000000648
20
-47.518146132338607
10
-20.725000000000993
20
-41.8071067811874
42
0.19891236737921567
10
-20.871446609407659
20
-41.453553390593363
10
-22.27855339059381
20
-40.046446609407198
42
0.19891236737911736
10
-22.632106781187208
20
-39.900000000000134
10
-28.343146132339506
20
-39.900000000000105
42
-0.19891236737972448
10
-30.464466475900409
20
-39.021320343558912
10
-33.146320817939305
20
-36.339466001518097
42
0.19891249450797654
10
-36.681857169669705
20
-34.87499990744945
10
-36.824999510843305
20
-34.874999977469415
42
-0.41421370564442833
10
-37.825000000002042
20
-33.874999977469493
10
-37.825000000002433
20
-26.125000022530397
42
-0.41421370564422411
10
-36.824999510843895
20
-25.125000022530187
10
-36.681857169666003
20
-25.125000092550298
42
0.19891249450778836
10
-33.146320817939369
20
-23.660533998481725
10
-30.464466475899854
20
-20.978679656440541
42
-0.19891236737965776
10
-28.343146132339506
20
-20.099999999999891
10
-22.632106781188099
20
-20.099999999999998
42
0.19891236737939852
10
-22.278553390593828
20
-19.953553390593186
10
-20.8714466094088
20
-18.546446609407504
42
0.1989123673791578
10
-20.725000000001408
20
-18.192893218813495
10
-20.724999999999653
20
-12.481853867662904
42
-0.19891238607602735
10
-19.846320190952284
20
-10.360533371494745
10
-17.164466359675131
20
-7.6786799260766969
42
0.19891244462826424
10
-15.700000011266365
20
-4.1431446393299955
10
-15.700000043516102
20
-3.9999999999999951
42
-0.41421356237283424
10
-14.700000043516663
20
-2.9999999999996652
10
-6.949999956484362
20
-2.999999999999956
42
-0.41421362836194148
10
-5.949999956484346
20
-4.0000002253000044
10
-5.9499999887354811
20
-4.1431446393044968
42
0.198912444629606
10
-4.4855336403264854
20
-7.6786799260768319
10
-1.8036798090479735
20
-10.360533371494432
42
-0.19891238607592776
0
LWPOLYLINE
5
102
100
AcDbEntity
8
0
100
AcDbPolyline
90
58
70
1
43
0.0
10
-19.846320190952781
20
-70.360533371493901
10
-11.532106730319553
20
-62.046321107096176
42
-0.41421352023227581
10
-10.117893269683302
20
-62.046321107096119
10
-1.8036798090481374
20
-70.360533371494114
42
-0.19891238607607029
10
-0.92500000000039106
20
-72.481853867662693
10
-0.92500000000012006
20
-78.1928932188126
42
0.19891236737962026
10
-0.77855339059285344
20
-78.546446609407255
10
0.62855339059170201
20
-79.953553390592603
42
0.19891236737969292
10
0.9821067811861981
20
-80.099999999999881
10
6.6931461323376009
20
-80.099999999999852
42
-0.19891236737977458
10
8.8144664758989997
20
-80.9786796564415
10
11.496320817936805
20
-83.660533998481299
42
0.19891249450803422
10
15.031857169668204
20
-85.125000092550437
10
15.1749995108412
20
-85.125000022530571
42
-0.41421370564448362
10
16.175000000000153
20
-86.1250000225305
10
16.175000000000534
20
-93.874999977469585
42
-0.41421370564434118
10
15.174999510841598
20
-94.874999977469813
10
15.031857169668106
20
-94.874999907449634
42
0.19891249450785889
10
11.496320817939754
20
-96.339466001517678
10
8.8144664758980422
20
-99.021320343559367
42
-0.19891236737966272
10
6.6931461323376018
20
-99.900000000000077
10
0.98210678118709982
20
-99.90000000000002
42
0.19891236737944465
10
0.62855339059277293
20
-100.0464466094069
10
-0.77855339059299988
20
-101.4535533905925
42
0.19891236737917672
10
-0.9250000000004881
20
-101.8071067811865
10
-0.92500000000049099
20
-107.51814613233719
42
-0.198912386076012
10
-1.8036798090477317
20
-109.63946662850523
10
-4.4855336403259818
20
-112.32132007392369
42
0.19891244463156757
10
-5.9499999887345432
20
-115.85685536073392
10
-5.9499999564840165
20
-115.99999977469231
42
-0.41421362836419445
10
-6.9499999564843602
20
-117.00000000000038
10
-14.700000043516663
20
-117.00000000000009
42
-0.41421362836094788
10
-15.700000043516697
20
-115.9999997747034
10
-15.700000011267061
20
-115.85685536067813
42
0.19891244462870777
10
-17.164466359676204
20
-112.32132007392292
10
-19.846320190953126
20
-109.63946662850566
42
-0.19891238607605216
10
-20.725000000000634
20
-107.51814613233719
10
-20.725000000000449
20
-101.8071067811876
42
0.19891236737929893
10
-20.871446609407389
20
-101.45355339059307
10
-22.27855339059381
20
-100.04644660940713
42
0.19891236737909121
10
-22.632106781187208
20
-99.90000000000002
10
-28.343146132339506
20
-99.900000000000091
42
-0.19891236737972495
10
-30.464466475900469
20
-99.02132034355887
10
-33.146320817939205
20
-96.33946600151809
42
0.19891249450799428
10
-36.681857169670202
20
-94.874999907449592
10
-36.824999510843199
20
-94.874999977469443
42
-0.41421370564442833
10
-37.825000000002056
20
-93.874999977469599
10
-37.825000000002433
20
-86.125000022530415
42
-0.41421370564425142
10
-36.824999510843803
20
-85.125000022530202
10
-36.681857169666699
20
-85.125000092550408
42
0.19891249450783149
10
-33.146320817939234
20
-83.660533998481682
10
-30.46446647589984
20
-80.978679656440562
42
-0.19891236737965096
10
-28.343146132339506
20
-80.099999999999937
10
-22.632106781189002
20
-80.099999999999994
42
0.19891236737976736
10
-22.278553390594375
20
-79.953553390592631
10
-20.871446609408505
20
-78.5464466094069
42
0.19891236737917931
10
-20.725000000001401
20
-78.192893218813509
10
-20.725000000000591
20
-72.481853867662906
42
-0.19891238607604803
0
LWPOLYLINE
5
103
100
AcDbEntity
8
0
100
AcDbPolyline
90
18
70
1
43
0.0
10
-8.6286804091875009
20
-59.29289316794496
10
-0.31446554883940908
20
-50.978679503833533
42
-0.19891234868317845
10
1.8068546421136995
20
-50.099999999999874
10
6.6931461323376018
20
-50.099999999999916
42
-0.19891236737974063
10
8.8144664758987741
20
-50.978679656441301
10
11.496320817938999
20
-53.660533998481739
42
0.19891249450800885
10
15.031857169669999
20
-55.125000092550501
10
15.1749995108412
20
-55.125000022530571
42
-0.41421370564445759
10
16.175000000000139
20
-56.125000022530394
10
16.175000000000534
20
-63.874999977469543
42
-0.41421370564500387
10
15.174999510839397
20
-64.874999977469813
10
15.031857169678302
20
-64.87499990744972
42
0.19891249450845278
10
11.496320817938749
20
-66.339466001517962
10
8.814466475897941
20
-69.02132034355941
42
-0.19891236737964577
10
6.6931461323376018
20
-69.900000000000006
10
1.8068546421137004
20
-69.900000000000091
42
-0.19891234868324642
10
-0.31446554883993116
20
-69.021320496165885
10
-8.6286804091873446
20
-60.707106832055196
42
-0.41421360451395878
0
LWPOLYLINE
5
104
100
AcDbEntity
8
0
100
AcDbPolyline
90
18
70
1
43
0.0
10
-23.4568546421165
20
-69.900000000000006
10
-28.343146132340404
20
-69.900000000000077
42
-0.19891236737974155
10
-30.464466475901585
20
-69.021320343558699
10
-33.146320817940904
20
-66.339466001518275
42
0.19891249450800963
10
-36.681857169671908
20
-64.874999907449492
10
-36.824999510843199
20
-64.874999977469429
42
-0.41421370564442572
10
-37.825000000002042
20
-63.874999977469614
10
-37.825000000002433
20
-56.125000022530401
42
-0.41421370564498244
10
-36.824999510841309
20
-55.125000022530187
10
-36.681857169681102
20
-55.125000092550316
42
0.1989124945084095
10
-33.146320817942112
20
-53.660533998482649
10
-30.464466475900309
20
-50.978679656440029
42
-0.19891236737958481
10
-28.343146132340404
20
-50.099999999999909
10
-23.456854642116504
20
-50.099999999999916
42
-0.19891234868322413
10
-21.335534451162992
20
-50.978679503833959
10
-13.02131959081585
20
-59.292893167944314
42
-0.41421360451446004
10
-13.021319590816017
20
-60.707106832055857
10
-21.335534451163063
20
-69.02132049616597
42
-0.19891234868322946
0
LWPOLYLINE
5
105
100
AcDbEntity
8
0
100
AcDbPolyline
90
8
70
1
43
0.0
10
-39.325000000000202
20
-5.049999999999395
10
-39.325000000001467
20
-2.9999999999999978
42
-0.41421356237309503
10
-37.825000000001403
20
-1.4999999999999374
10
-35.775000000001
20
-1.5000000000000036
42
-0.41421356237309503
10
-35.475000000001003
20
-1.7999999999999972
10
-35.475000000000811
20
-5.0499999999999901
42
-0.41421355377843821
10
-35.774999991197802
20
-5.3500000000001791
10
-39.024999991196509
20
-5.350000047487498
42
-0.4142136173304361
0
LWPOLYLINE
5
106
100
AcDbEntity
8
0
100
AcDbPolyline
90
8
70
1
43
0.0
10
13.824999999999099
20
-118.2
10
13.824999999999719
20
-114.95000000000003
42
-0.41421356237309503
10
14.124999999999908
20
-114.64999999999984
10
17.374999999999503
20
-114.65000000000003
42
-0.41421356237309503
10
17.675000000000079
20
-114.95000000000061
10
17.675000190993615
20
-117.00000000000003
42
-0.41421356245793389
10
16.174999999998604
20
-118.50000000000007
10
14.124999999999908
20
-118.50000000000001
42
-0.41421356237388196
0
LWPOLYLINE
5
107
100
AcDbEntity
8
0
100
AcDbPolyline
90
8
70
1
43
0.0
10
-35.475000000001003
20
-114.95000000000003
10
-35.475000000000811
20
-118.2
42
-0.41421356237309503
10
-35.775000000001
20
-118.5000000000002
10
-37.825000000001403
20
-118.49999999999861
42
-0.41421356237331008
10
-39.325000000001104
20
-117.00000000000001
10
-39.325000000000692
20
-114.95000000000061
42
-0.41421356237309503
10
-39.025000000000503
20
-114.65000000000043
10
-35.775000000000901
20
-114.65000000000003
42
-0.41421356237299967
0
LWPOLYLINE
5
108
100
AcDbEntity
8
0
100
AcDbPolyline
90
8
70
1
43
0.0
10
17.674999999998601
20
-2.9999999999999978
10
17.674999999999692
20
-5.0499999999999901
42
-0.41421356237251405
10
17.374999999999503
20
-5.349999999999584
10
14.124999999999908
20
-5.3500000000000796
42
-0.41421356237309503
10
13.824999999999818
20
-5.0499999999999901
10
13.824999999999715
20
-1.7999999999999972
42
-0.41421356237309503
10
14.124999999999908
20
-1.4999999999998042
10
16.174999999998604
20
-1.5000000000011
42
-0.41421356237331008
0
CIRCLE
5
109
100
AcDbEntity
8
0
100
AcDbCircle
10
-25.825000000001097
20
-105
30
0
40
2.5
210
0
220
0
230
1
0
CIRCLE
5
110
100
AcDbEntity
8
0
100
AcDbCircle
10
-25.825000000001097
20
-75.000000000000199
30
0
40
2.5
210
0
220
0
230
1
0
CIRCLE
5
111
100
AcDbEntity
8
0
100
AcDbCircle
10
-25.825000000001097
20
-45
30
0
40
2.5
210
0
220
0
230
1
0
CIRCLE
5
112
100
AcDbEntity
8
0
100
AcDbCircle
10
-25.825000000001097
20
-15
30
0
40
2.5
210
0
220
0
230
1
0
CIRCLE
5
113
100
AcDbEntity
8
0
100
AcDbCircle
10
4.1750000000001002
20
-15
30
0
40
2.5
210
0
220
0
230
1
0
CIRCLE
5
114
100
AcDbEntity
8
0
100
AcDbCircle
10
4.1749999999991001
20
-45
30
0
40
2.5
210
0
220
0
230
1
0
CIRCLE
5
115
100
AcDbEntity
8
0
100
AcDbCircle
10
4.1749999999991001
20
-75
30
0
40
2.5
210
0
220
0
230
1
0
CIRCLE
5
116
100
AcDbEntity
8
0
100
AcDbCircle
10
4.1750000000001002
20
-105
30
0
40
2.5
210
0
220
0
230
1
0
LWPOLYLINE
5
117
100
AcDbEntity
8
0
100
AcDbPolyline
90
344
70
1
43
0.0
10
19.174999999998597
20
-10.824999999999996
10
19.174999999998597
20
-2.9999999999999982
42
0.41421356237309503
10
16.174999999999706
20
-6.1728400169158704e-13
10
8.3499999999992003
20
0
42
0.41421356237309587
10
7.3499999999988708
20
-0.99999999999999623
10
7.3499999999997003
20
-2.1000000000011991
42
0.41421356237265705
10
8.1499999999996948
20
-2.8999999999993156
10
9.5499999999989988
20
-2.8999999999999919
42
0.41421356237318768
10
9.8499999999992855
20
-2.5999999999999979
10
9.8499999999992163
20
-1.7999999999992871
42
-0.41421356237240187
10
10.149999999998601
20
-1.5000000000006142
10
11.399999999999
20
-1.4999999999993596
42
-0.41421356324424757
10
12.39999999999984
20
-2.500000002974101
10
12.399999994964467
20
-4.1931457589221015
42
-0.19891234791044796
10
11.521320492606096
20
-6.3144659373927903
10
8.8144666285045723
20
-9.0213201909527676
42
-0.19891238607609718
10
6.6931461323376018
20
-9.8999999999999755
10
1.6568538676606992
20
-9.9000000000000696
42
-0.19891238573430148
10
-0.46446662571627328
20
-9.0213201937427723
10
-3.171320493374794
20
-6.3144659437439588
42
-0.19891234902501614
10
-4.0499999999992937
20
-4.1931457499990898
10
-4.0500000000012015
20
-2.5
42
-0.41421356237309503
10
-3.0500000000008716
20
-1.49999999999967
10
-1.8000000000000502
20
-1.4999999999995104
42
-0.4142135623729184
10
-1.4999999999997442
20
-1.7999999999999972
10
-1.5000000000000391
20
-2.5999999999989938
42
0.41421356237319235
10
-1.1999999999998521
20
-2.8999999999999124
10
0.19999999999979992
20
-2.8999999999999919
42
0.41421356237298579
10
0.99999999999941291
20
-2.1000000000000001
10
0.99999999999950107
20
-0.999999999999996
42
0.41421356237309503
10
-2.1632341619893369e-16
20
-1.9623191960249642e-13
10
-21.650000000001004
20
0
42
0.4142135623730952
10
-22.650000000001334
20
-0.99999999999999623
10
-22.650000000001398
20
-2.1000000000000001
42
0.41421356237298479
10
-21.850000000000001
20
-2.9000000000004986
10
-20.450000000001172
20
-2.8999999999999919
42
0.41421356237145723
10
-20.150000000000901
20
-2.5999999999999979
10
-20.150000000000983
20
-1.7999999999999972
42
-0.41421356237298018
10
-19.850000000000911
20
-1.4999999999998082
10
-18.600000000001042
20
-1.500000000000199
42
-0.41421356237309503
10
-17.600000000001241
20
-2.5
10
-17.600000000000708
20
-4.1931457499982017
42
-0.19891234902511057
10
-18.478679506625394
20
-6.3144659437442012
10
-21.185533374284674
20
-9.021320193742925
42
-0.19891238573427689
10
-23.306853867661701
20
-9.9000000000001265
10
-28.343146132339506
20
-9.9000000000000679
42
-0.19891238607607906
10
-30.46446662850618
20
-9.0213201909530696
10
-33.171320492606583
20
-6.3144659373928604
42
-0.19891234868324226
10
-34.049999994965354
20
-4.1931457500011859
10
-34.05000000000063
20
-2.5000000029735858
42
-0.41421356324421116
10
-33.049999999999706
20
-1.49999999999967
10
-31.800000000000502
20
-1.50000000000031
42
-0.41421356237397522
10
-31.499999999999915
20
-1.7999999999999972
10
-31.500000000001407
20
-2.5999999999999979
42
0.41421356237318768
10
-31.200000000000905
20
-2.8999999999998511
10
-29.800000000000711
20
-2.8999999999999919
42
0.41421356237317136
10
-29.0000000000013
20
-2.1000000000015979
10
-29.000000000000803
20
-0.999999999999996
42
0.41421356237309692
10
-29.999999999999403
20
-6.1048388566575795e-13
10
-37.825000000001403
20
0
42
0.41421356237309498
10
-40.825000000000635
20
-2.9999999999999978
10
-40.825000000000806
20
-10.824999999999996
42
0.41421356237309048
10
-39.82500000000141
20
-11.824999999999795
10
-38.725000000000406
20
-11.825000000000001
42
0.41421356237309015
10
-37.925000000000409
20
-11.024999999999991
10
-37.925000000000402
20
-9.6249999999999947
42
0.414213562372797
10
-38.224999999999405
20
-9.325000000000049
10
-39.025000000000503
20
-9.3250000000000774
42
-0.41421356237231899
10
-39.325000000000486
20
-9.0249999999992969
10
-39.325000000001729
20
-7.7749999999999986
42
-0.41421356237309503
10
-38.325000000001396
20
-6.7749999999996691
10
-36.631854249998497
20
-6.7750000000000874
42
-0.19891234902496491
10
-34.510534056256709
20
-7.6536795066239041
10
-31.80367980625844
20
-10.360533374283925
42
-0.19891238573426501
10
-30.925000000000615
20
-12.481853867662593
10
-30.925000000000736
20
-17.518146132337201
42
-0.19891238607606049
10
-31.803679809048372
20
-19.639466628505634
10
-34.510534062605757
20
-22.346320492605845
42
-0.19891234791055529
10
-36.631854241080802
20
-23.224999994965863
10
-38.324999997028002
20
-23.225000000000222
42
-0.41421356324398223
10
-39.325000000001616
20
-22.225000000000001
10
-39.325000000000699
20
-20.975000000000001
42
-0.41421356237358498
10
-39.025000000001398
20
-20.6750000000002
10
-38.225000000000605
20
-20.674999999999994
42
0.41421356237308637
10
-37.925000000000352
20
-20.374999999999996
10
-37.925000000000402
20
-18.975000000000001
42
0.41421356237272844
10
-38.725000000001906
20
-18.174999999999869
10
-39.825000000001403
20
-18.174999999999997
42
0.41421356237308915
10
-40.825000000001737
20
-19.174999999999997
10
-40.825000000000806
20
-40.824999999999996
42
0.4142135623730937
10
-39.825000000001403
20
-41.824999999999747
10
-38.725000000000101
20
-41.824999999999399
42
0.41421356237298773
10
-37.925000000000502
20
-41.024999999999601
10
-37.925000000000402
20
-39.625
42
0.41421356237309503
10
-38.224999999999703
20
-39.325000000000053
10
-39.025000000000901
20
-39.325000000000053
42
-0.41421356237270479
10
-39.325000000001459
20
-39.024999999999096
10
-39.325000000001737
20
-37.7749999999997
42
-0.41421356324380532
10
-38.324999997028002
20
-36.774999999999963
10
-36.63185424108061
20
-36.775000005034087
42
-0.19891234791055609
10
-34.510534062605643
20
-37.653679507394251
10
-31.803679809048173
20
-40.36053337149427
42
-0.19891238607604803
10
-30.925000000000598
20
-42.4818538676627
10
-30.925000000000729
20
-47.5181461323373
42
-0.19891238573427528
10
-31.803679806258675
20
-49.63946662571594
10
-34.510534056257022
20
-52.346320493375977
42
-0.19891234902503602
10
-36.631854249999506
20
-53.224999999999582
10
-38.325000000001396
20
-53.224999999999909
42
-0.41421356237309503
10
-39.325000000001189
20
-52.225000000000115
10
-39.325000000000934
20
-50.975000000000605
42
-0.41421356237301699
10
-39.025000000000503
20
-50.675000000000253
10
-38.224999999999405
20
-50.674999999999429
42
0.4142135623728046
10
-37.924999999999514
20
-50.37500000000022
10
-37.925000000000402
20
-48.974999999999795
42
0.41421356237287554
10
-38.725000000000406
20
-48.174999999999955
10
-39.825000000001403
20
-48.174999999999805
42
0.4142135623730781
10
-40.825000000001737
20
-49.174999999999791
10
-40.825000000000806
20
-70.824999999999989
42
0.41421356237318219
10
-39.825000000001403
20
-71.825000000000102
10
-38.725000000000406
20
-71.825000000000017
42
0.41421356237328688
10
-37.925000000000409
20
-71.024999999999096
10
-37.925000000001404
20
-69.625
42
0.4142135623730257
10
-38.224999999999405
20
-69.324999999999989
10
-39.025000000000503
20
-69.325000000000102
42
-0.41421356237231899
10
-39.325000000000479
20
-69.024999999999324
10
-39.325000000001737
20
-67.775000000000091
42
-0.41421356237315748
10
-38.325000000001396
20
-66.774999999999551
10
-36.631854249998497
20
-66.775000000000091
42
-0.19891234902496582
10
-34.510534056256731
20
-67.653679506623902
10
-31.803679806258486
20
-70.360533374283989
42
-0.19891238573427042
10
-30.925000000000615
20
-72.481853867662693
10
-30.92500000000074
20
-77.518146132337208
42
-0.19891238607606002
10
-31.803679809048369
20
-79.63946662850563
10
-34.510534062605906
20
-82.346320492606026
42
-0.19891234791055565
10
-36.631854241080902
20
-83.224999994965941
10
-38.324999997028108
20
-83.224999999999909
42
-0.41421356324395098
10
-39.325000000001616
20
-82.224999999999696
10
-39.325000000000784
20
-80.974999999999994
42
-0.41421356237211521
10
-39.024999999999807
20
-80.674999999999827
10
-38.225000000000605
20
-80.67500000000031
42
0.41421356237309936
10
-37.92500000000036
20
-80.375
10
-37.924999999999599
20
-78.974999999999994
42
0.41421356237283491
10
-38.725000000000101
20
-78.174999999999898
10
-39.825000000001403
20
-78.174999999999997
42
0.41421356237332002
10
-40.825000000002532
20
-79.175000000000011
10
-40.825000000000806
20
-100.82499999999999
42
0.41421366394558778
10
-39.824999653211208
20
-101.8249999999997
10
-38.724999722570139
20
-101.82499980900363
42
0.41421346080064891
10
-37.925000000001376
20
-101.02499980900262
10
-37.925000000000367
20
-99.624999809003398
42
0.41421342271094741
10
-38.224999856949459
20
-99.324999809003444
10
-39.025000143052949
20
-99.324999618007212
42
-0.41421342271089101
10
-39.325000000001481
20
-99.024999618007712
10
-39.325000000001282
20
-97.774999618007087
42
-0.41421356324398223
10
-38.324999997027554
20
-96.77499961800676
10
-36.631854241080063
20
-96.774999623040969
42
-0.19891234791054629
10
-34.51053406260516
20
-97.65367912540114
10
-31.80367980904764
20
-100.36053298950115
42
-0.19891238607604203
10
-30.925000000000125
20
-102.48185348566949
10
-30.925000000000132
20
-107.51814575034396
42
-0.19891236737963203
10
-31.803679656441414
20
-109.63946609390597
10
-34.51053381072407
20
-112.34632005728186
42
-0.19891242593381461
10
-36.631854830189653
20
-113.22499971372196
10
-38.325000129586996
20
-113.2249995227252
42
-0.4142134963836428
10
-39.324999904284688
20
-112.22499952272544
10
-39.324999904284297
20
-110.97499952272608
42
-0.4142137020350527
10
-39.024999761233055
20
-110.67499952272576
10
-38.225000047333978
20
-110.67499971372203
42
0.4142137020352088
10
-37.92499990428297
20
-110.37499971372186
10
-37.924999904283766
20
-108.97499971372187
42
0.41421366394568176
10
-38.725000181716659
20
-108.17499971372142
10
-39.825000251075629
20
-108.17499990471775
42
0.41421351674289347
10
-40.825000000002731
20
-109.17500000000003
10
-40.825000000000806
20
-117.00000000000001
42
0.41421356237309465
10
-37.825000000002504
20
-119.9999999999994
10
-30.000000000000302
20
-120
42
0.414213663945939
10
-29.000000000000039
20
-118.99999965320862
10
-29.00000019099739
20
-117.89999972256594
42
0.4142134606411757
10
-29.800000190996553
20
-117.10000000043465
10
-31.20000019099766
20
-117.10000000043465
42
0.41421356237318607
10
-31.500000190997941
20
-117.40000000043483
10
-31.500000381993271
20
-118.20000014348581
42
-0.41421342271083034
10
-31.800000381992625
20
-118.50000000043416
10
-33.050000381993023
20
-118.50000000043414
42
-0.41421356324380532
10
-34.05000038199298
20
-117.49999999746201
10
-34.050000376959467
20
-115.80685424151449
42
-0.19891234791070048
10
-33.171320874599985
20
-113.68553406304061
10
-30.464467010497394
20
-110.97867980948122
42
-0.19891238607599954
10
-28.343146514331309
20
-110.10000000043485
10
-23.306854249653504
20
-110.10000000043487
42
-0.19891236737970069
10
-21.185533906092708
20
-110.97867965687591
10
-18.478679942717577
20
-113.68553381115895
42
-0.1989123673796161
10
-17.600000286276753
20
-115.8068541547202
10
-17.600000286276739
20
-117.4999999047192
42
-0.41421356237309503
10
-18.600000286277073
20
-118.49999990471954
10
-19.850000286276128
20
-118.49999990471954
42
-0.41421370203543861
10
-20.150000286276367
20
-118.19999976166778
10
-20.150000095280379
20
-117.40000004777082
42
0.41421370203516111
10
-20.45000009528103
20
-117.09999990471928
10
-21.850000095280663
20
-117.09999990471928
42
0.4142135623730121
10
-22.650000095280383
20
-117.89999990471919
10
-22.649999904283796
20
-119.00000025151029
42
0.4142134608003234
10
-21.64999990428408
20
-119.99999990471892
10
9.5716923276256693e-08
20
-119.99999990471892
42
0.4142135623730947
10
1.0000000957172561
20
-118.99999990471858
10
1.0000000957164552
20
-117.89999990471857
42
0.41421356237298523
10
0.20000009571627994
20
-117.09999990471809
10
-1.1999999042842611
20
-117.09999990471809
42
0.41421356237221629
10
-1.4999999042845269
20
-117.39999990471928
10
-1.499999904283561
20
-118.19999990471835
42
-0.41421356237296819
10
-1.7999999042836201
20
-118.49999990471855
10
-3.0499999042843888
20
-118.49999990471856
42
-0.41421356237309503
10
-4.0499999042841681
20
-117.49999990471878
10
-4.0499999042838279
20
-115.80685415471876
42
-0.19891234902493674
10
-3.1713203976593709
20
-113.68553396097468
10
-0.46446652999998866
20
-110.97867971097607
42
-0.19891238573431222
10
1.6568539633770685
20
-110.09999990471869
10
6.6931462280539709
20
-110.09999990471871
42
-0.19891238607608888
10
8.814466724220809
20
-110.97867971376581
10
11.521320588323125
20
-113.68553396732672
42
-0.19891234791061554
10
12.400000090681814
20
-115.80685414579983
10
12.400000095715317
20
-117.49999990174703
42
-0.41421356324386516
10
11.400000095714384
20
-118.49999990471977
10
10.150000095715285
20
-118.49999990471906
42
-0.41421356237397522
10
9.8500000957146394
20
-118.19999990471931
10
9.8500000957146394
20
-117.39999990471931
42
0.41421356237300183
10
9.5500000957149371
20
-117.09999990471951
10
8.1500000957154324
20
-117.09999990471951
42
0.41421356237278334
10
7.3500000957168519
20
-117.89999990471891
10
7.3500000957145497
20
-118.99999990471784
42
0.41421356237364587
10
8.3500000957140283
20
-119.99999990471899
10
16.17500009571333
20
-119.99999990471899
42
0.41421356237309853
10
19.175000095712555
20
-116.99999990471979
10
19.175000095713163
20
-109.1749999047198
42
0.41421356237309309
10
18.175000095713383
20
-108.17499990472001
10
17.075000095714081
20
-108.17499990472001
42
0.41421356237309503
10
16.275000095714081
20
-108.97499990471999
10
16.275000095715086
20
-110.37499990472
42
0.4142135623726983
10
16.575000095714458
20
-110.67499990471978
10
17.375000095714753
20
-110.6749999047198
42
-0.41421356237337253
10
17.675000095715554
20
-110.97499990472087
10
17.675000095713852
20
-112.22499990471988
42
-0.41421356237309503
10
16.675000095713518
20
-113.22499990472022
10
14.981854345714325
20
-113.22499990472019
42
-0.19891234902501478
10
12.860534151971823
20
-112.34632039809668
10
10.153679901972236
20
-109.63946653043618
42
-0.19891238573430944
10
9.2750000957140486
20
-107.51814603705714
10
9.2750000957143452
20
-102.48185377238265
42
-0.19891238607601638
10
10.153679904761621
20
-100.36053327621458
10
12.860534158319243
20
-97.653679412114371
42
-0.19891234791057769
10
14.981854336794161
20
-96.774999909754044
10
16.675000092739761
20
-96.774999904719721
42
-0.41421356324383718
10
17.675000095713379
20
-97.774999904719451
10
17.675000095714481
20
-99.024999904719948
42
-0.41421356237328583
10
17.375000095715482
20
-99.324999904719746
10
16.57500009571438
20
-99.324999904719746
42
0.41421356237310591
10
16.275000095714127
20
-99.624999904719985
10
16.275000095714233
20
-101.02499990471998
42
0.41421356237271056
10
17.075000095714845
20
-101.8249999047201
10
18.175000095714449
20
-101.82499990472012
42
0.41421356237308721
10
19.175000095714864
20
-100.82499990471973
10
19.175000095714857
20
-79.174999904719712
42
0.41421366394559167
10
18.174999748924904
20
-78.174999904720025
10
17.074999818284745
20
-78.175000095716442
42
0.41421346080064647
10
16.275000095715978
20
-78.975000095717178
10
16.275000095715978
20
-80.375000095716288
42
0.41421342271106448
10
16.574999952665173
20
-80.675000095716257
10
17.375000238766852
20
-80.675000286712532
42
-0.41421342271090189
10
17.675000095716818
20
-80.975000286713424
10
17.675000095715806
20
-82.225000286712827
42
-0.41421356324380598
10
16.675000092742074
20
-83.225000286712557
10
14.981854336796378
20
-83.225000281678462
42
-0.19891234791054374
10
12.860534158321528
20
-82.346320779318233
10
10.15367990476352
20
-79.639466915217952
42
-0.19891238607604225
10
9.2750000957159884
20
-77.518146419049557
10
9.275000095716285
20
-72.481854154375057
42
-0.19891236737962786
10
10.153679752157473
20
-70.360533810813067
10
12.860533906440716
20
-67.653679847436905
42
-0.19891242593383654
10
14.981854925906593
20
-66.77500019099665
10
16.675000225301133
20
-66.775000381992896
42
-0.41421349638364541
10
17.674999999998846
20
-67.775000381992655
10
17.675000000000246
20
-69.025000381991731
42
-0.41421370203548191
10
17.374999856949014
20
-69.325000381992481
10
16.575000143050829
20
-69.325000190996377
42
0.41421370203515462
10
16.274999999999821
20
-69.625000190996531
10
16.274999999999821
20
-71.025000190996352
42
0.41421366394568665
10
17.075000277432672
20
-71.825000190996775
10
18.175000346789034
20
-71.825000000000585
42
0.41421346080053345
10
19.174999999998935
20
-70.825000000000301
10
19.174999999998597
20
-49.175000000000004
42
0.41421356237316331
10
18.174999999998601
20
-48.174999999999997
10
17.074999999999299
20
-48.175000000000395
42
0.41421356237309587
10
16.274999999999299
20
-48.975000000000399
10
16.275000000000301
20
-50.375000000000007
42
0.41421356237291079
10
16.574999999999203
20
-50.675000000000011
10
17.374999999999503
20
-50.674999999999898
42
-0.41421356237338119
10
17.675000000000274
20
-50.975000000000968
10
17.674999999998931
20
-52.224999999999909
42
-0.41421356237315488
10
16.674999999998597
20
-53.225000000000449
10
14.981854249999405
20
-53.224999999999909
42
-0.19891234902500946
10
12.860534056257025
20
-52.346320493376474
10
10.153679806256923
20
-49.639466625716395
42
-0.19891238573431452
10
9.2749999999986859
20
-47.5181461323373
10
9.2749999999997232
20
-42.481853867662807
42
-0.198912386076012
10
10.153679809046965
20
-40.360533371494761
10
12.860534062604533
20
-37.653679507394635
42
-0.19891234791057769
10
14.981854241079599
20
-36.775000005034244
10
16.674999997025203
20
-36.775000000000084
42
-0.41421356324374742
10
17.674999999998818
20
-37.774999999999501
10
17.674999999999677
20
-39.024999999999999
42
-0.41421356237221491
10
17.3749999999986
20
-39.325000000000173
10
16.574999999999601
20
-39.324999999999697
42
0.41421356237309936
10
16.274999999999356
20
-39.625
10
16.274999999998602
20
-41.024999999999999
42
0.41421356237283491
10
17.074999999998997
20
-41.825000000000081
10
18.174999999998601
20
-41.825000000000003
42
0.41421356237332396
10
19.174999999999816
20
-40.824999999999996
10
19.174999999998597
20
-19.174999999999997
42
0.41421356237309698
10
18.174999999998601
20
-18.17500000000026
10
17.075000000000301
20
-18.174999999999997
42
0.41421356237313162
10
16.274999999999405
20
-18.975000000000797
10
16.274999999999402
20
-20.374999999999996
42
0.41421356237309503
10
16.574999999999601
20
-20.674999999999951
10
17.374999999999801
20
-20.674999999999951
42
-0.41421356237280021
10
17.674999999999052
20
-20.9749999999995
10
17.674999999998938
20
-22.225000000000001
42
-0.4142135632439829
10
16.674999997025203
20
-23.225000000000339
10
14.981854241079599
20
-23.224999994965813
42
-0.19891234791055309
10
12.860534062604696
20
-22.346320492605606
10
10.153679809046213
20
-19.63946662850568
42
-0.19891238607604203
10
9.2749999999986859
20
-17.518146132337293
10
9.274999999999725
20
-12.481853867662709
42
-0.19891238573426973
10
10.153679806257616
20
-10.360533374284113
10
12.860534056256034
20
-7.6536795066240177
42
-0.19891234902503865
10
14.981854249998499
20
-6.7750000000004063
10
16.674999999998597
20
-6.7750000000001993
42
-0.41421356237309503
10
17.674999999998398
20
-7.7749999999999986
10
17.674999999999933
20
-9.0249999999989949
42
-0.41421356237338991
10
17.374999999999503
20
-9.3249999999997275
10
16.575000000000205
20
-9.3250000000005961
42
0.41421356237280782
10
16.275000000000315
20
-9.6249999999999947
10
16.274999999999402
20
-11.024999999999103
42
0.41421356237341855
10
17.075000000000205
20
-11.825000000000465
10
18.174999999998601
20
-11.825000000000001
42
0.41421356237309764
0
LWPOLYLINE
5
118
100
AcDbEntity
8
0
100
AcDbPolyline
90
58
70
1
43
0.0
10
-0.92500000000049099
20
-12.481853867661394
10
-0.92500000000011195
20
-18.192893218812589
42
0.19891236737962323
10
-0.77855339059284323
20
-18.546446609407237
10
0.62855339059180193
20
-19.953553390592702
42
0.19891236737968893
10
0.98210678118619821
20
-20.099999999999959
10
6.6931461323376009
20
-20.099999999999891
42
-0.19891236737963966
10
8.8144664758979481
20
-20.978679656440452
10
11.496320817938301
20
-23.660533998481998
42
0.19891249450797263
10
15.031857169668701
20
-25.125000092550536
10
15.174999510841305
20
-25.125000022530585
42
-0.41421370564442705
10
16.175000000000139
20
-26.125000022530397
10
16.175000000000534
20
-33.874999977469599
42
-0.41421370564419746
10
15.174999510842097
20
-34.874999977469813
10
15.031857169664901
20
-34.874999907449705
42
0.19891249450773879
10
11.496320817938967
20
-36.339466001517671
10
8.8144664758980422
20
-39.021320343559346
42
-0.19891236737965962
10
6.6931461323376018
20
-39.900000000000027
10
0.98210678118619832
20
-39.900000000000006
42
0.19891236737906648
10
0.62855339059243887
20
-40.046446609406431
10
-0.7785533905933002
20
-41.453553390592901
42
0.19891236737929088
10
-0.92500000000050209
20
-41.807106781186498
10
-0.92500000000049343
20
-47.518146132337115
42
-0.19891238607607686
10
-1.8036798090482644
20
-49.63946662850568
10
-10.117893269683247
20
-57.953678892903717
42
-0.41421352023231212
10
-11.532106730319498
20
-57.953678892903767
10
-19.846320190953087
20
-49.639466628505701
42
-0.19891238607593295
10
-20.725000000000648
20
-47.518146132338607
10
-20.725000000000993
20
-41.8071067811874
42
0.19891236737921567
10
-20.871446609407659
20
-41.453553390593363
10
-22.27855339059381
20
-40.046446609407198
42
0.1989123673791173
10
-22.632106781187208
20
-39.900000000000126
10
-28.343146132339506
20
-39.900000000000105
42
-0.19891236737972437
10
-30.464466475900402
20
-39.021320343558912
10
-33.146320817939305
20
-36.339466001518097
42
0.19891249450797635
10
-36.681857169669698
20
-34.874999907449457
10
-36.824999510843305
20
-34.874999977469415
42
-0.41421370564442705
10
-37.825000000002042
20
-33.874999977469493
10
-37.825000000002433
20
-26.125000022530397
42
-0.41421370564422411
10
-36.824999510843895
20
-25.125000022530187
10
-36.681857169666003
20
-25.125000092550298
42
0.19891249450778836
10
-33.146320817939369
20
-23.660533998481725
10
-30.464466475899854
20
-20.978679656440534
42
-0.19891236737965581
10
-28.343146132339506
20
-20.099999999999891
10
-22.632106781188099
20
-20.099999999999998
42
0.19891236737939852
10
-22.278553390593828
20
-19.953553390593186
10
-20.8714466094088
20
-18.546446609407504
42
0.1989123673791578
10
-20.725000000001408
20
-18.192893218813495
10
-20.724999999999653
20
-12.481853867662904
42
-0.19891238607602701
10
-19.846320190952287
20
-10.360533371494745
10
-17.164466359675131
20
-7.6786799260766969
42
0.19891244462826416
10
-15.700000011266361
20
-4.1431446393299973
10
-15.700000043516106
20
-3.9999999999999951
42
-0.41421356237283652
10
-14.700000043516663
20
-2.9999999999996652
10
-6.949999956484362
20
-2.9999999999999547
42
-0.41421362836194181
10
-5.949999956484346
20
-4.0000002253000044
10
-5.9499999887354811
20
-4.1431446393044968
42
0.19891244462960597
10
-4.4855336403264872
20
-7.6786799260768319
10
-1.8036798090479751
20
-10.360533371494432
42
-0.19891238607592845
0
LWPOLYLINE
5
119
100
AcDbEntity
8
0
100
AcDbPolyline
90
58
70
1
43
0.0
10
-19.846320190952781
20
-70.360533371493901
10
-11.532106730319553
20
-62.046321107096176
42
-0.41421352023227209
10
-10.117893269683302
20
-62.046321107096119
10
-1.8036798090481372
20
-70.360533371494128
42
-0.19891238607607054
10
-0.92500000000039106
20
-72.481853867662693
10
-0.92500000000012006
20
-78.1928932188126
42
0.19891236737962026
10
-0.77855339059285344
20
-78.546446609407255
10
0.62855339059170201
20
-79.953553390592603
42
0.19891236737969212
10
0.98210678118619654
20
-80.099999999999881
10
6.6931461323376009
20
-80.099999999999852
42
-0.19891236737976914
10
8.8144664758989997
20
-80.9786796564415
10
11.496320817936805
20
-83.660533998481299
42
0.19891249450803389
10
15.031857169668196
20
-85.125000092550437
10
15.1749995108412
20
-85.1250000225306
42
-0.41421370564448817
10
16.175000000000153
20
-86.1250000225305
10
16.175000000000541
20
-93.874999977469599
42
-0.41421370564434312
10
15.174999510841598
20
-94.874999977469813
10
15.031857169668106
20
-94.874999907449634
42
0.19891249450785881
10
11.496320817939756
20
-96.339466001517678
10
8.8144664758980404
20
-99.021320343559367
42
-0.19891236737966284
10
6.6931461323375991
20
-99.900000000000077
10
0.98210678118709982
20
-99.90000000000002
42
0.19891236737944465
10
0.62855339059277293
20
-100.0464466094069
10
-0.77855339059299988
20
-101.4535533905925
42
0.19891236737917672
10
-0.92500000000048821
20
-101.8071067811865
10
-0.92500000000048266
20
-107.51814613233719
42
-0.1989123860760075
10
-1.8036798090477315
20
-109.63946662850523
10
-4.4855336403259818
20
-112.32132007392369
42
0.19891244463156749
10
-5.9499999887345449
20
-115.85685536073392
10
-5.9499999564840236
20
-115.99999977469231
42
-0.41421362836418207
10
-6.9499999564843602
20
-117.00000000000038
10
-14.700000043516663
20
-117.00000000000009
42
-0.41421362836093811
10
-15.700000043516697
20
-115.9999997747034
10
-15.700000011267061
20
-115.85685536067813
42
0.19891244462870786
10
-17.164466359676208
20
-112.32132007392292
10
-19.846320190953129
20
-109.63946662850566
42
-0.19891238607605183
10
-20.725000000000634
20
-107.51814613233719
10
-20.725000000000449
20
-101.8071067811876
42
0.19891236737929893
10
-20.871446609407389
20
-101.45355339059307
10
-22.27855339059381
20
-100.04644660940713
42
0.19891236737909121
10
-22.632106781187208
20
-99.90000000000002
10
-28.343146132339506
20
-99.900000000000091
42
-0.19891236737972123
10
-30.464466475900469
20
-99.02132034355887
10
-33.146320817939205
20
-96.33946600151809
42
0.19891249450799406
10
-36.681857169670195
20
-94.874999907449592
10
-36.824999510843199
20
-94.874999977469429
42
-0.41421370564443355
10
-37.825000000002056
20
-93.874999977469599
10
-37.825000000002433
20
-86.125000022530415
42
-0.41421370564426052
10
-36.824999510843803
20
-85.125000022530202
10
-36.681857169666699
20
-85.125000092550408
42
0.19891249450783149
10
-33.146320817939234
20
-83.660533998481682
10
-30.46446647589984
20
-80.978679656440548
42
-0.19891236737964668
10
-28.343146132339513
20
-80.099999999999937
10
-22.632106781189002
20
-80.099999999999994
42
0.19891236737976736
10
-22.278553390594375
20
-79.953553390592631
10
-20.871446609408505
20
-78.5464466094069
42
0.19891236737917931
10
-20.725000000001401
20
-78.192893218813509
10
-20.725000000000591
20
-72.481853867662892
42
-0.19891238607604686
0
LWPOLYLINE
5
120
100
AcDbEntity
8
0
100
AcDbPolyline
90
18
70
1
43
0.0
10
-8.6286804091875009
20
-59.29289316794496
10
-0.31446554883940575
20
-50.978679503833533
42
-0.19891234868317695
10
1.8068546421136991
20
-50.099999999999874
10
6.6931461323376018
20
-50.099999999999909
42
-0.19891236737974213
10
8.8144664758987723
20
-50.978679656441301
10
11.496320817938999
20
-53.660533998481739
42
0.19891249450800874
10
15.031857169669998
20
-55.125000092550501
10
15.1749995108412
20
-55.125000022530585
42
-0.41421370564445892
10
16.175000000000139
20
-56.125000022530394
10
16.17500000000053
20
-63.874999977469543
42
-0.41421370564500259
10
15.174999510839397
20
-64.874999977469813
10
15.031857169678302
20
-64.87499990744972
42
0.19891249450845278
10
11.496320817938749
20
-66.339466001517962
10
8.8144664758979427
20
-69.021320343559424
42
-0.1989123673796446
10
6.6931461323376018
20
-69.900000000000006
10
1.8068546421137008
20
-69.900000000000091
42
-0.1989123486832477
10
-0.31446554883993172
20
-69.021320496165885
10
-8.6286804091873446
20
-60.707106832055196
42
-0.41421360451395878
0
LWPOLYLINE
5
121
100
AcDbEntity
8
0
100
AcDbPolyline
90
18
70
1
43
0.0
10
-23.4568546421165
20
-69.900000000000006
10
-28.343146132340404
20
-69.900000000000091
42
-0.19891236737973741
10
-30.464466475901585
20
-69.021320343558699
10
-33.146320817940904
20
-66.339466001518275
42
0.19891249450800963
10
-36.681857169671908
20
-64.874999907449492
10
-36.824999510843199
20
-64.874999977469415
42
-0.41421370564443222
10
-37.825000000002042
20
-63.874999977469614
10
-37.825000000002433
20
-56.125000022530401
42
-0.41421370564498766
10
-36.824999510841309
20
-55.125000022530187
10
-36.681857169681102
20
-55.125000092550316
42
0.1989124945084095
10
-33.146320817942112
20
-53.660533998482649
10
-30.464466475900313
20
-50.978679656440022
42
-0.19891236737958737
10
-28.343146132340408
20
-50.099999999999909
10
-23.456854642116504
20
-50.099999999999916
42
-0.19891234868322541
10
-21.335534451162992
20
-50.978679503833959
10
-13.02131959081585
20
-59.292893167944307
42
-0.4142136045144591
10
-13.021319590816017
20
-60.707106832055857
10
-21.335534451163063
20
-69.02132049616597
42
-0.19891234868322819
0
CIRCLE
5
122
100
AcDbEntity
8
0
100
AcDbCircle
10
-25.825000000001097
20
-105
30
0
40
2.5
210
0
220
0
230
1
0
CIRCLE
5
123
100
AcDbEntity
8
0
100
AcDbCircle
10
-25.825000000001097
20
-75.000000000000199
30
0
40
2.5
210
0
220
0
230
1
0
CIRCLE
5
124
100
AcDbEntity
8
0
100
AcDbCircle
10
-25.825000000001097
20
-45
30
0
40
2.5
210
0
220
0
230
1
0
CIRCLE
5
125
100
AcDbEntity
8
0
100
AcDbCircle
10
-25.825000000001097
20
-15
30
0
40
2.5
210
0
220
0
230
1
0
CIRCLE
5
126
100
AcDbEntity
8
0
100
AcDbCircle
10
4.1750000000001002
20
-15
30
0
40
2.5
210
0
220
0
230
1
0
CIRCLE
5
127
100
AcDbEntity
8
0
100
AcDbCircle
10
4.1749999999991001
20
-45
30
0
40
2.5
210
0
220
0
230
1
0
CIRCLE
5
128
100
AcDbEntity
8
0
100
AcDbCircle
10
4.1749999999991001
20
-75
30
0
40
2.5
210
0
220
0
230
1
0
CIRCLE
5
129
100
AcDbEntity
8
0
100
AcDbCircle
10
4.1750000000001002
20
-105
30
0
40
2.5
210
0
220
0
230
1
0
LWPOLYLINE
5
130
100
AcDbEntity
8
0
100
AcDbPolyline
90
8
70
1
43
0.0
10
-39.325000000000202
20
-5.049999999999395
10
-39.325000000001467
20
-2.9999999999999982
42
-0.41421356237309498
10
-37.825000000001403
20
-1.4999999999999374
10
-35.775000000001
20
-1.5000000000000016
42
-0.41421356237308826
10
-35.475000000001003
20
-1.7999999999999972
10
-35.475000000000819
20
-5.0499999999999901
42
-0.41421355377844044
10
-35.774999991197802
20
-5.3500000000001791
10
-39.024999991196509
20
-5.3500000474874962
42
-0.41421361733044371
0
LWPOLYLINE
5
131
100
AcDbEntity
8
0
100
AcDbPolyline
90
8
70
1
43
0.0
10
13.824999999999099
20
-118.2
10
13.824999999999719
20
-114.95000000000003
42
-0.41421356237309503
10
14.124999999999908
20
-114.64999999999984
10
17.374999999999503
20
-114.65000000000003
42
-0.41421356237309936
10
17.675000000000079
20
-114.95000000000061
10
17.674999999998661
20
-117.00000000000001
42
-0.41421356237310197
10
16.174999999998604
20
-118.50000000000007
10
14.124999999999908
20
-118.50000000000001
42
-0.41421356237390144
0
LWPOLYLINE
5
132
100
AcDbEntity
8
0
100
AcDbPolyline
90
8
70
1
43
0.0
10
-35.475000000001003
20
-114.95000000000003
10
-35.475000000000804
20
-118.2
42
-0.41421356237313406
10
-35.775000000001
20
-118.5000000000002
10
-37.825000000001403
20
-118.49999999999972
42
-0.4142135623730942
10
-39.325000000001104
20
-117.00000000000001
10
-39.325000000000685
20
-114.95000000000063
42
-0.41421356237305174
10
-39.025000000000503
20
-114.65000000000043
10
-35.775000000000901
20
-114.65000000000003
42
-0.4142135623730257
0
LWPOLYLINE
5
133
100
AcDbEntity
8
0
100
AcDbPolyline
90
8
70
1
43
0.0
10
17.674999999998601
20
-2.9999999999999978
10
17.674999999999692
20
-5.0499999999999901
42
-0.41421356237251405
10
17.374999999999503
20
-5.349999999999584
10
14.124999999999908
20
-5.3500000000000796
42
-0.41421356237309503
10
13.824999999999818
20
-5.0499999999999901
10
13.824999999999715
20
-1.7999999999999972
42
-0.41421356237309426
10
14.124999999999908
20
-1.4999999999998042
10
16.174999999998604
20
-1.4999999999999969
42
-0.41421356237309626
0
ENDSEC
0
SECTION
2
OBJECTS
0
DICTIONARY
5
C
100
AcDbDictionary
3
ACAD_GROUP
350
D
3
ACAD_MLINESTYLE
350
17
0
DICTIONARY
5
D
100
AcDbDictionary
0
DICTIONARY
5
1A
330
C
100
AcDbDictionary
0
DICTIONARY
5
17
100
AcDbDictionary
0
ENDSEC
0
EOF
