0
SECTION
2
HEADER
9
$INSUNITS
70
4
9
$ACADVER
1
AC1014
9
$HANDSEED
5
FFFF
0
ENDSEC
0
SECTION
2
TABLES
0
TABLE
2
VPORT
5
8
100
AcDbSymbolTable
0
ENDTAB
0
TABLE
2
LTYPE
5
5
100
AcDbSymbolTable
0
LTYPE
5
14
100
AcDbSymbolTableRecord
100
AcDbLinetypeTableRecord
2
BYBLOCK
70
0
0
LTYPE
5
15
100
AcDbSymbolTableRecord
100
AcDbLinetypeTableRecord
2
BYLAYER
70
0
0
ENDTAB
0
TABLE
2
LAYER
5
2
100
AcDbSymbolTable
70
2
0
LAYER
5
50
100
AcDbSymbolTableRecord
100
AcDbLayerTableRecord
2
0
70
0
6
CONTINUOUS
0
ENDTAB
0
TABLE
2
STYLE
5
3
100
AcDbSymbolTable
70
1
0
STYLE
5
11
100
AcDbSymbolTableRecord
100
AcDbTextStyleTableRecord
2
STANDARD
70
0
0
ENDTAB
0
TABLE
2
VIEW
5
6
100
AcDbSymbolTable
70
0
0
ENDTAB
0
TABLE
2
UCS
5
7
100
AcDbSymbolTable
70
0
0
ENDTAB
0
TABLE
2
APPID
5
9
100
AcDbSymbolTable
70
2
0
APPID
5
12
100
AcDbSymbolTableRecord
100
AcDbRegAppTableRecord
2
ACAD
70
0
0
ENDTAB
0
TABLE
2
DIMSTYLE
5
A
100
AcDbSymbolTable
70
1
0
ENDTAB
0
TABLE
2
BLOCK_RECORD
5
1
100
AcDbSymbolTable
70
1
0
BLOCK_RECORD
5
1F
100
AcDbSymbolTableRecord
100
AcDbBlockTableRecord
2
*MODEL_SPACE
0
BLOCK_RECORD
5
1B
100
AcDbSymbolTableRecord
100
AcDbBlockTableRecord
2
*PAPER_SPACE
0
ENDTAB
0
ENDSEC
0
SECTION
2
BLOCKS
0
BLOCK
5
20
100
AcDbEntity
100
AcDbBlockBegin
2
*MODEL_SPACE
0
ENDBLK
5
21
100
AcDbEntity
100
AcDbBlockEnd
0
BLOCK
5
1C
100
AcDbEntity
100
AcDbBlockBegin
2
*PAPER_SPACE
0
ENDBLK
5
1D
100
AcDbEntity
100
AcDbBlockEnd
0
ENDSEC
0
SECTION
2
ENTITIES
0
ARC
5
100
100
AcDbEntity
8
0
100
AcDbCircle
10
-8.399999950901476
20
-35.500000006285234
30
0
40
2.4999999999977263
210
0
220
0
230
1
100
AcDbArc
50
-90.000000305417927
51
0
0
ARC
5
101
100
AcDbEntity
8
0
100
AcDbCircle
10
-8.3999999615630276
20
-37.500000006280573
30
0
40
0.50000000000238742
210
0
220
0
230
1
100
AcDbArc
50
180
51
269.9999996946342
0
LINE
5
102
100
AcDbEntity
8
0
100
AcDbLine
10
-8.8999999615654151
20
-37.500000003317894
30
0
11
-8.8999999518010373
21
-35.850000009987127
31
0
0
ARC
5
103
100
AcDbEntity
8
0
100
AcDbCircle
10
-9.3999999517963193
20
-35.850000007024448
30
0
40
0.499999999995282
210
0
220
0
230
1
100
AcDbArc
50
0
51
90.000000043772573
0
LINE
5
104
100
AcDbEntity
8
0
100
AcDbLine
10
-9.3999999521783071
20
-35.350000007029166
30
0
11
-10.899999962179109
21
-35.350000008146566
31
0
0
ARC
5
105
100
AcDbEntity
8
0
100
AcDbCircle
10
-10.89999995142206
20
-36.350000008147788
30
0
40
1.0000000000012224
210
0
220
0
230
1
100
AcDbArc
50
90.00000061633348
51
180
0
LINE
5
106
100
AcDbEntity
8
0
100
AcDbLine
10
-11.899999951423283
20
-36.350000008889026
30
0
11
-11.899999949830773
21
-38.500000008888208
31
0
0
ARC
5
107
100
AcDbEntity
8
0
100
AcDbCircle
10
-10.399999949827164
20
-38.500000007764982
30
0
40
1.5000000000036096
210
0
220
0
230
1
100
AcDbArc
50
180
51
270.00000004220925
0
LINE
5
108
100
AcDbEntity
8
0
100
AcDbLine
10
-10.399999948722128
20
-40.000000007768591
30
0
11
4.1282159912725547e-08
21
-40.000000011499111
31
0
0
ARC
5
109
100
AcDbEntity
8
0
100
AcDbCircle
10
-4.3096209999999998e-08
20
-35.999999953943828
30
0
40
4.0000000575552894
210
0
220
0
230
1
100
AcDbArc
50
270.00000120863109
51
360
0
LINE
5
110
100
AcDbEntity
8
0
100
AcDbLine
10
4.0000000144590873
20
-35.999999984660462
30
0
11
4.0000000190730134
21
-25.599999984660826
31
0
0
ARC
5
111
100
AcDbEntity
8
0
100
AcDbCircle
10
2.5000000190766509
20
-25.599999995772578
30
0
40
1.4999999999963625
210
0
220
-0
230
1
100
AcDbArc
50
0
51
90.000000042904077
0
LINE
5
112
100
AcDbEntity
8
0
100
AcDbLine
10
2.500000017953425
20
-24.099999995776074
30
0
11
0.35000001794969593
21
-24.099999997376926
31
0
0
ARC
5
113
100
AcDbEntity
8
0
100
AcDbCircle
10
0.35000001870457703
20
-25.099999997382838
30
0
40
1.0000000000059117
210
0
220
0
230
1
100
AcDbArc
50
90.000000043251518
51
180
0
LINE
5
114
100
AcDbEntity
8
0
100
AcDbLine
10
-0.64999998130019687
20
-25.099999998121802
30
0
11
-0.64999998018947713
21
-26.599999988125091
31
0
0
ARC
5
115
100
AcDbEntity
8
0
100
AcDbCircle
10
-0.14999998018993199
20
-26.599999997749819
30
0
40
0.4999999999995452
210
0
220
0
230
1
100
AcDbArc
50
179.99999879258175
51
270.00000004273033
0
LINE
5
116
100
AcDbEntity
8
0
100
AcDbLine
10
-0.14999997981703903
20
-27.099999997748654
30
0
11
1.500000016860668
21
-27.099999985523482
31
0
0
ARC
5
117
100
AcDbEntity
8
0
100
AcDbCircle
10
1.5000000205645849
20
-27.599999985523027
30
0
40
0.49999999999883499
210
0
220
-0
230
1
100
AcDbArc
50
0
51
90.000000424437616
0
ARC
5
118
100
AcDbEntity
8
0
100
AcDbCircle
10
-0.49999997944496499
20
-27.599999999147258
30
0
40
2.5000000000083844
210
0
220
0
230
1
100
AcDbArc
50
-90.000000395308035
51
0
0
LINE
5
119
100
AcDbEntity
8
0
100
AcDbLine
10
-0.49999999669353223
20
-30.099999999155642
30
0
11
-1.7076118584782309
21
-30.099999990823108
31
0
0
ARC
5
120
100
AcDbEntity
8
0
100
AcDbCircle
10
-1.707611823969728
20
-25.099999990841297
30
0
40
4.9999999999812417
210
0
220
0
230
1
100
AcDbArc
50
225.00000004250359
51
269.99999960456165
0
LINE
5
121
100
AcDbEntity
8
0
100
AcDbLine
10
-5.2431457272664446
20
-28.635533899383528
30
0
11
-6.935533885859968
21
-26.94314574331429
31
0
0
ARC
5
122
100
AcDbEntity
8
0
100
AcDbCircle
10
-3.3999999825891791
20
-23.407611834757063
30
0
40
4.999999999977689
210
0
220
0
230
1
100
AcDbArc
50
180
51
225.00000004283515
0
LINE
5
123
100
AcDbEntity
8
0
100
AcDbLine
10
-8.3999999825668681
20
-23.407611838472349
30
0
11
-8.3999999876414222
21
-16.592388149317685
31
0
0
ARC
5
124
100
AcDbEntity
8
0
100
AcDbCircle
10
-3.399999987677802
20
-16.592388145579662
30
0
40
4.9999999999563709
210
0
220
0
230
1
100
AcDbArc
50
135.00000004254039
51
180
0
LINE
5
125
100
AcDbEntity
8
0
100
AcDbLine
10
-6.9355338962047171
20
-13.056854242302801
30
0
11
-5.243145740125783
21
-11.364466083696243
31
0
0
ARC
5
126
100
AcDbEntity
8
0
100
AcDbCircle
10
-1.707611831554914
20
-14.899999987007959
30
0
40
5.0000000000061107
210
0
220
0
230
1
100
AcDbArc
50
90.000000480951186
51
135.00000004261412
0
LINE
5
127
100
AcDbEntity
8
0
100
AcDbLine
10
-1.7076118735258219
20
-9.8999999870018485
30
0
11
-0.50000001174112196
21
-9.8999999768670932
31
0
0
ARC
5
128
100
AcDbEntity
8
0
100
AcDbCircle
10
-0.49999999076817403
20
-12.399999976867093
30
0
40
2.500000000001279
210
0
220
0
230
1
100
AcDbArc
50
0
51
90.000000480664553
0
ARC
5
129
100
AcDbEntity
8
0
100
AcDbCircle
10
1.5000000092413761
20
-12.399999987524097
30
0
40
0.499999999995282
210
0
220
0
230
1
100
AcDbArc
50
269.99999966102308
51
360
0
LINE
5
130
100
AcDbEntity
8
0
100
AcDbLine
10
1.5000000062832444
20
-12.899999987519379
30
0
11
-0.14999998705434309
21
-12.899999977748848
31
0
0
ARC
5
131
100
AcDbEntity
8
0
100
AcDbCircle
10
-0.14999999001702202
20
-13.399999977748394
30
0
40
0.49999999999954525
210
0
220
-0
230
1
100
AcDbArc
50
89.999999660502013
51
180
0
LINE
5
132
100
AcDbEntity
8
0
100
AcDbLine
10
-0.64999999001585707
20
-13.399999978116739
30
0
11
-0.64999998890471011
21
-14.899999988126638
31
0
0
ARC
5
133
100
AcDbEntity
8
0
100
AcDbCircle
10
0.35000001109665402
20
-14.89999997737641
30
0
40
1.0000000000013642
210
0
220
0
230
1
100
AcDbArc
50
180
51
270.00000004273033
0
LINE
5
134
100
AcDbEntity
8
0
100
AcDbLine
10
0.35000001184244017
20
-15.899999977377632
30
0
11
2.5000000118461689
21
-15.899999975772516
31
0
0
ARC
5
135
100
AcDbEntity
8
0
100
AcDbCircle
10
2.5000000107320379
20
-14.399999975780702
30
0
40
1.4999999999918145
210
0
220
0
230
1
100
AcDbArc
50
-89.999999957443364
51
0
0
LINE
5
136
100
AcDbEntity
8
0
100
AcDbLine
10
4.0000000107320952
20
-14.399999974657476
30
0
11
4.0000000144618753
21
-3.9999999846577339
31
0
0
ARC
5
137
100
AcDbEntity
8
0
100
AcDbCircle
10
-4.3097654000000009e-08
20
-4.0000000690383786
30
0
40
4.0000000575595305
210
0
220
-0
230
1
100
AcDbArc
50
1.2074182697257333e-06
51
89.999999382671589
0
LINE
5
138
100
AcDbEntity
8
0
100
AcDbLine
10
0
20
0
30
0
11
-32.000000012366286
21
-1.147953e-08
31
0
0
ARC
5
139
100
AcDbEntity
8
0
100
AcDbCircle
10
-31.99999992798109
20
-4.0000000690348267
30
0
40
4.0000000575552983
210
0
220
0
230
1
100
AcDbArc
50
90.000001208728875
51
180
0
LINE
5
140
100
AcDbEntity
8
0
100
AcDbLine
10
-35.999999985536391
20
-4.0000000382961796
30
0
11
-35.999999990153661
21
-14.400000038300362
31
0
0
ARC
5
141
100
AcDbEntity
8
0
100
AcDbCircle
10
-34.499999990157157
20
-14.400000027179516
30
0
40
1.4999999999965041
210
0
220
0
230
1
100
AcDbArc
50
180
51
270.00000004299091
0
LINE
5
142
100
AcDbEntity
8
0
100
AcDbLine
10
-34.499999989031657
20
-15.90000002717602
30
0
11
-32.349999989032476
21
-15.900000025578962
31
0
0
ARC
5
143
100
AcDbEntity
8
0
100
AcDbCircle
10
-32.349999989782809
20
-14.900000025574192
30
0
40
1.0000000000047704
210
0
220
0
230
1
100
AcDbArc
50
-89.999999957009081
51
0
0
LINE
5
144
100
AcDbEntity
8
0
100
AcDbLine
10
-31.349999989778038
20
-14.900000024835228
30
0
11
-31.349999990893167
21
-13.40000003483876
31
0
0
ARC
5
145
100
AcDbEntity
8
0
100
AcDbCircle
10
-31.849999990892002
20
-13.400000025204937
30
0
40
0.49999999999883477
210
0
220
0
230
1
100
AcDbArc
50
-1.2074182490616497e-06
51
90.000000042730377
0
LINE
5
146
100
AcDbEntity
8
0
100
AcDbLine
10
-31.849999991264895
20
-12.900000025206102
30
0
11
-33.499999987926678
21
-12.900000037440124
31
0
0
ARC
5
147
100
AcDbEntity
8
0
100
AcDbCircle
10
-33.499999991641964
20
-12.40000003744129
30
0
40
0.49999999999883471
210
0
220
0
230
1
100
AcDbArc
50
180
51
270.00000042574038
0
ARC
5
148
100
AcDbEntity
8
0
100
AcDbCircle
10
-31.499999991635974
20
-12.40000002380569
30
0
40
2.5000000000048339
210
0
220
-0
230
1
100
AcDbArc
50
89.999999604587742
51
180
0
LINE
5
149
100
AcDbEntity
8
0
100
AcDbLine
10
-31.49999997438286
20
-9.9000000238008568
30
0
11
-30.292388112600435
21
-9.9000000321417332
31
0
0
ARC
5
150
100
AcDbEntity
8
0
100
AcDbCircle
10
-30.292388147106664
20
-14.900000032122973
30
0
40
4.9999999999812426
210
0
220
-0
230
1
100
AcDbArc
50
45.000000042614104
51
89.999999604587742
0
LINE
5
151
100
AcDbEntity
8
0
100
AcDbLine
10
-26.756854243816765
20
-11.364466123573923
30
0
11
-25.064466085217848
21
-13.056854279655958
31
0
0
ARC
5
152
100
AcDbEntity
8
0
100
AcDbCircle
10
-28.599999988470834
20
-16.592388188206748
30
0
40
4.9999999999563727
210
0
220
-0
230
1
100
AcDbArc
50
0
51
45.00000004292729
0
LINE
5
153
100
AcDbEntity
8
0
100
AcDbLine
10
-23.599999988514462
20
-16.592388184493736
30
0
11
-23.599999983437577
21
-23.407611873648403
31
0
0
ARC
5
154
100
AcDbEntity
8
0
100
AcDbCircle
10
-28.599999983411717
20
-23.407611877384152
30
0
40
4.9999999999741371
210
0
220
0
230
1
100
AcDbArc
50
-44.999999957422652
51
0
0
LINE
5
155
100
AcDbEntity
8
0
100
AcDbLine
10
-25.064466074869962
20
-26.943145780671294
30
0
11
-26.75685423094972
21
-28.635533939267937
31
0
0
ARC
5
156
100
AcDbEntity
8
0
100
AcDbCircle
10
-30.292388139505352
20
-25.100000035989648
30
0
40
4.999999999977689
210
0
220
0
230
1
100
AcDbArc
50
270.00000048076879
51
315.00000004276149
0
LINE
5
157
100
AcDbEntity
8
0
100
AcDbLine
10
-30.292388097550361
20
-30.100000035967337
30
0
11
-31.499999959332786
21
-30.1000000461074
31
0
0
ARC
5
158
100
AcDbEntity
8
0
100
AcDbCircle
10
-31.499999980310282
20
-27.600000046102558
30
0
40
2.5000000000048317
210
0
220
0
230
1
100
AcDbArc
50
180
51
270.00000048076879
0
ARC
5
159
100
AcDbEntity
8
0
100
AcDbCircle
10
-33.499999980319835
20
-27.600000035456922
30
0
40
0.499999999995282
210
0
220
-0
230
1
100
AcDbArc
50
89.999999659720345
51
180
0
LINE
5
160
100
AcDbEntity
8
0
100
AcDbLine
10
-33.499999977350335
20
-27.10000003546164
30
0
11
-31.849999984017291
21
-27.100000045228295
31
0
0
ARC
5
161
100
AcDbEntity
8
0
100
AcDbCircle
10
-31.849999981065981
20
-26.600000045225908
30
0
40
0.50000000000238742
210
0
220
0
230
1
100
AcDbArc
50
-90.00000033819525
51
0
0
LINE
5
162
100
AcDbEntity
8
0
100
AcDbLine
10
-31.349999981063593
20
-26.600000044857563
30
0
11
-31.349999982178719
21
-25.100000034861306
31
0
0
ARC
5
163
100
AcDbEntity
8
0
100
AcDbCircle
10
-32.349999982179945
20
-25.100000045600165
30
0
40
1.0000000000012266
210
0
220
-0
230
1
100
AcDbArc
50
0
51
90.000000042730377
0
LINE
5
164
100
AcDbEntity
8
0
100
AcDbLine
10
-32.349999982925731
20
-24.100000045598943
30
0
11
-34.499999982924912
21
-24.100000047202819
31
0
0
ARC
5
165
100
AcDbEntity
8
0
100
AcDbCircle
10
-34.499999981796925
20
-25.600000047202876
30
0
40
1.5000000000000568
210
0
220
0
230
1
100
AcDbArc
50
90.000000043085919
51
180
0
LINE
5
166
100
AcDbEntity
8
0
100
AcDbLine
10
-35.999999981796982
20
-25.60000004831668
30
0
11
-35.999999985525228
21
-36.000000038318689
31
0
0
ARC
5
167
100
AcDbEntity
8
0
100
AcDbCircle
10
-31.999999927966378
20
-35.99999995393577
30
0
40
4.000000057558851
210
0
220
0
230
1
100
AcDbArc
50
180.00000120741828
51
269.99999955973385
0
LINE
5
168
100
AcDbEntity
8
0
100
AcDbLine
10
-31.999999958702752
20
-40.00000001149462
30
0
11
-21.599999958703116
21
-40.000000016114178
31
0
0
ARC
5
169
100
AcDbEntity
8
0
100
AcDbCircle
10
-21.59999996981032
20
-38.50000001612122
30
0
40
1.4999999999929603
210
0
220
0
230
1
100
AcDbArc
50
-89.999999575736098
51
0
0
LINE
5
170
100
AcDbEntity
8
0
100
AcDbLine
10
-20.099999969817368
20
-38.500000015002541
30
0
11
-20.099999971418974
21
-36.35000001500336
31
0
0
ARC
5
171
100
AcDbEntity
8
0
100
AcDbCircle
10
-21.099999971420196
20
-36.350000015749146
30
0
40
1.0000000000012221
210
0
220
-0
230
1
100
AcDbArc
50
0
51
90.000000042730377
0
LINE
5
172
100
AcDbEntity
8
0
100
AcDbLine
10
-21.099999972165982
20
-35.350000015747923
30
0
11
-22.599999962169271
21
-35.350000016860776
31
0
0
ARC
5
173
100
AcDbEntity
8
0
100
AcDbCircle
10
-22.599999971784904
20
-35.850000016863149
30
0
40
0.50000000000237865
210
0
220
-0
230
1
100
AcDbArc
50
89.999998898129661
51
180
0
LINE
5
174
100
AcDbEntity
8
0
100
AcDbLine
10
-23.099999971787291
20
-35.850000017231494
30
0
11
-23.099999959560087
21
-37.500000013893285
31
0
0
ARC
5
175
100
AcDbEntity
8
0
100
AcDbCircle
10
-23.599999959562474
20
-37.500000017599476
30
0
40
0.50000000000238742
210
0
220
0
230
1
100
AcDbArc
50
-89.999999608652345
51
0
0
ARC
5
176
100
AcDbEntity
8
0
100
AcDbCircle
10
-23.5999999731958
20
-35.500000017607704
30
0
40
2.4999999999941735
210
0
220
0
230
1
100
AcDbArc
50
180
51
270.00000039072233
0
LINE
5
177
100
AcDbEntity
8
0
100
AcDbLine
10
-26.099999973189973
20
-35.500000000343221
30
0
11
-26.099999964867283
21
-34.292388138565343
31
0
0
ARC
5
178
100
AcDbEntity
8
0
100
AcDbCircle
10
-21.099999964854071
20
-34.292388173080667
30
0
40
5.0000000000132125
210
0
220
0
230
1
100
AcDbArc
50
135.00000004272459
51
180
0
LINE
5
179
100
AcDbEntity
8
0
100
AcDbLine
10
-24.63553387343255
20
-30.756854269774976
30
0
11
-22.943145717359613
21
-29.06446611117833
31
0
0
ARC
5
180
100
AcDbEntity
8
0
100
AcDbCircle
10
-19.407611808791842
20
-32.600000014484678
30
0
40
5.0000000000061107
210
0
220
0
230
1
100
AcDbArc
50
90.000000042652204
51
135.00000004263251
0
LINE
5
181
100
AcDbEntity
8
0
100
AcDbLine
10
-19.407611812513949
20
-27.600000014478567
30
0
11
-12.592388123361557
21
-27.600000009401686
31
0
0
ARC
5
182
100
AcDbEntity
8
0
100
AcDbCircle
10
-12.592388119637176
20
-32.600000009407793
30
0
40
5.0000000000061098
210
0
220
-0
230
1
100
AcDbArc
50
45.000000042706255
51
90.000000042678266
0
LINE
5
183
100
AcDbEntity
8
0
100
AcDbLine
10
-9.0568542163353811
20
-29.064466100835475
30
0
11
-7.3644660577410104
21
-30.756854256912959
31
0
0
ARC
5
184
100
AcDbEntity
8
0
100
AcDbCircle
10
-10.899999961058302
20
-34.292388165484851
30
0
40
5.0000000000167697
210
0
220
-0
230
1
100
AcDbArc
50
0
51
45.00000004257722
0
LINE
5
185
100
AcDbEntity
8
0
100
AcDbLine
10
-5.8999999610415319
20
-34.292388123518492
30
0
11
-5.8999999509037515
21
-35.49999998529637
31
0
0
LWPOLYLINE
5
186
100
AcDbEntity
8
0
100
AcDbPolyline
90
24
70
1
43
0.0
10
-10.89999998653866
20
-4.6499999957562466
42
-0.41421356237176299
10
-11.899999987285668
20
-3.649999996505358
10
-11.899999988511354
20
-1.9999999965034481
10
-20.100000008508232
20
-2.0000000026129778
10
-20.10000000727814
20
-3.6500000026148882
42
-0.41421355944086402
10
-21.099999996536098
20
-4.6500000033574906
10
-22.600000006534628
20
-4.6500000044761691
42
-0.41421356432702777
10
-23.100000006907067
20
-4.1500000015184924
10
-23.099999997138525
20
-2.5000000081786311
42
0.41421356253958552
10
-23.599999994471546
20
-2.0000000052164069
42
0.41421356639257573
10
-26.100000007791095
20
-4.5000000261984496
10
-26.099999997661168
20
-5.7076118879808746
42
0.19891236539182985
10
-24.635533900952851
20
-9.2431457545853846
10
-22.943145742358727
20
-10.935533910663111
42
0.19891236737923157
10
-19.407611835335956
20
-12.40000000209875
10
-12.592388146183566
20
-12.399999997013964
42
0.19891236737936702
10
-9.0568542413393516
20
-10.935533900317296
10
-7.3644660852665922
20
-9.2431457417181999
42
0.19891236539127632
10
-5.8999999938328074
20
-5.7076118729332848
10
-5.8999999854985674
20
-4.5000000111554082
42
0.41421356639310858
10
-8.4000000025434929
20
-1.9999999938984561
42
0.41421356254358099
10
-8.8999999991301593
20
-2.499999997598934
10
-8.8999999869042767
20
-4.1499999942698196
42
-0.41421356822556976
10
-9.3999999965353709
20
-4.6499999946422577
0
ARC
5
187
100
AcDbEntity
8
0
100
AcDbCircle
10
-3.699999998293606
20
-2.2999999904004649
30
0
40
0.5000000000023872
210
0
220
0
230
1
100
AcDbArc
50
90.000000042730377
51
180
0
LINE
5
188
100
AcDbEntity
8
0
100
AcDbLine
10
-3.6999999986664989
20
-1.7999999903980779
30
0
11
1.3415052402265815e-09
21
-1.7999999876428772
31
0
0
ARC
5
189
100
AcDbEntity
8
0
100
AcDbCircle
10
-4.3097654000000009e-08
20
-4.0000000690383786
30
0
40
2.2000000937675828
210
0
220
-0
230
1
100
AcDbArc
50
2.091309789151873e-06
51
89.999998842647187
0
LINE
5
190
100
AcDbEntity
8
0
100
AcDbLine
10
2.2000000506699271
20
-3.9999999860015119
30
0
11
2.2000000057369111
21
-7.6999999859958734
31
0
0
ARC
5
191
100
AcDbEntity
8
0
100
AcDbCircle
10
1.7000000057305442
20
-7.6999999863687663
30
0
40
0.50000000000238753
210
0
220
0
230
1
100
AcDbArc
50
-89.999994491951028
51
0
0
LINE
5
192
100
AcDbEntity
8
0
100
AcDbLine
10
1.7000000537973392
20
-8.1999999863711519
30
0
11
-3.6999999938984729
21
-8.199999990397373
31
0
0
ARC
5
193
100
AcDbEntity
8
0
100
AcDbCircle
10
-3.7000001291426088
20
-7.7000003160014794
30
0
40
0.49999967438907339
210
0
220
0
230
1
100
AcDbArc
50
180.00005015511434
51
270.00001549784645
0
LINE
5
194
100
AcDbEntity
8
0
100
AcDbLine
10
-4.1999998035314903
20
-7.7000007537026249
30
0
11
-4.1999999982959926
21
-2.299999990771084
31
0
0
ARC
5
195
100
AcDbEntity
8
0
100
AcDbCircle
10
1.7000000240636839
20
-32.299999986378225
30
0
40
0.5000000000023872
210
0
220
-0
230
1
100
AcDbArc
50
0
51
90.000000042730377
0
LINE
5
196
100
AcDbEntity
8
0
100
AcDbLine
10
2.2000000240660711
20
-32.299999986003058
30
0
11
2.2000000268189979
21
-35.999999986001967
31
0
0
ARC
5
197
100
AcDbEntity
8
0
100
AcDbCircle
10
-4.3096209999999998e-08
20
-35.999999953943828
30
0
40
2.2000000813820151
210
0
220
0
230
1
100
AcDbArc
50
270.0000018635269
51
360
0
LINE
5
198
100
AcDbEntity
8
0
100
AcDbLine
10
2.8458088741936577e-08
20
-38.200000035325836
30
0
11
-3.6999999715499143
21
-38.199999990392826
31
0
0
ARC
5
199
100
AcDbEntity
8
0
100
AcDbCircle
10
-3.6999999719228072
20
-37.699999990397828
30
0
40
0.49999999999883421
210
0
220
0
230
1
100
AcDbArc
50
180.00000553308561
51
270.00000004273033
0
LINE
5
200
100
AcDbEntity
8
0
100
AcDbLine
10
-4.1999999719216392
20
-37.700000038448707
30
0
11
-4.1999999759445927
21
-32.299999990771084
31
0
0
ARC
5
201
100
AcDbEntity
8
0
100
AcDbCircle
10
-3.7000003015396032
20
-32.299999855522401
30
0
40
0.49999967439973209
210
0
220
0
230
1
100
AcDbArc
50
90.000050157931682
51
180.0000154860513
0
LINE
5
202
100
AcDbEntity
8
0
100
AcDbLine
10
-3.7000007392498451
20
-31.800000181122861
30
0
11
1.7000000236907911
21
-31.799999986375838
31
0
0
ARC
5
203
100
AcDbEntity
8
0
100
AcDbCircle
10
-33.699999994271366
20
-7.7000000127372914
30
0
40
0.50000000000238742
210
0
220
0
230
1
100
AcDbArc
50
180
51
270.00000004273033
0
LINE
5
204
100
AcDbEntity
8
0
100
AcDbLine
10
-34.199999994273753
20
-7.7000000131101842
30
0
11
-34.19999999702668
21
-4.0000000131158231
31
0
0
ARC
5
205
100
AcDbEntity
8
0
100
AcDbCircle
10
-31.99999992798109
20
-4.0000000690348267
30
0
40
2.2000001052393254
210
0
220
0
230
1
100
AcDbArc
50
90.00000184070133
51
179.99999852122065
0
LINE
5
206
100
AcDbEntity
8
0
100
AcDbLine
10
-31.99999999865895
20
-1.7999999637955024
30
0
11
-28.299999998657768
21
-1.8000000087226911
31
0
0
ARC
5
207
100
AcDbEntity
8
0
100
AcDbCircle
10
-28.299999998284875
20
-2.3000000087154149
30
0
40
0.49999999999883254
210
0
220
-0
230
1
100
AcDbArc
50
5.5330856164907818e-06
51
90.000000042730377
0
LINE
5
208
100
AcDbEntity
8
0
100
AcDbLine
10
-27.799999998286044
20
-2.299999960659989
30
0
11
-27.799999994263089
21
-7.700000008344432
31
0
0
ARC
5
209
100
AcDbEntity
8
0
100
AcDbCircle
10
-28.299999668658984
20
-7.7000001435931154
30
0
40
0.49999967439617943
210
0
220
0
230
1
100
AcDbArc
50
-89.999949842328917
51
1.5486051318593212e-05
0
LINE
5
210
100
AcDbEntity
8
0
100
AcDbLine
10
-28.299999230951016
20
-8.1999998179891023
30
0
11
-33.699999993898473
21
-8.2000000127396788
31
0
0
ARC
5
211
100
AcDbEntity
8
0
100
AcDbCircle
10
-28.299999971914076
20
-37.700000008715051
30
0
40
0.49999999999883471
210
0
220
0
230
1
100
AcDbArc
50
-89.999999957269637
51
0
0
LINE
5
212
100
AcDbEntity
8
0
100
AcDbLine
10
-28.299999971541183
20
-38.200000008713886
30
0
11
-31.999999971542366
21
-38.200000011474913
31
0
0
ARC
5
213
100
AcDbEntity
8
0
100
AcDbCircle
10
-31.999999927966378
20
-35.99999995393577
30
0
40
2.2000000928985806
210
0
220
0
230
1
100
AcDbArc
50
180.00000147877932
51
269.99999886512722
0
LINE
5
214
100
AcDbEntity
8
0
100
AcDbLine
10
-34.200000020864955
20
-36.000000013116278
30
0
11
-34.199999975944593
21
-32.300000013117369
31
0
0
ARC
5
215
100
AcDbEntity
8
0
100
AcDbCircle
10
-33.699999975929131
20
-32.30000001274675
30
0
40
0.50000000000238531
210
0
220
0
230
1
100
AcDbArc
50
90.000005507267318
51
180
0
LINE
5
216
100
AcDbEntity
8
0
100
AcDbLine
10
-33.700000023989105
20
-31.800000012744366
30
0
11
-28.299999976309209
21
-31.800000008722691
31
0
0
ARC
5
217
100
AcDbEntity
8
0
100
AcDbCircle
10
-28.299999841058252
20
-32.299999683107217
30
0
40
0.49999967438907394
210
0
220
-0
230
1
100
AcDbArc
50
5.0155114336482214e-05
51
90.00001549862813
0
LINE
5
218
100
AcDbEntity
8
0
100
AcDbLine
10
-27.800000166669371
20
-32.29999924540607
30
0
11
-27.799999971915241
21
-37.700000008351253
31
0
0
CIRCLE
5
219
100
AcDbEntity
8
0
100
AcDbCircle
10
-15.999999985099294
20
-19.999999999558895
30
0
40
3.3500000000010743
210
0
220
0
230
1
0
LWPOLYLINE
5
220
100
AcDbEntity
8
0
100
AcDbPolyline
90
86
70
1
43
0.0
10
-5.8999999509037506
20
-35.49999998529637
42
-0.41421356639337492
10
-8.3999999642278471
20
-38.00000000628296
42
-0.41421356254757707
10
-8.8999999615654151
20
-37.500000003317894
10
-8.8999999518010373
20
-35.850000009987127
42
0.41421356433235479
10
-9.3999999521783071
20
-35.350000007029166
10
-10.899999962179109
20
-35.350000008146566
42
0.41421355943953014
10
-11.899999951423286
20
-36.350000008889026
10
-11.899999949830773
20
-38.500000008888208
42
0.41421356236954193
10
-10.399999948722128
20
-40.000000007768591
10
4.1282159912725547e-08
20
-40.000000011499111
42
0.41421355394545767
10
4.0000000144590881
20
-35.999999984660462
10
4.0000000190730134
20
-25.599999984660826
42
0.41421356042271418
10
2.500000017953425
20
-24.099999995776074
10
0.35000001794969593
20
-24.099999997376926
42
0.41421356236843476
10
-0.64999998130019443
20
-25.099999998121802
10
-0.64999998018947713
20
-26.599999988125091
42
0.41421356822956862
10
-0.149999979817039
20
-27.099999997748657
10
1.500000016860668
20
-27.099999985524192
42
-0.41421356254224928
10
2.000000020563419
20
-27.599999982107875
42
-0.41421356639017842
10
-0.49999999669353268
20
-30.099999999155642
10
-1.707611858478232
20
-30.099999990822539
42
-0.19891236539316967
10
-5.2431457272664446
20
-28.635533899383528
10
-6.9355338858629203
20
-26.943145743317242
42
-0.19891236738084261
10
-8.3999999825668681
20
-23.407611838472349
10
-8.3999999876341729
20
-16.592388149317685
42
-0.19891236738099244
10
-6.9355338962047171
20
-13.056854242302801
10
-5.24314574012155
20
-11.36446608370048
42
-0.19891236539137738
10
-1.707611873525821
20
-9.8999999870018485
10
-0.50000001174112252
20
-9.8999999768658142
42
-0.41421356639017837
10
2.0000000092366581
20
-12.399999990182096
42
-0.41421356254890923
10
1.5000000062832444
20
-12.899999987519379
10
-0.14999998705434309
20
-12.899999977748848
42
0.41421356432436662
10
-0.64999999001585695
20
-13.399999978116739
10
-0.64999998890471011
20
-14.899999988126638
42
0.41421355944286092
10
0.35000001184244039
20
-15.899999977377632
10
2.5000000118461689
20
-15.899999975772516
42
0.41421356237487061
10
4.0000000107320979
20
-14.399999974657476
10
4.0000000144618761
20
-3.9999999846577339
42
0.41421355394417975
10
-1.2365828361282638e-08
20
-1.1479530104274716e-08
10
-32.000000012366286
20
-1.1479530104274716e-08
42
0.41421355394334741
10
-35.999999985536391
20
-4.0000000382961804
10
-35.999999990153661
20
-14.400000038300362
42
0.41421356042138435
10
-34.499999989031657
20
-15.900000027176018
10
-32.349999989032476
20
-15.900000025578962
42
0.41421356236976459
10
-31.349999989778034
20
-14.900000024835228
10
-31.349999990893167
20
-13.40000003483876
42
0.41421356823488803
10
-31.849999991264895
20
-12.900000025206102
10
-33.499999987926678
20
-12.900000037440124
42
-0.41421356255556863
10
-33.999999991640806
20
-12.400000040845073
42
-0.41421356639071105
10
-31.49999997438286
20
-9.9000000238008568
10
-30.292388112600435
20
-9.9000000321417296
42
-0.19891236539278662
10
-26.756854243816765
20
-11.364466123573923
10
-25.064466085217848
20
-13.056854279655958
42
-0.1989123673813786
10
-23.599999988514462
20
-16.592388184493736
10
-23.599999983437581
20
-23.407611873648403
42
-0.19891236738070689
10
-25.064466074869962
20
-26.943145780671294
10
-26.75685423094972
20
-28.635533939267937
42
-0.19891236539287316
10
-30.292388097550361
20
-30.100000035967337
10
-31.499999959332786
20
-30.10000004610739
42
-0.41421356639071105
10
-33.999999980315117
20
-27.600000032787555
42
-0.41421356254890901
10
-33.499999977350335
20
-27.10000003546164
10
-31.849999984017291
20
-27.100000045228295
42
0.41421356431769907
10
-31.349999981063593
20
-26.600000044857563
10
-31.349999982178719
20
-25.100000034861306
42
0.4142135594461917
10
-32.349999982925731
20
-24.100000045598943
10
-34.499999982924912
20
-24.100000047202819
42
0.41421356237032453
10
-35.999999981796982
20
-25.60000004831668
10
-35.999999985525228
20
-36.000000038318689
42
0.41421355394368053
10
-31.999999958702752
20
-40.000000011494627
10
-21.599999958703116
20
-40.000000016114178
42
0.41421356042271323
10
-20.099999969817365
20
-38.500000015002541
10
-20.099999971418974
20
-36.35000001500336
42
0.41421356237309503
10
-21.099999972165982
20
-35.350000015747923
10
-22.599999962169271
20
-35.350000016860776
42
0.41421356822157918
10
-23.099999971787291
20
-35.850000017231494
10
-23.099999959560087
20
-37.500000013893285
42
-0.41421356254358133
10
-23.599999956147322
20
-38.000000017601877
42
-0.41421356639310852
10
-26.099999973189973
20
-35.500000000343221
10
-26.099999964867287
20
-34.292388138565343
42
-0.19891236539181262
10
-24.63553387343255
20
-30.756854269774976
10
-22.943145717359616
20
-29.06446611117833
42
-0.19891236737956866
10
-19.407611812513949
20
-27.600000014478567
10
-12.592388123361557
20
-27.600000009401686
42
-0.19891236737953091
10
-9.0568542163353811
20
-29.064466100835475
10
-7.3644660577410086
20
-30.756854256912955
42
-0.19891236539144652
10
-5.8999999610415319
20
-34.292388123518492
0
LWPOLYLINE
5
221
100
AcDbEntity
8
0
100
AcDbPolyline
90
24
70
1
43
0.0
10
-10.89999998653866
20
-4.6499999957562466
42
-0.41421356237176299
10
-11.899999987285668
20
-3.649999996505358
10
-11.899999988511354
20
-1.9999999965034481
10
-20.100000008508232
20
-2.0000000026129778
10
-20.10000000727814
20
-3.6500000026148882
42
-0.41421355944086402
10
-21.099999996536098
20
-4.6500000033574906
10
-22.600000006534628
20
-4.6500000044761691
42
-0.41421356432702777
10
-23.100000006907067
20
-4.1500000015184924
10
-23.099999997138525
20
-2.5000000081786311
42
0.41421356253958264
10
-23.599999994471546
20
-2.0000000052164073
42
0.41421356639257573
10
-26.100000007791095
20
-4.5000000261984496
10
-26.099999997661172
20
-5.7076118879808782
42
0.19891236539182897
10
-24.635533900952851
20
-9.2431457545853846
10
-22.943145742358727
20
-10.935533910663114
42
0.19891236737923118
10
-19.407611835335956
20
-12.40000000209875
10
-12.592388146183563
20
-12.399999997013964
42
0.19891236737936704
10
-9.0568542413393516
20
-10.935533900317296
10
-7.3644660852665913
20
-9.2431457417181999
42
0.19891236539127652
10
-5.8999999938328074
20
-5.7076118729332848
10
-5.8999999854985674
20
-4.5000000111554082
42
0.41421356639310847
10
-8.4000000025434929
20
-1.9999999938984561
42
0.41421356254357999
10
-8.8999999991301593
20
-2.499999997598934
10
-8.8999999869042767
20
-4.1499999942698196
42
-0.41421356822556976
10
-9.3999999965353709
20
-4.6499999946422577
0
LWPOLYLINE
5
222
100
AcDbEntity
8
0
100
AcDbPolyline
90
8
70
1
43
0.0
10
-4.1999999982959926
20
-2.299999990771084
42
-0.41421356237176332
10
-3.6999999986664989
20
-1.7999999903980779
10
1.3415049570990194e-09
20
-1.7999999876366237
42
-0.41421354704809726
10
2.2000000506699271
20
-3.9999999860015119
10
2.2000000057329312
20
-7.6999999859958734
42
-0.41421353443465458
10
1.7000000537973392
20
-8.1999999863711501
10
-3.6999999938984729
20
-8.1999999903905323
42
-0.41421338519777762
10
-4.1999998035314903
20
-7.7000007537026249
0
LWPOLYLINE
5
223
100
AcDbEntity
8
0
100
AcDbPolyline
90
8
70
1
43
0.0
10
1.7000000236907911
20
-31.799999986375838
42
-0.41421356237176699
10
2.2000000240660711
20
-32.299999986003058
10
2.2000000268207032
20
-35.999999986001967
42
-0.41421354704719093
10
2.8458088663363412e-08
20
-38.200000035325836
10
-3.6999999715499143
20
-38.19999999039667
42
-0.41421353444397579
10
-4.1999999719216392
20
-37.700000038448707
10
-4.1999999759393178
20
-32.299999990771084
42
-0.41421338519510731
10
-3.7000007392498451
20
-31.800000181122861
0
LWPOLYLINE
5
224
100
AcDbEntity
8
0
100
AcDbPolyline
90
8
70
1
43
0.0
10
-33.699999993898473
20
-8.200000012739677
42
-0.41421356237309437
10
-34.199999994273753
20
-7.7000000131101842
10
-34.199999997013471
20
-4.000000013115824
42
-0.4142135470465832
10
-31.99999999865895
20
-1.7999999637955026
10
-28.299999998657768
20
-1.8000000087165788
42
-0.41421353444131614
10
-27.799999998286044
20
-2.2999999606599886
10
-27.799999994262823
20
-7.700000008344432
42
-0.41421338519644929
10
-28.299999230951016
20
-8.1999998179891023
0
LWPOLYLINE
5
225
100
AcDbEntity
8
0
100
AcDbPolyline
90
8
70
1
43
0.0
10
-27.799999971915245
20
-37.700000008351253
42
-0.41421356236776474
10
-28.299999971541183
20
-38.200000008713886
10
-31.999999971542366
20
-38.200000011473065
42
-0.41421354704718993
10
-34.200000020864955
20
-36.000000013116278
10
-34.199999975931512
20
-32.300000013117369
42
-0.41421353443731812
10
-33.700000023989105
20
-31.800000012744366
10
-28.299999976309209
20
-31.800000008718165
42
-0.4142133852017692
10
-27.800000166669371
20
-32.29999924540607
0
CIRCLE
5
226
100
AcDbEntity
8
0
100
AcDbCircle
10
-15.999999985099294
20
-19.999999999558895
30
0
40
3.3500000000010743
210
0
220
0
230
1
0
ENDSEC
0
SECTION
2
OBJECTS
0
DICTIONARY
5
C
100
AcDbDictionary
3
ACAD_GROUP
350
D
3
ACAD_MLINESTYLE
350
17
0
DICTIONARY
5
D
100
AcDbDictionary
0
DICTIONARY
5
1A
330
C
100
AcDbDictionary
0
DICTIONARY
5
17
100
AcDbDictionary
0
ENDSEC
0
EOF
