0
SECTION
2
HEADER
9
$INSUNITS
70
4
9
$ACADVER
1
AC1014
9
$HANDSEED
5
FFFF
0
ENDSEC
0
SECTION
2
TABLES
0
TABLE
2
VPORT
5
8
100
AcDbSymbolTable
0
ENDTAB
0
TABLE
2
LTYPE
5
5
100
AcDbSymbolTable
0
LTYPE
5
14
100
AcDbSymbolTableRecord
100
AcDbLinetypeTableRecord
2
BYBLOCK
70
0
0
LTYPE
5
15
100
AcDbSymbolTableRecord
100
AcDbLinetypeTableRecord
2
BYLAYER
70
0
0
ENDTAB
0
TABLE
2
LAYER
5
2
100
AcDbSymbolTable
70
2
0
LAYER
5
50
100
AcDbSymbolTableRecord
100
AcDbLayerTableRecord
2
0
70
0
6
CONTINUOUS
0
ENDTAB
0
TABLE
2
STYLE
5
3
100
AcDbSymbolTable
70
1
0
STYLE
5
11
100
AcDbSymbolTableRecord
100
AcDbTextStyleTableRecord
2
STANDARD
70
0
0
ENDTAB
0
TABLE
2
VIEW
5
6
100
AcDbSymbolTable
70
0
0
ENDTAB
0
TABLE
2
UCS
5
7
100
AcDbSymbolTable
70
0
0
ENDTAB
0
TABLE
2
APPID
5
9
100
AcDbSymbolTable
70
2
0
APPID
5
12
100
AcDbSymbolTableRecord
100
AcDbRegAppTableRecord
2
ACAD
70
0
0
ENDTAB
0
TABLE
2
DIMSTYLE
5
A
100
AcDbSymbolTable
70
1
0
ENDTAB
0
TABLE
2
BLOCK_RECORD
5
1
100
AcDbSymbolTable
70
1
0
BLOCK_RECORD
5
1F
100
AcDbSymbolTableRecord
100
AcDbBlockTableRecord
2
*MODEL_SPACE
0
BLOCK_RECORD
5
1B
100
AcDbSymbolTableRecord
100
AcDbBlockTableRecord
2
*PAPER_SPACE
0
ENDTAB
0
ENDSEC
0
SECTION
2
BLOCKS
0
BLOCK
5
20
100
AcDbEntity
100
AcDbBlockBegin
2
*MODEL_SPACE
0
ENDBLK
5
21
100
AcDbEntity
100
AcDbBlockEnd
0
BLOCK
5
1C
100
AcDbEntity
100
AcDbBlockBegin
2
*PAPER_SPACE
0
ENDBLK
5
1D
100
AcDbEntity
100
AcDbBlockEnd
0
ENDSEC
0
SECTION
2
ENTITIES
0
LWPOLYLINE
5
100
100
AcDbEntity
8
0
100
AcDbPolyline
90
268
70
1
43
0.0
10
-70.992388155418666
20
-27.599999999997635
10
-77.80761184457333
20
-27.599999999997635
42
0.19891236738105
10
-81.343145750506665
20
-29.064466094068848
10
-83.03553390784117
20
-30.756854251401656
42
0.19891236539103402
10
-84.500000001903572
20
-34.292388119101815
10
-84.500000011139207
20
-35.499999980877419
42
0.41421356639284213
10
-81.999999995960025
20
-37.999999999998835
42
0.41421356254890901
10
-81.499999999005013
20
-37.499999996666702
10
-81.500000009993983
20
-35.850000003326841
42
-0.41421356432303197
10
-81.000000009994437
20
-35.349999999998545
10
-79.499999999998181
20
-35.35000000000764
42
-0.41421355944552574
10
-78.500000010003532
20
-36.349999999997635
10
-78.500000009994437
20
-38.499999999999091
42
-0.41421356237487095
10
-80.000000010004442
20
-40
10
-108.7999999899921
20
-39.999999999990905
42
-0.41421356237487095
10
-110.29999998999301
20
-38.499999999999091
10
-110.29999998999756
20
-36.349999999997635
42
-0.41421355944286187
10
-109.30000000000291
20
-35.349999999998545
10
-107.79999999000211
20
-35.349999999987176
42
-0.41421356432303197
10
-107.29999998999119
20
-35.850000003326841
10
-107.30000000099565
20
-37.499999996666702
42
0.41421356253292591
10
-106.80000000404107
20
-37.999999999995993
42
0.4142135663947068
10
-104.29999998884796
20
-35.499999980877419
10
-104.29999999807976
20
-34.292388119101815
42
0.19891236539214102
10
-105.76446609215054
20
-30.756854251396817
10
-107.45685424949082
20
-29.064466094067502
42
0.19891236738072962
10
-110.99238815541867
20
-27.599999999997635
10
-117.80761184457333
20
-27.59999999999394
42
0.19891236738105003
10
-121.34314575050666
20
-29.064466094068848
10
-123.03553390784367
20
-30.756854251399144
42
0.19891236539103438
10
-124.50000000190357
20
-34.292388119101815
10
-124.50000001113921
20
-35.499999980877419
42
0.41421356639230938
10
-121.99999999596457
20
-37.999999999998835
42
0.41421356254358133
10
-121.49999999900501
20
-37.499999996666702
10
-121.50000000999398
20
-35.84999999999809
42
-0.41421356822823363
10
-120.99999999999909
20
-35.349999999998545
10
-119.50000001000262
20
-35.34999999998945
42
-0.41421356237043117
10
-118.50000001000353
20
-36.349999999997635
10
-118.50000001000353
20
-38.499999999999091
42
-0.41421356041960627
10
-120
20
-40
10
-130.39999999999964
20
-39.999999987582271
42
-0.41421355394974929
10
-134.40000002391602
20
-36.000000011424476
10
-134.4000000124382
20
-25.600000021427007
42
-0.41421356686530059
10
-132.89999998852659
20
-24.100000022339607
10
-130.74999998852513
20
-24.100000022339607
42
-0.41421355944352783
10
-129.74999998852746
20
-25.100000012335109
10
-129.74999998852746
20
-26.60000002234046
42
-0.41421356432303197
10
-130.24999999185502
20
-27.100000022339295
10
-131.89999998518806
20
-27.100000011334409
42
0.41421356255157288
10
-132.39999998852375
20
-27.600000008308179
42
0.41421356639230938
10
-129.89999996941202
20
-30.100000023490914
10
-128.69238810762505
20
-30.100000014261816
42
0.1989123653921071
10
-125.15685423992652
20
-28.635533920191634
10
-123.46446608259173
20
-26.943145762852289
42
0.19891236738031767
10
-121.99999998853016
20
-23.407611856914151
10
-121.99999998853016
20
-16.592388167770856
42
0.19891236738017934
10
-123.46446608259627
20
-13.056854261837268
10
-125.15685423993108
20
-11.36446610450021
42
0.19891236539118767
10
-128.69238810762963
20
-9.9000000104373154
10
-129.8999999694166
20
-9.9000000011991229
42
0.41421356639204299
10
-132.3999999885319
20
-12.400000016383137
42
0.41421356254091746
10
-131.89999998519622
20
-12.900000013338717
10
-130.24999998853443
20
-12.900000002338379
42
-0.41421356822956557
10
-129.74999998853559
20
-13.400000012334834
10
-129.74999998853559
20
-14.900000002338123
42
-0.41421356236443752
10
-130.74999998853028
20
-15.900000002330534
10
-132.89999998853173
20
-15.900000002330534
42
-0.41421356042049423
10
-134.39999998853079
20
-14.400000012322272
10
-134.39999997612634
20
-4.0000000123249109
42
-0.41421355394498999
10
-130.39999999999964
20
1.1477823e-08
10
-120.00000000999535
20
2.2734591986761643e-12
42
-0.41421356237131918
10
-118.50000001000353
20
-1.499999999998636
10
-118.50000001000353
20
-3.6499999999978172
42
-0.41421355944286187
10
-119.49999999999818
20
-4.6499999999969077
10
-121.00000001000353
20
-4.6500000000037298
42
-0.41421356432036882
10
-121.5000000100008
20
-4.1499999966640644
10
-121.49999999900089
20
-2.5000000033287511
42
0.41421356254091779
10
-121.99999999596457
20
-2.0000000000004552
42
0.41421356639097745
10
-124.50000001114404
20
-4.5000000191089384
10
-124.50000000190826
20
-5.7076118808981846
42
0.19891236539083262
10
-123.035533907846
20
-9.2431457485940882
10
-121.34314575050237
20
-10.935533905924594
42
0.19891236737999179
10
-117.80761184457333
20
-12.399999999997817
10
-110.99238815541867
20
-12.399999999989431
42
0.19891236737972728
10
-107.45685424949443
20
-10.935533905928878
10
-105.76446609215591
20
-9.2431457485887165
42
0.19891236539166809
10
-104.29999999807933
20
-5.7076118808981846
10
-104.29999998884469
20
-4.5000000191089384
42
0.41421356639310852
10
-106.80000000404107
20
-1.999999999997613
42
0.41421356254358166
10
-107.30000000100063
20
-2.5000000033287511
10
-107.29999998999801
20
-4.1499999999973634
42
-0.41421356822823296
10
-107.800000000002
20
-4.6499999999969077
10
-109.29999998999847
20
-4.6499999999969086
42
-0.41421356236909945
10
-110.29999998999301
20
-3.6499999999978172
10
-110.29999998999983
20
-1.499999999998636
42
-0.41421356042138213
10
-108.79999999999654
20
0
10
-80
20
2.2734591986761643e-12
42
-0.41421356041960627
10
-78.500000010003532
20
-1.499999999998636
10
-78.500000009998985
20
-3.6499999999978172
42
-0.41421356236909945
10
-79.500000009993528
20
-4.6499999999969077
10
-80.999999999999091
20
-4.6500000000037298
42
-0.41421356822823363
10
-81.500000010000804
20
-4.1499999999973634
10
-81.499999998990802
20
-2.5000000033287511
42
0.41421356254624547
10
-81.999999995960025
20
-2.0000000000004552
42
0.41421356639151019
10
-84.500000011148586
20
-4.5000000191089384
10
-84.500000001904709
20
-5.7076118808981846
42
0.19891236539083262
10
-83.035533907846002
20
-9.2431457485940882
10
-81.343145750502373
20
-10.935533905924594
42
0.19891236737999179
10
-77.80761184457333
20
-12.399999999997817
10
-70.992388155418666
20
-12.399999999992984
42
0.19891236737972726
10
-67.456854249494427
20
-10.935533905928878
10
-65.764466092155914
20
-9.2431457485887165
42
0.19891236539166809
10
-64.299999998079329
20
-5.7076118808981846
10
-64.299999988844689
20
-4.5000000191089384
42
0.41421356639310852
10
-66.800000004041067
20
-1.999999999997613
42
0.41421356253559011
10
-67.300000001000626
20
-2.5000000033287511
10
-67.299999989998014
20
-4.1499999999973634
42
-0.41421356822823296
10
-67.800000000002001
20
-4.6499999999969077
10
-69.299999989998469
20
-4.6500000000060036
42
-0.41421356236909945
10
-70.299999990002107
20
-3.6499999999978172
10
-70.299999989999833
20
-1.499999999998636
42
-0.41421356042049423
10
-68.800000000001091
20
0
10
-40
20
2.2734591986761643e-12
42
-0.41421356042138219
10
-38.500000009994437
20
-1.499999999998636
10
-38.50000001000808
20
-3.6499999999978172
42
-0.41421356236909945
10
-39.500000010002623
20
-4.6499999999969077
10
-40.999999999999091
20
-4.6499999999991823
42
-0.41421356822823363
10
-41.500000009996256
20
-4.1499999999973634
10
-41.499999999004444
20
-2.5000000033287511
42
0.41421356254091779
10
-41.999999995964572
20
-1.999999999996902
42
0.41421356639097745
10
-44.500000011148586
20
-4.5000000191089384
10
-44.500000001904709
20
-5.7076118808981846
42
0.19891236539083262
10
-43.035533907846002
20
-9.2431457485940882
10
-41.343145750500099
20
-10.935533905926862
42
0.19891236737982512
10
-37.80761184457333
20
-12.399999999997817
10
-30.992388155418666
20
-12.399999999992984
42
0.19891236737972726
10
-27.456854249494427
20
-10.935533905928878
10
-25.764466092153398
20
-9.2431457485912318
42
0.19891236539166832
10
-24.299999998079329
20
-5.7076118808981846
10
-24.299999988841137
20
-4.5000000191089384
42
0.41421356639310852
10
-26.800000004041067
20
-1.999999999997613
42
0.41421356254358166
10
-27.300000001000626
20
-2.5000000033287511
10
-27.299999989998014
20
-4.1499999999973634
42
-0.41421356822823296
10
-27.800000000002001
20
-4.6499999999969077
10
-29.299999989998469
20
-4.6500000000060036
42
-0.41421356236909945
10
-30.299999990002107
20
-3.6499999999978172
10
-30.299999989999833
20
-1.499999999998636
42
-0.41421356042049423
10
-28.800000000001091
20
0
10
-1.5029562571334571e-16
20
2.2740143101884769e-12
42
-0.41421356041960622
10
1.499999989996468
20
-1.499999999998636
10
1.4999999899919194
20
-3.6499999999978172
42
-0.41421356236909945
10
0.49999998999737699
20
-4.6499999999969077
10
-0.99999999999909106
20
-4.6500000000037298
42
-0.41421356822823324
10
-1.500000010000804
20
-4.1499999999973634
10
-1.4999999990044448
20
-2.5000000033287511
42
0.41421356254091801
10
-1.9999999959645725
20
-1.999999999996902
42
0.41421356639097739
10
-4.5000000111485861
20
-4.5000000191089384
10
-4.5000000019082629
20
-5.7076118808981846
42
0.19891236539083262
10
-3.035533907846002
20
-9.2431457485940882
10
-1.3431457505023752
20
-10.935533905924588
42
0.19891236737999229
10
2.19238815542667
20
-12.399999999997817
10
9.0076118445813353
20
-12.399999999992984
42
0.19891236737972717
10
12.543145750505573
20
-10.935533905928878
10
14.23553390784409
20
-9.2431457485887201
42
0.19891236539166832
10
15.700000001920671
20
-5.7076118808981846
10
15.700000011158863
20
-4.5000000191089384
42
0.41421356639310852
10
13.199999995958933
20
-1.999999999997613
42
0.41421356254358166
10
12.699999998999374
20
-2.5000000033287511
10
12.700000009997439
20
-4.1499999966640644
42
-0.4142135643256965
10
12.200000009997893
20
-4.6499999999969077
10
10.69999999999709
20
-4.6500000000014552
42
-0.41421355944286187
10
9.7000000099978934
20
-3.6499999999978172
10
9.7000000100001671
20
-1.499999999998636
42
-0.41421356237309503
10
11.200000009998803
20
0
10
21.600000000003092
20
0
42
-0.41421356237459345
10
25.599999999999454
20
-3.9999999999986358
10
25.600000000001728
20
-14.399999999995998
42
-0.41421356042227014
10
24.099999999998545
20
-15.899999989999287
10
21.94999999999709
20
-15.899999990006108
42
-0.41421356236443752
10
20.949999999997999
20
-14.899999990000197
10
20.950000000013915
20
-13.399999999996908
42
-0.41421356822423783
10
21.450000000004366
20
-12.899999989999742
10
23.099999996675251
20
-12.900000000995107
42
0.41421356253558977
10
23.600000000003547
20
-12.400000004035974
42
0.41421356639310852
10
21.099999980879147
20
-9.8999999888496859
10
19.892388119105817
20
-9.8999999980932767
42
0.19891236539070009
10
16.35685425140764
20
-11.36446609215227
10
14.664466094075816
20
-13.056854249492304
42
0.19891236738084808
10
13.200000000001637
20
-16.592388155424942
10
13.200000000008316
20
-23.407611844568237
42
0.19891236738098669
10
14.66446609407285
20
-26.943145750503845
10
16.356854251410262
20
-28.635533907840561
42
0.19891236539161933
10
19.892388119105817
20
-30.100000001914395
10
21.099999980879147
20
-30.100000011150314
42
0.41421356639337492
10
23.600000000005394
20
-27.599999995964026
42
0.4142135625462452
10
23.099999996675251
20
-27.099999998993098
10
21.450000003337664
20
-27.1000000100139
42
-0.41421356432036815
10
20.949999999997999
20
-26.600000009998439
10
20.950000000000273
20
-25.099999999993088
42
-0.41421355944352783
10
21.94999999999709
20
-24.100000009998439
10
24.099999999998545
20
-24.100000009998439
42
-0.41421356237487095
10
25.599999999999454
20
-25.600000009999349
10
25.600000000006276
20
-35.999999999999091
42
-0.41421356237426049
10
21.600000000003092
20
-40
10
11.199999999998909
20
-40
42
-0.41421356042049423
10
9.7000000099978934
20
-38.499999999999091
10
9.7000000100115358
20
-36.349999999997635
42
-0.41421356237043117
10
10.700000010001531
20
-35.349999999998545
10
12.199999999997999
20
-35.349999999996271
42
-0.41421356823089744
10
12.700000009999712
20
-35.84999999999809
10
12.699999999004348
20
-37.499999996666702
42
0.41421356253292591
10
13.199999995958933
20
-37.99999999999244
42
0.4142135663947068
10
15.700000011152042
20
-35.499999980877419
10
15.700000001923797
20
-34.292388119101815
42
0.19891236539214105
10
14.235533907849458
20
-30.756854251396817
10
12.543145750510563
20
-29.06446609406386
42
0.19891236738064658
10
9.0076118445813336
20
-27.599999999997635
10
2.1923881554266695
20
-27.59999999999394
42
0.19891236738091153
10
-1.3431457505066651
20
-29.064466094068848
10
-3.0355339078436776
20
-30.75685425139914
42
0.19891236539103446
10
-4.5000000019035724
20
-34.292388119101815
10
-4.5000000111427596
20
-35.499999980877419
42
0.41421356639230938
10
-1.999999995964572
20
-37.999999999998835
42
0.41421356254358122
10
-1.499999999005013
20
-37.499999996666702
10
-1.5000000099939825
20
-35.850000003326841
42
-0.41421356431770423
10
-1.0000000100035322
20
-35.349999999998545
10
0.50000000000181888
20
-35.349999999998545
42
-0.41421355944286181
10
1.499999989996468
20
-36.349999999997635
10
1.4999999900055625
20
-38.499999999999091
42
-0.41421356237487089
10
-1.0004441719502211e-08
20
-40
10
-28.799999990001197
20
-40
42
-0.41421356237309503
10
-30.299999990002107
20
-38.499999999999091
10
-30.299999989997559
20
-36.349999999997635
42
-0.41421355944286187
10
-29.30000000000291
20
-35.349999999998545
10
-27.799999990002107
20
-35.349999999996271
42
-0.41421356432303197
10
-27.299999990000288
20
-35.850000003326841
10
-27.300000000995652
20
-37.499999996666702
42
0.41421356253292591
10
-26.800000004041067
20
-37.99999999999244
42
0.4142135663947068
10
-24.299999988847958
20
-35.499999980877419
10
-24.299999998076203
20
-34.292388119101815
42
0.19891236539214105
10
-25.764466092150542
20
-30.756854251396817
10
-27.456854249489439
20
-29.06446609406386
42
0.19891236738064652
10
-30.992388155418666
20
-27.599999999997635
10
-37.80761184457333
20
-27.59999999999394
42
0.19891236738088289
10
-41.343145750502117
20
-29.064466094068848
10
-43.035533907841163
20
-30.756854251401652
42
0.19891236539103455
10
-44.500000001903572
20
-34.292388119101815
10
-44.50000001114276
20
-35.499999980877419
42
0.41421356639230938
10
-41.999999995964572
20
-37.999999999998835
42
0.41421356254358133
10
-41.499999999005013
20
-37.499999996666702
10
-41.500000009993983
20
-35.850000003326841
42
-0.41421356431770429
10
-41.000000010003532
20
-35.349999999998545
10
-39.499999999998181
20
-35.34999999998945
42
-0.41421355944286187
10
-38.500000009994437
20
-36.349999999997635
10
-38.500000009994437
20
-38.499999999999091
42
-0.41421356237309503
10
-40.000000009995347
20
-40
10
-68.799999990001197
20
-40
42
-0.41421356237309503
10
-70.299999990002107
20
-38.499999999999091
10
-70.299999989997559
20
-36.349999999997635
42
-0.41421355944286187
10
-69.30000000000291
20
-35.349999999998545
10
-67.799999990002107
20
-35.349999999996271
42
-0.41421356432303197
10
-67.299999990000288
20
-35.850000003326841
10
-67.300000000991105
20
-37.499999996666702
42
0.41421356253026209
10
-66.800000004041067
20
-37.99999999999244
42
0.4142135663947068
10
-64.299999988847958
20
-35.499999980877419
10
-64.299999998079755
20
-34.292388119101815
42
0.19891236539214102
10
-65.764466092150542
20
-30.756854251396817
10
-67.456854249489439
20
-29.06446609406386
42
0.19891236738064666
0
LWPOLYLINE
5
101
100
AcDbEntity
8
0
100
AcDbPolyline
90
24
70
1
43
0.0
10
-4.7355346468059585
20
-11.785785124001693
42
-0.19891225683605718
10
-6.1999992370552084
20
-8.2502527218821342
10
-6.1999992370543566
20
-4.499999999998181
42
0.41421356237256224
10
-8.6999992370510881
20
-1.999999999998181
10
-20.100000762936361
20
-1.999999999996902
42
0.41421356237256224
10
-22.600000762931813
20
-4.499999999998181
10
-22.6000007629324
20
-8.250252721882136
42
-0.1989122568370599
10
-24.064465353189917
20
-11.785785124002359
10
-25.185535409749065
20
-12.906856134226674
42
0.19891225683640565
10
-26.649999999999636
20
-16.442388536352155
10
-26.649999999998641
20
-23.557611463641024
42
0.19891214629421586
10
-25.185536913550095
20
-27.093142361950413
10
-24.064463849387909
20
-28.214217333479333
42
-0.19891214629649862
10
-22.600000762936361
20
-31.749748231791273
10
-22.600000762933092
20
-35.499999999999545
42
0.41421356237256224
10
-20.100000762936361
20
-37.999999999999545
10
-8.6999992370510881
20
-38.000000000000824
42
0.41421356237256224
10
-6.1999992370556356
20
-35.499999999999545
10
-6.1999992370518093
20
-31.749748231791273
42
-0.19891214629532841
10
-4.7355361506106419
20
-28.214217333481884
10
-3.6144630864459089
20
-27.093142361950949
42
0.19891214629515533
10
-2.1500000000014552
20
-23.557611463641024
10
-2.1499999999959125
20
-16.442388536352155
42
0.19891225683697636
10
-3.614464590250464
20
-12.906856134234204
0
LWPOLYLINE
5
102
100
AcDbEntity
8
0
100
AcDbPolyline
90
24
70
1
43
0.0
10
-84.735534646806201
20
-11.785785124001931
42
-0.19891225683588995
10
-86.199999237054215
20
-8.2502527218821342
10
-86.199999237049809
20
-4.499999999998181
42
0.41421356237309503
10
-88.699999237051088
20
-1.999999999998181
10
-100.10000076293636
20
-1.999999999996902
42
0.41421356237256224
10
-102.60000076293636
20
-4.499999999998181
10
-102.6000007629324
20
-8.250252721882136
42
-0.1989122568370599
10
-104.06446535318992
20
-11.785785124002359
10
-105.18553540974199
20
-12.906856134224636
42
0.19891225683674038
10
-106.64999999999964
20
-16.442388536352155
10
-106.64999999999509
20
-23.557611463641024
42
0.19891214629421586
10
-105.1855369135501
20
-27.093142361950413
10
-104.06446384938791
20
-28.214217333479343
42
-0.19891214629649803
10
-102.60000076293636
20
-31.749748231791273
10
-102.60000076293309
20
-35.499999999999545
42
0.41421356237256224
10
-100.10000076293636
20
-37.999999999999545
10
-88.699999237051088
20
-38.000000000000824
42
0.41421356237309503
10
-86.199999237051088
20
-35.499999999999545
10
-86.199999237051813
20
-31.749748231791273
42
-0.19891214629532841
10
-84.735536150610642
20
-28.214217333481884
10
-83.614463086445895
20
-27.093142361950953
42
0.19891214629515508
10
-82.150000000001455
20
-23.557611463641024
10
-82.149999999995913
20
-16.442388536352155
42
0.19891225683697636
10
-83.614464590250464
20
-12.906856134234204
0
LWPOLYLINE
5
103
100
AcDbEntity
8
0
100
AcDbPolyline
90
24
70
1
43
0.0
10
-44.735534646808475
20
-11.785785124004205
42
-0.19891225683605707
10
-46.199999237058762
20
-8.2502527218821342
10
-46.199999237054357
20
-4.499999999998181
42
0.41421356237256224
10
-48.699999237051088
20
-1.999999999998181
10
-60.100000762931813
20
-1.999999999996902
42
0.41421356237256224
10
-62.600000762931813
20
-4.499999999998181
10
-62.600000762932396
20
-8.250252721882136
42
-0.1989122568370599
10
-64.064465353189917
20
-11.785785124002359
10
-65.18553540973997
20
-12.906856134235769
42
0.19891225683573704
10
-66.649999999999636
20
-16.442388536352155
10
-66.649999999995089
20
-23.557611463641024
42
0.19891214629421586
10
-65.185536913550095
20
-27.093142361950413
10
-64.064463849387906
20
-28.214217333479333
42
-0.19891214629649862
10
-62.600000762936361
20
-31.749748231791273
10
-62.600000762928545
20
-35.499999999999545
42
0.41421356237256224
10
-60.100000762931813
20
-37.999999999999545
10
-48.699999237051088
20
-38.000000000000824
42
0.41421356237256224
10
-46.199999237051088
20
-35.499999999999545
10
-46.199999237049155
20
-31.749748231791273
42
-0.19891214629499418
10
-44.735536150610642
20
-28.214217333481884
10
-43.614463086445909
20
-27.093142361950949
42
0.19891214629515525
10
-42.150000000001455
20
-23.557611463641024
10
-42.149999999995913
20
-16.442388536352155
42
0.19891225683697636
10
-43.614464590250464
20
-12.906856134234204
0
LWPOLYLINE
5
104
100
AcDbEntity
8
0
100
AcDbPolyline
90
8
70
1
43
0.0
10
17.399999999998247
20
-2.2999999523153751
42
-0.41421353443865039
10
17.899999999999636
20
-1.7999999999919682
10
21.600000000003092
20
-1.7999999999959471
42
-0.41421356237581941
10
23.800000000003507
20
-3.9999999999986358
10
23.80000000000166
20
-7.6999999999998181
42
-0.41421356237309503
10
23.299999999999272
20
-8.2000000000022055
10
17.899999237065458
20
-8.1999999999919595
42
-0.41421311546466288
10
17.400000000002365
20
-7.6999999999998181
0
LWPOLYLINE
5
105
100
AcDbEntity
8
0
100
AcDbPolyline
90
8
70
1
43
0.0
10
23.30000004768408
20
-31.799999999995524
42
-0.41421353443998199
10
23.80000000000166
20
-32.299999999997908
10
23.800000000003507
20
-35.999999999999091
42
-0.41421356237521401
10
21.600000000003092
20
-38.199999999997232
10
17.899999999999636
20
-38.199999999998653
42
-0.41421356237309503
10
17.400000000000801
20
-37.699999999999818
10
17.400000000004937
20
-32.299999237059183
42
-0.41421311545800327
10
17.899999999999636
20
-31.799999999995805
0
ARC
5
106
100
AcDbEntity
8
0
100
AcDbCircle
10
-126.70000000000073
20
-2.2999999999979082
30
0
40
0.50000000000594236
210
0
220
-0
230
1
100
AcDbArc
50
5.3997386567638338e-06
51
90
0
LINE
5
107
100
AcDbEntity
8
0
100
AcDbLine
10
-126.19999999999479
20
-2.2999999523153751
30
0
11
-126.19999999999891
21
-7.6999999999998181
31
0
0
ARC
5
108
100
AcDbEntity
8
0
100
AcDbCircle
10
-126.69999967439253
20
-7.7000001348665137
30
0
40
0.49999967439618015
210
0
220
0
230
1
100
AcDbArc
50
-89.999949884538239
51
1.5438909500480757e-05
0
LINE
5
109
100
AcDbEntity
8
0
100
AcDbLine
10
-126.69999923705291
20
-8.1999998092625024
30
0
11
-132.10000000000036
21
-8.1999999999993634
31
0
0
ARC
5
110
100
AcDbEntity
8
0
100
AcDbCircle
10
-132.10000000000036
20
-7.6999999999929969
30
0
40
0.50000000000238742
210
0
220
0
230
1
100
AcDbArc
50
180
51
270
0
LINE
5
111
100
AcDbEntity
8
0
100
AcDbLine
10
-132.60000000000275
20
-7.6999999999998181
30
0
11
-132.60000000000218
21
-3.9999999999986362
31
0
0
ARC
5
112
100
AcDbEntity
8
0
100
AcDbCircle
10
-130.39999991861092
20
-4.0000000460376048
30
0
40
2.2000000937244746
210
0
220
0
230
1
100
AcDbArc
50
90.000002119649977
51
179.99999879258175
0
LINE
5
113
100
AcDbEntity
8
0
100
AcDbLine
10
-130.39999999999964
20
-1.799999952313132
30
0
11
-126.70000000000073
21
-1.799999999991968
31
0
0
ARC
5
114
100
AcDbEntity
8
0
100
AcDbCircle
10
-132.09999999999127
20
-32.299999999997908
30
0
40
0.50000000000593803
210
0
220
0
230
1
100
AcDbArc
50
90.000005465318608
51
180
0
LINE
5
115
100
AcDbEntity
8
0
100
AcDbLine
10
-132.10000004768517
20
-31.799999999991972
30
0
11
-126.70000000000073
21
-31.799999999998363
31
0
0
ARC
5
116
100
AcDbEntity
8
0
100
AcDbCircle
10
-126.69999986513176
20
-32.299999674396531
30
0
40
0.4999996743961746
210
0
220
-0
230
1
100
AcDbArc
50
5.0111494863667766e-05
51
90.000015454855529
0
LINE
5
117
100
AcDbEntity
8
0
100
AcDbLine
10
-126.20000019073578
20
-32.299999237059183
30
0
11
-126.19999999999891
21
-37.699999999999818
31
0
0
ARC
5
118
100
AcDbEntity
8
0
100
AcDbCircle
10
-126.70000000000073
20
-37.699999999999818
30
0
40
0.50000000000594014
210
0
220
0
230
1
100
AcDbArc
50
-90
51
0
0
LINE
5
119
100
AcDbEntity
8
0
100
AcDbLine
10
-126.70000000000073
20
-38.200000000005758
30
0
11
-130.39999999999964
21
-38.199999999999363
31
0
0
ARC
5
120
100
AcDbEntity
8
0
100
AcDbCircle
10
-130.39999996636072
20
-35.999999930026974
30
0
40
2.2000000813221385
210
0
220
0
230
1
100
AcDbArc
50
180.00000170754728
51
269.99999912392377
0
LINE
5
121
100
AcDbEntity
8
0
100
AcDbLine
10
-132.60000004768287
20
-35.999999999999091
30
0
11
-132.59999999999721
21
-32.299999999997908
31
0
0
CIRCLE
5
122
100
AcDbEntity
8
0
100
AcDbCircle
10
-114.40000000000055
20
-20
30
0
40
3.3500000000010743
210
0
220
0
230
1
0
CIRCLE
5
123
100
AcDbEntity
8
0
100
AcDbCircle
10
5.5999999999994543
20
-20
30
0
40
3.3500000000010743
210
0
220
0
230
1
0
CIRCLE
5
124
100
AcDbEntity
8
0
100
AcDbCircle
10
-34.400000000000546
20
-20
30
0
40
3.3500000000010743
210
0
220
0
230
1
0
CIRCLE
5
125
100
AcDbEntity
8
0
100
AcDbCircle
10
-74.399999999995998
20
-20
30
0
40
3.3500000000010743
210
0
220
0
230
1
0
LWPOLYLINE
5
126
100
AcDbEntity
8
0
100
AcDbPolyline
90
268
70
1
43
0.0
10
-70.992388155418666
20
-27.599999999997635
10
-77.80761184457333
20
-27.599999999997635
42
0.19891236738105
10
-81.343145750506665
20
-29.064466094068848
10
-83.03553390784117
20
-30.756854251401663
42
0.19891236539103388
10
-84.500000001903572
20
-34.292388119101815
10
-84.500000011139207
20
-35.499999980877419
42
0.41421356639284213
10
-81.999999995960025
20
-37.999999999998835
42
0.41421356254890901
10
-81.499999999005013
20
-37.499999996666702
10
-81.500000009993968
20
-35.850000003326841
42
-0.4142135643230398
10
-81.000000009994437
20
-35.349999999998545
10
-79.499999999998181
20
-35.350000000007647
42
-0.41421355944552446
10
-78.500000010003532
20
-36.349999999997635
10
-78.500000009994437
20
-38.499999999999091
42
-0.41421356237487178
10
-80.000000010004442
20
-40
10
-108.7999999899921
20
-39.999999999990912
42
-0.41421356237487178
10
-110.29999998999301
20
-38.499999999999091
10
-110.29999998999756
20
-36.349999999997635
42
-0.41421355944287103
10
-109.30000000000291
20
-35.349999999998545
10
-107.79999999000211
20
-35.349999999987183
42
-0.41421356432302942
10
-107.29999998999119
20
-35.850000003326841
10
-107.30000000099565
20
-37.499999996666702
42
0.41421356253292591
10
-106.80000000404107
20
-37.999999999995993
42
0.4142135663947068
10
-104.29999998884796
20
-35.499999980877419
10
-104.29999999807976
20
-34.292388119101815
42
0.19891236539214102
10
-105.76446609215054
20
-30.756854251396817
10
-107.45685424949082
20
-29.064466094067502
42
0.19891236738072962
10
-110.99238815541867
20
-27.599999999997635
10
-117.80761184457333
20
-27.59999999999394
42
0.19891236738105003
10
-121.34314575050666
20
-29.064466094068848
10
-123.03553390784367
20
-30.756854251399144
42
0.19891236539103438
10
-124.50000000190357
20
-34.292388119101815
10
-124.50000001113921
20
-35.499999980877419
42
0.41421356639230938
10
-121.99999999596457
20
-37.999999999998835
42
0.41421356254358133
10
-121.49999999900501
20
-37.499999996666702
10
-121.50000000999398
20
-35.84999999999809
42
-0.41421356822823363
10
-120.99999999999909
20
-35.349999999998545
10
-119.50000001000262
20
-35.349999999989457
42
-0.41421356237043899
10
-118.50000001000353
20
-36.349999999997635
10
-118.50000001000353
20
-38.499999999999091
42
-0.41421356041960544
10
-120
20
-40
10
-130.39999999999964
20
-39.999999987582278
42
-0.41421355394974702
10
-134.40000002391602
20
-36.000000011424476
10
-134.4000000124382
20
-25.600000021427007
42
-0.41421356686529975
10
-132.89999998852659
20
-24.100000022339607
10
-130.74999998852513
20
-24.100000022339604
42
-0.41421355944351873
10
-129.74999998852746
20
-25.100000012335109
10
-129.74999998852746
20
-26.60000002234046
42
-0.41421356432305279
10
-130.24999999185502
20
-27.100000022339295
10
-131.89999998518806
20
-27.100000011334409
42
0.41421356255157288
10
-132.39999998852375
20
-27.600000008308179
42
0.41421356639230938
10
-129.89999996941202
20
-30.100000023490914
10
-128.69238810762505
20
-30.100000014261816
42
0.1989123653921071
10
-125.15685423992652
20
-28.635533920191634
10
-123.46446608259173
20
-26.943145762852289
42
0.19891236738031767
10
-121.99999998853016
20
-23.407611856914151
10
-121.99999998853016
20
-16.592388167770856
42
0.19891236738017934
10
-123.46446608259627
20
-13.056854261837268
10
-125.15685423993108
20
-11.36446610450021
42
0.19891236539118767
10
-128.69238810762963
20
-9.9000000104373154
10
-129.8999999694166
20
-9.9000000011991229
42
0.41421356639204299
10
-132.3999999885319
20
-12.400000016383137
42
0.41421356254091746
10
-131.89999998519622
20
-12.900000013338717
10
-130.24999998853443
20
-12.900000002338386
42
-0.41421356822956162
10
-129.74999998853559
20
-13.400000012334834
10
-129.74999998853559
20
-14.900000002338123
42
-0.41421356236443557
10
-130.74999998853028
20
-15.900000002330534
10
-132.89999998853173
20
-15.90000000233055
42
-0.41421356042049035
10
-134.39999998853079
20
-14.400000012322272
10
-134.39999997612634
20
-4.0000000123249109
42
-0.41421355394499015
10
-130.39999999999964
20
1.1477823e-08
10
-120.00000000999535
20
2.2787327580431338e-12
42
-0.41421356237131324
10
-118.50000001000353
20
-1.499999999998636
10
-118.50000001000353
20
-3.6499999999978172
42
-0.41421355944286176
10
-119.49999999999818
20
-4.6499999999969077
10
-121.00000001000353
20
-4.6500000000037209
42
-0.41421356432038442
10
-121.5000000100008
20
-4.1499999966640644
10
-121.49999999900089
20
-2.5000000033287511
42
0.41421356254091779
10
-121.99999999596457
20
-2.0000000000004552
42
0.41421356639097745
10
-124.50000001114404
20
-4.5000000191089384
10
-124.50000000190826
20
-5.7076118808981837
42
0.19891236539083268
10
-123.035533907846
20
-9.2431457485940882
10
-121.34314575050237
20
-10.935533905924595
42
0.19891236737999174
10
-117.80761184457333
20
-12.399999999997817
10
-110.99238815541867
20
-12.399999999989431
42
0.19891236737972728
10
-107.45685424949443
20
-10.935533905928878
10
-105.76446609215591
20
-9.2431457485887165
42
0.19891236539166809
10
-104.29999999807933
20
-5.7076118808981846
10
-104.29999998884469
20
-4.5000000191089393
42
0.41421356639310858
10
-106.80000000404107
20
-1.999999999997613
42
0.41421356254358166
10
-107.30000000100063
20
-2.5000000033287511
10
-107.29999998999801
20
-4.1499999999973634
42
-0.41421356822822941
10
-107.800000000002
20
-4.6499999999969077
10
-109.29999998999847
20
-4.6499999999968997
42
-0.41421356236910739
10
-110.29999998999301
20
-3.6499999999978172
10
-110.29999998999983
20
-1.499999999998636
42
-0.41421356042138097
10
-108.79999999999654
20
0
10
-80
20
2.2867818749716662e-12
42
-0.41421356041960194
10
-78.500000010003532
20
-1.499999999998636
10
-78.500000009998985
20
-3.6499999999978172
42
-0.41421356236909523
10
-79.500000009993528
20
-4.6499999999969077
10
-80.999999999999091
20
-4.6500000000037227
42
-0.41421356822822941
10
-81.500000010000804
20
-4.1499999999973634
10
-81.499999998990802
20
-2.5000000033287511
42
0.41421356254624547
10
-81.999999995960025
20
-2.0000000000004552
42
0.41421356639151019
10
-84.500000011148586
20
-4.5000000191089384
10
-84.500000001904709
20
-5.7076118808981837
42
0.19891236539083268
10
-83.035533907846002
20
-9.2431457485940882
10
-81.343145750502373
20
-10.935533905924595
42
0.19891236737999174
10
-77.80761184457333
20
-12.399999999997817
10
-70.992388155418666
20
-12.399999999992984
42
0.19891236737972726
10
-67.456854249494427
20
-10.935533905928878
10
-65.764466092155914
20
-9.2431457485887165
42
0.19891236539166809
10
-64.299999998079329
20
-5.7076118808981846
10
-64.299999988844689
20
-4.5000000191089393
42
0.41421356639310858
10
-66.800000004041067
20
-1.999999999997613
42
0.41421356253559011
10
-67.300000001000626
20
-2.5000000033287511
10
-67.299999989998014
20
-4.1499999999973634
42
-0.41421356822822419
10
-67.800000000002001
20
-4.6499999999969077
10
-69.299999989998469
20
-4.6500000000060009
42
-0.41421356236909879
10
-70.299999990002107
20
-3.6499999999978172
10
-70.299999989999833
20
-1.4999999999986366
42
-0.41421356042049762
10
-68.800000000001091
20
0
10
-39.999999999999993
20
2.2679080835530385e-12
42
-0.41421356042138374
10
-38.500000009994437
20
-1.499999999998636
10
-38.50000001000808
20
-3.6499999999978172
42
-0.41421356236910123
10
-39.500000010002623
20
-4.6499999999969077
10
-40.999999999999091
20
-4.6499999999991797
42
-0.41421356822824207
10
-41.500000009996256
20
-4.1499999999973634
10
-41.499999999004444
20
-2.5000000033287511
42
0.41421356254091779
10
-41.999999995964572
20
-1.999999999996902
42
0.41421356639097745
10
-44.500000011148586
20
-4.5000000191089384
10
-44.500000001904709
20
-5.7076118808981837
42
0.19891236539083268
10
-43.035533907846002
20
-9.2431457485940882
10
-41.343145750500099
20
-10.93553390592686
42
0.19891236737982526
10
-37.80761184457333
20
-12.399999999997817
10
-30.992388155418666
20
-12.399999999992984
42
0.19891236737972726
10
-27.456854249494427
20
-10.935533905928878
10
-25.764466092153398
20
-9.2431457485912318
42
0.19891236539166832
10
-24.299999998079329
20
-5.7076118808981846
10
-24.299999988841137
20
-4.5000000191089393
42
0.41421356639310858
10
-26.800000004041067
20
-1.999999999997613
42
0.41421356254358166
10
-27.300000001000626
20
-2.5000000033287511
10
-27.299999989998014
20
-4.1499999999973634
42
-0.41421356822823202
10
-27.800000000002001
20
-4.6499999999969077
10
-29.299999989998469
20
-4.6500000000060053
42
-0.41421356236909751
10
-30.299999990002107
20
-3.6499999999978172
10
-30.299999989999833
20
-1.4999999999986366
42
-0.4142135604204944
10
-28.800000000001091
20
0
10
-5.22053863653259e-16
20
2.2740143101884769e-12
42
-0.41421356041960644
10
1.499999989996468
20
-1.499999999998636
10
1.4999999899919185
20
-3.6499999999978172
42
-0.41421356236909923
10
0.49999998999737683
20
-4.6499999999969077
10
-0.99999999999909095
20
-4.6500000000037307
42
-0.41421356822823324
10
-1.500000010000804
20
-4.1499999999973634
10
-1.4999999990044448
20
-2.5000000033287511
42
0.41421356254091768
10
-1.999999995964572
20
-1.999999999996902
42
0.41421356639097745
10
-4.5000000111485861
20
-4.5000000191089384
10
-4.5000000019082629
20
-5.7076118808981837
42
0.19891236539083268
10
-3.035533907846002
20
-9.2431457485940882
10
-1.3431457505023758
20
-10.935533905924588
42
0.19891236737999229
10
2.19238815542667
20
-12.399999999997817
10
9.0076118445813336
20
-12.399999999992984
42
0.19891236737972726
10
12.543145750505573
20
-10.935533905928878
10
14.23553390784409
20
-9.2431457485887201
42
0.19891236539166837
10
15.700000001920671
20
-5.7076118808981846
10
15.700000011158863
20
-4.5000000191089393
42
0.41421356639310858
10
13.199999995958933
20
-1.999999999997613
42
0.41421356254358166
10
12.699999998999374
20
-2.5000000033287511
10
12.700000009997439
20
-4.1499999966640644
42
-0.4142135643256965
10
12.200000009997893
20
-4.6499999999969077
10
10.69999999999709
20
-4.6500000000014543
42
-0.41421355944286176
10
9.7000000099978934
20
-3.6499999999978172
10
9.7000000100001671
20
-1.4999999999986366
42
-0.41421356237309515
10
11.200000009998803
20
0
10
21.600000000003092
20
0
42
-0.41421356237459345
10
25.599999999999454
20
-3.9999999999986358
10
25.600000000001728
20
-14.399999999995998
42
-0.41421356042227059
10
24.099999999998545
20
-15.899999989999287
10
21.94999999999709
20
-15.899999990006112
42
-0.41421356236443624
10
20.949999999997999
20
-14.899999990000197
10
20.950000000013915
20
-13.399999999996908
42
-0.41421356822423266
10
21.450000000004366
20
-12.899999989999742
10
23.099999996675251
20
-12.900000000995107
42
0.41421356253558977
10
23.600000000003547
20
-12.400000004035974
42
0.41421356639310852
10
21.099999980879147
20
-9.8999999888496859
10
19.892388119105817
20
-9.8999999980932767
42
0.19891236539070009
10
16.35685425140764
20
-11.36446609215227
10
14.664466094075816
20
-13.056854249492302
42
0.19891236738084817
10
13.200000000001637
20
-16.592388155424942
10
13.200000000008316
20
-23.407611844568237
42
0.19891236738098669
10
14.66446609407285
20
-26.943145750503845
10
16.356854251410262
20
-28.635533907840561
42
0.19891236539161933
10
19.892388119105817
20
-30.100000001914395
10
21.099999980879147
20
-30.100000011150314
42
0.41421356639337492
10
23.600000000005394
20
-27.599999995964026
42
0.4142135625462452
10
23.099999996675251
20
-27.099999998993098
10
21.450000003337664
20
-27.1000000100139
42
-0.41421356432036815
10
20.949999999997999
20
-26.600000009998439
10
20.950000000000273
20
-25.099999999993088
42
-0.41421355944353305
10
21.94999999999709
20
-24.100000009998439
10
24.099999999998545
20
-24.100000009998443
42
-0.41421356237487178
10
25.599999999999454
20
-25.600000009999349
10
25.600000000006276
20
-35.999999999999091
42
-0.41421356237426049
10
21.600000000003092
20
-40
10
11.199999999998909
20
-40
42
-0.41421356042049384
10
9.7000000099978934
20
-38.499999999999091
10
9.7000000100115376
20
-36.349999999997635
42
-0.41421356237043055
10
10.700000010001531
20
-35.349999999998545
10
12.199999999997999
20
-35.349999999996264
42
-0.41421356823089489
10
12.700000009999712
20
-35.84999999999809
10
12.699999999004348
20
-37.499999996666702
42
0.41421356253292591
10
13.199999995958933
20
-37.99999999999244
42
0.4142135663947068
10
15.700000011152042
20
-35.499999980877419
10
15.700000001923797
20
-34.292388119101815
42
0.19891236539214105
10
14.235533907849458
20
-30.756854251396817
10
12.543145750510565
20
-29.06446609406386
42
0.19891236738064666
10
9.0076118445813336
20
-27.599999999997635
10
2.1923881554266704
20
-27.59999999999394
42
0.19891236738091159
10
-1.3431457505066651
20
-29.064466094068848
10
-3.0355339078436772
20
-30.75685425139914
42
0.19891236539103449
10
-4.5000000019035724
20
-34.292388119101815
10
-4.5000000111427596
20
-35.499999980877419
42
0.41421356639230938
10
-1.999999995964572
20
-37.999999999998835
42
0.41421356254358122
10
-1.499999999005013
20
-37.499999996666702
10
-1.500000009993983
20
-35.850000003326841
42
-0.41421356431770473
10
-1.0000000100035322
20
-35.349999999998545
10
0.50000000000181866
20
-35.349999999998545
42
-0.41421355944286165
10
1.499999989996468
20
-36.349999999997635
10
1.4999999900055632
20
-38.499999999999091
42
-0.41421356237487106
10
-1.0004441719502211e-08
20
-40
10
-28.799999990001197
20
-40
42
-0.41421356237309681
10
-30.299999990002107
20
-38.499999999999091
10
-30.299999989997559
20
-36.349999999997635
42
-0.41421355944285931
10
-29.30000000000291
20
-35.349999999998545
10
-27.799999990002107
20
-35.349999999996271
42
-0.41421356432303197
10
-27.299999990000288
20
-35.850000003326841
10
-27.300000000995652
20
-37.499999996666702
42
0.41421356253292591
10
-26.800000004041067
20
-37.99999999999244
42
0.4142135663947068
10
-24.299999988847958
20
-35.499999980877419
10
-24.299999998076203
20
-34.292388119101815
42
0.19891236539214105
10
-25.764466092150542
20
-30.756854251396817
10
-27.456854249489435
20
-29.06446609406386
42
0.19891236738064666
10
-30.992388155418666
20
-27.599999999997635
10
-37.80761184457333
20
-27.59999999999394
42
0.19891236738088289
10
-41.343145750502117
20
-29.064466094068848
10
-43.035533907841163
20
-30.756854251401652
42
0.19891236539103455
10
-44.500000001903572
20
-34.292388119101815
10
-44.50000001114276
20
-35.499999980877419
42
0.41421356639230938
10
-41.999999995964572
20
-37.999999999998835
42
0.41421356254358133
10
-41.499999999005013
20
-37.499999996666702
10
-41.500000009993983
20
-35.850000003326841
42
-0.41421356431769651
10
-41.000000010003532
20
-35.349999999998545
10
-39.499999999998181
20
-35.34999999998945
42
-0.41421355944285931
10
-38.500000009994437
20
-36.349999999997635
10
-38.500000009994444
20
-38.499999999999091
42
-0.41421356237309592
10
-40.000000009995347
20
-40
10
-68.799999990001197
20
-40
42
-0.41421356237309592
10
-70.299999990002107
20
-38.499999999999091
10
-70.299999989997559
20
-36.349999999997635
42
-0.41421355944285798
10
-69.30000000000291
20
-35.349999999998545
10
-67.799999990002107
20
-35.349999999996264
42
-0.4142135643230242
10
-67.299999990000288
20
-35.850000003326841
10
-67.300000000991105
20
-37.499999996666702
42
0.41421356253026209
10
-66.800000004041067
20
-37.99999999999244
42
0.4142135663947068
10
-64.299999988847958
20
-35.499999980877419
10
-64.299999998079755
20
-34.292388119101815
42
0.19891236539214102
10
-65.764466092150542
20
-30.756854251396817
10
-67.456854249489439
20
-29.06446609406386
42
0.19891236738064666
0
LWPOLYLINE
5
127
100
AcDbEntity
8
0
100
AcDbPolyline
90
24
70
1
43
0.0
10
-4.7355346468059594
20
-11.785785124001693
42
-0.19891225683605718
10
-6.1999992370552084
20
-8.2502527218821324
10
-6.1999992370543566
20
-4.499999999998181
42
0.41421356237256235
10
-8.6999992370510881
20
-1.999999999998181
10
-20.100000762936361
20
-1.999999999996902
42
0.41421356237256113
10
-22.600000762931813
20
-4.499999999998181
10
-22.6000007629324
20
-8.250252721882136
42
-0.1989122568370599
10
-24.064465353189917
20
-11.785785124002359
10
-25.185535409749068
20
-12.906856134226675
42
0.19891225683640545
10
-26.649999999999636
20
-16.442388536352155
10
-26.649999999998641
20
-23.557611463641024
42
0.19891214629421528
10
-25.185536913550095
20
-27.093142361950413
10
-24.064463849387909
20
-28.214217333479333
42
-0.19891214629649862
10
-22.600000762936361
20
-31.749748231791273
10
-22.600000762933092
20
-35.499999999999545
42
0.41421356237256124
10
-20.100000762936361
20
-37.999999999999545
10
-8.6999992370510881
20
-38.000000000000824
42
0.41421356237256146
10
-6.1999992370556356
20
-35.499999999999545
10
-6.1999992370518093
20
-31.749748231791273
42
-0.19891214629532841
10
-4.7355361506106419
20
-28.214217333481884
10
-3.6144630864459093
20
-27.093142361950949
42
0.19891214629515541
10
-2.1500000000014552
20
-23.557611463641024
10
-2.149999999995913
20
-16.442388536352151
42
0.19891225683697619
10
-3.614464590250464
20
-12.906856134234204
0
LWPOLYLINE
5
128
100
AcDbEntity
8
0
100
AcDbPolyline
90
24
70
1
43
0.0
10
-84.735534646806201
20
-11.785785124001931
42
-0.19891225683588995
10
-86.199999237054215
20
-8.2502527218821324
10
-86.199999237049809
20
-4.499999999998181
42
0.41421356237309465
10
-88.699999237051088
20
-1.999999999998181
10
-100.10000076293636
20
-1.999999999996902
42
0.41421356237256352
10
-102.60000076293636
20
-4.499999999998181
10
-102.6000007629324
20
-8.250252721882136
42
-0.19891225683705979
10
-104.06446535318992
20
-11.785785124002359
10
-105.18553540974199
20
-12.906856134224636
42
0.19891225683674266
10
-106.64999999999964
20
-16.442388536352155
10
-106.64999999999509
20
-23.557611463641027
42
0.19891214629421428
10
-105.1855369135501
20
-27.093142361950413
10
-104.06446384938791
20
-28.214217333479343
42
-0.19891214629649803
10
-102.60000076293636
20
-31.749748231791273
10
-102.60000076293309
20
-35.499999999999545
42
0.41421356237256329
10
-100.10000076293636
20
-37.999999999999545
10
-88.699999237051088
20
-38.000000000000824
42
0.41421356237309453
10
-86.199999237051088
20
-35.499999999999545
10
-86.199999237051813
20
-31.749748231791273
42
-0.19891214629532841
10
-84.735536150610642
20
-28.214217333481884
10
-83.614463086445895
20
-27.093142361950953
42
0.19891214629515311
10
-82.150000000001455
20
-23.557611463641024
10
-82.149999999995913
20
-16.442388536352151
42
0.19891225683697253
10
-83.614464590250464
20
-12.906856134234204
0
LWPOLYLINE
5
129
100
AcDbEntity
8
0
100
AcDbPolyline
90
24
70
1
43
0.0
10
-44.735534646808475
20
-11.785785124004205
42
-0.19891225683605718
10
-46.199999237058762
20
-8.2502527218821324
10
-46.199999237054357
20
-4.499999999998181
42
0.41421356237256085
10
-48.699999237051088
20
-1.999999999998181
10
-60.100000762931813
20
-1.999999999996902
42
0.41421356237256063
10
-62.600000762931813
20
-4.499999999998181
10
-62.600000762932396
20
-8.250252721882136
42
-0.1989122568370599
10
-64.064465353189917
20
-11.785785124002359
10
-65.18553540973997
20
-12.90685613423577
42
0.19891225683573657
10
-66.649999999999636
20
-16.442388536352155
10
-66.649999999995089
20
-23.557611463641027
42
0.19891214629421375
10
-65.185536913550095
20
-27.093142361950413
10
-64.064463849387906
20
-28.214217333479333
42
-0.19891214629649862
10
-62.600000762936361
20
-31.749748231791273
10
-62.600000762928545
20
-35.499999999999545
42
0.41421356237256068
10
-60.100000762931813
20
-37.999999999999545
10
-48.699999237051088
20
-38.000000000000824
42
0.41421356237256068
10
-46.199999237051088
20
-35.499999999999545
10
-46.199999237049141
20
-31.749748231791269
42
-0.19891214629499396
10
-44.735536150610642
20
-28.214217333481884
10
-43.614463086445909
20
-27.093142361950946
42
0.19891214629515508
10
-42.150000000001455
20
-23.557611463641024
10
-42.149999999995913
20
-16.442388536352151
42
0.19891225683697775
10
-43.614464590250464
20
-12.906856134234204
0
LWPOLYLINE
5
130
100
AcDbEntity
8
0
100
AcDbPolyline
90
8
70
1
43
0.0
10
17.399999999998247
20
-2.2999999523153751
42
-0.41421353443865233
10
17.899999999999636
20
-1.7999999999919682
10
21.600000000003092
20
-1.7999999999959426
42
-0.41421356237582002
10
23.800000000003507
20
-3.9999999999986358
10
23.80000000000166
20
-7.6999999999998181
42
-0.41421356237309048
10
23.299999999999272
20
-8.2000000000022055
10
17.899999237065462
20
-8.1999999999919613
42
-0.41421311546466355
10
17.400000000002365
20
-7.6999999999998181
0
LWPOLYLINE
5
131
100
AcDbEntity
8
0
100
AcDbPolyline
90
8
70
1
43
0.0
10
23.30000004768408
20
-31.799999999995524
42
-0.41421353443998199
10
23.80000000000166
20
-32.299999999997908
10
23.800000000003507
20
-35.999999999999091
42
-0.41421356237521634
10
21.600000000003092
20
-38.199999999997232
10
17.899999999999636
20
-38.19999999999866
42
-0.41421356237309764
10
17.400000000000801
20
-37.699999999999818
10
17.400000000004937
20
-32.299999237059183
42
-0.41421311545800193
10
17.899999999999636
20
-31.799999999995805
0
LWPOLYLINE
5
132
100
AcDbEntity
8
0
100
AcDbPolyline
90
8
70
1
43
0.0
10
-126.70000000000073
20
-1.7999999999919616
42
-0.41421353444129588
10
-126.19999999999479
20
-2.2999999523153747
10
-126.19999999999636
20
-7.6999999999998181
42
-0.41421338518845774
10
-126.69999923705291
20
-8.1999998092625024
10
-132.10000000000036
20
-8.1999999999953914
42
-0.41421356236908236
10
-132.60000000000275
20
-7.6999999999998181
10
-132.59999999999806
20
-3.9999999999986366
42
-0.41421354704779068
10
-130.39999999999964
20
-1.7999999523131318
0
LWPOLYLINE
5
133
100
AcDbEntity
8
0
100
AcDbPolyline
90
8
70
1
43
0.0
10
-132.59999999999718
20
-32.299999999997908
42
-0.41421353443465686
10
-132.10000004768517
20
-31.799999999991972
10
-126.70000000000073
20
-31.80000000000036
42
-0.4142133851911034
10
-126.20000019073578
20
-32.299999237059183
10
-126.19999999999477
20
-37.699999999999818
42
-0.41421356237308721
10
-126.70000000000073
20
-38.200000000005758
10
-130.39999999999964
20
-38.199999999997516
42
-0.41421354704748731
10
-132.60000004768287
20
-35.999999999999091
0
CIRCLE
5
134
100
AcDbEntity
8
0
100
AcDbCircle
10
-114.40000000000055
20
-20
30
0
40
3.3500000000010743
210
0
220
0
230
1
0
CIRCLE
5
135
100
AcDbEntity
8
0
100
AcDbCircle
10
5.5999999999994543
20
-20
30
0
40
3.3500000000010743
210
0
220
0
230
1
0
CIRCLE
5
136
100
AcDbEntity
8
0
100
AcDbCircle
10
-34.400000000000546
20
-20
30
0
40
3.3500000000010743
210
0
220
0
230
1
0
CIRCLE
5
137
100
AcDbEntity
8
0
100
AcDbCircle
10
-74.399999999995998
20
-20
30
0
40
3.3500000000010743
210
0
220
0
230
1
0
ENDSEC
0
SECTION
2
OBJECTS
0
DICTIONARY
5
C
100
AcDbDictionary
3
ACAD_GROUP
350
D
3
ACAD_MLINESTYLE
350
17
0
DICTIONARY
5
D
100
AcDbDictionary
0
DICTIONARY
5
1A
330
C
100
AcDbDictionary
0
DICTIONARY
5
17
100
AcDbDictionary
0
ENDSEC
0
EOF
