0
SECTION
2
HEADER
9
$INSUNITS
70
4
9
$ACADVER
1
AC1014
9
$HANDSEED
5
FFFF
0
ENDSEC
0
SECTION
2
TABLES
0
TABLE
2
VPORT
5
8
100
AcDbSymbolTable
0
ENDTAB
0
TABLE
2
LTYPE
5
5
100
AcDbSymbolTable
0
LTYPE
5
14
100
AcDbSymbolTableRecord
100
AcDbLinetypeTableRecord
2
BYBLOCK
70
0
0
LTYPE
5
15
100
AcDbSymbolTableRecord
100
AcDbLinetypeTableRecord
2
BYLAYER
70
0
0
ENDTAB
0
TABLE
2
LAYER
5
2
100
AcDbSymbolTable
70
2
0
LAYER
5
50
100
AcDbSymbolTableRecord
100
AcDbLayerTableRecord
2
0
70
0
6
CONTINUOUS
0
ENDTAB
0
TABLE
2
STYLE
5
3
100
AcDbSymbolTable
70
1
0
STYLE
5
11
100
AcDbSymbolTableRecord
100
AcDbTextStyleTableRecord
2
STANDARD
70
0
0
ENDTAB
0
TABLE
2
VIEW
5
6
100
AcDbSymbolTable
70
0
0
ENDTAB
0
TABLE
2
UCS
5
7
100
AcDbSymbolTable
70
0
0
ENDTAB
0
TABLE
2
APPID
5
9
100
AcDbSymbolTable
70
2
0
APPID
5
12
100
AcDbSymbolTableRecord
100
AcDbRegAppTableRecord
2
ACAD
70
0
0
ENDTAB
0
TABLE
2
DIMSTYLE
5
A
100
AcDbSymbolTable
70
1
0
ENDTAB
0
TABLE
2
BLOCK_RECORD
5
1
100
AcDbSymbolTable
70
1
0
BLOCK_RECORD
5
1F
100
AcDbSymbolTableRecord
100
AcDbBlockTableRecord
2
*MODEL_SPACE
0
BLOCK_RECORD
5
1B
100
AcDbSymbolTableRecord
100
AcDbBlockTableRecord
2
*PAPER_SPACE
0
ENDTAB
0
ENDSEC
0
SECTION
2
BLOCKS
0
BLOCK
5
20
100
AcDbEntity
100
AcDbBlockBegin
2
*MODEL_SPACE
0
ENDBLK
5
21
100
AcDbEntity
100
AcDbBlockEnd
0
BLOCK
5
1C
100
AcDbEntity
100
AcDbBlockBegin
2
*PAPER_SPACE
0
ENDBLK
5
1D
100
AcDbEntity
100
AcDbBlockEnd
0
ENDSEC
0
SECTION
2
ENTITIES
0
LWPOLYLINE
5
100
100
AcDbEntity
8
0
100
AcDbPolyline
90
320
70
1
43
0.0
10
19195.752656474087
20
15797.360876583753
42
0.41421356237353901
10
19194.252656474087
20
15798.860876583749
10
19192.102656474086
20
15798.860876583751
42
0.4142135594441938
10
19191.10265647409
20
15797.860876593753
10
19191.102656474086
20
15796.360876583751
42
0.41421356431903622
10
19191.602656477426
20
15795.860876583756
10
19193.252656470759
20
15795.860876594752
42
-0.41421356255157288
10
19193.752656474095
20
15795.360876597788
42
-0.41421356639204299
10
19191.25265645497
20
15792.860876582599
10
19190.0450445932
20
15792.860876591849
42
-0.1989123653921816
10
19186.509510725507
20
15794.325342685905
10
19184.817122568165
20
15796.017730843243
42
-0.19891236738070148
10
19183.352656474097
20
15799.553264749178
10
19183.352656474097
20
15806.368488438329
42
-0.19891236738021431
10
19184.817122568162
20
15809.904022344255
10
19186.5095107255
20
15811.596410501597
42
-0.19891236539259952
10
19190.0450445932
20
15813.06087659566
10
19191.25265645497
20
15813.060876604901
42
-0.41421356639177659
10
19193.752656474098
20
15810.560876589716
42
-0.41421356255556863
10
19193.252656470759
20
15810.060876592745
10
19191.60265647409
20
15810.060876603748
42
0.4142135682269017
10
19191.10265647409
20
15809.560876593754
10
19191.102656474086
20
15808.060876603749
42
0.41421356236443752
10
19192.102656474086
20
15807.060876603759
10
19194.252656474087
20
15807.060876603748
42
0.41421356042093821
10
19195.752656474091
20
15808.56087659375
10
19195.752656462122
20
15818.960876593756
42
0.41421355394334719
10
19191.752656474087
20
15822.96087661759
10
19181.352656484094
20
15822.960876593754
42
0.4142135623708752
10
19179.852656484094
20
15821.460876593756
10
19179.852656484094
20
15819.310876593754
42
0.41421355944086402
10
19180.852656474086
20
15818.31087659375
10
19182.352656484094
20
15818.310876593754
42
0.41421356433102352
10
19182.852656484098
20
15818.81087659709
10
19182.852656473093
20
15820.460876590421
42
-0.41421356253692171
10
19183.352656470048
20
15820.960876593748
42
-0.41421356639417406
10
19185.852656485236
20
15818.460876574629
10
19185.852656476018
20
15817.253264712854
42
-0.19891236539202289
10
19184.388190381946
20
15813.717730845148
10
19182.695802224604
20
15812.025342687813
42
-0.19891236737988005
10
19179.160268318672
20
15810.560876593754
10
19172.345044629525
20
15810.560876593754
42
-0.1989123673811885
10
19168.809510723586
20
15812.025342687821
10
19167.117122566247
20
15813.717730845156
42
-0.19891236539177223
10
19165.652656472179
20
15817.253264712854
10
19165.652656462946
20
15818.460876574629
42
-0.41421356639284213
10
19168.152656478131
20
15820.960876593756
42
-0.41421356254358133
10
19168.652656475093
20
15820.460876590421
10
19168.652656464088
20
15818.810876593754
42
0.41421356822556976
10
19169.152656474085
20
15818.310876593754
10
19170.652656464088
20
15818.31087659375
42
0.41421356237309503
10
19171.652656464092
20
15819.310876593754
10
19171.652656464099
20
15821.460876593756
42
0.41421356042093821
10
19170.152656474096
20
15822.960876593752
10
19141.352656474086
20
15822.960876593754
42
0.41421356041960627
10
19139.852656484101
20
15821.460876593756
10
19139.852656484094
20
15819.310876593754
42
0.41421356237309503
10
19140.852656484098
20
15818.310876593752
10
19142.352656474097
20
15818.31087659375
42
0.4142135682269017
10
19142.852656484098
20
15818.810876593754
10
19142.8526564731
20
15820.460876590421
42
-0.41421356253292591
10
19143.352656470048
20
15820.960876593746
42
-0.4142135663949732
10
19145.852656485244
20
15818.460876574629
10
19145.85265647601
20
15817.253264712854
42
-0.19891236539210647
10
19144.388190381938
20
15813.71773084515
10
19142.695802224604
20
15812.025342687813
42
-0.19891236737988005
10
19139.160268318672
20
15810.560876593754
10
19132.345044629525
20
15810.56087659375
42
-0.19891236738015936
10
19128.809510723589
20
15812.025342687823
10
19127.117122566247
20
15813.717730845156
42
-0.19891236539101406
10
19125.652656472179
20
15817.253264712854
10
19125.652656462949
20
15818.460876574629
42
-0.41421356639284213
10
19128.152656478131
20
15820.960876593756
42
-0.41421356254757707
10
19128.6526564751
20
15820.460876590421
10
19128.652656464088
20
15818.81087659709
42
0.41421356432702777
10
19129.152656464095
20
15818.310876593752
10
19130.652656474085
20
15818.310876593754
42
0.41421355944219596
10
19131.652656464084
20
15819.310876593754
10
19131.652656464095
20
15821.460876593756
42
0.41421356237309503
10
19130.152656464088
20
15822.960876593752
10
19101.352656484094
20
15822.960876593754
42
0.4142135623708752
10
19099.852656484094
20
15821.460876593756
10
19099.852656484094
20
15819.310876593754
42
0.41421355944086402
10
19100.852656474086
20
15818.310876593752
10
19102.352656484094
20
15818.31087659375
42
0.41421356433102352
10
19102.852656484101
20
15818.81087659709
10
19102.852656473093
20
15820.460876590421
42
-0.41421356253692171
10
19103.352656470048
20
15820.960876593748
42
-0.41421356639417406
10
19105.852656485236
20
15818.460876574629
10
19105.85265647601
20
15817.253264712854
42
-0.19891236539210647
10
19104.388190381938
20
15813.71773084515
10
19102.695802224604
20
15812.025342687813
42
-0.19891236737988005
10
19099.160268318672
20
15810.560876593754
10
19092.345044629525
20
15810.56087659375
42
-0.19891236738015936
10
19088.809510723589
20
15812.025342687823
10
19087.117122566247
20
15813.717730845156
42
-0.19891236539177223
10
19085.652656472179
20
15817.253264712854
10
19085.652656462949
20
15818.460876574629
42
-0.41421356639284213
10
19088.152656478131
20
15820.960876593761
42
-0.41421356254358133
10
19088.652656475097
20
15820.460876590421
10
19088.652656464088
20
15818.810876593754
42
0.41421356822556976
10
19089.152656474085
20
15818.310876593754
10
19090.652656464088
20
15818.31087659375
42
0.41421356237309503
10
19091.652656464092
20
15819.310876593754
10
19091.652656464095
20
15821.460876593756
42
0.41421356042315804
10
19090.152656474085
20
15822.960876593752
10
19061.352656474086
20
15822.960876593754
42
0.41421356041960627
10
19059.852656484101
20
15821.460876593756
10
19059.852656484094
20
15819.310876593754
42
0.41421356237309503
10
19060.852656484094
20
15818.310876593752
10
19062.352656474086
20
15818.310876593754
42
0.41421356823356131
10
19062.852656484094
20
15818.810876593754
10
19062.852656473093
20
15820.460876590421
42
-0.41421356253692171
10
19063.352656470048
20
15820.960876593748
42
-0.4142135663949732
10
19065.852656485244
20
15818.460876574629
10
19065.85265647601
20
15817.253264712854
42
-0.19891236539210647
10
19064.388190381938
20
15813.71773084515
10
19062.695802224604
20
15812.025342687823
42
-0.19891236738071577
10
19059.160268318672
20
15810.560876593756
10
19052.345044629525
20
15810.56087659375
42
-0.19891236738015936
10
19048.809510723589
20
15812.025342687823
10
19047.117122566247
20
15813.71773084515
42
-0.19891236539101406
10
19045.652656472172
20
15817.253264712854
10
19045.652656462946
20
15818.460876574629
42
-0.41421356639284213
10
19048.152656478131
20
15820.960876593756
42
-0.41421356254358133
10
19048.652656475093
20
15820.460876590421
10
19048.652656464088
20
15818.81087659709
42
0.41421356432702777
10
19049.152656464095
20
15818.310876593754
10
19050.652656474085
20
15818.310876593749
42
0.41421355944219596
10
19051.652656464088
20
15819.310876593754
10
19051.652656464095
20
15821.460876593756
42
0.41421356237309503
10
19050.152656464088
20
15822.960876593752
10
19039.752656474091
20
15822.960876605719
42
0.41421355394318071
10
19035.752656497938
20
15818.960876593756
10
19035.752656474087
20
15808.56087659375
42
0.41421356042049423
10
19037.252656474087
20
15807.060876603755
10
19039.402656474085
20
15807.060876603748
42
0.41421356236909923
10
19040.402656474085
20
15808.060876603749
10
19040.402656474085
20
15809.560876593754
42
0.41421356823222938
10
19039.902656474085
20
15810.060876603744
10
19038.252656477423
20
15810.060876592743
42
-0.41421356255423669
10
19037.752656474087
20
15810.560876589716
42
-0.41421356639177659
10
19040.252656493212
20
15813.060876604903
10
19041.460268355004
20
15813.060876595668
42
-0.19891236539180085
10
19044.995802222693
20
15811.596410501597
10
19046.688190380039
20
15809.904022344261
42
-0.19891236737979651
10
19048.1526564741
20
15806.368488438329
10
19048.152656474093
20
15799.553264749178
42
-0.19891236737982512
10
19046.688190380028
20
15796.017730843249
10
19044.995802222689
20
15794.325342685908
42
-0.19891236539146662
10
19041.460268355004
20
15792.860876591842
10
19040.252656493212
20
15792.860876582599
42
-0.41421356639204299
10
19037.752656474091
20
15795.360876597788
42
-0.41421356255024094
10
19038.252656477423
20
15795.860876594747
10
19039.90265647076
20
15795.860876583754
42
0.41421356431770429
10
19040.402656474089
20
15796.360876583751
10
19040.402656474085
20
15797.860876593753
42
0.41421355944752364
10
19039.402656474085
20
15798.860876583751
10
19037.252656474087
20
15798.860876583751
42
0.41421356237309503
10
19035.752656474087
20
15797.360876583753
10
19035.752656474087
20
15768.560876603751
42
0.41421356237442697
10
19037.252656474087
20
15767.060876603748
10
19039.402656474085
20
15767.060876603748
42
0.41421355945018745
10
19040.402656474093
20
15768.060876593754
10
19040.402656474085
20
15769.560876603748
42
0.41421356432170009
10
19039.90265647076
20
15770.060876603748
10
19038.252656477423
20
15770.060876592743
42
-0.41421356255423669
10
19037.752656474084
20
15770.560876589716
42
-0.41421356639177659
10
19040.252656493212
20
15773.060876604906
10
19041.460268355004
20
15773.060876595673
42
-0.19891236539171728
10
19044.995802222697
20
15771.596410501603
10
19046.688190380039
20
15769.904022344261
42
-0.19891236737979651
10
19048.1526564741
20
15766.368488438329
10
19048.1526564741
20
15759.553264749178
42
-0.19891236738064652
10
19046.688190380028
20
15756.017730843247
10
19044.995802222689
20
15754.325342685908
42
-0.19891236539146662
10
19041.460268355004
20
15752.860876591842
10
19040.252656493212
20
15752.860876582599
42
-0.41421356639204299
10
19037.752656474087
20
15755.360876597788
42
-0.41421356255024094
10
19038.252656477423
20
15755.860876594752
10
19039.902656474085
20
15755.860876583754
42
0.41421356823755706
10
19040.402656474093
20
15756.360876593753
10
19040.402656474085
20
15757.860876583754
42
0.41421356237309503
10
19039.402656474085
20
15758.860876583756
10
19037.252656474087
20
15758.860876583751
42
0.41421356041960627
10
19035.752656474087
20
15757.360876593757
10
19035.752656474087
20
15746.96087659375
42
0.41421356237326151
10
19039.752656474087
20
15742.96087659375
10
19050.152656464088
20
15742.960876593745
42
0.41421356237353901
10
19051.652656464088
20
15744.46087659375
10
19051.652656464095
20
15746.610876593753
42
0.41421355944086402
10
19050.652656474085
20
15747.610876593755
10
19049.152656464095
20
15747.610876593753
42
0.41421356432835971
10
19048.652656464095
20
15747.110876590416
10
19048.652656475089
20
15745.46087659709
42
-0.41421356254491326
10
19048.152656478131
20
15744.960876593752
42
-0.41421356639257573
10
19045.652656462953
20
15747.460876612868
10
19045.652656472175
20
15748.66848847465
42
-0.19891236539115267
10
19047.11712256624
20
15752.204022342356
10
19048.809510723582
20
15753.896410499688
42
-0.19891236738127197
10
19052.345044629525
20
15755.360876593757
10
19059.160268318672
20
15755.360876593752
42
-0.19891236738071577
10
19062.695802224604
20
15753.896410499685
10
19064.388190381938
20
15752.204022342354
42
-0.19891236539207185
10
19065.852656476014
20
15748.66848847465
10
19065.852656485244
20
15747.460876612868
42
-0.41421356639444046
10
19063.352656470048
20
15744.960876593752
42
-0.41421356254358133
10
19062.852656473093
20
15745.46087659709
10
19062.852656484094
20
15747.110876593753
42
0.41421356822823363
10
19062.352656474086
20
15747.610876593746
10
19060.852656484094
20
15747.610876593753
42
0.41421356237309503
10
19059.852656484094
20
15746.610876593753
10
19059.852656484094
20
15744.46087659375
42
0.41421356042005031
10
19061.352656474086
20
15742.960876593756
10
19090.152656474085
20
15742.960876593754
42
0.41421356042360208
10
19091.652656464095
20
15744.46087659375
10
19091.652656464095
20
15746.610876593753
42
0.41421356237309503
10
19090.652656464088
20
15747.610876593755
10
19089.152656474085
20
15747.610876593753
42
0.41421356822024208
10
19088.652656464095
20
15747.110876593753
10
19088.652656475089
20
15745.46087659709
42
-0.41421356254491326
10
19088.152656478131
20
15744.960876593752
42
-0.41421356639257573
10
19085.652656462953
20
15747.460876612868
10
19085.652656472179
20
15748.66848847465
42
-0.19891236539115256
10
19087.117122566244
20
15752.204022342354
10
19088.809510723582
20
15753.896410499688
42
-0.19891236738127197
10
19092.345044629525
20
15755.360876593757
10
19099.160268318672
20
15755.360876593752
42
-0.19891236738071566
10
19102.695802224604
20
15753.896410499685
10
19104.388190381938
20
15752.204022342354
42
-0.19891236539207185
10
19105.852656476014
20
15748.66848847465
10
19105.852656485244
20
15747.460876612868
42
-0.41421356639364126
10
19103.352656470048
20
15744.960876593748
42
-0.41421356254358133
10
19102.852656473086
20
15745.46087659709
10
19102.852656484098
20
15747.110876590416
42
0.41421356433235546
10
19102.352656484094
20
15747.610876593753
10
19100.852656474086
20
15747.610876593753
42
0.41421355944086402
10
19099.852656484101
20
15746.610876593753
10
19099.852656484094
20
15744.46087659375
42
0.41421356237131918
10
19101.352656484094
20
15742.960876593754
10
19130.152656464088
20
15742.960876593745
42
0.41421356237353901
10
19131.652656464088
20
15744.46087659375
10
19131.652656464095
20
15746.610876593753
42
0.41421355944086402
10
19130.652656474085
20
15747.610876593752
10
19129.152656464095
20
15747.610876593753
42
0.41421356432835971
10
19128.652656464095
20
15747.110876590416
10
19128.652656475097
20
15745.46087659709
42
-0.41421356254890901
10
19128.152656478131
20
15744.960876593752
42
-0.41421356639257573
10
19125.652656462953
20
15747.460876612868
10
19125.652656472179
20
15748.66848847465
42
-0.19891236539115256
10
19127.117122566244
20
15752.204022342354
10
19128.809510723582
20
15753.896410499688
42
-0.19891236738127197
10
19132.345044629525
20
15755.360876593757
10
19139.160268318672
20
15755.360876593759
42
-0.19891236738021431
10
19142.695802224611
20
15753.896410499692
10
19144.388190381938
20
15752.204022342354
42
-0.19891236539207185
10
19145.852656476014
20
15748.66848847465
10
19145.852656485244
20
15747.460876612868
42
-0.41421356639444046
10
19143.352656470048
20
15744.960876593752
42
-0.41421356253958552
10
19142.8526564731
20
15745.46087659709
10
19142.852656484094
20
15747.110876593753
42
0.41421356822157401
10
19142.352656474097
20
15747.610876593752
10
19140.852656484098
20
15747.610876593753
42
0.41421356237309503
10
19139.852656484098
20
15746.610876593753
10
19139.852656484094
20
15744.46087659375
42
0.41421356042005031
10
19141.352656474086
20
15742.960876593756
10
19170.152656474096
20
15742.960876593754
42
0.41421356042138219
10
19171.652656464095
20
15744.46087659375
10
19171.652656464099
20
15746.610876593753
42
0.41421356237309503
10
19170.652656464088
20
15747.610876593755
10
19169.152656474085
20
15747.610876593753
42
0.41421356822024208
10
19168.652656464095
20
15747.110876593753
10
19168.652656475089
20
15745.46087659709
42
-0.41421356254491326
10
19168.152656478131
20
15744.960876593752
42
-0.41421356639257573
10
19165.652656462953
20
15747.460876612868
10
19165.652656472179
20
15748.66848847465
42
-0.19891236539115256
10
19167.117122566244
20
15752.204022342354
10
19168.809510723582
20
15753.896410499685
42
-0.19891236738127197
10
19172.345044629525
20
15755.360876593753
10
19179.160268318672
20
15755.360876593752
42
-0.19891236738013074
10
19182.695802224607
20
15753.89641049969
10
19184.388190381942
20
15752.204022342357
42
-0.19891236539207185
10
19185.852656476018
20
15748.66848847465
10
19185.852656485244
20
15747.460876612868
42
-0.41421356639364126
10
19183.352656470048
20
15744.960876593748
42
-0.41421356254358133
10
19182.852656473086
20
15745.46087659709
10
19182.852656484094
20
15747.110876590416
42
0.41421356433235546
10
19182.352656484094
20
15747.61087659375
10
19180.852656474086
20
15747.610876593753
42
0.41421355944086402
10
19179.852656484098
20
15746.610876593753
10
19179.852656484094
20
15744.46087659375
42
0.41421356237131918
10
19181.352656484094
20
15742.960876593754
10
19191.752656474087
20
15742.960876593754
42
0.41421356237342799
10
19195.752656474084
20
15746.96087659375
10
19195.752656474087
20
15757.360876593757
42
0.41421356042005031
10
19194.252656474087
20
15758.860876583749
10
19192.102656474086
20
15758.860876583751
42
0.41421356236710138
10
19191.102656474097
20
15757.860876583754
10
19191.102656474086
20
15756.360876593753
42
0.41421356823222938
10
19191.60265647409
20
15755.860876583753
10
19193.252656470759
20
15755.860876594752
42
-0.41421356255157288
10
19193.752656474095
20
15755.360876597788
42
-0.41421356639204299
10
19191.25265645497
20
15752.860876582599
10
19190.0450445932
20
15752.860876591849
42
-0.1989123653921816
10
19186.509510725507
20
15754.325342685905
10
19184.817122568169
20
15756.017730843243
42
-0.19891236738095203
10
19183.352656474104
20
15759.553264749178
10
19183.352656474104
20
15766.368488438329
42
-0.19891236738021431
10
19184.817122568162
20
15769.904022344253
10
19186.5095107255
20
15771.596410501599
42
-0.1989123653935187
10
19190.0450445932
20
15773.060876595668
10
19191.25265645497
20
15773.060876604901
42
-0.41421356639177659
10
19193.752656474098
20
15770.560876589716
42
-0.41421356255556863
10
19193.252656470759
20
15770.060876592745
10
19191.602656477426
20
15770.060876603748
42
0.41421356432303197
10
19191.102656474097
20
15769.560876603748
10
19191.102656474086
20
15768.060876593754
42
0.41421355944685767
10
19192.102656474086
20
15767.060876603744
10
19194.252656474087
20
15767.060876603748
42
0.41421356237487095
10
19195.752656474087
20
15768.560876603751
0
LWPOLYLINE
5
101
100
AcDbEntity
8
0
100
AcDbPolyline
90
18
70
1
43
0.0
10
19122.752656474087
20
15750.011125557376
10
19122.752656474091
20
15749.460876593748
42
-0.41421356237309503
10
19120.252656474087
20
15746.960876593745
10
19111.252656474091
20
15746.960876593746
42
-0.41421356237123036
10
19108.752656474106
20
15749.460876593748
10
19108.752656474091
20
15750.011125557376
42
0.19891214629505155
10
19107.288193387645
20
15753.546656455683
10
19104.967119560537
20
15755.867734231793
42
-0.19891214629438295
10
19103.502656474087
20
15759.403265130106
10
19103.502656474106
20
15766.518488057394
42
-0.1989121462944522
10
19104.967119560544
20
15770.054018955696
10
19113.984888017323
20
15779.071802755028
42
-0.41421406069244598
10
19117.520424930881
20
15779.071802755034
10
19126.538193387649
20
15770.054018955703
42
-0.1989121462948843
10
19128.002656474102
20
15766.518488057394
10
19128.002656474102
20
15759.403265130106
42
-0.19891214629530823
10
19126.538193387652
20
15755.86773423179
10
19124.217119560541
20
15753.546656455683
42
0.19891214629468859
0
LWPOLYLINE
5
102
100
AcDbEntity
8
0
100
AcDbPolyline
90
58
70
1
43
0.0
10
19102.845798836046
20
15793.746413507304
10
19111.863582635375
20
15784.72864505052
42
-0.41421406068943217
10
19111.863582635371
20
15781.193108136984
10
19102.84579883605
20
15772.175339680198
42
-0.19891214629337423
10
19099.310267937737
20
15770.710876593746
10
19092.009763255279
20
15770.710876593757
42
0.19891236737340262
10
19091.65620986469
20
15770.564429984348
10
19088.149103083491
20
15767.057323203153
42
0.19891236737839216
10
19088.002656474095
20
15766.703769812566
10
19088.002656474098
20
15759.403265130106
42
-0.19891214629589327
10
19086.538193387645
20
15755.867734231797
10
19084.217119560541
20
15753.546656455683
42
0.19891214629468856
10
19082.752656474098
20
15750.011125557376
10
19082.752656474091
20
15749.46087659375
42
-0.4142135623722959
10
19080.252656474087
20
15746.960876593752
10
19071.252656474091
20
15746.960876593756
42
-0.4142135623722959
10
19068.752656474091
20
15749.46087659375
10
19068.752656474091
20
15750.011125557376
42
0.19891214629396514
10
19067.288193387649
20
15753.546656455685
10
19064.967119560548
20
15755.867734231801
42
-0.19891214629463363
10
19063.502656474098
20
15759.403265130106
10
19063.502656474087
20
15766.703769812566
42
0.19891236739677748
10
19063.356209864687
20
15767.057323203169
10
19059.849103083485
20
15770.564429984352
42
0.19891236736121337
10
19059.495549692907
20
15770.710876593752
10
19052.195045010449
20
15770.71087659375
42
-0.19891214629413226
10
19048.65951411214
20
15772.175339680196
10
19046.338436336031
20
15774.496413507304
42
0.19891214629396511
10
19042.802905437718
20
15775.960876593752
10
19042.252656474087
20
15775.960876593752
42
-0.41421356237256224
10
19039.752656474091
20
15778.460876593754
10
19039.752656474087
20
15787.46087659375
42
-0.4142135623720295
10
19042.252656474087
20
15789.96087659375
10
19042.802905437718
20
15789.960876593759
42
0.19891214629480083
10
19046.338436336038
20
15791.425339680205
10
19048.659514112143
20
15793.746413507306
42
-0.19891214629324172
10
19052.195045010449
20
15795.210876593754
10
19059.495549692907
20
15795.210876593756
42
0.19891236737458451
10
19059.849103083496
20
15795.357323203161
10
19063.356209864687
20
15798.864429984351
42
0.19891236738856385
10
19063.502656474098
20
15799.217983374938
10
19063.502656474106
20
15806.518488057394
42
-0.19891214629492493
10
19064.967119560544
20
15810.054018955705
10
19067.288193387645
20
15812.375096731814
42
0.19891214629582987
10
19068.752656474091
20
15815.910627630128
10
19068.752656474091
20
15816.460876593756
42
-0.4142135623720295
10
19071.252656474091
20
15818.960876593748
10
19080.252656474087
20
15818.960876593748
42
-0.4142135623720295
10
19082.752656474091
20
15816.460876593756
10
19082.752656474087
20
15815.910627630128
42
0.19891214629602572
10
19084.217119560541
20
15812.375096731814
10
19086.538193387645
20
15810.054018955707
42
-0.19891214629601145
10
19088.002656474095
20
15806.518488057394
10
19088.002656474087
20
15799.217983374938
42
0.19891236737769991
10
19088.149103083491
20
15798.864429984349
10
19091.656209864686
20
15795.35732320317
42
0.19891236737674534
10
19092.009763255279
20
15795.210876593748
10
19099.310267937737
20
15795.210876593756
42
-0.19891214629345777
0
LWPOLYLINE
5
103
100
AcDbEntity
8
0
100
AcDbPolyline
90
8
70
1
43
0.0
10
19187.55265647409
20
15815.260876593757
10
19187.552656474094
20
15820.660876641434
42
-0.41421353444397774
10
19188.052656474094
20
15821.160876593758
10
19191.752656474087
20
15821.160876641434
42
-0.41421354704628122
10
19193.952656474092
20
15818.960876593756
10
19193.952656474088
20
15815.260876593757
42
-0.41421356237309503
10
19193.452656474088
20
15814.760876593757
10
19188.052655711155
20
15814.760876784485
42
-0.41421338520177176
0
LWPOLYLINE
5
104
100
AcDbEntity
8
0
100
AcDbPolyline
90
8
70
1
43
0.0
10
19043.952656474088
20
15750.660876593756
10
19043.952656474088
20
15745.26087654607
42
-0.41421353443865006
10
19043.452656474088
20
15744.760876593757
10
19039.752656474087
20
15744.760876593751
42
-0.41421356237339779
10
19037.55265647409
20
15746.96087659375
10
19037.552656474094
20
15750.660876593756
42
-0.41421356236776735
10
19038.052656474094
20
15751.160876593747
10
19043.452657237041
20
15751.160876593756
42
-0.41421311544601597
0
LWPOLYLINE
5
105
100
AcDbEntity
8
0
100
AcDbPolyline
90
8
70
1
43
0.0
10
19039.752656474087
20
15821.160876641434
10
19043.452656474088
20
15821.160876593756
42
-0.41421353444397774
10
19043.952656474088
20
15820.660876641434
10
19043.952656474106
20
15815.260876593757
42
-0.41421338519910794
10
19043.452657237041
20
15814.760876784483
10
19038.052656474094
20
15814.760876593755
42
-0.41421356237309503
10
19037.552656474094
20
15815.260876593757
10
19037.552656474094
20
15818.960876593756
42
-0.41421354704537311
0
LWPOLYLINE
5
106
100
AcDbEntity
8
0
100
AcDbPolyline
90
8
70
1
43
0.0
10
19191.752656474087
20
15744.760876593757
10
19188.052656474094
20
15744.760876593757
42
-0.41421353443865006
10
19187.552656474094
20
15745.26087654607
10
19187.552656474087
20
15750.660876593756
42
-0.41421311545800327
10
19188.052655711155
20
15751.160876593753
10
19193.452656474088
20
15751.160876593749
42
-0.41421356236776735
10
19193.952656474092
20
15750.660876593756
10
19193.952656474081
20
15746.96087659375
42
-0.41421356237370044
0
LWPOLYLINE
5
107
100
AcDbEntity
8
0
100
AcDbPolyline
90
18
70
1
43
0.0
10
19122.752656474087
20
15816.460876593756
10
19122.752656474087
20
15815.910627630128
42
0.19891214629493931
10
19124.217119560548
20
15812.375096731821
10
19126.538193387649
20
15810.054018955709
42
-0.19891214629528792
10
19128.002656474102
20
15806.518488057394
10
19128.002656474102
20
15799.403265130106
42
-0.19891214629530823
10
19126.538193387652
20
15795.86773423179
10
19117.520424930881
20
15786.84995043247
42
-0.41421406069150413
10
19113.984888017327
20
15786.849950432475
10
19104.967119560544
20
15795.867734231801
42
-0.19891214629480675
10
19103.502656474106
20
15799.403265130106
10
19103.502656474106
20
15806.518488057394
42
-0.19891214629492493
10
19104.967119560544
20
15810.054018955705
10
19107.288193387645
20
15812.375096731814
42
0.19891214629544071
10
19108.752656474098
20
15815.910627630128
10
19108.752656474102
20
15816.460876593756
42
-0.41421356237016477
10
19111.252656474091
20
15818.960876593752
10
19120.252656474087
20
15818.960876593746
42
-0.4142135623720295
0
LWPOLYLINE
5
108
100
AcDbEntity
8
0
100
AcDbPolyline
90
58
70
1
43
0.0
10
19128.659514112143
20
15772.1753396802
10
19119.641730312804
20
15781.193108136975
42
-0.41421406069018568
10
19119.641730312807
20
15784.728645050518
10
19128.65951411214
20
15793.74641350731
42
-0.19891214629404871
10
19132.195045010449
20
15795.210876593756
10
19139.495549692907
20
15795.210876593756
42
0.19891236737458451
10
19139.849103083496
20
15795.357323203161
10
19143.356209864687
20
15798.864429984351
42
0.19891236738856385
10
19143.502656474098
20
15799.217983374938
10
19143.502656474106
20
15806.518488057394
42
-0.19891214629492493
10
19144.967119560544
20
15810.054018955705
10
19147.288193387645
20
15812.375096731814
42
0.19891214629540607
10
19148.752656474102
20
15815.910627630128
10
19148.752656474087
20
15816.460876593756
42
-0.4142135623720295
10
19151.252656474091
20
15818.960876593752
10
19160.252656474087
20
15818.960876593748
42
-0.4142135623720295
10
19162.752656474091
20
15816.460876593756
10
19162.752656474087
20
15815.910627630128
42
0.19891214629493931
10
19164.217119560548
20
15812.375096731819
10
19166.538193387645
20
15810.054018955707
42
-0.19891214629601145
10
19168.002656474095
20
15806.518488057394
10
19168.002656474087
20
15799.217983374938
42
0.19891236738438542
10
19168.149103083502
20
15798.864429984351
10
19171.656209864686
20
15795.35732320317
42
0.19891236737674534
10
19172.009763255279
20
15795.210876593748
10
19179.310267937737
20
15795.210876593756
42
-0.19891214629345777
10
19182.845798836046
20
15793.746413507304
10
19185.166876612166
20
15791.4253396802
42
0.19891214629413229
10
19188.702407510471
20
15789.960876593748
10
19189.252656474087
20
15789.960876593748
42
-0.41421356237256224
10
19191.752656474091
20
15787.46087659375
10
19191.752656474091
20
15778.460876593754
42
-0.41421356237309503
10
19189.252656474087
20
15775.960876593752
10
19188.702407510467
20
15775.960876593754
42
0.19891214629295642
10
19185.166876612162
20
15774.496413507306
10
19182.845798836053
20
15772.175339680198
42
-0.19891214629345777
10
19179.310267937737
20
15770.710876593746
10
19172.009763255279
20
15770.71087659375
42
0.19891236737005982
10
19171.656209864694
20
15770.564429984344
10
19168.149103083502
20
15767.057323203153
42
0.19891236739176327
10
19168.002656474087
20
15766.703769812566
10
19168.002656474091
20
15759.403265130106
42
-0.19891214629429937
10
19166.538193387645
20
15755.867734231806
10
19164.217119560541
20
15753.546656455683
42
0.19891214629413229
10
19162.752656474091
20
15750.011125557376
10
19162.752656474091
20
15749.46087659375
42
-0.4142135623722959
10
19160.252656474087
20
15746.960876593756
10
19151.252656474091
20
15746.960876593756
42
-0.4142135623722959
10
19148.752656474091
20
15749.46087659375
10
19148.752656474091
20
15750.011125557376
42
0.19891214629557916
10
19147.288193387649
20
15753.546656455685
10
19144.967119560544
20
15755.867734231801
42
-0.19891214629480675
10
19143.502656474106
20
15759.403265130106
10
19143.502656474087
20
15766.703769812566
42
0.19891236738925619
10
19143.356209864691
20
15767.057323203157
10
19139.849103083485
20
15770.564429984352
42
0.19891236737124168
10
19139.495549692907
20
15770.710876593763
10
19132.195045010449
20
15770.710876593756
42
-0.19891214629413226
0
CIRCLE
5
109
100
AcDbEntity
8
0
100
AcDbCircle
10
19135.752656474098
20
15762.960876593754
30
0
40
3.3500000000010743
210
0
220
0
230
1
0
CIRCLE
5
110
100
AcDbEntity
8
0
100
AcDbCircle
10
19055.752656474087
20
15802.960876593754
30
0
40
3.3500000000010743
210
0
220
0
230
1
0
CIRCLE
5
111
100
AcDbEntity
8
0
100
AcDbCircle
10
19055.752656474087
20
15762.960876593754
30
0
40
3.3500000000010743
210
0
220
0
230
1
0
CIRCLE
5
112
100
AcDbEntity
8
0
100
AcDbCircle
10
19135.752656474098
20
15802.960876593754
30
0
40
3.3500000000010743
210
0
220
0
230
1
0
CIRCLE
5
113
100
AcDbEntity
8
0
100
AcDbCircle
10
19095.752656474087
20
15762.960876593754
30
0
40
3.3500000000010743
210
0
220
0
230
1
0
CIRCLE
5
114
100
AcDbEntity
8
0
100
AcDbCircle
10
19095.752656474087
20
15802.960876593754
30
0
40
3.3500000000010743
210
0
220
0
230
1
0
CIRCLE
5
115
100
AcDbEntity
8
0
100
AcDbCircle
10
19175.752656474087
20
15762.960876593754
30
0
40
3.3500000000010743
210
0
220
0
230
1
0
CIRCLE
5
116
100
AcDbEntity
8
0
100
AcDbCircle
10
19175.752656474087
20
15802.960876593754
30
0
40
3.3500000000010743
210
0
220
0
230
1
0
LWPOLYLINE
5
117
100
AcDbEntity
8
0
100
AcDbPolyline
90
320
70
1
43
0.0
10
19195.752656474087
20
15797.360876583753
42
0.41421356237353901
10
19194.252656474087
20
15798.860876583749
10
19192.102656474086
20
15798.860876583751
42
0.4142135594441938
10
19191.10265647409
20
15797.860876593753
10
19191.102656474086
20
15796.360876583751
42
0.41421356431903622
10
19191.602656477426
20
15795.860876583756
10
19193.252656470759
20
15795.860876594752
42
-0.41421356255157288
10
19193.752656474098
20
15795.360876597788
42
-0.41421356639124385
10
19191.25265645497
20
15792.860876582599
10
19190.0450445932
20
15792.860876591847
42
-0.19891236539275234
10
19186.509510725507
20
15794.325342685905
10
19184.817122568162
20
15796.017730843243
42
-0.19891236738122314
10
19183.352656474097
20
15799.553264749178
10
19183.352656474097
20
15806.368488438329
42
-0.19891236738021431
10
19184.817122568162
20
15809.904022344255
10
19186.5095107255
20
15811.596410501597
42
-0.19891236539199417
10
19190.0450445932
20
15813.06087659566
10
19191.25265645497
20
15813.060876604901
42
-0.41421356639177659
10
19193.752656474098
20
15810.560876589716
42
-0.41421356255290481
10
19193.252656470759
20
15810.060876592745
10
19191.60265647409
20
15810.060876603748
42
0.4142135682269017
10
19191.10265647409
20
15809.560876593754
10
19191.102656474086
20
15808.060876603749
42
0.41421356236443752
10
19192.102656474086
20
15807.060876603759
10
19194.252656474087
20
15807.060876603748
42
0.41421356042093821
10
19195.752656474091
20
15808.56087659375
10
19195.752656462122
20
15818.960876593756
42
0.41421355394334719
10
19191.752656474087
20
15822.96087661759
10
19181.352656484094
20
15822.960876593754
42
0.4142135623708752
10
19179.852656484094
20
15821.460876593756
10
19179.852656484094
20
15819.310876593754
42
0.41421355944086402
10
19180.852656474086
20
15818.31087659375
10
19182.352656484094
20
15818.310876593754
42
0.41421356433102352
10
19182.852656484098
20
15818.81087659709
10
19182.852656473093
20
15820.460876590421
42
-0.41421356253558977
10
19183.352656470048
20
15820.960876593748
42
-0.4142135663947068
10
19185.852656485236
20
15818.460876574629
10
19185.852656476014
20
15817.253264712854
42
-0.19891236539274632
10
19184.388190381946
20
15813.717730845148
10
19182.695802224607
20
15812.025342687813
42
-0.19891236737971293
10
19179.160268318672
20
15810.560876593754
10
19172.345044629525
20
15810.560876593752
42
-0.19891236738164095
10
19168.809510723586
20
15812.025342687821
10
19167.117122566247
20
15813.717730845154
42
-0.19891236539145229
10
19165.652656472179
20
15817.253264712854
10
19165.652656462946
20
15818.460876574629
42
-0.41421356639284213
10
19168.152656478131
20
15820.960876593756
42
-0.41421356254358133
10
19168.652656475093
20
15820.460876590421
10
19168.652656464088
20
15818.810876593754
42
0.41421356822556976
10
19169.152656474085
20
15818.310876593754
10
19170.652656464088
20
15818.31087659375
42
0.41421356237309503
10
19171.652656464092
20
15819.310876593754
10
19171.652656464099
20
15821.460876593756
42
0.41421356042093821
10
19170.152656474096
20
15822.960876593752
10
19141.352656474086
20
15822.960876593754
42
0.41421356041960627
10
19139.852656484101
20
15821.460876593756
10
19139.852656484094
20
15819.310876593754
42
0.41421356237309503
10
19140.852656484098
20
15818.310876593752
10
19142.352656474097
20
15818.31087659375
42
0.4142135682269017
10
19142.852656484098
20
15818.810876593754
10
19142.8526564731
20
15820.460876590421
42
-0.41421356253558977
10
19143.352656470048
20
15820.960876593748
42
-0.4142135663947068
10
19145.852656485244
20
15818.460876574629
10
19145.852656476014
20
15817.253264712854
42
-0.19891236539284432
10
19144.388190381938
20
15813.71773084515
10
19142.695802224607
20
15812.025342687813
42
-0.19891236737971293
10
19139.160268318672
20
15810.560876593754
10
19132.345044629525
20
15810.56087659375
42
-0.19891236738032661
10
19128.809510723589
20
15812.025342687823
10
19127.117122566247
20
15813.717730845156
42
-0.19891236539040894
10
19125.652656472179
20
15817.253264712854
10
19125.652656462949
20
15818.460876574629
42
-0.41421356639310852
10
19128.152656478131
20
15820.960876593754
42
-0.41421356254890901
10
19128.6526564751
20
15820.460876590421
10
19128.652656464088
20
15818.81087659709
42
0.41421356432702777
10
19129.152656464095
20
15818.310876593752
10
19130.652656474085
20
15818.310876593754
42
0.41421355944219596
10
19131.652656464084
20
15819.310876593754
10
19131.652656464095
20
15821.460876593756
42
0.41421356237309503
10
19130.152656464088
20
15822.960876593752
10
19101.352656484094
20
15822.960876593754
42
0.4142135623708752
10
19099.852656484094
20
15821.460876593756
10
19099.852656484094
20
15819.310876593754
42
0.41421355944086402
10
19100.852656474086
20
15818.310876593752
10
19102.352656484094
20
15818.31087659375
42
0.41421356433102352
10
19102.852656484101
20
15818.81087659709
10
19102.852656473093
20
15820.460876590421
42
-0.41421356253558977
10
19103.352656470048
20
15820.960876593748
42
-0.4142135663947068
10
19105.852656485236
20
15818.460876574629
10
19105.852656476014
20
15817.253264712854
42
-0.19891236539284432
10
19104.388190381938
20
15813.71773084515
10
19102.695802224607
20
15812.025342687813
42
-0.19891236737971293
10
19099.160268318672
20
15810.560876593754
10
19092.345044629525
20
15810.56087659375
42
-0.19891236738032661
10
19088.809510723589
20
15812.025342687823
10
19087.117122566247
20
15813.717730845154
42
-0.19891236539145229
10
19085.652656472179
20
15817.253264712854
10
19085.652656462949
20
15818.460876574629
42
-0.41421356639310852
10
19088.152656478131
20
15820.960876593761
42
-0.41421356254091746
10
19088.652656475097
20
15820.460876590421
10
19088.652656464088
20
15818.810876593754
42
0.41421356822556976
10
19089.152656474085
20
15818.310876593754
10
19090.652656464088
20
15818.31087659375
42
0.41421356237309503
10
19091.652656464092
20
15819.310876593754
10
19091.652656464095
20
15821.460876593756
42
0.41421356042315804
10
19090.152656474085
20
15822.960876593752
10
19061.352656474086
20
15822.960876593754
42
0.41421356041960627
10
19059.852656484101
20
15821.460876593756
10
19059.852656484094
20
15819.310876593754
42
0.41421356237309503
10
19060.852656484094
20
15818.310876593752
10
19062.352656474086
20
15818.310876593754
42
0.41421356823356131
10
19062.852656484094
20
15818.810876593754
10
19062.852656473093
20
15820.460876590421
42
-0.41421356253558977
10
19063.352656470048
20
15820.960876593748
42
-0.41421356639550599
10
19065.852656485244
20
15818.460876574629
10
19065.852656476014
20
15817.253264712854
42
-0.19891236539284432
10
19064.388190381938
20
15813.71773084515
10
19062.6958022246
20
15812.025342687823
42
-0.19891236738100107
10
19059.160268318672
20
15810.560876593756
10
19052.345044629525
20
15810.56087659375
42
-0.19891236738032661
10
19048.809510723589
20
15812.025342687823
10
19047.117122566247
20
15813.717730845154
42
-0.19891236539061069
10
19045.652656472172
20
15817.253264712854
10
19045.652656462946
20
15818.460876574629
42
-0.41421356639284213
10
19048.152656478131
20
15820.960876593756
42
-0.41421356254358133
10
19048.652656475093
20
15820.460876590421
10
19048.652656464088
20
15818.81087659709
42
0.41421356432702777
10
19049.152656464095
20
15818.310876593754
10
19050.652656474085
20
15818.310876593749
42
0.41421355944219596
10
19051.652656464088
20
15819.310876593754
10
19051.652656464095
20
15821.460876593756
42
0.41421356237309503
10
19050.152656464088
20
15822.960876593752
10
19039.752656474091
20
15822.960876605719
42
0.41421355394318071
10
19035.752656497938
20
15818.960876593756
10
19035.752656474087
20
15808.56087659375
42
0.41421356042049423
10
19037.252656474087
20
15807.060876603755
10
19039.402656474085
20
15807.060876603748
42
0.41421356236909923
10
19040.402656474085
20
15808.060876603749
10
19040.402656474085
20
15809.560876593754
42
0.41421356823222938
10
19039.902656474085
20
15810.060876603744
10
19038.252656477423
20
15810.060876592745
42
-0.41421356255556863
10
19037.752656474087
20
15810.560876589716
42
-0.41421356639177659
10
19040.252656493212
20
15813.060876604903
10
19041.460268355004
20
15813.060876595668
42
-0.1989123653920026
10
19044.995802222693
20
15811.596410501597
10
19046.688190380039
20
15809.904022344261
42
-0.19891236738036711
10
19048.1526564741
20
15806.368488438329
10
19048.152656474096
20
15799.553264749178
42
-0.19891236738088278
10
19046.688190380028
20
15796.017730843249
10
19044.995802222689
20
15794.325342685908
42
-0.19891236539118129
10
19041.460268355004
20
15792.860876591842
10
19040.252656493212
20
15792.860876582601
42
-0.41421356639124385
10
19037.752656474091
20
15795.360876597788
42
-0.4142135625462452
10
19038.252656477423
20
15795.860876594747
10
19039.90265647076
20
15795.860876583754
42
0.41421356431770429
10
19040.402656474089
20
15796.360876583751
10
19040.402656474085
20
15797.860876593753
42
0.41421355944752364
10
19039.402656474085
20
15798.860876583751
10
19037.252656474087
20
15798.860876583751
42
0.41421356237309503
10
19035.752656474087
20
15797.360876583753
10
19035.752656474087
20
15768.560876603751
42
0.41421356237442697
10
19037.252656474087
20
15767.060876603748
10
19039.402656474085
20
15767.060876603748
42
0.41421355945018745
10
19040.402656474093
20
15768.060876593754
10
19040.402656474085
20
15769.560876603748
42
0.41421356432170009
10
19039.90265647076
20
15770.060876603748
10
19038.252656477423
20
15770.060876592745
42
-0.41421356255556863
10
19037.752656474084
20
15770.560876589716
42
-0.41421356639097745
10
19040.252656493212
20
15773.060876604906
10
19041.460268355004
20
15773.060876595673
42
-0.19891236539123022
10
19044.995802222697
20
15771.596410501603
10
19046.688190380039
20
15769.904022344261
42
-0.19891236738036711
10
19048.1526564741
20
15766.368488438329
10
19048.1526564741
20
15759.553264749178
42
-0.19891236738089721
10
19046.688190380028
20
15756.017730843247
10
19044.995802222689
20
15754.325342685908
42
-0.19891236539118129
10
19041.460268355004
20
15752.860876591842
10
19040.252656493212
20
15752.860876582601
42
-0.41421356639124385
10
19037.752656474087
20
15755.360876597788
42
-0.41421356254491326
10
19038.252656477423
20
15755.860876594752
10
19039.902656474085
20
15755.860876583754
42
0.41421356823755706
10
19040.402656474093
20
15756.360876593753
10
19040.402656474085
20
15757.860876583754
42
0.41421356237309503
10
19039.402656474085
20
15758.860876583756
10
19037.252656474087
20
15758.860876583751
42
0.41421356041960627
10
19035.752656474087
20
15757.360876593757
10
19035.752656474087
20
15746.96087659375
42
0.41421356237326151
10
19039.752656474087
20
15742.96087659375
10
19050.152656464088
20
15742.960876593745
42
0.41421356237353901
10
19051.652656464088
20
15744.46087659375
10
19051.652656464095
20
15746.610876593753
42
0.41421355944086402
10
19050.652656474085
20
15747.610876593755
10
19049.152656464095
20
15747.610876593753
42
0.41421356432835971
10
19048.652656464095
20
15747.110876590416
10
19048.652656475089
20
15745.46087659709
42
-0.41421356254491326
10
19048.152656478131
20
15744.960876593756
42
-0.41421356639337492
10
19045.652656462953
20
15747.460876612868
10
19045.652656472175
20
15748.66848847465
42
-0.19891236539123625
10
19047.11712256624
20
15752.204022342356
10
19048.809510723582
20
15753.896410499688
42
-0.19891236738070134
10
19052.345044629525
20
15755.360876593757
10
19059.160268318672
20
15755.360876593753
42
-0.19891236738088289
10
19062.695802224604
20
15753.896410499685
10
19064.388190381938
20
15752.204022342354
42
-0.19891236539255888
10
19065.852656476014
20
15748.66848847465
10
19065.852656485244
20
15747.460876612868
42
-0.41421356639550599
10
19063.352656470048
20
15744.960876593752
42
-0.4142135625462452
10
19062.852656473093
20
15745.46087659709
10
19062.852656484094
20
15747.110876593753
42
0.41421356822823363
10
19062.352656474086
20
15747.610876593746
10
19060.852656484094
20
15747.610876593753
42
0.41421356237309503
10
19059.852656484094
20
15746.610876593753
10
19059.852656484094
20
15744.46087659375
42
0.41421356042005031
10
19061.352656474086
20
15742.960876593756
10
19090.152656474085
20
15742.960876593754
42
0.41421356042360208
10
19091.652656464095
20
15744.46087659375
10
19091.652656464095
20
15746.610876593753
42
0.41421356237309503
10
19090.652656464088
20
15747.610876593755
10
19089.152656474085
20
15747.610876593753
42
0.41421356822024208
10
19088.652656464095
20
15747.110876593753
10
19088.652656475089
20
15745.46087659709
42
-0.41421356254491326
10
19088.152656478131
20
15744.960876593756
42
-0.41421356639337492
10
19085.652656462953
20
15747.460876612868
10
19085.652656472179
20
15748.66848847465
42
-0.19891236539034557
10
19087.117122566244
20
15752.204022342354
10
19088.809510723582
20
15753.896410499688
42
-0.19891236738070134
10
19092.345044629525
20
15755.360876593757
10
19099.160268318672
20
15755.360876593753
42
-0.19891236738088278
10
19102.695802224604
20
15753.896410499685
10
19104.388190381938
20
15752.204022342354
42
-0.19891236539255888
10
19105.852656476014
20
15748.66848847465
10
19105.852656485244
20
15747.460876612868
42
-0.41421356639364126
10
19103.352656470048
20
15744.960876593748
42
-0.4142135625462452
10
19102.852656473086
20
15745.46087659709
10
19102.852656484098
20
15747.110876590416
42
0.41421356433235546
10
19102.352656484094
20
15747.610876593753
10
19100.852656474086
20
15747.610876593753
42
0.41421355944086402
10
19099.852656484101
20
15746.610876593753
10
19099.852656484094
20
15744.46087659375
42
0.41421356237131918
10
19101.352656484094
20
15742.960876593754
10
19130.152656464088
20
15742.960876593745
42
0.41421356237353901
10
19131.652656464088
20
15744.46087659375
10
19131.652656464095
20
15746.610876593753
42
0.41421355944086402
10
19130.652656474085
20
15747.610876593752
10
19129.152656464095
20
15747.610876593753
42
0.41421356432835971
10
19128.652656464095
20
15747.110876590416
10
19128.652656475097
20
15745.46087659709
42
-0.41421356254890901
10
19128.152656478131
20
15744.960876593756
42
-0.41421356639337492
10
19125.652656462953
20
15747.460876612868
10
19125.652656472179
20
15748.66848847465
42
-0.19891236539034557
10
19127.117122566244
20
15752.204022342354
10
19128.809510723582
20
15753.896410499688
42
-0.19891236738070134
10
19132.345044629525
20
15755.360876593757
10
19139.160268318672
20
15755.360876593759
42
-0.19891236738033249
10
19142.695802224611
20
15753.896410499692
10
19144.388190381938
20
15752.204022342354
42
-0.19891236539255888
10
19145.852656476014
20
15748.66848847465
10
19145.852656485244
20
15747.460876612868
42
-0.41421356639390766
10
19143.352656470048
20
15744.960876593756
42
-0.41421356253825364
10
19142.8526564731
20
15745.46087659709
10
19142.852656484094
20
15747.110876593753
42
0.41421356822157401
10
19142.352656474097
20
15747.610876593752
10
19140.852656484098
20
15747.610876593753
42
0.41421356237309503
10
19139.852656484098
20
15746.610876593753
10
19139.852656484094
20
15744.46087659375
42
0.41421356042005031
10
19141.352656474086
20
15742.960876593756
10
19170.152656474096
20
15742.960876593754
42
0.41421356042138219
10
19171.652656464095
20
15744.46087659375
10
19171.652656464099
20
15746.610876593753
42
0.41421356237309503
10
19170.652656464088
20
15747.610876593755
10
19169.152656474085
20
15747.610876593753
42
0.41421356822024208
10
19168.652656464095
20
15747.110876593753
10
19168.652656475089
20
15745.46087659709
42
-0.41421356254491326
10
19168.152656478131
20
15744.960876593756
42
-0.41421356639337492
10
19165.652656462953
20
15747.460876612868
10
19165.652656472179
20
15748.66848847465
42
-0.19891236539034557
10
19167.117122566244
20
15752.204022342354
10
19168.809510723582
20
15753.896410499685
42
-0.19891236738107032
10
19172.345044629525
20
15755.360876593753
10
19179.160268318672
20
15755.360876593753
42
-0.19891236738061779
10
19182.695802224607
20
15753.89641049969
10
19184.388190381942
20
15752.204022342356
42
-0.19891236539166834
10
19185.852656476018
20
15748.66848847465
10
19185.852656485244
20
15747.460876612868
42
-0.41421356639364126
10
19183.352656470048
20
15744.960876593748
42
-0.4142135625462452
10
19182.852656473086
20
15745.46087659709
10
19182.852656484094
20
15747.110876590416
42
0.41421356433235546
10
19182.352656484094
20
15747.61087659375
10
19180.852656474086
20
15747.610876593753
42
0.41421355944086402
10
19179.852656484098
20
15746.610876593753
10
19179.852656484094
20
15744.46087659375
42
0.41421356237131918
10
19181.352656484094
20
15742.960876593754
10
19191.752656474087
20
15742.960876593754
42
0.41421356237342799
10
19195.752656474084
20
15746.96087659375
10
19195.752656474087
20
15757.360876593757
42
0.41421356042005031
10
19194.252656474087
20
15758.860876583749
10
19192.102656474086
20
15758.860876583751
42
0.41421356236710138
10
19191.102656474097
20
15757.860876583754
10
19191.102656474086
20
15756.360876593753
42
0.41421356823222938
10
19191.60265647409
20
15755.860876583753
10
19193.252656470759
20
15755.860876594752
42
-0.41421356255157288
10
19193.752656474098
20
15755.360876597788
42
-0.41421356639124385
10
19191.25265645497
20
15752.860876582599
10
19190.0450445932
20
15752.860876591847
42
-0.19891236539275234
10
19186.509510725507
20
15754.325342685905
10
19184.817122568169
20
15756.017730843243
42
-0.19891236738175913
10
19183.352656474104
20
15759.553264749178
10
19183.352656474101
20
15766.368488438329
42
-0.19891236738046497
10
19184.817122568162
20
15769.904022344253
10
19186.509510725497
20
15771.596410501599
42
-0.19891236539314983
10
19190.0450445932
20
15773.060876595668
10
19191.25265645497
20
15773.060876604901
42
-0.41421356639177659
10
19193.752656474098
20
15770.560876589716
42
-0.41421356255290481
10
19193.252656470759
20
15770.060876592745
10
19191.602656477426
20
15770.060876603748
42
0.41421356432303197
10
19191.102656474097
20
15769.560876603748
10
19191.102656474086
20
15768.060876593754
42
0.41421355944685767
10
19192.102656474086
20
15767.060876603744
10
19194.252656474087
20
15767.060876603748
42
0.41421356237487095
10
19195.752656474087
20
15768.560876603751
0
CIRCLE
5
118
100
AcDbEntity
8
0
100
AcDbCircle
10
19135.752656474098
20
15762.960876593754
30
0
40
3.3500000000010743
210
0
220
0
230
1
0
LWPOLYLINE
5
119
100
AcDbEntity
8
0
100
AcDbPolyline
90
18
70
1
43
0.0
10
19122.752656474087
20
15750.011125557376
10
19122.752656474091
20
15749.460876593748
42
-0.41421356237309503
10
19120.252656474087
20
15746.960876593745
10
19111.252656474091
20
15746.960876593746
42
-0.41421356237123036
10
19108.752656474106
20
15749.460876593748
10
19108.752656474091
20
15750.011125557376
42
0.19891214629468268
10
19107.288193387645
20
15753.546656455683
10
19104.967119560537
20
15755.867734231793
42
-0.19891214629438295
10
19103.502656474087
20
15759.403265130106
10
19103.502656474106
20
15766.518488057394
42
-0.1989121462944522
10
19104.967119560544
20
15770.054018955696
10
19113.984888017323
20
15779.071802755028
42
-0.41421406069244598
10
19117.520424930881
20
15779.071802755034
10
19126.538193387649
20
15770.054018955703
42
-0.1989121462948843
10
19128.002656474102
20
15766.518488057394
10
19128.002656474102
20
15759.403265130106
42
-0.19891214629530823
10
19126.538193387652
20
15755.86773423179
10
19124.217119560541
20
15753.546656455683
42
0.19891214629497395
0
LWPOLYLINE
5
120
100
AcDbEntity
8
0
100
AcDbPolyline
90
58
70
1
43
0.0
10
19102.845798836046
20
15793.746413507304
10
19111.863582635375
20
15784.72864505052
42
-0.41421406068943217
10
19111.863582635371
20
15781.193108136984
10
19102.84579883605
20
15772.175339680198
42
-0.19891214629337423
10
19099.310267937737
20
15770.710876593746
10
19092.009763255279
20
15770.710876593757
42
0.19891236737507395
10
19091.65620986469
20
15770.564429984348
10
19088.149103083491
20
15767.057323203153
42
0.19891236738006357
10
19088.002656474095
20
15766.703769812566
10
19088.002656474098
20
15759.403265130106
42
-0.19891214629589327
10
19086.538193387645
20
15755.867734231797
10
19084.217119560541
20
15753.546656455683
42
0.19891214629497395
10
19082.752656474098
20
15750.011125557376
10
19082.752656474091
20
15749.46087659375
42
-0.4142135623722959
10
19080.252656474087
20
15746.960876593752
10
19071.252656474091
20
15746.960876593756
42
-0.4142135623722959
10
19068.752656474091
20
15749.46087659375
10
19068.752656474091
20
15750.011125557376
42
0.19891214629283818
10
19067.288193387649
20
15753.546656455685
10
19064.967119560548
20
15755.867734231801
42
-0.19891214629463363
10
19063.502656474098
20
15759.403265130106
10
19063.502656474087
20
15766.703769812566
42
0.19891236740317619
10
19063.356209864687
20
15767.057323203169
10
19059.849103083485
20
15770.564429984352
42
0.1989123673568321
10
19059.495549692907
20
15770.710876593756
10
19052.195045010449
20
15770.71087659375
42
-0.19891214629413226
10
19048.65951411214
20
15772.175339680196
10
19046.338436336031
20
15774.496413507304
42
0.19891214629384693
10
19042.802905437718
20
15775.960876593752
10
19042.252656474087
20
15775.960876593752
42
-0.41421356237256224
10
19039.752656474091
20
15778.460876593754
10
19039.752656474087
20
15787.46087659375
42
-0.4142135623720295
10
19042.252656474087
20
15789.96087659375
10
19042.802905437718
20
15789.960876593759
42
0.19891214629480083
10
19046.338436336038
20
15791.425339680205
10
19048.659514112143
20
15793.746413507306
42
-0.19891214629324172
10
19052.195045010449
20
15795.210876593754
10
19059.495549692907
20
15795.210876593756
42
0.19891236737256687
10
19059.849103083496
20
15795.357323203161
10
19063.356209864687
20
15798.864429984351
42
0.19891236739225282
10
19063.502656474098
20
15799.217983374938
10
19063.502656474106
20
15806.518488057394
42
-0.19891214629492493
10
19064.967119560544
20
15810.054018955705
10
19067.288193387645
20
15812.375096731814
42
0.198912146295461
10
19068.752656474091
20
15815.910627630128
10
19068.752656474091
20
15816.460876593756
42
-0.4142135623720295
10
19071.252656474091
20
15818.960876593748
10
19080.252656474087
20
15818.960876593748
42
-0.4142135623720295
10
19082.752656474091
20
15816.460876593756
10
19082.752656474087
20
15815.910627630128
42
0.19891214629699983
10
19084.217119560541
20
15812.375096731814
10
19086.538193387645
20
15810.054018955707
42
-0.19891214629601145
10
19088.002656474095
20
15806.518488057394
10
19088.002656474087
20
15799.217983374938
42
0.19891236738458817
10
19088.149103083491
20
15798.864429984349
10
19091.656209864686
20
15795.35732320317
42
0.19891236737556353
10
19092.009763255279
20
15795.210876593748
10
19099.310267937737
20
15795.210876593756
42
-0.19891214629345777
0
CIRCLE
5
121
100
AcDbEntity
8
0
100
AcDbCircle
10
19055.752656474087
20
15802.960876593754
30
0
40
3.3500000000010743
210
0
220
0
230
1
0
CIRCLE
5
122
100
AcDbEntity
8
0
100
AcDbCircle
10
19055.752656474087
20
15762.960876593754
30
0
40
3.3500000000010743
210
0
220
0
230
1
0
LWPOLYLINE
5
123
100
AcDbEntity
8
0
100
AcDbPolyline
90
8
70
1
43
0.0
10
19187.55265647409
20
15815.260876593757
10
19187.552656474094
20
15820.660876641434
42
-0.41421353444397774
10
19188.052656474094
20
15821.160876593758
10
19191.752656474087
20
15821.160876641434
42
-0.41421354704628122
10
19193.952656474092
20
15818.960876593756
10
19193.952656474088
20
15815.260876593757
42
-0.41421356237309503
10
19193.452656474088
20
15814.760876593757
10
19188.052655711155
20
15814.760876784485
42
-0.41421338520177176
0
LWPOLYLINE
5
124
100
AcDbEntity
8
0
100
AcDbPolyline
90
8
70
1
43
0.0
10
19043.952656474088
20
15750.660876593756
10
19043.952656474088
20
15745.26087654607
42
-0.41421353443865006
10
19043.452656474088
20
15744.760876593757
10
19039.752656474087
20
15744.760876593751
42
-0.41421356237339779
10
19037.55265647409
20
15746.96087659375
10
19037.552656474094
20
15750.660876593756
42
-0.41421356236776735
10
19038.052656474094
20
15751.160876593747
10
19043.452657237041
20
15751.160876593756
42
-0.41421311544601597
0
CIRCLE
5
125
100
AcDbEntity
8
0
100
AcDbCircle
10
19135.752656474098
20
15802.960876593754
30
0
40
3.3500000000010743
210
0
220
0
230
1
0
LWPOLYLINE
5
126
100
AcDbEntity
8
0
100
AcDbPolyline
90
8
70
1
43
0.0
10
19039.752656474087
20
15821.160876641434
10
19043.452656474088
20
15821.160876593756
42
-0.41421353444397774
10
19043.952656474088
20
15820.660876641434
10
19043.952656474106
20
15815.260876593757
42
-0.41421338519910794
10
19043.452657237041
20
15814.760876784483
10
19038.052656474094
20
15814.760876593755
42
-0.41421356237309503
10
19037.552656474094
20
15815.260876593757
10
19037.552656474094
20
15818.960876593756
42
-0.41421354704537311
0
LWPOLYLINE
5
127
100
AcDbEntity
8
0
100
AcDbPolyline
90
8
70
1
43
0.0
10
19191.752656474087
20
15744.760876593757
10
19188.052656474094
20
15744.760876593757
42
-0.41421353443865006
10
19187.552656474094
20
15745.26087654607
10
19187.552656474087
20
15750.660876593756
42
-0.41421311545800327
10
19188.052655711155
20
15751.160876593753
10
19193.452656474088
20
15751.160876593749
42
-0.41421356236776735
10
19193.952656474092
20
15750.660876593756
10
19193.952656474081
20
15746.96087659375
42
-0.41421356237370044
0
CIRCLE
5
128
100
AcDbEntity
8
0
100
AcDbCircle
10
19095.752656474087
20
15762.960876593754
30
0
40
3.3500000000010743
210
0
220
0
230
1
0
CIRCLE
5
129
100
AcDbEntity
8
0
100
AcDbCircle
10
19095.752656474087
20
15802.960876593754
30
0
40
3.3500000000010743
210
0
220
0
230
1
0
LWPOLYLINE
5
130
100
AcDbEntity
8
0
100
AcDbPolyline
90
18
70
1
43
0.0
10
19122.752656474087
20
15816.460876593756
10
19122.752656474087
20
15815.910627630128
42
0.1989121462957463
10
19124.217119560548
20
15812.375096731821
10
19126.538193387649
20
15810.054018955709
42
-0.19891214629528792
10
19128.002656474102
20
15806.518488057394
10
19128.002656474102
20
15799.403265130106
42
-0.19891214629530823
10
19126.538193387652
20
15795.86773423179
10
19117.520424930881
20
15786.84995043247
42
-0.41421406069150413
10
19113.984888017327
20
15786.849950432475
10
19104.967119560544
20
15795.867734231801
42
-0.19891214629480675
10
19103.502656474106
20
15799.403265130106
10
19103.502656474106
20
15806.518488057394
42
-0.19891214629492493
10
19104.967119560544
20
15810.054018955705
10
19107.288193387645
20
15812.375096731814
42
0.19891214629601139
10
19108.752656474098
20
15815.910627630128
10
19108.752656474102
20
15816.460876593756
42
-0.41421356237016477
10
19111.252656474091
20
15818.960876593752
10
19120.252656474087
20
15818.960876593746
42
-0.4142135623720295
0
CIRCLE
5
131
100
AcDbEntity
8
0
100
AcDbCircle
10
19175.752656474087
20
15762.960876593754
30
0
40
3.3500000000010743
210
0
220
0
230
1
0
CIRCLE
5
132
100
AcDbEntity
8
0
100
AcDbCircle
10
19175.752656474087
20
15802.960876593754
30
0
40
3.3500000000010743
210
0
220
0
230
1
0
LWPOLYLINE
5
133
100
AcDbEntity
8
0
100
AcDbPolyline
90
58
70
1
43
0.0
10
19128.659514112143
20
15772.1753396802
10
19119.641730312804
20
15781.193108136975
42
-0.41421406069018568
10
19119.641730312807
20
15784.728645050518
10
19128.65951411214
20
15793.74641350731
42
-0.19891214629404871
10
19132.195045010449
20
15795.210876593756
10
19139.495549692907
20
15795.210876593756
42
0.19891236737256687
10
19139.849103083496
20
15795.357323203161
10
19143.356209864687
20
15798.864429984351
42
0.19891236739225282
10
19143.502656474098
20
15799.217983374938
10
19143.502656474106
20
15806.518488057394
42
-0.19891214629492493
10
19144.967119560544
20
15810.054018955705
10
19147.288193387645
20
15812.375096731814
42
0.19891214629520437
10
19148.752656474106
20
15815.910627630128
10
19148.752656474087
20
15816.460876593756
42
-0.4142135623720295
10
19151.252656474091
20
15818.960876593752
10
19160.252656474087
20
15818.960876593748
42
-0.4142135623720295
10
19162.752656474091
20
15816.460876593756
10
19162.752656474087
20
15815.910627630128
42
0.19891214629539178
10
19164.217119560548
20
15812.375096731821
10
19166.538193387645
20
15810.054018955707
42
-0.19891214629601145
10
19168.002656474095
20
15806.518488057394
10
19168.002656474087
20
15799.217983374938
42
0.19891236738236784
10
19168.149103083502
20
15798.864429984351
10
19171.656209864686
20
15795.35732320317
42
0.19891236737556353
10
19172.009763255279
20
15795.210876593748
10
19179.310267937737
20
15795.210876593756
42
-0.19891214629345777
10
19182.845798836046
20
15793.746413507304
10
19185.166876612166
20
15791.4253396802
42
0.19891214629482112
10
19188.702407510471
20
15789.960876593748
10
19189.252656474087
20
15789.960876593748
42
-0.41421356237256224
10
19191.752656474091
20
15787.46087659375
10
19191.752656474091
20
15778.460876593754
42
-0.41421356237309503
10
19189.252656474087
20
15775.960876593752
10
19188.702407510467
20
15775.960876593754
42
0.19891214629303991
10
19185.166876612162
20
15774.496413507306
10
19182.845798836053
20
15772.175339680198
42
-0.19891214629345777
10
19179.310267937737
20
15770.710876593746
10
19172.009763255279
20
15770.71087659375
42
0.19891236737576626
10
19171.656209864694
20
15770.564429984344
10
19168.149103083502
20
15767.057323203153
42
0.19891236738571066
10
19168.002656474087
20
15766.703769812566
10
19168.002656474091
20
15759.403265130106
42
-0.19891214629429937
10
19166.538193387645
20
15755.867734231806
10
19164.217119560541
20
15753.546656455683
42
0.19891214629473755
10
19162.752656474091
20
15750.011125557376
10
19162.752656474091
20
15749.46087659375
42
-0.4142135623722959
10
19160.252656474087
20
15746.960876593756
10
19151.252656474091
20
15746.960876593756
42
-0.4142135623722959
10
19148.752656474091
20
15749.46087659375
10
19148.752656474091
20
15750.011125557376
42
0.19891214629618439
10
19147.288193387649
20
15753.546656455685
10
19144.967119560544
20
15755.867734231801
42
-0.19891214629480675
10
19143.502656474106
20
15759.403265130106
10
19143.502656474087
20
15766.703769812566
42
0.1989123673868925
10
19143.356209864691
20
15767.057323203157
10
19139.849103083485
20
15770.564429984352
42
0.19891236736755274
10
19139.495549692907
20
15770.710876593759
10
19132.195045010449
20
15770.710876593756
42
-0.19891214629413226
0
ENDSEC
0
SECTION
2
OBJECTS
0
DICTIONARY
5
C
100
AcDbDictionary
3
ACAD_GROUP
350
D
3
ACAD_MLINESTYLE
350
17
0
DICTIONARY
5
D
100
AcDbDictionary
0
DICTIONARY
5
1A
330
C
100
AcDbDictionary
0
DICTIONARY
5
17
100
AcDbDictionary
0
ENDSEC
0
EOF
